<!-- Generated by IcoMoon.io -->
<svg version="1.1" xmlns="http://www.w3.org/2000/svg" width="25" height="32" viewBox="0 0 25 32">
<title>computer</title>
<path d="M8.040 27.794c-2.17 0-4.339 0-6.509 0-0.469-0.141-0.776-0.444-0.917-0.917 0-0.457 0-0.917 0-1.374 0.242 0 0.493 0 0.76 0 0-0.109 0-0.202 0-0.295 0-1.010-0.008-2.016 0-3.026 0-0.57 0.287-0.99 0.784-1.135 0.166-0.049 0.343-0.061 0.521-0.069 0.44-0.008 0.881 0 1.349 0 0-1.398 0-2.768 0-4.154 0.109 0 0.194 0 0.283 0 0.396 0 0.796 0.008 1.192-0.008 0.061 0 0.158-0.036 0.182-0.085 0.109-0.214 0.202-0.432 0.311-0.679-0.909 0-1.81 0-2.731 0 0-0.634 0-1.253 0-1.883-0.493 0-0.97 0-1.442 0-0.404 0-0.752-0.145-0.982-0.481-0.093-0.129-0.145-0.283-0.214-0.42 0-2.671 0-5.345 0-8.016 0.141-0.469 0.444-0.776 0.917-0.917 1.406 0 2.812 0 4.214 0 0.57 0.19 0.917 0.55 0.917 1.184 0 2.485 0 4.978 0 7.467 0 0.695-0.477 1.172-1.18 1.192-0.408 0.008-0.824 0-1.232 0-0.073 0-0.145 0.008-0.218 0.012 0 0.38 0 0.731 0 1.111 0.097 0 0.178 0 0.263 0 0.562 0 1.131-0.008 1.693 0 0.457 0.008 0.917 0.036 1.325-0.226 0.032-0.020 0.073-0.032 0.109-0.036 0.154-0.020 0.226-0.117 0.287-0.251 0.57-1.232 1.875-1.931 3.212-1.709 0.263 0.044 0.513 0.129 0.772 0.19 0.020-0.020 0.036-0.036 0.049-0.057 0.836-1.123 2.101-1.572 3.366-1.192 1.349 0.408 2.158 1.661 2.149 2.853 0 0.069 0.081 0.158 0.145 0.202 0.275 0.178 0.558 0.335 0.836 0.509 0.049 0.032 0.105 0.085 0.154 0.093 0.493 0.008 0.99 0.008 1.491 0.008 0-1.273 0-2.525 0-3.794-0.63 0-1.24 0-1.859 0 0-0.259 0-0.489 0-0.743 0.242 0 0.477 0 0.719 0 0-0.263 0-0.501 0-0.764-0.36 0-0.703 0-1.046 0-0.731-0.008-1.204-0.469-1.204-1.204 0-1.216 0-2.424 0-3.64 0-0.121 0.012-0.242 0.036-0.36 0.117-0.465 0.453-0.703 0.881-0.844 1.907 0 3.818 0 5.725 0 0.469 0.141 0.776 0.444 0.917 0.917 0 1.406 0 2.812 0 4.214-0.311 0.743-0.582 0.921-1.41 0.921-0.283 0-0.558 0-0.836 0 0 0.271 0 0.513 0 0.772 0.25 0 0.489 0 0.727 0 0 0.259 0 0.489 0 0.743-0.622 0-1.24 0-1.883 0 0 1.523 0 3.026 0 4.545-0.598 0-1.172 0-1.754 0 0.081 0.263 0.158 0.501 0.238 0.764 0.752 0 1.503 0 2.279 0 0 1.261 0 2.501 0 3.758 0.897 0 1.774 0 2.651 0 0 2.275 0 4.554 0 6.824-2.016 0-4.032 0-6.049 0 0-2.267 0-4.529 0-6.82 0.893 0 1.762 0 2.626 0 0-1.022 0-2.016 0-3.014-0.513 0-1.010 0-1.511 0-0.020 0.061-0.036 0.121-0.057 0.178-0.283 1.228-1.297 2.077-2.562 2.085-2.804 0.020-5.604 0.012-8.408 0-1.216-0.008-2.242-0.873-2.517-2.061-0.044-0.19-0.061-0.384-0.093-0.574-0.25 0-0.481 0-0.719 0 0 1.131 0 2.25 0 3.39 0.093 0 0.178 0 0.259 0 0.634 0 1.265-0.008 1.899 0 0.764 0.008 1.22 0.469 1.228 1.232 0 1.014 0 2.028 0 3.050 0 0.081 0 0.166 0 0.275 0.271 0 0.513 0 0.76 0 0 0.42 0.012 0.808-0.008 1.196-0.012 0.311-0.141 0.586-0.384 0.776-0.145 0.117-0.331 0.19-0.501 0.287zM12.012 14.36c-0.133-0.081-0.242-0.145-0.356-0.214-1.321-0.788-2.937-0.17-3.386 1.301-0.057 0.17-0.129 0.238-0.307 0.259-1.119 0.129-1.863 1.18-1.624 2.279 0.19 0.873 0.933 1.471 1.871 1.483 1.083 0.012 2.17 0.008 3.253 0 1.709 0 3.422 0.012 5.131-0.012 0.941-0.012 1.721-0.772 1.802-1.693 0.085-0.958-0.545-1.822-1.479-2.028-0.158-0.036-0.323-0.061-0.481-0.093 0.166-1.523-0.331-2.485-1.471-2.865-0.493-0.166-0.99-0.166-1.483 0.012-0.752 0.271-1.196 0.824-1.471 1.572zM2.137 25.503c1.766 0 3.515 0 5.273 0 0.008-0.044 0.020-0.073 0.020-0.105 0-1.075 0.008-2.149 0-3.232 0-0.299-0.154-0.428-0.469-0.428-1.446 0-2.901 0-4.351 0-0.356 0-0.477 0.129-0.477 0.489 0 1.022 0 2.049 0 3.067-0.008 0.069 0.004 0.137 0.004 0.21zM17.261 8.121c0.392 0 0.76 0 1.119 0 1.564 0 3.127 0 4.699 0 0.121 0 0.242 0.032 0.242-0.17-0.008-0.82 0-1.632-0.008-2.449 0-0.271-0.141-0.396-0.42-0.404-0.206-0.008-0.408 0-0.618 0-1.503 0-3.006 0-4.517 0-0.343 0-0.493 0.109-0.501 0.396 0 0.861 0.004 1.721 0.004 2.626zM5.903 10.376c0-1.261 0-2.501 0-3.754-1.511 0-3.014 0-4.517 0 0 1.261 0 2.501 0 3.754 1.503 0 3.002 0 4.517 0zM5.915 11.172c-1.527 0-3.026 0-4.533 0 0 0.634-0.008 1.253 0.008 1.871 0.008 0.242 0.154 0.372 0.404 0.372 1.24 0.008 2.485 0.008 3.725 0 0.238 0 0.392-0.129 0.396-0.356 0.004-0.63 0-1.253 0-1.887zM23.309 21.758c-1.515 0-3.014 0-4.521 0 0 0.752 0 1.483 0 2.23 1.515 0 3.014 0 4.521 0 0-0.743 0-1.479 0-2.23zM18.788 24.776c-0.008 0.073-0.012 0.141-0.012 0.206 0 0.606 0.008 1.204-0.008 1.81-0.008 0.19 0.057 0.242 0.242 0.242 1.358-0.008 2.719-0.008 4.077-0.008 0.073 0 0.145-0.008 0.206-0.012 0-0.764 0-1.503 0-2.242-1.503 0.004-2.994 0.004-4.505 0.004zM1.394 26.291c-0.069 0.582 0.036 0.752 0.634 0.752 1.859-0.020 3.709-0.008 5.568-0.008 0.085 0 0.17 0 0.25-0.008 0.202-0.024 0.319-0.145 0.331-0.347 0.012-0.129 0-0.259 0-0.392-2.271 0.004-4.525 0.004-6.784 0.004zM23.317 8.885c-2.036 0-4.032 0-6.032 0-0.093 0.582 0.044 0.743 0.598 0.752 1.010 0 2.012 0 3.018 0 0.642 0 1.285 0 1.919 0 0.368 0 0.489-0.129 0.493-0.501 0.008-0.073 0.004-0.154 0.004-0.251zM1.374 5.83c1.523 0 3.026 0 4.541 0 0-0.129 0.008-0.242 0-0.356-0.020-0.242-0.154-0.38-0.396-0.38-1.253-0.008-2.505-0.008-3.758 0-0.238 0-0.368 0.133-0.384 0.372-0.008 0.113-0.004 0.23-0.004 0.364zM19.547 11.139c0.513 0 0.994 0 1.491 0 0-0.251 0-0.489 0-0.731-0.501 0-0.994 0-1.491 0 0 0.242 0 0.477 0 0.731z"></path>
<path d="M1.535 4.331c-0.469 0.141-0.776 0.444-0.917 0.917 0-0.307 0-0.61 0-0.917 0.303 0 0.61 0 0.917 0z"></path>
<path d="M24.073 5.248c-0.141-0.469-0.444-0.776-0.917-0.917 0.307 0 0.61 0 0.917 0 0 0.307 0 0.614 0 0.917z"></path>
<path d="M0.618 26.881c0.141 0.469 0.444 0.776 0.917 0.917-0.307 0-0.61 0-0.917 0 0-0.307 0-0.614 0-0.917z"></path>
<path d="M20.901 9.636c-1.010 0-2.012 0-3.018 0-0.549 0-0.691-0.166-0.598-0.752 1.996 0 4.004 0 6.032 0 0 0.097 0 0.17 0 0.251-0.008 0.372-0.129 0.493-0.493 0.501z"></path>
<path d="M21.038 10.408c0 0.242 0 0.481 0 0.731-0.493 0-0.978 0-1.491 0 0-0.251 0-0.489 0-0.731z"></path>
<path d="M2.901 11.911c0.501 0 0.982 0 1.483 0 0 0.242 0 0.477 0 0.731-0.493 0-0.982 0-1.483 0 0-0.238 0-0.469 0-0.731z"></path>
<path d="M22.554 23.244c-0.501 0-0.982 0-1.483 0 0-0.242 0-0.481 0-0.739 0.493 0 0.982 0 1.483 0 0 0.25 0 0.481 0 0.739z"></path>
<path d="M20.279 22.509c0 0.25 0 0.489 0 0.731-0.242 0-0.477 0-0.719 0 0-0.238 0-0.477 0-0.731 0.226 0 0.457 0 0.719 0z"></path>
<path d="M19.547 25.535c0.501 0 0.982 0 1.483 0 0 0.242 0 0.481 0 0.731-0.493 0-0.982 0-1.483 0 0-0.242 0-0.477 0-0.731z"></path>
<path d="M22.554 26.267c-0.242 0-0.477 0-0.743 0 0-0.214-0.008-0.432 0.008-0.646 0-0.036 0.073-0.093 0.117-0.093 0.202-0.012 0.404-0.008 0.622-0.008-0.004 0.259-0.004 0.493-0.004 0.747z"></path>
</svg>
