<!-- Generated by IcoMoon.io -->
<svg version="1.1" xmlns="http://www.w3.org/2000/svg" width="25" height="32" viewBox="0 0 25 32">
<title>customer-support</title>
<path d="M4.788 27.879c-0.259-0.061-0.525-0.109-0.776-0.186-2.109-0.606-3.519-2.614-3.39-4.824 0.129-2.194 1.762-4.016 3.919-4.38 0.525-0.085 1.042-0.093 1.564-0.008 0.085 0.012 0.214-0.024 0.279-0.085 2.796-2.804 5.6-5.608 8.404-8.412 0.057-0.057 0.093-0.174 0.081-0.259-0.388-2.638 1.244-4.941 3.863-5.442 0.109-0.020 0.222-0.044 0.331-0.069 0.307 0 0.618 0 0.925 0 0.174 0.036 0.343 0.069 0.513 0.105 0.19 0.044 0.384 0.081 0.457 0.303 0.069 0.226-0.057 0.376-0.202 0.525-0.739 0.731-1.467 1.467-2.206 2.198-0.105 0.097-0.125 0.186-0.081 0.319 0.186 0.529 0.364 1.059 0.537 1.596 0.044 0.137 0.109 0.198 0.238 0.238 0.517 0.166 1.042 0.331 1.552 0.517 0.166 0.061 0.259 0.032 0.376-0.093 0.739-0.752 1.487-1.491 2.23-2.238 0.125-0.125 0.259-0.214 0.448-0.154 0.186 0.061 0.259 0.202 0.295 0.376 0.024 0.129 0.061 0.255 0.093 0.376 0 0.461 0 0.925 0 1.386-0.020 0.049-0.036 0.097-0.049 0.149-0.448 2.489-2.836 4.198-5.329 3.806-0.19-0.032-0.307 0.008-0.436 0.141-0.461 0.473-0.929 0.941-1.406 1.406-0.154 0.154-0.327 0.295-0.513 0.461 0.259 0.246 0.469 0.449 0.671 0.655 0.501 0.501 0.501 0.501 0.057 1.042-0.162 0.198-0.154 0.436 0.020 0.602 0.162 0.162 0.396 0.174 0.586 0.032 0.044-0.032 0.081-0.073 0.117-0.109 0.315-0.307 0.473-0.307 0.788 0.008 1.511 1.511 3.018 3.006 4.517 4.529 0.279 0.283 0.493 0.622 0.695 0.966 0.129 0.222 0.186 0.481 0.271 0.727 0 0.412 0 0.832 0 1.244-0.020 0.049-0.036 0.097-0.057 0.149-0.327 1.147-1.055 1.911-2.186 2.279-0.129 0.044-0.259 0.073-0.396 0.109-0.339 0-0.679 0-1.018 0-0.020-0.012-0.036-0.032-0.057-0.036-0.715-0.129-1.301-0.485-1.806-0.998-1.479-1.491-2.97-2.97-4.457-4.461-0.049-0.049-0.097-0.097-0.141-0.149-0.149-0.174-0.149-0.372 0-0.541 0.081-0.093 0.178-0.174 0.246-0.271 0.125-0.166 0.093-0.408-0.049-0.549-0.149-0.149-0.396-0.174-0.574-0.049-0.057 0.036-0.105 0.093-0.154 0.141-0.303 0.295-0.461 0.295-0.76 0-0.267-0.267-0.525-0.537-0.796-0.82-0.646 0.646-1.253 1.269-1.875 1.875-0.149 0.141-0.198 0.279-0.166 0.481 0.351 2.38-1.184 4.663-3.519 5.236-0.198 0.049-0.4 0.093-0.598 0.137-0.339 0.016-0.711 0.016-1.079 0.016zM23.471 8.8c-0.032-0.024-0.069-0.057-0.097-0.081-0.036 0.073-0.061 0.166-0.117 0.226-0.59 0.598-1.188 1.188-1.774 1.786-0.174 0.174-0.343 0.226-0.578 0.141-0.719-0.246-1.442-0.493-2.162-0.719-0.214-0.069-0.331-0.198-0.4-0.4-0.226-0.707-0.461-1.418-0.707-2.121-0.093-0.259-0.036-0.449 0.162-0.642 0.602-0.586 1.188-1.184 1.782-1.774 0.057-0.057 0.105-0.109 0.154-0.174-0.012-0.020-0.020-0.036-0.032-0.057-0.295 0.032-0.598 0.036-0.893 0.093-2.242 0.461-3.56 2.477-3.107 4.727 0.044 0.214 0.012 0.384-0.149 0.541-2.945 2.945-5.883 5.883-8.824 8.824-0.149 0.149-0.307 0.19-0.505 0.149-0.21-0.036-0.424-0.081-0.634-0.097-2.489-0.21-4.598 2.057-4.21 4.529 0.356 2.25 2.428 3.733 4.659 3.333 2.194-0.388 3.624-2.545 3.147-4.756-0.049-0.238-0.008-0.424 0.174-0.602 2.921-2.913 5.842-5.83 8.756-8.752 0.178-0.178 0.352-0.226 0.598-0.174 2.057 0.444 4.061-0.764 4.626-2.78 0.109-0.404 0.166-0.812 0.133-1.224zM16.008 16.25c-1.123 1.127-2.242 2.25-3.354 3.37 0.178 0.186 0.376 0.388 0.574 0.586 0.659-0.364 1.196-0.339 1.632 0.073 0.448 0.424 0.493 0.941 0.141 1.653 1.523 1.523 3.042 3.042 4.521 4.521 1.103-1.095 2.226-2.218 3.329-3.313-1.503-1.499-3.018-3.014-4.541-4.529-0.574 0.356-1.164 0.352-1.584-0.085-0.178-0.186-0.307-0.444-0.376-0.691-0.097-0.356 0.032-0.695 0.246-0.986-0.206-0.21-0.404-0.412-0.59-0.598zM20.311 26.945c0.667 0.331 1.717 0.129 2.392-0.481 0.703-0.634 0.962-1.677 0.634-2.549z"></path>
<path d="M2.703 4.214c0.849 0.493 1.693 0.994 2.558 1.467 0.303 0.166 0.501 0.372 0.537 0.715 0.085 0.836 0.517 1.455 1.127 2.028 1.37 1.301 2.679 2.655 4.012 3.988 0.061 0.061 0.129 0.109 0.186 0.154-0.202 0.198-0.388 0.372-0.586 0.554-0.020-0.020-0.081-0.073-0.141-0.129-1.616-1.608-3.224-3.224-4.832-4.836-0.117-0.117-0.202-0.283-0.259-0.449-0.109-0.372-0.19-0.747-0.291-1.115-0.020-0.069-0.057-0.154-0.109-0.186-0.752-0.436-1.503-0.865-2.238-1.281-0.396 0.396-0.776 0.772-1.172 1.164 0.42 0.731 0.848 1.487 1.281 2.238 0.032 0.057 0.117 0.093 0.186 0.117 0.166 0.049 0.339 0.109 0.513 0.129 0.63 0.073 1.083 0.412 1.523 0.865 1.434 1.471 2.897 2.913 4.356 4.368 0.061 0.061 0.137 0.105 0.214 0.166-0.222 0.202-0.408 0.372-0.646 0.59-0.024-0.044-0.069-0.137-0.129-0.198-1.56-1.564-3.123-3.131-4.691-4.683-0.097-0.097-0.234-0.174-0.372-0.21-0.388-0.117-0.796-0.19-1.184-0.315-0.141-0.044-0.295-0.154-0.364-0.279-0.513-0.869-1.006-1.745-1.511-2.618-0.117-0.202-0.109-0.396 0.061-0.566 0.505-0.505 1.010-1.010 1.523-1.515 0.061-0.057 0.137-0.097 0.202-0.149 0.093-0.012 0.174-0.012 0.246-0.012z"></path>
<path d="M21.604 27.879c0.129-0.036 0.267-0.069 0.396-0.109 1.139-0.372 1.867-1.135 2.186-2.279 0.012-0.049 0.036-0.097 0.057-0.149 0 0.844 0 1.693 0 2.537-0.885 0-1.758 0-2.638 0z"></path>
<path d="M5.317 20.784c0.376 0 0.752 0.008 1.135 0 0.202 0 0.343 0.081 0.449 0.259 0.364 0.618 0.731 1.224 1.103 1.842 0.109 0.186 0.109 0.356-0.008 0.537-0.372 0.602-0.731 1.212-1.091 1.822-0.109 0.19-0.267 0.279-0.493 0.279-0.719-0.008-1.446-0.008-2.17 0-0.214 0-0.364-0.081-0.473-0.267-0.364-0.618-0.731-1.232-1.103-1.842-0.109-0.186-0.109-0.352 0-0.537 0.372-0.602 0.731-1.208 1.091-1.818 0.117-0.198 0.271-0.279 0.493-0.279 0.36 0.012 0.711 0.004 1.067 0.004zM5.337 24.703c0 0.008 0 0.012 0 0.024 0.238 0 0.481-0.012 0.715 0.008 0.174 0.012 0.283-0.036 0.364-0.198 0.109-0.222 0.255-0.424 0.376-0.634 0.149-0.246 0.4-0.493 0.4-0.731 0-0.255-0.255-0.505-0.4-0.76-0.162-0.271-0.271-0.642-0.513-0.776-0.246-0.141-0.63-0.049-0.95-0.049-0.315 0-0.691-0.097-0.929 0.044-0.246 0.141-0.364 0.513-0.529 0.788-0.15 0.238-0.4 0.493-0.4 0.731 0.008 0.255 0.255 0.505 0.408 0.76 0.162 0.271 0.271 0.646 0.513 0.776 0.246 0.121 0.622 0.016 0.945 0.016z"></path>
<path d="M8.368 20.618c-0.166-0.162-0.343-0.331-0.505-0.485 2.885-2.885 5.766-5.766 8.65-8.65 0.162 0.162 0.331 0.331 0.501 0.501-2.885 2.873-5.77 5.758-8.646 8.634z"></path>
<path d="M16.549 20.642c0.154-0.149 0.331-0.319 0.505-0.485 1.293 1.293 2.594 2.594 3.907 3.907-0.174 0.162-0.356 0.327-0.525 0.473-1.269-1.281-2.574-2.59-3.887-3.895z"></path>
</svg>
