<!-- Generated by IcoMoon.io -->
<svg version="1.1" xmlns="http://www.w3.org/2000/svg" width="25" height="32" viewBox="0 0 25 32">
<title>customer-service</title>
<path d="M8.121 27.754c-0.853-0.129-1.467-0.646-2.024-1.253-0.242-0.267-0.517-0.517-0.772-0.772-1.248-1.248-2.497-2.497-3.745-3.745-1.164-1.164-1.164-2.752-0.008-3.911 0.521-0.529 1.050-1.050 1.612-1.612 0.917 0.937 1.838 1.863 2.776 2.804-0.315 0.323-0.622 0.626-0.929 0.929-0.182 0.182-0.372 0.36-0.545 0.545-0.154 0.158-0.178 0.372-0.036 0.517 0.42 0.432 0.857 0.853 1.309 1.297 0.061-0.166 0.109-0.315 0.166-0.461 0.36-0.962 1.046-1.543 2.057-1.733 0.76-0.145 1.519-0.279 2.287-0.412 0.061-0.012 0.117-0.032 0.238-0.061-0.069-0.105-0.097-0.202-0.17-0.25-0.857-0.566-1.41-1.337-1.669-2.335-0.020-0.061-0.093-0.133-0.158-0.158-0.711-0.267-1.071-0.772-1.071-1.527 0-0.832 0-1.673 0-2.505 0.008-2.537 1.826-4.594 4.335-4.913 2.671-0.339 5.2 1.709 5.426 4.384 0.020 0.242 0.032 0.485 0.032 0.731 0 1.382 0 2.768 0 4.149 0 0.784-0.469 1.277-1.24 1.248-0.432-0.020-0.768 0.057-1.034 0.424-0.154 0.206-0.408 0.335-0.614 0.505-0.069 0.057-0.105 0.141-0.182 0.255 0.473 0.093 0.893 0.166 1.309 0.242 0.469 0.085 0.941 0.158 1.41 0.267 0.889 0.214 1.519 0.76 1.838 1.612 0.323 0.869 0.598 1.754 0.889 2.634 0.008 0.020 0 0.044 0 0.093-2.663 0-5.321 0-8.040 0 0.218 0.202 0.4 0.372 0.602 0.554-0.768 0.687-1.483 1.345-2.222 1.984-0.335 0.291-0.768 0.384-1.188 0.481-0.214-0.008-0.424-0.008-0.638-0.008zM9.345 22.513c0.444 0.444 0.869 0.889 1.313 1.313 0.085 0.085 0.23 0.145 0.351 0.145 2.44 0.008 4.877 0.008 7.317 0.008 0.081 0 0.158-0.008 0.263-0.012-0.19-0.566-0.352-1.103-0.545-1.624-0.255-0.699-0.76-1.115-1.495-1.253-0.796-0.145-1.6-0.287-2.396-0.436-0.141-0.024-0.226 0.008-0.323 0.105-0.444 0.448-0.889 0.893-1.337 1.337-0.049 0.049-0.109 0.097-0.17 0.154-0.505-0.509-0.998-1.010-1.495-1.495-0.069-0.069-0.202-0.117-0.291-0.097-0.816 0.133-1.628 0.279-2.444 0.436-0.723 0.141-1.216 0.562-1.471 1.253-0.081 0.218-0.166 0.444-0.218 0.671-0.020 0.081 0.020 0.206 0.073 0.267 0.182 0.206 0.384 0.388 0.578 0.586 0.303 0.303 0.444 0.311 0.768 0.020 0.501-0.453 0.998-0.909 1.523-1.378zM16.428 14.364c0-0.65 0.073-1.289-0.012-1.903-0.238-1.624-1.176-2.756-2.719-3.305-1.552-0.545-2.97-0.218-4.19 0.881-1.297 1.176-1.43 2.707-1.289 4.331 0.117-0.044 0.226-0.085 0.339-0.133 0.008-0.133 0.012-0.267 0.020-0.424 0.731 0.024 1.422-0.069 2.081-0.364 0.659-0.299 1.176-0.772 1.673-1.301 0.493 0.529 1.010 1.002 1.673 1.301s1.362 0.384 2.093 0.372c0 0.158 0 0.287 0 0.42 0.125 0.044 0.234 0.089 0.331 0.125zM12.343 17.951c0.109 0 0.19 0 0.275 0 0.707 0 1.41-0.008 2.121 0.008 0.166 0 0.255-0.049 0.303-0.194 0.085-0.263 0.226-0.517 0.242-0.78 0.049-0.772 0.049-1.543 0.057-2.323 0-0.044-0.105-0.109-0.17-0.121-0.291-0.069-0.598-0.109-0.889-0.19-0.735-0.206-1.374-0.602-1.891-1.083-0.493 0.303-0.937 0.638-1.442 0.865s-1.063 0.335-1.628 0.497c0 0.602-0.024 1.261 0.008 1.911 0.057 1.192 0.622 2.093 1.697 2.614 1.046 0.509 2.073 0.4 3.046-0.242 0.069-0.049 0.133-0.105 0.194-0.158-0.008-0.020-0.020-0.032-0.024-0.049-0.626 0-1.253 0-1.891 0-0.008-0.255-0.008-0.485-0.008-0.756zM2.21 18.525c-0.941 0.796-1.002 2.020-0.129 2.901 0.747 0.756 1.503 1.503 2.259 2.259 0.917 0.917 1.83 1.842 2.756 2.756 0.84 0.828 2.166 0.735 2.848-0.17-0.566-0.578-1.131-1.151-1.705-1.729-0.554 0.432-1.152 0.424-1.604-0.024-0.893-0.889-1.79-1.778-2.671-2.683-0.141-0.145-0.242-0.347-0.311-0.541-0.129-0.408 0.024-0.76 0.275-1.059zM8.865 23.968c0.59 0.59 1.156 1.156 1.733 1.733 0.129-0.121 0.279-0.267 0.412-0.388-0.578-0.586-1.143-1.151-1.721-1.729-0.145 0.129-0.303 0.271-0.424 0.384zM4.501 19.648c0.117-0.117 0.242-0.242 0.347-0.347-0.578-0.578-1.143-1.151-1.681-1.685-0.117 0.105-0.255 0.218-0.376 0.323zM13.463 20.044c-0.76 0.226-1.467 0.214-2.154 0.032 0.351 0.36 0.711 0.711 1.050 1.059 0.335-0.331 0.695-0.683 1.103-1.091zM15.814 17.927c0.598 0.093 0.747-0.121 0.634-0.917-0.154 0.081-0.352 0.117-0.42 0.23-0.117 0.206-0.145 0.457-0.214 0.687zM8.57 16.327c0-0.23 0-0.432 0-0.638 0-0.202 0-0.4 0-0.61-0.448 0.178-0.521 0.966 0 1.248zM16.121 15.087c0 0.412 0 0.816 0 1.228 0.497-0.279 0.432-1.038 0-1.228z"></path>
<path d="M23.127 4.392c0.057 0.024 0.105 0.057 0.158 0.081 0.436 0.19 0.707 0.509 0.719 0.99 0.020 1.038 0.020 2.081 0 3.119-0.008 0.574-0.42 0.998-0.99 1.071-0.069 0.008-0.141 0.024-0.206 0.012-0.683-0.105-1.24 0.141-1.794 0.517-0.832 0.574-1.705 1.083-2.562 1.616-0.057 0.036-0.117 0.069-0.218 0.129 0.129-0.768 0.255-1.495 0.384-2.259-0.287 0-0.562 0-0.828 0-0.865 0-1.309-0.444-1.309-1.301 0-0.853 0.020-1.705-0.008-2.554-0.024-0.699 0.226-1.192 0.913-1.418 1.911-0.004 3.826-0.004 5.741-0.004zM19.265 10.368c0.044-0.008 0.061-0.008 0.073-0.012 0.457-0.287 0.937-0.533 1.37-0.865 0.614-0.469 1.277-0.675 2.049-0.59 0.376 0.044 0.505-0.117 0.505-0.493 0-0.905 0-1.806 0-2.711 0-0.444-0.105-0.545-0.554-0.545-1.503 0-3.010 0-4.513 0-0.19 0-0.376-0.008-0.574 0-0.25 0.012-0.388 0.141-0.388 0.384-0.008 0.998-0.008 1.988 0 2.986 0 0.255 0.145 0.384 0.4 0.388 0.073 0 0.154 0 0.226 0 0.533 0 1.075 0 1.636 0-0.073 0.505-0.149 0.97-0.23 1.459z"></path>
<path d="M2.877 13.701c0.327-0.194 0.646-0.384 0.978-0.586 0.133 0.218 0.255 0.424 0.388 0.646-0.743 0.444-1.459 0.877-2.202 1.325-0.444-0.735-0.877-1.459-1.321-2.202 0.214-0.129 0.412-0.251 0.646-0.388 0.23 0.384 0.461 0.76 0.707 1.164 0.917-3.455 2.962-5.931 6.23-7.317 2.323-0.99 4.715-1.059 7.16-0.347-0.073 0.242-0.145 0.473-0.218 0.707-3.438-0.917-6.545-0.327-9.281 1.951-1.523 1.261-3.042 3.794-3.087 5.046z"></path>
<path d="M21.588 12.941c-0.214 0.351-0.42 0.695-0.646 1.063-0.214-0.129-0.42-0.242-0.646-0.384 0.444-0.735 0.877-1.467 1.321-2.21 0.743 0.444 1.467 0.881 2.202 1.325-0.133 0.226-0.263 0.432-0.388 0.646-0.364-0.218-0.707-0.42-1.083-0.646 1.075 3.644 0.473 6.954-1.818 9.988-0.214-0.17-0.396-0.323-0.598-0.481 1.337-1.697 2.073-3.612 2.17-5.754 0.073-1.273-0.178-2.873-0.513-3.547z"></path>
<path d="M8.57 16.327c-0.521-0.287-0.448-1.063 0-1.248 0 0.214 0 0.408 0 0.61 0 0.154 0 0.372 0 0.638z"></path>
<path d="M16.121 16.315c0-0.408 0-0.808 0-1.228z"></path>
<path d="M22.493 5.915c0 0.242 0 0.481 0 0.723-1.503 0-2.994 0-4.501 0 0-0.25 0-0.481 0-0.723 1.499 0 2.982 0 4.501 0z"></path>
<path d="M20.986 7.422c0 0.25 0 0.481 0 0.723-1.002 0-1.988 0-2.994 0 0-0.25 0-0.481 0-0.723 0.998 0 1.984 0 2.994 0z"></path>
<path d="M21.766 8.145c0-0.242 0-0.473 0-0.723 0.238 0 0.469 0 0.719 0 0 0.23 0 0.469 0 0.723-0.234 0-0.465 0-0.719 0z"></path>
</svg>
