<!-- Generated by IcoMoon.io -->
<svg version="1.1" xmlns="http://www.w3.org/2000/svg" width="32" height="32" viewBox="0 0 32 32">
<title>earth-grid-symbol</title>
<path d="M29.059 6.774c-0.244-0.344-0.498-0.679-0.768-1.002-2.937-3.524-7.357-5.772-12.291-5.772-0.009 0-0.016 0.001-0.024 0.001-0.005 0-0.009-0.001-0.014-0.001-0.018 0-0.036 0.002-0.055 0.002-4.897 0.028-9.278 2.269-12.198 5.77-0.269 0.324-0.524 0.658-0.768 1.002-1.849 2.609-2.94 5.791-2.94 9.226s1.091 6.617 2.94 9.226c0.244 0.344 0.499 0.679 0.768 1.002 2.919 3.501 7.3 5.742 12.198 5.77 0.019 0 0.037 0.002 0.055 0.002 0.005 0 0.009-0.001 0.014-0.001 0.008 0 0.015 0.001 0.024 0.001 4.935 0 9.354-2.247 12.292-5.771 0.269-0.323 0.524-0.659 0.768-1.003 1.849-2.609 2.94-5.791 2.94-9.226 0-3.433-1.092-6.616-2.94-9.225zM11.323 2.081c-1.47 1.419-2.693 3.492-3.535 5.981-1.128-0.421-2.144-0.929-3.020-1.503 1.717-2.039 3.974-3.609 6.555-4.478zM3.998 7.563c0.995 0.664 2.145 1.245 3.417 1.724-0.549 2.005-0.864 4.23-0.876 6.578h-5.223c0.028-3.089 1.023-5.947 2.682-8.302zM1.365 17.178h5.2c0.085 1.965 0.383 3.83 0.849 5.536-1.272 0.479-2.422 1.059-3.415 1.724-1.471-2.088-2.42-4.571-2.633-7.261zM4.772 25.438c0.876-0.572 1.889-1.079 3.014-1.5 0.842 2.489 2.065 4.562 3.536 5.98-2.58-0.868-4.833-2.442-6.551-4.48zM15.344 30.64c-2.694-0.369-5.019-3.132-6.337-7.111 1.9-0.57 4.052-0.915 6.337-0.971v8.082zM15.344 21.246c-2.41 0.058-4.682 0.43-6.706 1.051-0.414-1.573-0.679-3.299-0.759-5.119h7.464v4.068zM15.344 15.865h-7.492c0.012-2.205 0.299-4.288 0.792-6.16 2.021 0.619 4.291 0.992 6.699 1.049v5.111zM15.344 9.442c-2.284-0.056-4.435-0.4-6.333-0.97 1.317-3.977 3.641-6.743 6.333-7.112v8.082zM30.683 15.865h-5.299c-0.012-2.338-0.323-4.554-0.868-6.552 1.3-0.483 2.474-1.073 3.486-1.749 1.659 2.355 2.653 5.213 2.681 8.301zM27.23 6.56c-0.893 0.585-1.932 1.1-3.087 1.526-0.85-2.523-2.090-4.621-3.584-6.045 2.628 0.861 4.927 2.449 6.671 4.519zM16.656 1.37c2.664 0.412 4.959 3.172 6.263 7.122-1.881 0.557-4.007 0.895-6.263 0.95v-8.072zM16.656 10.754c2.38-0.056 4.625-0.421 6.627-1.027 0.491 1.867 0.776 3.942 0.787 6.138h-7.414v-5.111zM16.656 17.178h7.388c-0.079 1.812-0.343 3.53-0.754 5.098-2.005-0.608-4.253-0.972-6.633-1.029l-0.001-4.069zM16.656 30.63v-8.072c2.258 0.055 4.384 0.393 6.267 0.95-1.306 3.952-3.603 6.71-6.267 7.122zM20.559 29.959c1.493-1.423 2.736-3.52 3.586-6.044 1.153 0.425 2.19 0.94 3.082 1.524-1.744 2.070-4.040 3.659-6.668 4.52zM28.002 24.439c-1.012-0.676-2.186-1.268-3.486-1.75 0.461-1.699 0.757-3.555 0.84-5.51h5.278c-0.213 2.689-1.159 5.173-2.632 7.26z"></path>
</svg>
