<!-- Generated by IcoMoon.io -->
<svg version="1.1" xmlns="http://www.w3.org/2000/svg" width="32" height="32" viewBox="0 0 32 32">
<title>left-arrow</title>
<path d="M30.75 14.75h-26.472l4.385-4.364c0.489-0.487 0.491-1.278 0.004-1.768s-1.279-0.491-1.768-0.004l-6.532 6.5c0 0-0.001 0.001-0.001 0.001-0.488 0.487-0.49 1.281 0 1.77 0 0 0.001 0.001 0.001 0.001l6.532 6.5c0.489 0.487 1.281 0.485 1.768-0.004s0.485-1.281-0.004-1.768l-4.385-4.364h26.472c0.69 0 1.25-0.56 1.25-1.25s-0.56-1.25-1.25-1.25z"></path>
</svg>
