<!-- Generated by IcoMoon.io -->
<svg version="1.1" xmlns="http://www.w3.org/2000/svg" width="32" height="32" viewBox="0 0 32 32">
<title>menu</title>
<path d="M30.75 14.75h-29.5c-0.69 0-1.25 0.56-1.25 1.25s0.56 1.25 1.25 1.25h29.5c0.69 0 1.25-0.56 1.25-1.25s-0.56-1.25-1.25-1.25z"></path>
<path d="M30.75 4.75h-29.5c-0.69 0-1.25 0.56-1.25 1.25s0.56 1.25 1.25 1.25h29.5c0.69 0 1.25-0.56 1.25-1.25s-0.56-1.25-1.25-1.25z"></path>
<path d="M30.75 24.75h-29.5c-0.69 0-1.25 0.56-1.25 1.25s0.56 1.25 1.25 1.25h29.5c0.69 0 1.25-0.56 1.25-1.25s-0.56-1.25-1.25-1.25z"></path>
</svg>
