<!-- Generated by IcoMoon.io -->
<svg version="1.1" xmlns="http://www.w3.org/2000/svg" width="32" height="32" viewBox="0 0 32 32">
<title>moon</title>
<path fill="#fee97d" d="M30.588 13.484c-1.178-7.243-7.186-12.497-14.199-13.007-0.709-0.052-1.146 0.767-0.695 1.317 1.799 2.192 2.868 5.004 2.839 8.067-0.067 6.9-5.769 12.481-12.67 12.406-1.253-0.014-2.462-0.211-3.601-0.567-0.682-0.213-1.282 0.494-0.967 1.135 2.936 5.982 9.529 9.61 16.447 8.485 8.472-1.378 14.223-9.363 12.845-17.836z"></path>
<path fill="#fee45a" d="M2.926 25.455c1.302 0.321 2.668 0.498 4.077 0.512 9.009 0.090 16.456-6.582 16.543-14.831 0.039-3.662-3.898-9.926-3.928-10.075-1.041-0.306-2.122-0.504-3.228-0.585-0.709-0.052-1.146 0.767-0.695 1.317 1.799 2.192 2.868 5.004 2.839 8.067-0.067 6.9-5.769 12.481-12.67 12.406-1.253-0.014-2.462-0.211-3.601-0.567-0.682-0.213-1.282 0.494-0.967 1.135 0.458 0.934 1.006 1.81 1.63 2.62z"></path>
<path fill="#fee97d" d="M13.063 13.533c-0.52-0.338-0.948-0.759-1.277-1.27-0.153-0.238-0.501-0.242-0.666-0.011-0.333 0.468-0.761 0.881-1.271 1.246-0.235 0.168-0.225 0.525 0.020 0.678 0.509 0.319 0.936 0.732 1.269 1.252 0.153 0.24 0.505 0.241 0.662 0.004 0.322-0.484 0.754-0.884 1.267-1.222 0.245-0.161 0.243-0.517-0.003-0.676z"></path>
<path fill="#fee97d" d="M5.298 5.998c-0.52-0.338-0.948-0.759-1.277-1.27-0.153-0.238-0.501-0.242-0.666-0.011-0.333 0.468-0.761 0.881-1.271 1.246-0.235 0.168-0.225 0.525 0.020 0.678 0.509 0.319 0.936 0.732 1.269 1.252 0.153 0.24 0.505 0.241 0.662 0.004 0.322-0.484 0.754-0.884 1.267-1.222 0.245-0.161 0.243-0.516-0.003-0.676z"></path>
<path fill="#000" d="M10.851 20.769c-0.24 0.106-0.348 0.386-0.242 0.626 0.078 0.177 0.252 0.282 0.434 0.282 0.064 0 0.129-0.013 0.192-0.041 4.672-2.069 7.723-6.689 7.772-11.771 0.029-3.048-1.017-6.022-2.946-8.373-0.123-0.15-0.067-0.3-0.037-0.358 0.024-0.047 0.12-0.2 0.33-0.185 3.285 0.239 6.457 1.586 8.931 3.794 0.196 0.175 0.495 0.157 0.67-0.038s0.157-0.495-0.038-0.67c-2.629-2.346-6.001-3.778-9.494-4.032-0.524-0.039-1 0.228-1.242 0.694-0.239 0.461-0.183 0.996 0.146 1.396 1.788 2.179 2.758 4.936 2.731 7.762-0.046 4.711-2.875 8.995-7.208 10.913z"></path>
<path fill="#000" d="M31.056 13.408c-0.476-2.927-1.748-5.655-3.677-7.888-0.171-0.198-0.471-0.22-0.669-0.049s-0.22 0.471-0.049 0.669c1.814 2.1 3.010 4.666 3.458 7.42 0.469 2.884 0.097 5.816-1.075 8.478-1.142 2.594-2.981 4.807-5.317 6.399-0.216 0.148-0.272 0.443-0.125 0.659 0.092 0.135 0.241 0.207 0.392 0.207 0.092 0 0.185-0.027 0.267-0.082 2.483-1.693 4.437-4.044 5.651-6.801 1.246-2.83 1.642-5.947 1.143-9.012z"></path>
<path fill="#000" d="M22.037 29.435c-1.372 0.692-2.842 1.168-4.371 1.417-3.253 0.529-6.511 0-9.42-1.529-2.814-1.48-5.132-3.858-6.525-6.697-0.092-0.188 0.012-0.333 0.046-0.373 0.043-0.050 0.163-0.16 0.353-0.101 1.206 0.377 2.463 0.575 3.737 0.589 1.114 0.012 2.223-0.119 3.298-0.389 0.254-0.064 0.408-0.322 0.344-0.576s-0.322-0.408-0.576-0.344c-0.996 0.251-2.026 0.372-3.057 0.361-1.181-0.013-2.347-0.197-3.465-0.546-0.498-0.156-1.018-0.007-1.357 0.389-0.341 0.398-0.409 0.937-0.177 1.409 1.481 3.018 3.944 5.546 6.935 7.118 2.314 1.217 4.835 1.838 7.406 1.838 0.865 0 1.736-0.070 2.607-0.212 1.624-0.264 3.187-0.771 4.645-1.506 0.234-0.118 0.328-0.403 0.21-0.637s-0.403-0.328-0.637-0.21z"></path>
<path fill="#000" d="M9.616 14.577c0.458 0.287 0.835 0.659 1.121 1.105 0.158 0.247 0.428 0.397 0.723 0.399h0.008c0.293 0 0.564-0.145 0.726-0.389 0.272-0.409 0.643-0.765 1.133-1.088 0.249-0.164 0.397-0.439 0.396-0.736s-0.151-0.572-0.402-0.735c-0.467-0.303-0.849-0.682-1.136-1.129-0.156-0.243-0.423-0.392-0.713-0.399-0.291-0.006-0.568 0.131-0.738 0.369-0.294 0.414-0.685 0.795-1.16 1.134-0.24 0.171-0.378 0.45-0.369 0.746s0.163 0.565 0.412 0.721zM11.446 12.61c0.334 0.493 0.761 0.917 1.27 1.263-0.519 0.354-0.928 0.748-1.246 1.199-0.335-0.495-0.761-0.913-1.268-1.245 0.496-0.364 0.913-0.773 1.243-1.217z"></path>
<path fill="#000" d="M1.852 7.043c0.458 0.287 0.835 0.659 1.121 1.106 0.158 0.247 0.429 0.397 0.723 0.399h0.008c0.293 0 0.564-0.145 0.726-0.389 0.272-0.409 0.643-0.765 1.133-1.088 0.249-0.164 0.397-0.439 0.396-0.736s-0.151-0.572-0.402-0.735c0 0 0 0 0 0-0.467-0.303-0.849-0.682-1.136-1.129-0.157-0.243-0.423-0.392-0.713-0.399-0.292-0.006-0.568 0.131-0.738 0.369-0.294 0.414-0.685 0.795-1.16 1.134-0.24 0.171-0.378 0.45-0.369 0.746s0.163 0.565 0.412 0.721zM3.682 5.075c0.334 0.493 0.761 0.917 1.27 1.263-0.519 0.354-0.928 0.748-1.246 1.199-0.335-0.495-0.761-0.913-1.268-1.245 0.496-0.364 0.913-0.773 1.243-1.217z"></path>
<path fill="#000" d="M10.113 6.564h0.413v0.413c0 0.262 0.212 0.474 0.474 0.474s0.474-0.212 0.474-0.474v-0.413h0.413c0.262 0 0.474-0.212 0.474-0.474s-0.212-0.474-0.474-0.474h-0.413v-0.413c0-0.262-0.212-0.474-0.474-0.474s-0.474 0.212-0.474 0.474v0.413h-0.413c-0.262 0-0.474 0.212-0.474 0.474s0.212 0.474 0.474 0.474z"></path>
<path fill="#000" d="M3.976 16.228c0.262 0 0.474-0.212 0.474-0.474v-0.413h0.413c0.262 0 0.474-0.212 0.474-0.474s-0.212-0.474-0.474-0.474h-0.413v-0.413c0-0.262-0.212-0.474-0.474-0.474s-0.474 0.212-0.474 0.474v0.413h-0.413c-0.262 0-0.474 0.212-0.474 0.474s0.212 0.474 0.474 0.474h0.413v0.413c0 0.262 0.212 0.474 0.474 0.474z"></path>
</svg>
