<!-- Generated by IcoMoon.io -->
<svg version="1.1" xmlns="http://www.w3.org/2000/svg" width="25" height="32" viewBox="0 0 25 32">
<title>network</title>
<path d="M24.3 7.1c0 0.2-0.1 0.3-0.1 0.5-0.6 1.7-2.6 2.3-4 1.3-0.1 0-0.1-0.1-0.1-0.1-1.4 1.4-2.8 2.8-4.2 4.2 0.9 1.4 0.9 2.8 0 4.2 0 0 0.1 0.1 0.1 0.2 1 1 2 2 3 3 0.1 0.1 0.2 0.2 0.4 0.1 0.8-0.4 1.7-0.1 2.1 0.6s0.4 1.6-0.2 2.2c-0.6 0.6-1.5 0.6-2.2 0.2-0.7-0.5-0.9-1.4-0.5-2.1 0 0 0-0.1 0-0.1-1.1-1.1-2.2-2.2-3.3-3.3-0.4 0.3-1 0.6-1.5 0.7 0 0-0.1 0.1-0.1 0.2 0 0.9 0 1.8 0 2.7 0 0.4 0 0.9 0 1.3 0 0.1 0 0.2 0.2 0.2 1.3 0.3 2 1.4 2 2.6-0.1 1.4-1.1 2.4-2.2 2.5 0 0 0 0-0.1 0-0.2 0-0.4 0-0.6 0-0.3-0.1-0.7-0.2-1-0.4-1.1-0.8-1.6-1.8-1.5-2.8 0.2-1.1 0.9-2 2-2.2 0.1 0 0.2-0.1 0.2-0.2 0-0.4 0-0.7 0-1.1 0-1 0-1.9 0-2.9 0-0.1-0.1-0.2-0.1-0.2-0.6-0.1-1.1-0.3-1.5-0.6-1.9 1.9-3.7 3.7-5.5 5.5 0 0 0 0.1 0.1 0.1 0.5 1.2 0.1 2.6-1.1 3.3s-2.6 0.3-3.4-0.8c-0.2-0.3-0.3-0.8-0.5-1.1 0-0.2 0-0.5 0-0.7 0.1-0.4 0.2-0.8 0.5-1.2 0.9-1.2 2.5-1.4 3.7-0.5 0 0 0.1 0.1 0.1 0.1 1.8-1.8 3.6-3.6 5.4-5.4-0.5-0.6-0.7-1.3-0.7-2.1s0.2-1.5 0.7-2.1c-0.2-0.2-0.3-0.3-0.5-0.5-0.9-0.9-1.8-1.8-2.7-2.7-0.1-0.1-0.2-0.1-0.3 0-0.8 0.3-1.7 0.1-2.2-0.6-0.4-0.7-0.3-1.6 0.3-2.2s1.5-0.7 2.2-0.2c0.7 0.5 0.9 1.4 0.6 2.1 0 0 0 0.1 0 0.1 1.1 1.1 2.2 2.2 3.3 3.3 1.4-0.9 2.8-0.9 4.2 0 1.4-1.4 2.8-2.8 4.2-4.2-0.5-0.6-0.5-1.3-0.3-2 0.3-0.9 1-1.5 2-1.7 0 0 0.1 0 0.1 0 0.2 0 0.4 0 0.6 0 0 0 0.1 0 0.1 0 1 0.1 1.6 0.6 2 1.4 0.1 0.2 0.2 0.5 0.2 0.7 0.1 0.3 0.1 0.5 0.1 0.7v0zM13.1 17.6c1.4 0 2.6-1.2 2.6-2.6s-1.2-2.6-2.6-2.6c-1.4 0-2.6 1.2-2.6 2.6s1.2 2.6 2.6 2.6zM21.7 5.1c-1 0-1.7 0.8-1.7 1.7s0.8 1.7 1.7 1.7c1 0 1.7-0.8 1.7-1.7 0-1-0.7-1.7-1.7-1.7zM4.9 24.4c0-1-0.8-1.7-1.7-1.7s-1.7 0.8-1.7 1.7 0.8 1.7 1.7 1.7c0.9 0.1 1.7-0.7 1.7-1.7zM13.1 27c1 0 1.7-0.8 1.7-1.7 0-1-0.8-1.7-1.7-1.7s-1.7 0.8-1.7 1.7 0.7 1.7 1.7 1.7zM6.2 8.9c0.5 0 0.9-0.4 0.9-0.9s-0.4-0.9-0.9-0.9c-0.5 0-0.9 0.4-0.9 0.9s0.4 0.9 0.9 0.9zM20 22.7c0.5 0 0.9-0.4 0.9-0.9s-0.4-0.9-0.9-0.9c-0.5 0-0.9 0.4-0.9 0.9s0.4 0.9 0.9 0.9z"></path>
</svg>
