<!-- Generated by IcoMoon.io -->
<svg version="1.1" xmlns="http://www.w3.org/2000/svg" width="32" height="32" viewBox="0 0 32 32">
<title>ok</title>
<path d="M30.883 13.013c-0.327-0.55-0.637-1.069-0.805-1.587-0.178-0.55-0.238-1.172-0.302-1.831-0.101-1.053-0.206-2.142-0.831-3.001-0.632-0.868-1.639-1.304-2.613-1.725-0.603-0.261-1.173-0.508-1.633-0.842-0.451-0.328-0.856-0.79-1.285-1.278-0.704-0.803-1.432-1.633-2.469-1.969-0.991-0.322-2.050-0.087-3.073 0.139-0.628 0.139-1.277 0.283-1.872 0.283s-1.245-0.144-1.872-0.283c-1.023-0.227-2.082-0.461-3.073-0.139-1.036 0.336-1.764 1.167-2.469 1.969-0.429 0.489-0.833 0.95-1.285 1.278-0.159 0.116-0.34 0.227-0.554 0.341-0.228 0.122-0.315 0.406-0.193 0.634s0.406 0.315 0.634 0.193c0.253-0.135 0.47-0.269 0.664-0.41 0.535-0.39 0.994-0.913 1.438-1.418 0.649-0.74 1.262-1.439 2.053-1.696 0.749-0.243 1.639-0.046 2.581 0.163 0.677 0.15 1.377 0.305 2.075 0.305s1.398-0.155 2.075-0.305c0.942-0.209 1.832-0.406 2.581-0.163 0.791 0.257 1.404 0.956 2.053 1.696 0.444 0.506 0.902 1.028 1.438 1.418 0.544 0.396 1.189 0.675 1.812 0.945 0.898 0.389 1.747 0.756 2.228 1.417 0.475 0.652 0.563 1.569 0.656 2.539 0.065 0.68 0.133 1.383 0.343 2.030 0.2 0.617 0.552 1.207 0.891 1.777 0.506 0.851 0.985 1.655 0.985 2.508s-0.479 1.657-0.985 2.508c-0.339 0.57-0.69 1.16-0.891 1.777-0.21 0.647-0.278 1.35-0.343 2.031-0.093 0.97-0.182 1.887-0.656 2.539-0.481 0.661-1.329 1.028-2.228 1.417-0.624 0.27-1.269 0.549-1.812 0.945-0.535 0.39-0.994 0.913-1.438 1.418-0.649 0.74-1.262 1.439-2.053 1.696-0.749 0.243-1.638 0.046-2.581-0.163-0.677-0.15-1.378-0.305-2.075-0.305s-1.398 0.155-2.075 0.305c-0.942 0.209-1.832 0.406-2.581 0.163-0.791-0.257-1.404-0.956-2.053-1.696-0.444-0.506-0.902-1.028-1.438-1.418-0.544-0.396-1.189-0.675-1.812-0.945-0.898-0.389-1.747-0.756-2.228-1.417-0.475-0.652-0.563-1.569-0.656-2.539-0.065-0.68-0.133-1.383-0.343-2.030-0.2-0.617-0.551-1.207-0.891-1.777-0.507-0.851-0.985-1.655-0.985-2.508s0.479-1.657 0.985-2.508c0.339-0.57 0.69-1.16 0.891-1.777 0.21-0.647 0.278-1.351 0.343-2.031 0.093-0.97 0.182-1.887 0.656-2.539 0.273-0.376 0.683-0.687 1.328-1.009 0.232-0.116 0.326-0.397 0.21-0.629s-0.397-0.326-0.629-0.21c-0.53 0.264-1.198 0.65-1.668 1.296-0.625 0.859-0.73 1.948-0.831 3.001-0.063 0.659-0.123 1.281-0.302 1.831-0.168 0.518-0.477 1.037-0.805 1.587-0.549 0.922-1.117 1.877-1.117 2.987s0.568 2.065 1.117 2.987c0.327 0.55 0.637 1.069 0.805 1.587 0.178 0.55 0.238 1.172 0.302 1.831 0.101 1.053 0.206 2.142 0.831 3.001 0.632 0.868 1.639 1.304 2.613 1.725 0.603 0.261 1.173 0.508 1.633 0.842 0.451 0.328 0.856 0.79 1.285 1.278 0.704 0.803 1.433 1.633 2.469 1.969 0.349 0.113 0.707 0.158 1.068 0.158 0.665 0 1.342-0.15 2.005-0.297 0.628-0.139 1.277-0.283 1.872-0.283s1.244 0.144 1.872 0.283c1.023 0.227 2.081 0.461 3.073 0.139 1.036-0.336 1.764-1.166 2.469-1.969 0.429-0.489 0.834-0.95 1.285-1.278 0.46-0.335 1.030-0.581 1.633-0.842 0.974-0.422 1.982-0.857 2.613-1.725 0.625-0.859 0.73-1.948 0.831-3.001 0.063-0.659 0.123-1.281 0.302-1.831 0.168-0.517 0.477-1.037 0.805-1.587 0.549-0.923 1.117-1.877 1.117-2.987s-0.568-2.065-1.117-2.987z"></path>
<path d="M4.503 12.265c-0.133 0.41-0.381 0.827-0.644 1.268-0.451 0.758-0.918 1.542-0.918 2.467s0.467 1.709 0.918 2.467c0.263 0.441 0.511 0.858 0.644 1.268 0.142 0.436 0.19 0.936 0.241 1.465 0.083 0.865 0.169 1.76 0.691 2.476 0.526 0.723 1.354 1.081 2.155 1.428 0.484 0.21 0.942 0.408 1.307 0.673 0.358 0.26 0.683 0.631 1.027 1.023 0.579 0.66 1.177 1.342 2.041 1.622 0.293 0.095 0.592 0.132 0.893 0.132 0.547 0 1.102-0.123 1.645-0.243 0.528-0.117 1.026-0.227 1.499-0.227s0.971 0.11 1.499 0.227c0.841 0.186 1.711 0.379 2.538 0.111 0.863-0.28 1.462-0.962 2.041-1.622 0.344-0.392 0.669-0.763 1.027-1.023 0.365-0.265 0.822-0.463 1.307-0.673 0.801-0.346 1.629-0.705 2.155-1.428 0.521-0.716 0.607-1.611 0.691-2.476 0.051-0.529 0.099-1.029 0.241-1.465 0.133-0.41 0.381-0.827 0.644-1.268 0.451-0.758 0.918-1.542 0.918-2.467s-0.467-1.709-0.918-2.467c-0.263-0.441-0.511-0.858-0.644-1.268-0.142-0.436-0.19-0.936-0.241-1.465-0.083-0.865-0.169-1.76-0.691-2.476-0.526-0.723-1.354-1.082-2.155-1.428-0.484-0.21-0.942-0.408-1.307-0.673-0.358-0.26-0.683-0.631-1.027-1.023-0.579-0.66-1.177-1.342-2.041-1.622-0.827-0.268-1.697-0.076-2.538 0.111-0.528 0.117-1.026 0.227-1.499 0.227s-0.971-0.11-1.499-0.227c-0.841-0.186-1.711-0.379-2.538-0.111-0.863 0.28-1.462 0.962-2.041 1.622-0.344 0.392-0.669 0.763-1.027 1.023-0.365 0.265-0.822 0.463-1.307 0.673-0.801 0.346-1.629 0.705-2.155 1.428-0.521 0.716-0.607 1.611-0.691 2.476-0.051 0.529-0.099 1.029-0.241 1.465zM5.677 10.889c0.074-0.774 0.145-1.505 0.515-2.014 0.376-0.516 1.053-0.809 1.769-1.119 0.51-0.221 1.037-0.449 1.486-0.775 0.442-0.322 0.817-0.749 1.18-1.163 0.518-0.591 1.007-1.148 1.625-1.349 0.584-0.189 1.294-0.032 2.045 0.134 0.554 0.123 1.126 0.25 1.701 0.25s1.148-0.127 1.702-0.25c0.752-0.167 1.461-0.324 2.045-0.134 0.618 0.201 1.107 0.758 1.625 1.349 0.363 0.413 0.738 0.841 1.18 1.163 0.449 0.327 0.976 0.555 1.486 0.775 0.717 0.31 1.393 0.603 1.769 1.119 0.37 0.509 0.441 1.24 0.515 2.014 0.053 0.556 0.109 1.131 0.282 1.665 0.166 0.51 0.453 0.992 0.73 1.459 0.404 0.679 0.786 1.321 0.786 1.987s-0.382 1.308-0.786 1.987c-0.278 0.466-0.565 0.949-0.73 1.459-0.173 0.534-0.229 1.109-0.282 1.665-0.075 0.774-0.145 1.505-0.515 2.014-0.376 0.516-1.053 0.809-1.769 1.119-0.51 0.221-1.037 0.449-1.486 0.775-0.442 0.322-0.817 0.749-1.18 1.163-0.518 0.59-1.007 1.148-1.625 1.349-0.584 0.19-1.294 0.032-2.045-0.134-0.554-0.123-1.126-0.25-1.701-0.25s-1.148 0.127-1.701 0.25c-0.752 0.167-1.462 0.324-2.045 0.134-0.618-0.201-1.107-0.758-1.625-1.349-0.363-0.413-0.738-0.841-1.18-1.163-0.449-0.327-0.976-0.555-1.486-0.775-0.717-0.31-1.393-0.603-1.769-1.119-0.37-0.509-0.441-1.24-0.515-2.014-0.053-0.556-0.109-1.131-0.282-1.665-0.166-0.51-0.453-0.992-0.73-1.459-0.404-0.679-0.786-1.321-0.786-1.988s0.382-1.308 0.786-1.987c0.278-0.466 0.565-0.949 0.73-1.458 0.173-0.534 0.229-1.109 0.282-1.665z"></path>
<path d="M14.311 22.214c-0.027 0-0.055 0-0.082-0.001-0.693-0.023-1.345-0.343-1.788-0.876l-2.327-2.8c-0.516-0.621-0.431-1.545 0.19-2.061l0.652-0.542c0.621-0.516 1.545-0.431 2.061 0.19l1.172 1.411c0.066 0.079 0.15 0.094 0.194 0.095s0.129-0.007 0.2-0.082c0.004-0.004 0.008-0.008 0.012-0.012l5.988-5.842c0.269-0.279 0.63-0.438 1.018-0.447 0.39-0.010 0.762 0.134 1.045 0.403l0.614 0.585c0.584 0.557 0.607 1.485 0.050 2.069-0.003 0.003-0.007 0.007-0.010 0.010l-3.182 3.145c-0.184 0.182-0.481 0.18-0.663-0.004s-0.18-0.481 0.004-0.663l3.176-3.139c0.196-0.21 0.186-0.541-0.022-0.74l-0.614-0.585c-0.102-0.097-0.235-0.149-0.376-0.145s-0.271 0.061-0.368 0.163c-0.004 0.004-0.008 0.008-0.012 0.012l-5.988 5.842c-0.236 0.244-0.566 0.377-0.904 0.365-0.342-0.012-0.664-0.169-0.883-0.433l-1.172-1.411c-0.185-0.223-0.518-0.254-0.741-0.068l-0.652 0.542c-0.223 0.185-0.254 0.518-0.068 0.741l2.327 2.8c0.272 0.328 0.673 0.524 1.099 0.538s0.839-0.154 1.132-0.463c0.003-0.003 0.007-0.007 0.010-0.010l2.628-2.598c0.184-0.182 0.481-0.18 0.663 0.004s0.18 0.481-0.004 0.663l-2.623 2.593c-0.459 0.479-1.095 0.749-1.756 0.749z"></path>
</svg>
