<!-- Generated by IcoMoon.io -->
<svg version="1.1" xmlns="http://www.w3.org/2000/svg" width="25" height="32" viewBox="0 0 25 32">
<title>payouts</title>
<path d="M0.6 9.7c0-1.2 0-2.5 0-3.7 0 0 0-0.1 0-0.1 0.2-0.6 0.5-1 1.1-1.3 0.1-0.1 0.3-0.1 0.4-0.2 4.9 0 9.9 0 14.8 0 0 0 0 0 0 0 1.1 0.3 1.6 0.9 1.6 2 0 1.2 0 2.3 0 3.5 0 0.1 0 0.2 0 0.3 0.1 0 0.1 0 0.1 0 2.3-0.5 4.5 0.8 5 3.1 0 0.2 0.1 0.3 0.1 0.5 0 0.3 0 0.6 0 0.9 0 0.1 0 0.1 0 0.2-0.1 0.6-0.3 1.2-0.6 1.7-0.2-0.1-0.4-0.3-0.6-0.4 0.5-0.8 0.7-1.7 0.5-2.6s-0.7-1.6-1.6-2.1c-1.4-0.8-3.2-0.5-4.3 0.7-1.1 1.3-1.1 3.1 0 4.4 0.5 0.6 1.2 1 2 1.2 1.2 0.2 2.2-0.1 3-0.9 0.2 0.2 0.3 0.3 0.5 0.5-0.5 0.5-1.2 0.9-1.9 1.1s-1.4 0.2-2.2 0c0 1.3 0 2.6 0 3.9 1 0 2 0 3 0 0 0.6 0 1.2 0 1.8 0 0.1 0 0.3 0 0.4s0 0.2-0.1 0.3c-0.3 0.8-1 1.3-1.9 1.3-4.5 0-8.9 0-13.4 0-0.1 0-0.2 0-0.3 0 0 0.6 0 1.3 0 1.9-1.8 0-3.5 0-5.3 0 0-1.3 0-2.5 0-3.8 0.4 0 0.7 0 1.1 0 0-0.1 0-0.1 0-0.2-0.1-0.8-0.2-1.5-0.3-2.3-0.1-2-0.1-4.1 0.3-6.1 0-0.3 0.1-0.6 0.3-0.8 0.5-0.7 1-1.3 1.5-1.9 0.1-0.1 0.1-0.2 0.1-0.3 0-0.8 0-1.6 0-2.4 0-0.1 0-0.1 0-0.2-0.9-0.4-1.9-0.4-2.9-0.4v0zM4 5.2c0.4 0.5 0.4 1.1 0.4 1.7 0 1.5 0 2.9 0 4.3 0 0.1 0 0.2 0 0.3 0.3-0.3 0.7-0.4 1-0.2 0.8 0.2 1.1 1.2 0.6 1.9-0.4 0.6-0.9 1.3-1.4 1.9-0.2 0.3-0.3 0.5-0.3 0.9 0 0.6 0 1.2 0 1.8 0 0.5 0.3 1 0.5 1.4 0.4-0.4 0.8-0.8 1.2-1.2 0.3-0.3 0.7-0.4 1.1-0.4 0.5 0.1 0.8 0.4 0.9 0.8s0 0.9-0.3 1.2c-0.8 0.8-1.7 1.7-2.5 2.5-0.1 0.1-0.1 0.1-0.1 0.2 0 0.5 0 1.1 0 1.7 0.2 0 0.4 0 0.5 0 0.2 0 0.2 0 0.2 0.2 0 0.3 0 0.5 0 0.8 0.4-0.1 0.7-0.5 0.7-1 0-0.3 0-0.5 0-0.8 0-0.4 0-0.7 0-1.1 3.8 0 7.5 0 11.3 0 0-1.3 0-2.7 0-4 0-0.2 0-0.3-0.2-0.4-2.7-1.6-2.7-5.6 0-7.1 0.1-0.1 0.2-0.2 0.2-0.3 0-1.3 0-2.5 0-3.8 0-0.7-0.4-1.3-1.3-1.3-4.1 0-8.2 0-12.3 0 0.1 0 0 0-0.2 0v0zM20.9 22.8c-4.5 0-9 0-13.5 0 0 0.8 0.2 1.6-0.4 2.2 0.1 0 0.2 0 0.3 0 3.2 0 6.3 0 9.5 0 1 0 2 0 3 0 0.6 0 1.1-0.5 1.1-1 0-0.4 0-0.8 0-1.2zM2.7 15c-0.1 0.1-0.1 0.2-0.2 0.3-0.1 0.9-0.3 1.8-0.3 2.7 0 1.6-0.1 3.2 0.2 4.8 0.1 0.4 0.1 0.8 0.2 1.1 0.6 0 1.3 0 1.9 0 0-0.1 0-0.2 0-0.3 0-0.5 0-1 0-1.5 0-0.1 0.1-0.3 0.1-0.4 0.8-0.8 1.7-1.7 2.5-2.5 0.1-0.1 0.2-0.2 0.2-0.2 0.1-0.2 0.1-0.4 0-0.6-0.2-0.1-0.4-0.2-0.6 0-0.1 0-0.1 0.1-0.2 0.1-0.5 0.5-1 1-1.5 1.5-0.1 0.1-0.1 0.1-0.2 0.1-0.3 0-0.5 0-0.8 0-0.1-0.4 0-0.7 0.1-0.8 0-0.1-0.1-0.2-0.1-0.2-0.3-0.5-0.4-1-0.4-1.6s0-1.1 0-1.7c0-0.5 0.1-0.9 0.4-1.3 0.5-0.5 1-1.1 1.4-1.8 0.1-0.1 0.1-0.3 0.1-0.5 0-0.1-0.2-0.2-0.3-0.3-0.1 0-0.2 0-0.3 0.1l-2.2 3zM1.4 24.7c0 0.7 0 1.5 0 2.2 1.2 0 2.5 0 3.7 0 0-0.7 0-1.5 0-2.2-1.2 0-2.4 0-3.7 0zM3.6 8.9c0-0.9 0-1.8 0-2.8 0-0.1-0.1-0.3-0.1-0.4-0.2-0.4-0.7-0.6-1.2-0.5s-0.9 0.5-0.9 1c0 0.7 0 1.4 0 2.1 0 0.2 0 0.4 0 0.6 0.1 0 0.1 0 0.1 0 0.7 0 1.4 0 2.1 0v0z"></path>
<path d="M19.4 11.6c0.3 0 0.5 0 0.7 0 0 0.2 0 0.4 0 0.6 0 0.1 0 0.2 0.2 0.3 0.4 0.2 0.6 0.5 0.6 1-0.3 0-0.5 0-0.7 0 0 0 0-0.1-0.1-0.2-0.1-0.2-0.2-0.2-0.4-0.2s-0.3 0.2-0.3 0.4c0 0.2 0.1 0.3 0.3 0.4 0.1 0 0.2 0 0.2 0 0.5 0.1 0.9 0.4 1 0.9 0.1 0.4-0.1 0.9-0.5 1.2-0.1 0.1-0.2 0.2-0.2 0.3 0 0.2 0 0.4 0 0.6-0.3 0-0.5 0-0.7 0 0-0.2 0-0.4 0-0.6 0-0.1 0-0.2-0.2-0.3-0.4-0.2-0.6-0.5-0.6-1 0.2 0 0.5 0 0.7 0 0 0 0 0.1 0.1 0.1 0.1 0.2 0.2 0.3 0.4 0.2 0.2 0 0.3-0.2 0.3-0.4s-0.1-0.3-0.3-0.3c-0.1 0-0.2 0-0.3 0-0.5-0.1-0.8-0.5-0.9-0.9-0.1-0.5 0.1-0.9 0.6-1.1 0.1-0.1 0.2-0.1 0.2-0.3-0.1-0.3-0.1-0.5-0.1-0.7v0z"></path>
<path d="M22.4 13.8c0 0.2 0 0.5 0 0.7-0.2 0-0.5 0-0.7 0 0-0.2 0-0.5 0-0.7 0.2 0 0.5 0 0.7 0z"></path>
<path d="M17.9 13.8c0 0.2 0 0.5 0 0.7-0.2 0-0.5 0-0.7 0 0-0.2 0-0.5 0-0.7 0.2 0 0.5 0 0.7 0z"></path>
<path d="M16.8 5.9c0 1.6 0 3.2 0 4.8-3.7 0-7.5 0-11.2 0 0-1.6 0-3.2 0-4.8 3.7 0 7.4 0 11.2 0zM6.3 6.7c0 1.1 0 2.2 0 3.3 3.2 0 6.5 0 9.7 0 0-1.1 0-2.2 0-3.3-3.2 0-6.4 0-9.7 0z"></path>
<path d="M14.9 16.1c0 0.3 0 0.5 0 0.7-2.5 0-5 0-7.5 0 0-0.2 0-0.5 0-0.7 2.5 0 5 0 7.5 0z"></path>
<path d="M10.8 19.8c0-0.2 0-0.5 0-0.7 2 0 4 0 6 0 0 0.2 0 0.5 0 0.7-2 0-4 0-6 0z"></path>
<path d="M10.8 21.3c0-0.2 0-0.5 0-0.7 0.7 0 1.5 0 2.2 0 0 0.2 0 0.5 0 0.7-0.7 0-1.4 0-2.2 0z"></path>
<path d="M16.8 20.6c0 0.3 0 0.5 0 0.7-0.2 0-0.5 0-0.7 0-0.4 0-0.9 0-1.3 0-0.2 0-0.2 0-0.2-0.2s0-0.4 0-0.5c0.7 0 1.4 0 2.2 0z"></path>
<path d="M8.2 13.1c0.7 0 1.5 0 2.2 0 0 0.2 0 0.5 0 0.7-0.8 0-1.5 0-2.2 0 0-0.3 0-0.5 0-0.7z"></path>
<path d="M10.4 14.6c0 0.2 0 0.5 0 0.7-0.7 0-1.5 0-2.2 0 0-0.2 0-0.5 0-0.7 0.7 0 1.4 0 2.2 0z"></path>
<path d="M14.1 13.8c-0.7 0-1.5 0-2.2 0 0-0.2 0-0.5 0-0.7 0.7 0 1.5 0 2.2 0 0 0.2 0 0.4 0 0.7z"></path>
<path d="M14.1 14.6c0 0.2 0 0.5 0 0.7-0.7 0-1.5 0-2.2 0 0-0.2 0-0.5 0-0.7 0.8 0 1.5 0 2.2 0z"></path>
</svg>
