<!-- Generated by IcoMoon.io -->
<svg version="1.1" xmlns="http://www.w3.org/2000/svg" width="32" height="32" viewBox="0 0 32 32">
<title>prototyping</title>
<path d="M0.017 28.749v-24.381c0.025-0.067 0.050-0.133 0.067-0.2 0.317-1.459 1.584-2.509 3.076-2.542 1.734-0.033 3.176 1.317 3.243 3.051 0.017 0.392 0 0.784 0 1.184h12.812c0-0.892-0.008-1.759 0-2.617 0.025-1.492 1.167-2.659 2.617-2.684 1.525-0.025 2.684 1.142 2.717 2.734 0.017 0.75 0 1.5 0 2.251 0 0.108 0.008 0.217 0.017 0.342h0.375c1.267 0 2.542-0.017 3.809 0.008 1.4 0.025 2.417 0.683 3.001 1.967 0.117 0.258 0.175 0.55 0.258 0.825v20.005c-0.017 0.025-0.033 0.050-0.033 0.083-0.5 1.909-1.567 2.726-3.551 2.726h-24.898c-0.142 0-0.292 0-0.433-0.008-1.35-0.058-2.517-0.95-2.926-2.242-0.058-0.167-0.1-0.333-0.15-0.5zM19.213 6.952h-12.403c-0.4 0-0.4 0-0.4 0.408v18.471c0.008 0.142 0 0.292-0.017 0.433-0.033 0.225-0.217 0.4-0.442 0.417-0.233 0.042-0.467-0.092-0.55-0.317-0.033-0.1-0.058-0.2-0.058-0.308-0.1-1.2-1.034-2.076-2.184-2.034-1.184 0.042-2.067 0.967-2.076 2.184-0.008 0.642 0 1.292 0 1.934 0 1.384 0.9 2.284 2.292 2.284h25.282c1.409 0 2.301-0.9 2.301-2.309v-18.847c0-1.434-0.884-2.317-2.317-2.326h-4.084v0.35c0 0.909 0.008 1.809-0.008 2.717-0.017 0.208 0.083 0.4 0.258 0.508 1.575 1.109 3.134 2.234 4.71 3.351 0.242 0.15 0.383 0.417 0.375 0.7-0.008 2.742-0.008 5.476 0 8.219 0.017 0.275-0.117 0.533-0.35 0.683-2.409 1.717-4.818 3.434-7.219 5.151-0.35 0.25-0.517 0.25-0.875-0.008-2.409-1.717-4.81-3.443-7.219-5.151-0.25-0.175-0.342-0.383-0.342-0.683 0.017-0.884-0.008-1.767 0.008-2.659 0.017-0.217-0.092-0.425-0.267-0.55-1.925-1.525-3.843-3.067-5.768-4.593-0.267-0.217-0.392-0.45-0.392-0.792 0.017-1.45 0.008-2.892 0.008-4.343-0.008-0.125 0.008-0.25 0.033-0.375 0.075-0.275 0.367-0.442 0.642-0.367 0.175 0.050 0.317 0.183 0.367 0.367 0.025 0.125 0.042 0.25 0.033 0.375 0 1.342 0.008 2.684 0 4.034-0.017 0.175 0.067 0.35 0.208 0.45 1.642 1.3 3.276 2.609 4.91 3.918 0.067 0.050 0.15 0.1 0.225 0.142 0-1.284 0.008-2.526-0.008-3.759-0.008-0.35 0.117-0.575 0.4-0.784 1.575-1.109 3.134-2.234 4.71-3.351 0.158-0.117 0.233-0.233 0.225-0.433-0.017-0.458-0.008-0.917-0.008-1.375v-1.734zM5.326 23.731c0.008-0.117 0.017-0.208 0.017-0.292v-18.496c0.008-0.2-0.008-0.4-0.050-0.592-0.242-1.050-1.225-1.767-2.259-1.65-1.134 0.117-1.95 1.017-1.95 2.176v18.622c0 0.075 0.017 0.15 0.025 0.242 1.417-1.042 2.801-1.034 4.218-0.008zM14.954 20.664c0 0.634 0.008 1.2-0.008 1.759-0.008 0.2 0.067 0.317 0.233 0.433 1.834 1.3 3.659 2.609 5.493 3.918 0.408 0.292 0.809 0.575 1.209 0.867 0.058-0.033 0.092-0.058 0.125-0.075 2.209-1.575 4.426-3.159 6.627-4.743 0.108-0.1 0.175-0.233 0.183-0.383 0.008-2.217 0.008-4.434 0.008-6.652v-0.275c-0.058 0.025-0.117 0.050-0.167 0.092-1.317 0.934-2.626 1.867-3.934 2.817-0.092 0.067-0.15 0.233-0.158 0.367-0.050 0.475 0 0.975-0.133 1.417-0.458 1.534-0.984 3.051-1.484 4.568-0.192 0.584-0.558 0.884-1.075 0.875-0.5-0.008-0.85-0.3-1.042-0.875-0.425-1.3-0.842-2.609-1.292-3.909-0.233-0.667-0.392-1.334-0.325-2.042 0.025-0.225-0.075-0.358-0.25-0.483-0.892-0.625-1.784-1.267-2.676-1.901-0.425-0.308-0.859-0.608-1.325-0.942-0.008 0.092-0.017 0.125-0.017 0.158 0 1.159-0.008 2.309 0.008 3.468 0.017 0.125 0.075 0.242 0.175 0.325 0.383 0.325 0.784 0.625 1.167 0.942 0.275 0.233 0.325 0.558 0.125 0.8-0.2 0.233-0.5 0.25-0.784 0.033-0.208-0.175-0.417-0.342-0.684-0.558zM20.305 19.197h1.050v-6.652c0-0.125 0.008-0.25 0.025-0.375 0.050-0.283 0.325-0.467 0.608-0.417 0.233 0.042 0.4 0.233 0.425 0.467 0.008 0.117 0.017 0.225 0.008 0.342v6.627h1.050v-11.161c-0.35 0.017-0.675 0.017-1.059 0.017v0.367c0 0.558 0.008 1.125 0 1.684-0.008 0.358-0.2 0.575-0.508 0.584-0.317 0.008-0.542-0.217-0.55-0.584-0.008-0.375 0-0.75 0-1.125v-0.925h-1.050zM15.337 14.429c1.309 0.934 2.567 1.834 3.851 2.751v-5.501c-1.292 0.925-2.551 1.817-3.851 2.751v0zM28.441 14.429c-1.3-0.934-2.559-1.825-3.859-2.751v5.51c1.3-0.934 2.559-1.834 3.859-2.759v0zM23.473 4.81c0-0.592 0.025-1.159-0.008-1.717-0.042-0.767-0.65-1.392-1.417-1.459-0.725-0.083-1.5 0.35-1.659 1.084-0.142 0.675-0.108 1.392-0.158 2.092h3.242zM21.856 24.44c0.025 0 0.042 0 0.067 0.008 0.45-1.375 0.9-2.742 1.359-4.126h-2.776c0.45 1.392 0.9 2.759 1.35 4.118zM23.464 6.935v-1.025h-3.159v1.025z"></path>
<path d="M11.77 11.236c0.508 0 1.017-0.008 1.525 0 0.35 0.008 0.584 0.208 0.592 0.508 0.008 0.308-0.225 0.55-0.584 0.55-1.025 0.008-2.059 0.008-3.084 0-0.367 0-0.592-0.225-0.584-0.55 0.008-0.308 0.217-0.508 0.575-0.508 0.517-0.008 1.034 0 1.559 0z"></path>
<path d="M14.971 9.094c0.5 0 1-0.008 1.492 0 0.4 0.008 0.625 0.217 0.617 0.542-0.008 0.317-0.233 0.517-0.617 0.525-1.009 0.008-2.017 0.008-3.026 0-0.4 0-0.625-0.217-0.617-0.55 0.008-0.317 0.225-0.508 0.608-0.517h1.542z"></path>
<path d="M10.686 9.102c0.2 0 0.4-0.017 0.592 0 0.258 0.017 0.467 0.233 0.475 0.492 0.008 0.25-0.167 0.508-0.433 0.525-0.425 0.033-0.85 0.033-1.275 0-0.275-0.017-0.433-0.267-0.417-0.533 0-0.258 0.208-0.475 0.467-0.492 0.2 0 0.4 0.008 0.592 0.008z"></path>
</svg>
