<!-- Generated by IcoMoon.io -->
<svg version="1.1" xmlns="http://www.w3.org/2000/svg" width="25" height="32" viewBox="0 0 25 32">
<title>reward</title>
<path d="M18.606 27.535c-0.073 0-0.149 0-0.222 0-0.101-0.109-0.222-0.206-0.299-0.323-0.816-1.22-1.632-2.444-2.448-3.669-0.049-0.065-0.089-0.133-0.149-0.222-0.182 0.295-0.343 0.57-0.509 0.844-0.206 0.335-0.38 0.38-0.703 0.162-0.59-0.384-1.176-0.776-1.766-1.164-0.121-0.077-0.198-0.077-0.319 0-0.59 0.396-1.188 0.788-1.782 1.176-0.299 0.198-0.481 0.149-0.671-0.158-0.17-0.283-0.335-0.566-0.521-0.865-0.065 0.097-0.113 0.17-0.17 0.238-0.812 1.22-1.62 2.432-2.436 3.644-0.077 0.121-0.198 0.214-0.299 0.323-0.073 0-0.149 0-0.222 0-0.174-0.089-0.25-0.226-0.287-0.424-0.109-0.578-0.226-1.147-0.343-1.717-0.109-0.541-0.214-1.079-0.331-1.628-0.053 0.004-0.085 0.004-0.109 0.012-1.2 0.214-2.408 0.424-3.6 0.655-0.263 0.049-0.449-0.004-0.594-0.226 0-0.089 0-0.182 0-0.271 0.016-0.016 0.040-0.036 0.061-0.061 0.913-1.483 1.826-2.958 2.731-4.44 0.028-0.049 0.053-0.101 0.085-0.162-0.137-0.040-0.259-0.077-0.38-0.121-0.38-0.121-0.457-0.295-0.311-0.659 0.246-0.642 0.493-1.285 0.752-1.927 0.053-0.133 0.028-0.21-0.073-0.307-0.517-0.469-1.026-0.95-1.535-1.422-0.283-0.263-0.283-0.448-0.004-0.715 0.509-0.473 1.014-0.954 1.535-1.422 0.113-0.101 0.133-0.186 0.073-0.331-0.259-0.634-0.505-1.285-0.752-1.927-0.137-0.356-0.053-0.533 0.311-0.646 0.642-0.198 1.285-0.408 1.931-0.594 0.222-0.061 0.287-0.174 0.299-0.392 0.048-0.679 0.109-1.362 0.174-2.040 0.028-0.295 0.206-0.412 0.497-0.372 0.719 0.097 1.442 0.194 2.162 0.299 0.145 0.024 0.21-0.016 0.283-0.137 0.347-0.594 0.703-1.188 1.063-1.77 0.073-0.113 0.186-0.206 0.283-0.307 0.073 0 0.149 0 0.222 0 0.646 0.424 1.301 0.853 1.951 1.285 0.125 0.085 0.21 0.085 0.335 0 0.646-0.412 1.297-0.84 1.951-1.273 0.073 0 0.149 0 0.222 0 0.101 0.109 0.222 0.206 0.299 0.323 0.36 0.59 0.715 1.176 1.063 1.77 0.061 0.101 0.121 0.137 0.246 0.121 0.727-0.109 1.451-0.206 2.178-0.299 0.295-0.040 0.457 0.085 0.497 0.372 0.012 0.101 0.024 0.21 0.028 0.311 0.053 0.614 0.109 1.224 0.149 1.838 0.012 0.137 0.065 0.206 0.198 0.246 0.667 0.198 1.325 0.412 1.992 0.618 0.396 0.125 0.481 0.287 0.331 0.667-0.238 0.618-0.481 1.24-0.727 1.859-0.065 0.17-0.061 0.275 0.085 0.404 0.509 0.457 1.002 0.925 1.499 1.394 0.283 0.263 0.283 0.457 0 0.715-0.493 0.461-0.978 0.929-1.487 1.374-0.162 0.145-0.17 0.25-0.097 0.436 0.25 0.618 0.485 1.236 0.727 1.859 0.137 0.347 0.049 0.533-0.319 0.646-0.121 0.036-0.234 0.073-0.38 0.121 0.966 1.451 1.919 2.877 2.869 4.299 0 0.073 0 0.149 0 0.222-0.109 0.226-0.287 0.295-0.533 0.271-0.731-0.073-1.463-0.137-2.19-0.206-0.521-0.049-1.038-0.097-1.572-0.145-0.012 0.061-0.024 0.089-0.028 0.125-0.214 1.087-0.436 2.174-0.646 3.261-0.016 0.218-0.101 0.364-0.267 0.453zM14.444 23.531c0.040-0.061 0.077-0.109 0.109-0.158 0.343-0.566 0.683-1.127 1.014-1.697 0.121-0.198 0.271-0.283 0.505-0.238 0.222 0.040 0.444 0.065 0.667 0.097 0.493 0.065 0.99 0.133 1.507 0.198 0.061-0.715 0.121-1.41 0.182-2.101 0.024-0.295 0.097-0.392 0.38-0.481 0.436-0.137 0.869-0.271 1.309-0.408 0.246-0.077 0.493-0.158 0.752-0.238-0.263-0.671-0.517-1.321-0.764-1.968-0.113-0.287-0.089-0.392 0.133-0.602 0.214-0.206 0.436-0.408 0.659-0.614 0.299-0.283 0.602-0.558 0.905-0.844-0.533-0.497-1.050-0.978-1.568-1.459-0.222-0.206-0.246-0.311-0.137-0.602 0.065-0.17 0.133-0.335 0.198-0.505 0.186-0.485 0.38-0.974 0.57-1.475-0.707-0.222-1.394-0.436-2.081-0.646-0.234-0.073-0.347-0.21-0.36-0.448-0.028-0.42-0.065-0.832-0.101-1.253-0.024-0.287-0.053-0.578-0.085-0.869-0.121 0.012-0.21 0.024-0.295 0.036-0.622 0.085-1.248 0.162-1.871 0.259-0.238 0.036-0.396-0.048-0.517-0.259-0.234-0.404-0.473-0.8-0.715-1.196-0.125-0.21-0.251-0.42-0.384-0.642-0.529 0.347-1.055 0.646-1.531 1.022-0.412 0.323-0.743 0.311-1.152-0.004-0.473-0.372-1.002-0.671-1.519-1.014-0.053 0.085-0.101 0.158-0.145 0.222-0.319 0.533-0.642 1.063-0.954 1.604-0.125 0.214-0.283 0.311-0.533 0.271-0.295-0.053-0.594-0.085-0.889-0.125-0.42-0.053-0.84-0.113-1.277-0.174-0.061 0.727-0.125 1.422-0.182 2.113-0.016 0.251-0.125 0.396-0.372 0.469-0.541 0.162-1.075 0.331-1.608 0.497-0.149 0.049-0.307 0.101-0.461 0.158 0.259 0.659 0.505 1.297 0.743 1.931 0.133 0.335 0.109 0.42-0.158 0.671-0.505 0.469-1.010 0.937-1.556 1.446 0.073 0.053 0.137 0.089 0.198 0.137 0.457 0.42 0.913 0.844 1.37 1.273 0.259 0.238 0.275 0.331 0.149 0.655-0.246 0.642-0.497 1.285-0.752 1.939 0.097 0.028 0.17 0.061 0.246 0.085 0.614 0.194 1.232 0.392 1.842 0.578 0.222 0.065 0.335 0.206 0.347 0.436 0.012 0.222 0.028 0.448 0.053 0.671 0.040 0.485 0.085 0.966 0.133 1.451 0.065 0 0.109 0.004 0.149 0 0.667-0.089 1.337-0.182 2.004-0.283 0.238-0.036 0.404 0.036 0.521 0.246 0.162 0.275 0.331 0.554 0.497 0.828 0.206 0.335 0.408 0.679 0.618 1.026 0.602-0.396 1.188-0.768 1.758-1.164 0.246-0.17 0.448-0.162 0.695 0.004 0.574 0.384 1.164 0.76 1.749 1.143zM6.396 26.154c0.061-0.077 0.085-0.113 0.109-0.149 0.707-1.067 1.418-2.137 2.137-3.192 0.109-0.162 0.109-0.271 0.012-0.436-0.097-0.182-0.222-0.133-0.36-0.109-0.085 0.012-0.162 0.016-0.246 0.028-0.618 0.085-1.232 0.174-1.851 0.25-0.311 0.036-0.449-0.077-0.485-0.384-0.012-0.101-0.024-0.21-0.028-0.311-0.053-0.606-0.109-1.208-0.149-1.814-0.012-0.149-0.065-0.222-0.214-0.259-0.214-0.053-0.432-0.121-0.642-0.206-0.158-0.061-0.234-0.028-0.319 0.113-0.743 1.224-1.495 2.436-2.246 3.657-0.028 0.053-0.061 0.109-0.109 0.198 0.335-0.061 0.642-0.113 0.941-0.17 0.768-0.137 1.531-0.283 2.299-0.42 0.372-0.065 0.509 0.028 0.59 0.396 0.028 0.133 0.053 0.263 0.085 0.396 0.149 0.788 0.311 1.572 0.477 2.412zM18.295 26.137c0.024-0.085 0.036-0.113 0.040-0.149 0.182-0.881 0.356-1.766 0.533-2.642 0.073-0.343 0.182-0.432 0.529-0.404 0.788 0.065 1.568 0.145 2.352 0.21 0.307 0.028 0.618 0.049 0.937 0.077-0.012-0.049-0.012-0.065-0.016-0.077-0.788-1.184-1.568-2.36-2.36-3.535-0.028-0.049-0.137-0.073-0.198-0.061-0.238 0.061-0.469 0.149-0.707 0.21-0.17 0.040-0.226 0.125-0.238 0.295-0.049 0.659-0.101 1.313-0.162 1.976-0.040 0.461-0.17 0.566-0.622 0.497-0.679-0.089-1.349-0.186-2.028-0.283-0.113-0.016-0.214-0.049-0.283 0.089-0.065 0.137-0.162 0.238-0.040 0.42 0.719 1.055 1.43 2.129 2.137 3.192 0.020 0.053 0.057 0.101 0.125 0.186z"></path>
<path d="M10.061 18.315c-0.065 0.335-0.295 0.396-0.59 0.396-0.788-0.012-1.572 0-2.364-0.004-0.396 0-0.521-0.125-0.521-0.529 0-1.83 0-3.661 0-5.491 0-0.392 0.121-0.509 0.509-0.509 0.804 0 1.604 0.004 2.408 0 0.251 0 0.469 0.036 0.541 0.347 0.412-0.335 0.824-0.63 1.188-0.966 0.137-0.121 0.182-0.343 0.287-0.505 0.372-0.578 0.517-1.196 0.448-1.879-0.024-0.251-0.004-0.509-0.004-0.764 0.004-0.331 0.145-0.461 0.469-0.457 1.014 0.024 1.818 0.869 1.838 1.951 0.004 0.485 0 0.974 0 1.487 0.097 0.004 0.174 0.012 0.251 0.012 0.756 0 1.511 0 2.275 0 0.642 0 1.042 0.238 1.236 0.739 0.186 0.493 0.049 0.941-0.436 1.386 0.259 0.602 0.149 1.115-0.392 1.535 0.275 0.614 0.137 1.123-0.323 1.487 0.016 0.331 0.077 0.618 0.028 0.881-0.097 0.533-0.57 0.877-1.152 0.877-1.806 0-3.612 0-5.418 0-0.089 0.004-0.178 0.004-0.279 0.004zM15.050 15.244c0-0.263 0-0.509 0-0.768 0.089 0 0.162 0 0.234 0 0.396 0 0.792 0.004 1.196-0.004 0.101 0 0.21-0.024 0.299-0.073 0.158-0.089 0.198-0.238 0.158-0.408-0.049-0.182-0.174-0.275-0.36-0.275-0.38-0.004-0.756 0-1.147 0 0-0.271 0-0.505 0-0.768 0.182 0 0.356 0 0.521 0 0.331 0 0.659 0.004 0.99-0.004 0.238-0.004 0.408-0.186 0.404-0.396s-0.17-0.356-0.408-0.368c-0.065-0.004-0.133 0-0.206 0-0.905 0-1.814 0-2.719 0-0.38 0-0.505-0.125-0.505-0.497 0-0.251 0-0.509 0-0.764-0.004-0.412 0.004-0.828-0.028-1.236-0.036-0.42-0.36-0.776-0.743-0.865 0 0.424 0.012 0.84-0.004 1.253-0.004 0.17-0.040 0.343-0.113 0.493-0.198 0.424-0.408 0.853-0.63 1.265-0.065 0.125-0.17 0.251-0.275 0.343-0.493 0.408-0.99 0.804-1.495 1.196-0.113 0.089-0.17 0.182-0.17 0.335 0.004 1.208 0.004 2.412 0.004 3.62 0 0.073 0 0.145 0 0.222 0.125 0 0.214 0 0.307 0 1.745 0 3.495 0 5.24 0 0.065 0 0.137 0 0.206 0 0.234-0.012 0.384-0.17 0.384-0.384s-0.149-0.372-0.392-0.38c-0.307-0.004-0.614 0-0.925-0.004-0.073 0-0.145-0.004-0.21-0.012 0-0.263 0-0.505 0-0.756 0.485 0 0.954 0 1.43 0 0.295 0 0.481-0.149 0.485-0.384 0-0.234-0.182-0.384-0.481-0.384-0.347 0-0.691 0-1.046 0zM7.366 12.958c0 1.669 0 3.313 0 4.962 0.634 0 1.265 0 1.903 0 0-1.661 0-3.305 0-4.962-0.638 0-1.261 0-1.903 0z"></path>
</svg>
