<!-- Generated by IcoMoon.io -->
<svg version="1.1" xmlns="http://www.w3.org/2000/svg" width="32" height="32" viewBox="0 0 32 32">
<title>ru</title>
<path fill="#f0f0f0" d="M32 16c0 8.837-7.163 16-16 16s-16-7.163-16-16c0-8.837 7.163-16 16-16s16 7.163 16 16z"></path>
<path fill="#0052b4" d="M31.005 21.565c0.643-1.733 0.995-3.608 0.995-5.565s-0.352-3.832-0.995-5.565h-30.010c-0.643 1.733-0.995 3.608-0.995 5.565s0.352 3.832 0.995 5.565l15.005 1.391 15.005-1.391z"></path>
<path fill="#d80027" d="M16 32c6.879 0 12.744-4.342 15.005-10.435h-30.010c2.261 6.093 8.125 10.435 15.005 10.435z"></path>
</svg>
