<!-- Generated by IcoMoon.io -->
<svg version="1.1" xmlns="http://www.w3.org/2000/svg" width="32" height="32" viewBox="0 0 32 32">
<title>slack</title>
<path d="M11.791 16.868c-1.856 0-3.361 1.505-3.361 3.361v8.408c0 1.856 1.505 3.361 3.361 3.361s3.361-1.505 3.361-3.361v-8.408c-0.001-1.856-1.507-3.361-3.361-3.361z"></path>
<path d="M0.025 20.229c0 1.857 1.507 3.364 3.364 3.364s3.364-1.507 3.364-3.364v-3.364h-3.361c-0.001 0-0.001 0-0.003 0-1.857 0-3.364 1.507-3.364 3.364z"></path>
<path d="M11.795-0.001c-0.001 0-0.003 0-0.004 0-1.857 0-3.364 1.507-3.364 3.364s1.507 3.364 3.364 3.364h3.361c0-1.908 0-1.444 0-3.371-0.001-1.855-1.504-3.357-3.357-3.357z"></path>
<path d="M3.367 15.16h8.424c1.857 0 3.364-1.507 3.364-3.364s-1.507-3.364-3.364-3.364h-8.424c-1.857 0-3.364 1.507-3.364 3.364s1.507 3.364 3.364 3.364z"></path>
<path d="M28.609 8.431c-1.855 0-3.357 1.503-3.357 3.357v3.371h3.361c1.857 0 3.364-1.507 3.364-3.364s-1.507-3.364-3.364-3.364c-0.001 0-0.003 0-0.004 0z"></path>
<path d="M16.855 3.363v8.433c0 1.856 1.505 3.361 3.361 3.361s3.361-1.505 3.361-3.361v-8.433c0-1.856-1.505-3.361-3.361-3.361s-3.361 1.505-3.361 3.361z"></path>
<path d="M23.576 28.635c0-1.856-1.505-3.361-3.361-3.361h-3.361v3.364c0.001 1.855 1.505 3.359 3.361 3.359s3.361-1.505 3.361-3.361z"></path>
<path d="M28.639 16.865h-8.424c-1.857 0-3.364 1.507-3.364 3.364s1.507 3.364 3.364 3.364h8.424c1.857 0 3.364-1.507 3.364-3.364s-1.507-3.364-3.364-3.364z"></path>
</svg>
