<!-- Generated by IcoMoon.io -->
<svg version="1.1" xmlns="http://www.w3.org/2000/svg" width="32" height="32" viewBox="0 0 32 32">
<title>speed</title>
<path d="M0 16.317c0.083-0.592 0.142-1.192 0.25-1.784 0.767-4.194 2.877-7.579 6.287-10.114 3.093-2.301 6.603-3.335 10.439-3.085 4.961 0.325 8.946 2.543 11.931 6.52 1.826 2.435 2.826 5.194 3.060 8.229 0.008 0.083 0.033 0.158 0.050 0.242v1.934c-0.083 0.617-0.15 1.234-0.25 1.851-0.359 2.084-1.151 4.077-2.31 5.853-0.075 0.1-0.192 0.158-0.317 0.167-0.517 0.017-1.042 0.017-1.559 0-0.108 0-0.217-0.042-0.3-0.108-0.842-0.825-1.668-1.659-2.485-2.468 0.425-0.417 0.834-0.825 1.267-1.251 0.759 0.767 1.576 1.584 2.41 2.426 1.442-2.468 2.134-5.078 2.043-7.929h-3.302v-1.784h3.085c-0.067-1.793-1.676-5.419-2.977-6.762-0.75 0.75-1.492 1.501-2.226 2.235-0.442-0.442-0.842-0.85-1.251-1.267 0.75-0.742 1.517-1.501 2.285-2.26-1.601-2.118-7.112-4.469-9.588-4.119v3.66h-1.784v-3.677c-3.343 0.308-6.212 1.609-8.68 3.885 0.767 0.767 1.517 1.509 2.251 2.243-0.417 0.425-0.817 0.825-1.226 1.234-0.717-0.725-1.451-1.467-2.218-2.235-1.684 2.018-2.793 4.452-3.21 7.045h3.010v1.784h-3.185c-0.1 2.86 0.6 5.47 2.043 7.946 0.884-0.767 1.743-1.517 2.635-2.293 0.384 0.434 0.759 0.875 1.184 1.359-0.083 0.050-0.167 0.1-0.242 0.167-0.767 0.667-1.534 1.342-2.31 2.009-0.117 0.092-0.258 0.142-0.409 0.15-0.5 0.017-1.001 0-1.501 0.008-0.15 0.017-0.3-0.067-0.375-0.2-1.409-2.209-2.26-4.736-2.468-7.346-0.008-0.108-0.033-0.225-0.058-0.334v-1.934z"></path>
<path d="M8.888 30.683v-1.784h14.232v1.784h-14.232z"></path>
<path d="M12.698 15.35c0.2-0.2 0.384-0.367 0.575-0.559 0.425 0.309 0.859 0.617 1.284 0.925 0.617 0.442 1.226 0.892 1.851 1.334 0.1 0.067 0.217 0.117 0.334 0.133 0.725 0.1 1.234 0.759 1.134 1.484s-0.759 1.234-1.484 1.134c-0.567-0.075-1.026-0.509-1.126-1.076-0.025-0.142-0.092-0.267-0.175-0.384-0.717-0.909-1.442-1.809-2.168-2.71-0.075-0.083-0.142-0.175-0.225-0.283z"></path>
</svg>
