<!-- Generated by IcoMoon.io -->
<svg version="1.1" xmlns="http://www.w3.org/2000/svg" width="32" height="32" viewBox="0 0 32 32">
<title>sun</title>
<path fill="#ffd347" d="M25.051 16c0 4.999-4.053 9.052-9.052 9.052s-9.052-4.053-9.052-9.052c0-4.999 4.053-9.052 9.052-9.052s9.052 4.053 9.052 9.052z"></path>
<path fill="#ffbe31" d="M16 6.949c-0.328 0-0.651 0.018-0.97 0.052 4.543 0.484 8.081 4.328 8.081 8.999s-3.539 8.516-8.081 8.999c0.319 0.034 0.642 0.052 0.97 0.052 4.999 0 9.051-4.052 9.051-9.051s-4.052-9.051-9.051-9.051z"></path>
<path fill="#000" d="M16 25.535c-5.258 0-9.535-4.277-9.535-9.535 0-2.16 0.743-4.276 2.091-5.959 0.167-0.208 0.471-0.242 0.68-0.075s0.242 0.471 0.075 0.68c-1.229 1.533-1.878 3.385-1.878 5.354 0 4.724 3.844 8.568 8.568 8.568s8.568-3.843 8.568-8.568-3.843-8.568-8.568-8.568c-1.943 0-3.775 0.634-5.298 1.834-0.21 0.165-0.514 0.129-0.679-0.081s-0.129-0.514 0.081-0.679c1.695-1.335 3.734-2.041 5.896-2.041 5.258 0 9.535 4.277 9.535 9.535s-4.277 9.535-9.535 9.535z"></path>
<path fill="#000" d="M16 3.553c-0.267 0-0.484-0.216-0.484-0.484v-2.586c0-0.267 0.216-0.484 0.484-0.484s0.484 0.216 0.484 0.484v2.586c0 0.267-0.216 0.483-0.484 0.483z"></path>
<path fill="#000" d="M9.535 5.285c-0.167 0-0.33-0.087-0.419-0.242l-1.293-2.239c-0.133-0.231-0.054-0.527 0.177-0.661s0.527-0.054 0.661 0.177l1.293 2.239c0.133 0.231 0.054 0.527-0.177 0.661-0.076 0.044-0.159 0.065-0.241 0.065z"></path>
<path fill="#000" d="M4.801 10.018c-0.082 0-0.165-0.021-0.241-0.065l-2.24-1.293c-0.231-0.133-0.31-0.429-0.177-0.661s0.429-0.31 0.661-0.177l2.239 1.293c0.231 0.133 0.311 0.429 0.177 0.661-0.090 0.155-0.252 0.242-0.419 0.242z"></path>
<path fill="#000" d="M3.070 16.484h-2.586c-0.267 0-0.484-0.216-0.484-0.484s0.216-0.484 0.484-0.484h2.586c0.267 0 0.484 0.216 0.484 0.484s-0.217 0.484-0.484 0.484z"></path>
<path fill="#000" d="M2.563 24.242c-0.167 0-0.33-0.087-0.419-0.242-0.134-0.231-0.054-0.527 0.177-0.661l2.24-1.293c0.231-0.133 0.527-0.054 0.661 0.177s0.054 0.527-0.177 0.661l-2.24 1.293c-0.076 0.044-0.159 0.065-0.241 0.065z"></path>
<path fill="#000" d="M8.241 29.921c-0.082 0-0.165-0.021-0.241-0.065-0.231-0.134-0.311-0.429-0.177-0.661l1.293-2.239c0.133-0.231 0.429-0.31 0.661-0.177s0.31 0.429 0.177 0.661l-1.293 2.239c-0.090 0.155-0.252 0.242-0.419 0.242z"></path>
<path fill="#000" d="M16 32c-0.267 0-0.484-0.216-0.484-0.484v-2.586c0-0.267 0.216-0.484 0.484-0.484s0.484 0.216 0.484 0.484v2.586c0 0.267-0.216 0.484-0.484 0.484z"></path>
<path fill="#000" d="M23.759 29.921c-0.167 0-0.33-0.087-0.419-0.242l-1.293-2.239c-0.134-0.231-0.054-0.527 0.177-0.661s0.527-0.054 0.661 0.177l1.293 2.239c0.134 0.231 0.054 0.527-0.177 0.661-0.076 0.044-0.159 0.065-0.241 0.065z"></path>
<path fill="#000" d="M29.437 24.242c-0.082 0-0.165-0.021-0.241-0.065l-2.239-1.293c-0.231-0.134-0.311-0.429-0.177-0.661s0.429-0.31 0.661-0.177l2.239 1.293c0.231 0.134 0.311 0.429 0.177 0.661-0.090 0.155-0.252 0.242-0.419 0.242z"></path>
<path fill="#000" d="M31.516 16.484h-2.586c-0.267 0-0.484-0.216-0.484-0.484s0.216-0.484 0.484-0.484h2.586c0.267 0 0.484 0.216 0.484 0.484s-0.216 0.484-0.484 0.484z"></path>
<path fill="#000" d="M27.199 10.018c-0.167 0-0.33-0.087-0.419-0.242-0.134-0.231-0.054-0.527 0.177-0.661l2.239-1.293c0.231-0.133 0.527-0.054 0.661 0.177s0.054 0.527-0.177 0.661l-2.239 1.293c-0.076 0.044-0.159 0.065-0.241 0.065z"></path>
<path fill="#000" d="M22.465 5.285c-0.082 0-0.165-0.021-0.241-0.065-0.231-0.133-0.311-0.429-0.177-0.661l1.293-2.239c0.134-0.231 0.429-0.31 0.661-0.177s0.311 0.429 0.177 0.661l-1.293 2.239c-0.090 0.155-0.252 0.242-0.419 0.242z"></path>
</svg>
