<!-- Generated by IcoMoon.io -->
<svg version="1.1" xmlns="http://www.w3.org/2000/svg" width="32" height="32" viewBox="0 0 32 32">
<title>telegram</title>
<path d="M31.506 3.179c-0.391-0.478-0.976-0.741-1.649-0.741-0.365 0-0.753 0.077-1.151 0.229l-27.087 10.34c-1.438 0.549-1.631 1.372-1.619 1.814s0.252 1.253 1.719 1.719c0.009 0.003 0.018 0.005 0.026 0.008l5.619 1.608 3.039 8.689c0.414 1.185 1.344 1.92 2.427 1.92 0.683 0 1.354-0.286 1.942-0.827l3.475-3.2 5.041 4.059c0 0 0.001 0.001 0.002 0.001l0.048 0.039c0.004 0.003 0.009 0.007 0.013 0.011 0.56 0.435 1.172 0.664 1.769 0.664h0c1.167 0 2.097-0.864 2.367-2.201l4.438-21.915c0.178-0.88 0.029-1.667-0.421-2.217zM9.244 17.85l10.84-5.538-6.75 7.172c-0.111 0.117-0.189 0.261-0.228 0.418l-1.302 5.272zM13.502 26.558c-0.045 0.041-0.090 0.078-0.135 0.112l1.208-4.891 2.197 1.769zM30.089 5.023l-4.438 21.915c-0.043 0.21-0.179 0.698-0.53 0.698-0.173 0-0.391-0.094-0.614-0.266l-5.712-4.599c-0.001-0.001-0.002-0.001-0.003-0.002l-3.399-2.737 9.761-10.372c0.313-0.332 0.341-0.841 0.067-1.205s-0.77-0.479-1.176-0.272l-16.054 8.202-5.695-1.629 27.079-10.337c0.229-0.087 0.388-0.106 0.482-0.106 0.057 0 0.159 0.007 0.197 0.053 0.050 0.061 0.113 0.268 0.035 0.657z"></path>
</svg>
