<!-- Generated by IcoMoon.io -->
<svg version="1.1" xmlns="http://www.w3.org/2000/svg" width="32" height="32" viewBox="0 0 32 32">
<title>vector</title>
<path fill="#40975f" d="M31.629 2.166c-0.099 0.222-0.173 0.461-0.288 0.675-0.478 0.865-1.565 1.186-2.43 0.717-0.173-0.099-0.329-0.222-0.47-0.371-0.14-0.156-0.214-0.371-0.338-0.544-0.049-0.074-0.14-0.165-0.214-0.165-1.977-0.008-3.945-0.008-5.955-0.008 0.42 0.239 0.815 0.445 1.186 0.684 0.717 0.461 1.433 0.923 2.125 1.417 0.371 0.264 0.42 0.642 0.181 0.931s-0.601 0.305-0.955 0.016c-1.417-1.153-3.031-1.919-4.777-2.422-0.651-0.189-1.31-0.362-2.010-0.552 0 0.247 0.008 0.412 0 0.577-0.016 0.395-0.247 0.642-0.634 0.651-0.815 0.008-1.623 0.008-2.438 0-0.371-0.008-0.61-0.255-0.626-0.626-0.008-0.173 0-0.346 0-0.568-2.471 0.511-4.753 1.326-6.729 2.883-0.165 0.132-0.362 0.222-0.568 0.255-0.264 0.025-0.461-0.148-0.552-0.412-0.099-0.247-0.008-0.535 0.214-0.684 0.692-0.478 1.384-0.955 2.092-1.417 0.404-0.255 0.824-0.478 1.268-0.725-0.082-0.008-0.156-0.016-0.222-0.016-1.862 0-3.723 0-5.585-0.008-0.189 0-0.297 0.041-0.371 0.222-0.527 1.244-2.15 1.409-2.965 0.494-0.247-0.28-0.354-0.684-0.527-1.030v-0.618c0.181-0.791 0.692-1.31 1.507-1.524h0.618c0.667 0.189 1.186 0.56 1.433 1.219h10.354c0.016-0.461-0.099-0.964 0.437-1.219h2.842c0.544 0.255 0.412 0.782 0.437 1.227h10.354c0.255-0.675 0.766-1.046 1.433-1.227h0.618c0.815 0.214 1.326 0.733 1.54 1.54 0.016 0.214 0.016 0.42 0.016 0.626zM16.432 1.26h-1.211v1.194h1.211v-1.194zM2.471 1.845c-0.008-0.329-0.28-0.601-0.61-0.61-0.346 0-0.618 0.28-0.618 0.626 0.008 0.329 0.28 0.601 0.61 0.61 0.338 0 0.618-0.272 0.618-0.61 0-0.008 0-0.008 0-0.016zM29.784 2.471c0.346-0.016 0.61-0.297 0.61-0.642-0.008-0.338-0.288-0.618-0.626-0.61s-0.618 0.288-0.61 0.626c0 0.346 0.28 0.626 0.626 0.626v0z"></path>
<path fill="#40975f" d="M0 14.151c0.239-0.346 0.239-0.346 1.318-0.453 0.173-0.733 0.288-1.474 0.527-2.183 0.321-0.947 0.733-1.87 1.128-2.792 0.173-0.404 0.544-0.535 0.881-0.362 0.321 0.165 0.404 0.552 0.239 0.939-0.387 0.939-0.791 1.87-1.137 2.817-0.181 0.494-0.247 1.038-0.371 1.598 0.206 0 0.371-0.008 0.527 0 0.338 0.025 0.585 0.255 0.593 0.593 0.016 0.857 0.008 1.705 0 2.562 0.008 0.329-0.255 0.601-0.585 0.61-0.008 0-0.016 0-0.025 0-0.824 0.008-1.647 0-2.471 0-0.305 0-0.478-0.198-0.626-0.428 0-0.964 0-1.936 0-2.899zM2.471 15.040h-1.211v1.186h1.211v-1.186z"></path>
<path fill="#40975f" d="M31.629 17.050c-0.181 0.329-0.461 0.453-0.84 0.437-0.708-0.025-1.417-0.008-2.125-0.008-0.511 0-0.733-0.231-0.741-0.733v-2.224c0-0.61 0.198-0.807 0.815-0.815 0.091 0 0.181-0.008 0.28-0.016-0.206-1.425-0.642-2.8-1.301-4.077-0.066-0.132-0.14-0.255-0.198-0.379-0.157-0.362-0.033-0.75 0.288-0.898s0.675-0.025 0.84 0.346c0.371 0.84 0.766 1.68 1.054 2.553 0.264 0.783 0.412 1.606 0.626 2.455 0.42 0.058 1.005-0.173 1.301 0.437v2.924zM30.377 15.032h-1.194v1.194h1.194v-1.194z"></path>
<path fill="#fff" d="M31.629 1.549c-0.214-0.815-0.733-1.326-1.54-1.54h1.54v1.54z"></path>
<path fill="#40975f" d="M20.139 27.956v3.179c0 0.593-0.206 0.807-0.791 0.807h-7.075c-0.568 0-0.783-0.214-0.783-0.782v-3.204c-0.074-0.033-0.14-0.066-0.214-0.107-1.26-0.659-1.392-2.413-0.222-3.229 0.206-0.14 0.206-0.247 0.132-0.445-0.692-1.837-1.367-3.674-2.067-5.51-0.115-0.264-0.099-0.577 0.058-0.824 0.494-0.89 0.98-1.787 1.466-2.677 1.095-2.026 2.191-4.044 3.287-6.071 0.428-0.799 0.848-1.59 1.277-2.397 0.132-0.255 0.297-0.445 0.61-0.453 0.321-0.008 0.494 0.198 0.634 0.461 1.425 2.636 2.858 5.272 4.291 7.916 0.585 1.071 1.153 2.158 1.738 3.229 0.14 0.255 0.165 0.56 0.049 0.824-0.692 1.837-1.376 3.674-2.067 5.51-0.074 0.206-0.066 0.305 0.132 0.445 1.153 0.799 1.038 2.553-0.206 3.212-0.082 0.033-0.157 0.074-0.247 0.115zM10.56 18.903c0.008 0.049 0.016 0.107 0.033 0.157 0.626 1.672 1.252 3.344 1.87 5.024 0.074 0.198 0.198 0.198 0.354 0.198 1.993 0 3.995-0.008 5.988 0 0.214 0 0.321-0.049 0.404-0.264 0.593-1.623 1.203-3.237 1.796-4.851 0.025-0.074 0.041-0.157 0.074-0.255h-0.297c-0.42 0-0.84 0.008-1.268-0.008-0.329 0-0.601-0.264-0.601-0.593 0-0.008 0-0.016 0-0.025 0-0.338 0.272-0.61 0.61-0.61 0.14-0.008 0.288 0 0.428 0h1.005c-1.507-2.784-2.982-5.502-4.448-8.229-0.016 0.008-0.041 0.016-0.058 0.025v7.067c0.066 0.033 0.132 0.066 0.189 0.099 0.923 0.453 1.301 1.565 0.848 2.479-0.453 0.923-1.565 1.301-2.479 0.848-0.486-0.239-0.84-0.675-0.98-1.203-0.222-0.84 0.173-1.713 0.947-2.1 0.173-0.091 0.231-0.181 0.231-0.371-0.008-2.191-0.008-4.382-0.008-6.573v-0.231c-0.025-0.008-0.041-0.016-0.066-0.016-1.474 2.726-2.949 5.461-4.431 8.196 0.033 0.008 0.074 0.016 0.107 0.025h1.17c0.47 0 0.758 0.239 0.75 0.626-0.008 0.371-0.288 0.61-0.741 0.61-0.461-0.025-0.923-0.025-1.425-0.025zM12.742 30.69h6.145v-2.619h-6.145v2.619zM15.798 26.811h3.575c0.437 0 0.75-0.272 0.758-0.667 0.008-0.379-0.28-0.634-0.741-0.634h-7.158c-0.453 0-0.733 0.231-0.741 0.601-0.008 0.395 0.313 0.692 0.758 0.692 1.186 0.008 2.372 0.008 3.55 0.008v0zM16.432 18.286c-0.008-0.329-0.272-0.601-0.601-0.61-0.346 0-0.626 0.272-0.626 0.618 0 0.329 0.272 0.601 0.601 0.61 0.346 0 0.626-0.272 0.626-0.618v0z"></path>
<path fill="#40975f" d="M4.967 6.244c0.338 0.016 0.61 0.305 0.593 0.642s-0.305 0.61-0.642 0.593-0.61-0.305-0.593-0.642c0-0.008 0-0.008 0-0.016 0.033-0.329 0.313-0.577 0.642-0.577z"></path>
<path fill="#40975f" d="M26.679 6.244c0.338-0.008 0.618 0.264 0.626 0.601s-0.264 0.618-0.601 0.626c-0.338 0.008-0.618-0.264-0.626-0.601 0-0.008 0-0.008 0-0.016 0.008-0.329 0.272-0.601 0.601-0.61z"></path>
</svg>
