<!-- Generated by IcoMoon.io -->
<svg version="1.1" xmlns="http://www.w3.org/2000/svg" width="25" height="32" viewBox="0 0 25 32">
<title>web-design</title>
<path d="M23.984 11.547c0 5.063 0 10.121 0 15.184-0.141 0.497-0.461 0.812-0.954 0.954-6.881 0-13.758 0-20.638 0-0.057-0.020-0.117-0.036-0.17-0.049-0.711-0.19-1.184-0.618-1.418-1.313-0.032-0.093-0.061-0.182-0.093-0.275 0-6.667 0-13.333 0-20 0.129-0.449 0.291-0.885 0.687-1.16 0.291-0.198 0.63-0.319 0.954-0.477 3.556 0 7.123 0 10.679 0 0.012 0.012 0.024 0.024 0.036 0.032 1.107 0.303 1.608 0.958 1.608 2.105 0 1.273 0 2.545 0 3.818 0 0.081 0.004 0.158 0.012 0.263 0.121 0 0.218 0 0.315 0 2.558 0 5.123 0 7.681 0 0.699 0 1.042 0.242 1.277 0.897-0.004 0 0.012 0.008 0.024 0.020zM10.024 19.139c0 2.4 0 4.8 0 7.208 0 0.457 0.109 0.558 0.562 0.558 4.012 0 8.032 0 12.040 0 0.469 0 0.582-0.109 0.582-0.57 0-4.796 0-9.588 0-14.384 0-0.448-0.109-0.558-0.57-0.558-4.024 0-8.044 0-12.069 0-0.448 0-0.554 0.101-0.554 0.545 0.008 2.4 0.008 4.8 0.008 7.2zM9.232 23.794c0-0.659 0-1.293 0-1.931-0.226 0-0.424 0-0.63 0-0.61 0-0.901-0.291-0.901-0.905 0-1.192 0-2.396 0-3.588 0-0.659 0.279-0.933 0.937-0.933 0.202 0 0.4 0 0.594 0 0-0.541 0-1.038 0-1.556-0.105 0-0.194 0-0.287 0-1.814 0-3.62 0-5.43 0-0.554 0-0.861-0.299-0.861-0.832-0.008-1.265-0.008-2.525 0-3.794 0-0.485 0.319-0.8 0.8-0.8 2.824 0 5.649 0 8.473 0 0.461 0 0.772 0.299 0.8 0.752 0.004 0.125 0 0.255 0 0.388 0.404 0 0.776 0 1.143 0 0-0.776 0-1.539 0-2.303-4.133 0-8.246 0-12.376 0 0 5.168 0 10.335 0 15.495 2.59 0.008 5.152 0.008 7.737 0.008zM13.899 7.499c0-0.396 0.004-0.772 0-1.143-0.012-0.663-0.505-1.164-1.172-1.164-3.358-0.008-6.707-0.008-10.069 0-0.594 0-1.083 0.408-1.143 0.986-0.048 0.428-0.012 0.873-0.012 1.321 4.121 0 8.242 0 12.396 0zM9.232 26.129c-0.093 0-0.17 0-0.255 0-1.006 0-2.012 0-3.018 0-0.061 0-0.121 0-0.182 0-0.25-0.012-0.412-0.174-0.408-0.396 0.004-0.218 0.17-0.376 0.424-0.376 1.063 0 2.121 0 3.184 0 0.085 0 0.174 0 0.259 0 0-0.279 0-0.517 0-0.764-2.582 0-5.152 0-7.745 0 0 0.352 0 0.691 0 1.026 0 0.804 0.481 1.285 1.285 1.285 2.097 0 4.194 0 6.291 0 0.077 0 0.158 0 0.226 0-0.028-0.275-0.044-0.509-0.061-0.776zM11.947 10.242c-2.844 0-5.673 0-8.505 0 0 1.285 0 2.558 0 3.867 0.085-0.081 0.145-0.133 0.198-0.194 0.764-0.764 1.535-1.535 2.295-2.299 0.307-0.307 0.465-0.307 0.784 0 0.4 0.4 0.8 0.808 1.208 1.212 0.404-0.384 0.792-0.739 1.176-1.103 0.032-0.032 0.073-0.057 0.097-0.097 0.032-0.049 0.061-0.101 0.077-0.158 0.19-0.566 0.57-0.853 1.164-0.869 0.368-0.004 0.739 0 1.115 0 0.129 0 0.251 0 0.384 0 0.008-0.129 0.008-0.234 0.008-0.36zM4.646 14.085c1.119 0 2.263 0 3.39 0-0.57-0.57-1.139-1.139-1.693-1.689zM8.493 17.224c0 1.305 0 2.578 0 3.851 0.259 0 0.497 0 0.739 0 0-1.293 0-2.566 0-3.851-0.255 0-0.493 0-0.739 0zM8.545 13.321c0.242 0.246 0.473 0.485 0.687 0.703 0-0.404 0-0.848 0-1.337-0.263 0.246-0.497 0.465-0.687 0.634z"></path>
<path d="M11.96 22.638c0 0.097 0 0.182 0 0.259 0 0.541 0 1.075 0 1.612 0 0.287-0.141 0.444-0.372 0.448-0.242 0.008-0.4-0.158-0.4-0.448-0.008-0.614-0.008-1.224 0-1.842 0.004-0.497 0.327-0.804 0.82-0.804 0.606-0.008 1.212 0 1.818 0 0.283 0 0.465 0.154 0.465 0.38s-0.178 0.388-0.461 0.388c-0.618 0.008-1.232 0.008-1.871 0.008z"></path>
<path d="M11.96 18.372c0 0.594 0 1.151 0 1.709 0 0.097 0.004 0.202-0.012 0.299-0.032 0.198-0.158 0.307-0.36 0.315s-0.335-0.093-0.384-0.287c-0.016-0.073-0.024-0.154-0.024-0.226 0-0.57 0-1.131 0-1.705 0-0.578 0.307-0.885 0.885-0.885 0.586 0 1.184-0.004 1.77 0 0.327 0 0.521 0.242 0.42 0.517-0.065 0.186-0.214 0.263-0.404 0.263-0.541 0-1.075 0-1.612 0-0.081 0-0.166 0-0.279 0z"></path>
<path d="M11.96 14.101c0 0.602 0 1.16 0 1.717 0 0.097 0 0.202-0.012 0.295-0.032 0.202-0.166 0.311-0.36 0.315s-0.335-0.093-0.384-0.291c-0.016-0.073-0.016-0.154-0.016-0.222 0-0.57-0.008-1.135 0-1.705 0-0.578 0.315-0.881 0.885-0.885 0.586 0 1.184-0.008 1.77 0 0.335 0.004 0.529 0.267 0.412 0.537-0.073 0.178-0.218 0.238-0.404 0.238-0.541 0-1.075 0-1.612 0-0.085 0-0.166 0-0.279 0z"></path>
<path d="M13.83 23.984c0.162-0.242 0.303-0.461 0.448-0.675 0.279-0.412 0.55-0.832 0.828-1.244 0.145-0.214 0.364-0.267 0.545-0.145 0.186 0.121 0.238 0.352 0.105 0.558-0.505 0.764-1.006 1.527-1.523 2.283-0.17 0.25-0.416 0.267-0.638 0.057-0.242-0.238-0.485-0.481-0.719-0.723-0.17-0.174-0.174-0.412-0.020-0.562 0.162-0.158 0.384-0.158 0.566 0.024 0.133 0.129 0.255 0.271 0.408 0.428z"></path>
<path d="M13.818 19.729c0.121-0.182 0.214-0.315 0.303-0.457 0.327-0.493 0.655-0.982 0.982-1.475 0.145-0.214 0.36-0.267 0.545-0.145 0.194 0.121 0.238 0.356 0.093 0.578-0.497 0.752-0.994 1.495-1.495 2.242-0.182 0.271-0.432 0.291-0.667 0.065-0.238-0.23-0.473-0.465-0.703-0.707-0.174-0.182-0.182-0.408-0.024-0.566s0.38-0.158 0.562 0.020c0.141 0.133 0.259 0.279 0.404 0.444z"></path>
<path d="M13.818 15.455c0.073-0.101 0.121-0.17 0.162-0.234 0.364-0.545 0.727-1.099 1.091-1.644 0.17-0.251 0.396-0.315 0.594-0.174 0.194 0.133 0.218 0.356 0.053 0.598-0.485 0.727-0.97 1.463-1.459 2.19-0.202 0.295-0.444 0.319-0.699 0.073-0.222-0.222-0.448-0.448-0.671-0.675-0.19-0.194-0.206-0.416-0.049-0.582 0.162-0.17 0.4-0.158 0.598 0.040 0.129 0.125 0.246 0.259 0.38 0.408z"></path>
<path d="M18.776 13.721c0.424 0 0.849 0 1.273 0 0.279 0 0.436 0.145 0.436 0.384 0 0.23-0.166 0.388-0.436 0.388-0.865 0.004-1.741 0.004-2.606 0-0.267 0-0.436-0.158-0.44-0.388 0-0.23 0.17-0.384 0.436-0.388 0.448 0.004 0.897 0.004 1.337 0.004z"></path>
<path d="M18.752 17.988c0.432 0 0.861 0 1.293 0 0.279 0 0.436 0.141 0.44 0.376 0.008 0.242-0.162 0.396-0.448 0.4-0.861 0.004-1.721 0.004-2.59 0-0.279 0-0.457-0.17-0.448-0.408 0.008-0.222 0.178-0.368 0.457-0.368 0.432 0 0.865 0 1.297 0z"></path>
<path d="M18.727 23.022c-0.436 0-0.881 0.008-1.317 0-0.198-0.008-0.352-0.097-0.396-0.311-0.036-0.174 0.024-0.319 0.178-0.404 0.073-0.040 0.17-0.061 0.259-0.061 0.861-0.008 1.721-0.008 2.582 0 0.287 0 0.44 0.141 0.448 0.372 0.008 0.242-0.158 0.4-0.44 0.4-0.44 0.012-0.877 0.012-1.313 0.004v0z"></path>
<path d="M20.093 16.040c-0.242 0-0.485 0.008-0.719 0-0.263-0.004-0.436-0.17-0.424-0.4 0.004-0.218 0.174-0.372 0.424-0.376 0.489-0.004 0.982-0.004 1.471 0 0.263 0 0.416 0.145 0.424 0.376 0.008 0.234-0.158 0.388-0.416 0.4-0.008 0-0.012 0-0.024 0-0.25 0-0.493 0-0.735 0z"></path>
<path d="M20.113 19.539c0.242 0 0.485-0.004 0.719 0 0.263 0.008 0.42 0.145 0.42 0.372 0.004 0.226-0.154 0.396-0.4 0.4-0.501 0.004-1.014 0.004-1.515 0-0.242-0.008-0.412-0.182-0.408-0.4 0.004-0.214 0.17-0.364 0.408-0.372 0.263-0.008 0.525 0 0.776 0z"></path>
<path d="M20.097 23.806c0.246 0 0.497-0.004 0.752 0 0.259 0.008 0.412 0.154 0.412 0.384 0 0.222-0.158 0.384-0.412 0.388-0.493 0.008-0.982 0.008-1.479 0-0.263-0.004-0.436-0.174-0.432-0.4 0.008-0.218 0.17-0.364 0.432-0.372 0.012 0 0.032 0 0.040 0 0.234 0 0.461 0 0.687 0z"></path>
<path d="M21.867 17.988c0.376 0 0.558 0.113 0.566 0.368 0.008 0.263-0.19 0.4-0.566 0.4-0.093 0-0.182 0.004-0.275-0.012-0.198-0.036-0.339-0.214-0.327-0.4 0.012-0.194 0.166-0.339 0.376-0.36 0.073 0.004 0.154 0.004 0.226 0.004z"></path>
<path d="M21.834 14.509c-0.109-0.016-0.23-0.016-0.335-0.053-0.174-0.069-0.255-0.214-0.23-0.4 0.024-0.182 0.133-0.307 0.327-0.327 0.141-0.020 0.287-0.012 0.432-0.008 0.234 0.008 0.4 0.166 0.4 0.376 0.008 0.206-0.158 0.376-0.388 0.396-0.069 0.004-0.133 0-0.206 0 0 0.004 0 0.012 0 0.016z"></path>
<path d="M17.592 23.806c0.388 0 0.57 0.121 0.57 0.388-0.008 0.259-0.194 0.388-0.582 0.38-0.093 0-0.182 0.008-0.275-0.016-0.206-0.049-0.311-0.182-0.311-0.396 0-0.202 0.154-0.347 0.364-0.364 0.085 0.004 0.166 0.008 0.234 0.008z"></path>
<path d="M21.863 23.038c-0.105-0.012-0.214-0.012-0.315-0.036-0.182-0.049-0.279-0.19-0.275-0.372 0.008-0.194 0.109-0.335 0.311-0.364 0.158-0.024 0.315-0.016 0.473-0.012 0.226 0.012 0.376 0.17 0.376 0.376 0 0.202-0.145 0.364-0.372 0.388-0.069 0.008-0.133 0-0.206 0 0.008 0.012 0.008 0.012 0.008 0.020z"></path>
<path d="M17.576 16.040c-0.388 0-0.578-0.125-0.57-0.396 0-0.263 0.186-0.384 0.578-0.384 0.061 0 0.121 0 0.182 0 0.234 0.012 0.396 0.166 0.4 0.376 0.004 0.218-0.166 0.38-0.408 0.396-0.061 0.016-0.121 0.008-0.182 0.008z"></path>
<path d="M17.584 19.539c0.065 0 0.133-0.004 0.206 0 0.218 0.012 0.376 0.17 0.38 0.372 0.004 0.198-0.145 0.376-0.364 0.396-0.125 0.012-0.255 0.012-0.388 0.008-0.246-0.012-0.412-0.17-0.412-0.388s0.17-0.376 0.416-0.38c0.049-0.008 0.105-0.008 0.162-0.008v0z"></path>
<path d="M5.556 21.863c-0.303 0-0.606 0-0.901 0-0.275 0-0.436-0.145-0.444-0.376-0.004-0.242 0.166-0.396 0.449-0.396 0.606 0 1.208 0 1.814 0 0.275 0 0.44 0.145 0.44 0.376 0.004 0.234-0.17 0.396-0.449 0.396-0.303 0-0.606 0-0.909 0z"></path>
<path d="M5.576 19.539c0.303 0 0.606 0 0.905 0 0.267 0.008 0.436 0.158 0.428 0.388 0 0.226-0.162 0.38-0.42 0.38-0.622 0.008-1.257 0.008-1.879 0-0.246 0-0.412-0.17-0.404-0.396 0-0.23 0.158-0.376 0.416-0.376 0.319-0.004 0.638 0.004 0.954 0.004z"></path>
<path d="M5.572 17.988c0.307 0 0.618-0.008 0.933 0 0.246 0.004 0.4 0.145 0.412 0.364 0.012 0.222-0.145 0.4-0.396 0.404-0.638 0.008-1.273 0.008-1.911 0-0.246-0.008-0.404-0.174-0.4-0.4 0.004-0.218 0.158-0.364 0.404-0.364 0.319-0.012 0.634-0.004 0.958-0.004z"></path>
<path d="M5.572 16.436c0.303 0 0.606-0.004 0.909 0 0.275 0.008 0.436 0.158 0.436 0.388s-0.162 0.38-0.44 0.388c-0.606 0.008-1.212 0.008-1.818 0-0.291 0-0.457-0.158-0.449-0.4 0.004-0.23 0.162-0.372 0.449-0.372 0.307-0.008 0.61-0.004 0.913-0.004z"></path>
<path d="M3.426 21.479c-0.004 0.206-0.194 0.388-0.4 0.384-0.218-0.008-0.376-0.182-0.372-0.408 0.008-0.214 0.17-0.368 0.38-0.368 0.214 0.004 0.396 0.186 0.392 0.392z"></path>
<path d="M3.042 20.311c-0.214 0-0.38-0.178-0.38-0.396 0-0.214 0.158-0.372 0.368-0.376 0.214-0.004 0.396 0.166 0.4 0.376 0 0.206-0.182 0.396-0.388 0.396z"></path>
<path d="M3.426 16.836c-0.012 0.214-0.198 0.384-0.408 0.368-0.214-0.012-0.376-0.186-0.356-0.412 0.012-0.206 0.174-0.364 0.388-0.36s0.388 0.194 0.376 0.404z"></path>
<path d="M3.046 17.988c0.214 0.004 0.388 0.182 0.38 0.396-0.004 0.202-0.186 0.368-0.38 0.376-0.214 0.008-0.388-0.17-0.388-0.388 0.004-0.218 0.166-0.384 0.388-0.384z"></path>
<path d="M8.659 6.731c-0.19 0-0.376 0.004-0.57 0-0.242-0.004-0.388-0.158-0.396-0.38 0-0.218 0.154-0.38 0.388-0.388 0.388-0.012 0.772-0.012 1.16 0 0.234 0.008 0.388 0.178 0.384 0.396-0.008 0.218-0.154 0.364-0.4 0.376-0.186 0.004-0.376-0.004-0.566-0.004z"></path>
<path d="M6.323 6.731c-0.388 0-0.57-0.125-0.566-0.396 0.004-0.255 0.186-0.38 0.558-0.38 0.073 0 0.154-0.004 0.226 0.004 0.23 0.024 0.38 0.194 0.368 0.408-0.012 0.206-0.162 0.351-0.388 0.364-0.065 0-0.133 0-0.198 0z"></path>
</svg>
