<!-- Generated by IcoMoon.io -->
<svg version="1.1" xmlns="http://www.w3.org/2000/svg" width="32" height="32" viewBox="0 0 32 32">
<title>youtube</title>
<path d="M21.184 15.205l-7.5-4.688c-0.289-0.181-0.653-0.19-0.951-0.025s-0.483 0.479-0.483 0.82v9.375c0 0.341 0.185 0.655 0.483 0.82 0.142 0.078 0.298 0.117 0.454 0.117 0.173 0 0.345-0.048 0.497-0.142l7.5-4.688c0.274-0.171 0.441-0.472 0.441-0.795s-0.166-0.624-0.441-0.795zM14.125 18.996v-5.992l4.794 2.996z"></path>
<path d="M27.313 3.813h-22.625c-2.585 0-4.688 2.103-4.688 4.688v15c0 2.585 2.103 4.688 4.688 4.688h22.625c2.585 0 4.688-2.103 4.688-4.688v-15c0-2.585-2.103-4.688-4.688-4.688zM30.125 23.5c0 1.551-1.262 2.813-2.813 2.813h-22.625c-1.551 0-2.813-1.262-2.813-2.813v-15c0-1.551 1.262-2.813 2.813-2.813h22.625c1.551 0 2.813 1.262 2.813 2.813z"></path>
</svg>
