<?xml version="1.0" encoding="utf-8"?>
<!-- Generator: Adobe Illustrator 17.1.0, SVG Export Plug-In . SVG Version: 6.00 Build 0)  -->
<!DOCTYPE svg PUBLIC "-//W3C//DTD SVG 1.1//EN" "http://www.w3.org/Graphics/SVG/1.1/DTD/svg11.dtd">
<svg version="1.1" id="Layer_1" xmlns="http://www.w3.org/2000/svg" xmlns:xlink="http://www.w3.org/1999/xlink" x="0px" y="0px"
	 viewBox="0 230.5 612 331" enable-background="new 0 230.5 612 331" xml:space="preserve">
<g>
	<defs>
		<polyline id="SVGID_1_" points="0,230.5 612,230.5 612,561.5 0,561.5 		"/>
	</defs>
	<clipPath id="SVGID_2_">
		<use xlink:href="#SVGID_1_"  overflow="visible"/>
	</clipPath>
</g>
<g>
	<defs>
		<polyline id="SVGID_3_" points="0,230.5 612,230.5 612,561.5 0,561.5 		"/>
	</defs>
	<clipPath id="SVGID_4_">
		<use xlink:href="#SVGID_3_"  overflow="visible"/>
	</clipPath>
</g>
<g>
	<defs>
		<polyline id="SVGID_5_" points="0,230.5 612,230.5 612,561.5 0,561.5 		"/>
	</defs>
	<clipPath id="SVGID_6_">
		<use xlink:href="#SVGID_5_"  overflow="visible"/>
	</clipPath>
</g>
<g>
	<defs>
		<polyline id="SVGID_7_" points="0,230.5 612,230.5 612,561.5 0,561.5 		"/>
	</defs>
	<clipPath id="SVGID_8_">
		<use xlink:href="#SVGID_7_"  overflow="visible"/>
	</clipPath>
</g>
<g>
	<defs>
		<polyline id="SVGID_9_" points="0,230.5 612,230.5 612,561.5 0,561.5 		"/>
	</defs>
	<clipPath id="SVGID_10_">
		<use xlink:href="#SVGID_9_"  overflow="visible"/>
	</clipPath>
	<path clip-path="url(#SVGID_10_)" d="M0,395.3"/>
</g>
<g>
	<defs>
		<polyline id="SVGID_11_" points="0,230.5 612,230.5 612,561.5 0,561.5 		"/>
	</defs>
	<clipPath id="SVGID_12_">
		<use xlink:href="#SVGID_11_"  overflow="visible"/>
	</clipPath>
	<path clip-path="url(#SVGID_12_)" d="M0,429.7v11.8"/>
</g>
<g>
	<defs>
		<polyline id="SVGID_13_" points="0,230.5 612,230.5 612,561.5 0,561.5 		"/>
	</defs>
	<clipPath id="SVGID_14_">
		<use xlink:href="#SVGID_13_"  overflow="visible"/>
	</clipPath>
	<path clip-path="url(#SVGID_14_)" d="M0,475.9v5.3c0.5-0.1,0.9-0.1,1.4-0.1"/>
</g>
<g>
	<defs>
		<polyline id="SVGID_15_" points="0,230.5 612,230.5 612,561.5 0,561.5 		"/>
	</defs>
	<clipPath id="SVGID_16_">
		<use xlink:href="#SVGID_15_"  overflow="visible"/>
	</clipPath>
	<path clip-path="url(#SVGID_16_)" d="M8.4,480.1c0.8-0.1,1.6-0.3,2.5-0.4"/>
</g>
<g>
	<defs>
		<polyline id="SVGID_17_" points="0,230.5 612,230.5 612,561.5 0,561.5 		"/>
	</defs>
	<clipPath id="SVGID_18_">
		<use xlink:href="#SVGID_17_"  overflow="visible"/>
	</clipPath>
	<path clip-path="url(#SVGID_18_)" d="M18.1,478c0.8-0.2,1.7-0.4,2.5-0.7"/>
</g>
<g>
	<defs>
		<polyline id="SVGID_19_" points="0,230.5 612,230.5 612,561.5 0,561.5 		"/>
	</defs>
	<clipPath id="SVGID_20_">
		<use xlink:href="#SVGID_19_"  overflow="visible"/>
	</clipPath>
	<path clip-path="url(#SVGID_20_)" d="M28,475.1c0.9-0.3,1.7-0.6,2.6-0.9"/>
</g>
<g>
	<defs>
		<polyline id="SVGID_21_" points="0,230.5 612,230.5 612,561.5 0,561.5 		"/>
	</defs>
	<clipPath id="SVGID_22_">
		<use xlink:href="#SVGID_21_"  overflow="visible"/>
	</clipPath>
</g>
<g>
	<defs>
		<polyline id="SVGID_23_" points="0,230.5 612,230.5 612,561.5 0,561.5 		"/>
	</defs>
	<clipPath id="SVGID_24_">
		<use xlink:href="#SVGID_23_"  overflow="visible"/>
	</clipPath>
	<path clip-path="url(#SVGID_24_)" d="M48.4,466"/>
</g>
<g>
	<defs>
		<polyline id="SVGID_25_" points="0,230.5 612,230.5 612,561.5 0,561.5 		"/>
	</defs>
	<clipPath id="SVGID_26_">
		<use xlink:href="#SVGID_25_"  overflow="visible"/>
	</clipPath>
</g>
<g>
	<defs>
		<polyline id="SVGID_27_" points="0,230.5 612,230.5 612,561.5 0,561.5 		"/>
	</defs>
	<clipPath id="SVGID_28_">
		<use xlink:href="#SVGID_27_"  overflow="visible"/>
	</clipPath>
</g>
<g>
	<defs>
		<polyline id="SVGID_29_" points="0,230.5 612,230.5 612,561.5 0,561.5 		"/>
	</defs>
	<clipPath id="SVGID_30_">
		<use xlink:href="#SVGID_29_"  overflow="visible"/>
	</clipPath>
</g>
<g>
	<defs>
		<polyline id="SVGID_31_" points="0,230.5 612,230.5 612,561.5 0,561.5 		"/>
	</defs>
	<clipPath id="SVGID_32_">
		<use xlink:href="#SVGID_31_"  overflow="visible"/>
	</clipPath>
</g>
<g>
	<defs>
		<path id="SVGID_33_" d="M14.2,542.1c-4.8,7.5-7.1,13.9-8.1,19.4l82.3-0.1c14-9.3,28.5-22.6,41.8-41.3c-7.1-3.1-19.2-6.1-34.5-6.1
			C73.1,514,43.8,520.4,14.2,542.1"/>
	</defs>
	<clipPath id="SVGID_34_">
		<use xlink:href="#SVGID_33_"  overflow="visible"/>
	</clipPath>
	<polygon clip-path="url(#SVGID_34_)" fill="#FFFC8D" points="121.4,482 -6.1,517.4 15,593.4 142.5,558.1 	"/>
</g>
<g>
	<defs>
		<polyline id="SVGID_35_" points="0,230.5 612,230.5 612,561.5 0,561.5 		"/>
	</defs>
	<clipPath id="SVGID_36_">
		<use xlink:href="#SVGID_35_"  overflow="visible"/>
	</clipPath>
	<path clip-path="url(#SVGID_36_)" d="M122.1,522.8c-2.7,0.8-5.4,1.7-8.1,2.5c2.3,2.3,4.9,4.2,7.7,5.9c-0.2,0.3-0.5,0.5-0.7,0.8
		c-2.9-1.8-5.7-3.9-8.1-6.4c-3.5,1.1-7,2.2-10.5,3.2c-0.1,0.1-0.3,0.1-0.4,0.1c-3,0.9-6,1.8-8.9,2.7c-0.3,0.1-0.6,0.2-1,0.3
		c2.7,4.6,7.1,7.7,11.8,10.1c1.8,0.9,3.6,1.7,5.4,2.5c-0.3,0.3-0.6,0.6-1,0.9c-6.9-2.8-13.6-6.8-17.3-13.1c-6,1.9-11.9,3.9-17.8,6
		c5.9,8.3,15.4,12.6,24.8,16c-0.3,0.3-0.7,0.5-1,0.8c-9.4-3.5-19-8-24.8-16.4c-2.6,0.9-5.1,1.9-7.7,2.9c0,0,0,0-0.1,0.1
		c-0.1,0.2-0.4,0.2-0.5,0.2c-1.6,0.6-3.1,1.2-4.7,1.9c6.2,6.8,13.4,12.7,21.2,17.5h-2c-7.5-4.8-14.3-10.5-20.3-17.1
		c-4.2,1.7-8.4,3.6-12.5,5.5c-1,0.5-1.9,0.9-2.9,1.4c1.9,3.9,4.5,7.3,7.5,10.2h-1.5c-2.8-2.9-5.2-6.1-7-9.7c-4.2,2-8.3,4.2-12.4,6.4
		c0.4,1.2,0.9,2.3,1.4,3.4h-1.2c-0.4-0.9-0.8-1.9-1.2-2.9c-1.7,1-3.4,1.9-5.1,2.9h-2.2c1.4-0.8,2.8-1.6,4.3-2.4
		c6.3-3.5,12.7-6.8,19.2-9.9c6.2-11.2,13.5-21.8,21.7-31.6c0.6-0.1,1.2-0.3,1.7-0.4c-8.2,9.7-15.5,20.2-21.7,31.2
		c3.7-1.7,7.5-3.4,11.3-5c0.1-0.3,0.4-0.4,0.7-0.3c1.8-0.8,3.7-1.5,5.5-2.3c7.9-9.3,16.2-18.2,25-26.6c0.5,0,1.1-0.1,1.7-0.1
		c-8.6,8.2-16.8,16.8-24.5,25.8c1.6-0.6,3.1-1.2,4.7-1.8c10.1-3.7,20.3-7,30.7-10.1c0.3-5.2,2.5-9.6,5.5-13.5c0.4,0,0.8,0.1,1.3,0.1
		c-3,3.8-5.2,8-5.6,13c6.4-1.9,12.8-3.8,19.2-5.8C122.3,521.6,122.7,522.6,122.1,522.8"/>
</g>
<g>
	<defs>
		<path id="SVGID_37_" d="M0.1,450.2l0.1,106.2c6.8,3.1,12,2.1,12,2.1c1.4-2.1,41.6-52.6,7.6-129.9C14.3,432.4,7,439.7,0.1,450.2"/>
	</defs>
	<clipPath id="SVGID_38_">
		<use xlink:href="#SVGID_37_"  overflow="visible"/>
	</clipPath>
	<polygon clip-path="url(#SVGID_38_)" fill="#FFFC8D" points="51.4,570.5 80.5,434.3 2.5,417.7 -26.6,553.9 	"/>
</g>
<g>
	<defs>
		<polyline id="SVGID_39_" points="0,230.5 612,230.5 612,561.5 0,561.5 		"/>
	</defs>
	<clipPath id="SVGID_40_">
		<use xlink:href="#SVGID_39_"  overflow="visible"/>
	</clipPath>
	<path clip-path="url(#SVGID_40_)" fill="#FFAAEE" d="M14.8,565.1l-22.1,0L-7.4,516c30.2-32.6,65.7-40.8,81.5-40.3
		C62.4,525.1,35.7,551.5,14.8,565.1"/>
</g>
<g>
	<defs>
		<path id="SVGID_41_" d="M181.3,525.4c0-1.5,1.2-2.8,2.8-2.8c1.5,0,2.8,1.2,2.8,2.8s-1.2,2.8-2.8,2.8
			C182.6,528.2,181.3,527,181.3,525.4 M179.1,525.4c0,2.8,2.3,5,5,5s5-2.3,5-5c0-2.8-2.3-5-5-5S179.1,522.6,179.1,525.4"/>
	</defs>
	<clipPath id="SVGID_42_">
		<use xlink:href="#SVGID_41_"  overflow="visible"/>
	</clipPath>
	
		<linearGradient id="SVGID_43_" gradientUnits="userSpaceOnUse" x1="0" y1="-353.3811" x2="1" y2="-353.3811" gradientTransform="matrix(0 6.9535 -6.9535 0 -2273.1235 521.3427)">
		<stop  offset="0" style="stop-color:#FF636E"/>
		<stop  offset="1" style="stop-color:#F98D6C"/>
	</linearGradient>
	<rect x="179.1" y="520.4" clip-path="url(#SVGID_42_)" fill="url(#SVGID_43_)" width="10" height="10"/>
</g>
<g>
	<defs>
		<path id="SVGID_44_" d="M436.1,248.2c0-1.5,1.2-2.8,2.8-2.8c1.5,0,2.8,1.2,2.8,2.8c0,1.5-1.2,2.8-2.8,2.8
			C437.3,250.9,436.1,249.7,436.1,248.2 M433.8,248.2c0,2.8,2.3,5,5,5c2.7,0,5-2.3,5-5s-2.3-5-5-5
			C436.1,243.2,433.8,245.4,433.8,248.2"/>
	</defs>
	<clipPath id="SVGID_45_">
		<use xlink:href="#SVGID_44_"  overflow="visible"/>
	</clipPath>
	
		<linearGradient id="SVGID_46_" gradientUnits="userSpaceOnUse" x1="0" y1="-353.3791" x2="1" y2="-353.3791" gradientTransform="matrix(0 6.9535 -6.9535 0 -2018.3696 244.0959)">
		<stop  offset="0" style="stop-color:#FF636E"/>
		<stop  offset="1" style="stop-color:#F98D6C"/>
	</linearGradient>
	<rect x="433.8" y="243.2" clip-path="url(#SVGID_45_)" fill="url(#SVGID_46_)" width="10" height="10"/>
</g>
<g>
	<defs>
		<path id="SVGID_47_" d="M604.2,533.2c0-1.5,1.2-2.8,2.8-2.8c1.5,0,2.8,1.2,2.8,2.8s-1.2,2.8-2.8,2.8
			C605.4,536,604.2,534.7,604.2,533.2 M602,533.2c0,2.8,2.3,5,5,5c2.8,0,5-2.3,5-5c0-2.8-2.3-5-5-5C604.2,528.2,602,530.4,602,533.2
			"/>
	</defs>
	<clipPath id="SVGID_48_">
		<use xlink:href="#SVGID_47_"  overflow="visible"/>
	</clipPath>
	
		<linearGradient id="SVGID_49_" gradientUnits="userSpaceOnUse" x1="0" y1="-353.3802" x2="1" y2="-353.3802" gradientTransform="matrix(0 6.9535 -6.9535 0 -1850.2363 529.1247)">
		<stop  offset="0" style="stop-color:#FF636E"/>
		<stop  offset="1" style="stop-color:#F98D6C"/>
	</linearGradient>
	<rect x="602" y="528.2" clip-path="url(#SVGID_48_)" fill="url(#SVGID_49_)" width="10" height="10"/>
</g>
<g>
	<defs>
		<polyline id="SVGID_50_" points="0,230.5 612,230.5 612,561.5 0,561.5 		"/>
	</defs>
	<clipPath id="SVGID_51_">
		<use xlink:href="#SVGID_50_"  overflow="visible"/>
	</clipPath>
	<path clip-path="url(#SVGID_51_)" fill="#FFFF99" d="M405.1,285.6v-8.5c0-0.3-0.3-0.6-0.6-0.6c-0.3,0-0.6,0.3-0.6,0.6v8.5
		c0,0.3,0.3,0.6,0.6,0.6C404.8,286.3,405.1,286,405.1,285.6"/>
</g>
<g>
	<defs>
		<polyline id="SVGID_52_" points="0,230.5 612,230.5 612,561.5 0,561.5 		"/>
	</defs>
	<clipPath id="SVGID_53_">
		<use xlink:href="#SVGID_52_"  overflow="visible"/>
	</clipPath>
	<path clip-path="url(#SVGID_53_)" fill="#FFFF99" d="M408.7,280.7h-8.5c-0.3,0-0.6,0.3-0.6,0.6s0.3,0.6,0.6,0.6h8.5
		c0.3,0,0.6-0.3,0.6-0.6S409,280.7,408.7,280.7"/>
</g>
<g>
	<defs>
		<polyline id="SVGID_54_" points="0,230.5 612,230.5 612,561.5 0,561.5 		"/>
	</defs>
	<clipPath id="SVGID_55_">
		<use xlink:href="#SVGID_54_"  overflow="visible"/>
	</clipPath>
	<path clip-path="url(#SVGID_55_)" fill="#FFFF99" d="M260,268.3v-6.6c0-0.3-0.2-0.5-0.5-0.5c-0.3,0-0.5,0.2-0.5,0.5v6.6
		c0,0.3,0.2,0.5,0.5,0.5C259.8,268.8,260,268.5,260,268.3"/>
</g>
<g>
	<defs>
		<polyline id="SVGID_56_" points="0,230.5 612,230.5 612,561.5 0,561.5 		"/>
	</defs>
	<clipPath id="SVGID_57_">
		<use xlink:href="#SVGID_56_"  overflow="visible"/>
	</clipPath>
	<path clip-path="url(#SVGID_57_)" fill="#FFFF99" d="M262.8,264.4h-6.6c-0.3,0-0.5,0.2-0.5,0.5c0,0.3,0.2,0.5,0.5,0.5h6.6
		c0.3,0,0.5-0.2,0.5-0.5C263.3,264.7,263.1,264.4,262.8,264.4"/>
</g>
<g>
	<defs>
		<polyline id="SVGID_58_" points="0,230.5 612,230.5 612,561.5 0,561.5 		"/>
	</defs>
	<clipPath id="SVGID_59_">
		<use xlink:href="#SVGID_58_"  overflow="visible"/>
	</clipPath>
	<path clip-path="url(#SVGID_59_)" fill="#FFFF99" d="M291.3,547.5v-6.6c0-0.3-0.2-0.5-0.5-0.5s-0.5,0.2-0.5,0.5v6.6
		c0,0.3,0.2,0.5,0.5,0.5C291,548,291.3,547.8,291.3,547.5"/>
</g>
<g>
	<defs>
		<polyline id="SVGID_60_" points="0,230.5 612,230.5 612,561.5 0,561.5 		"/>
	</defs>
	<clipPath id="SVGID_61_">
		<use xlink:href="#SVGID_60_"  overflow="visible"/>
	</clipPath>
	<path clip-path="url(#SVGID_61_)" fill="#FFFF99" d="M294.1,543.7h-6.6c-0.3,0-0.5,0.2-0.5,0.5s0.2,0.5,0.5,0.5h6.6
		c0.3,0,0.5-0.2,0.5-0.5S294.4,543.7,294.1,543.7"/>
</g>
</svg>
