<?xml version="1.0" encoding="utf-8"?>
<!-- Generator: Adobe Illustrator 17.1.0, SVG Export Plug-In . SVG Version: 6.00 Build 0)  -->
<!DOCTYPE svg PUBLIC "-//W3C//DTD SVG 1.1//EN" "http://www.w3.org/Graphics/SVG/1.1/DTD/svg11.dtd">
<svg version="1.1" id="Layer_1" xmlns="http://www.w3.org/2000/svg" xmlns:xlink="http://www.w3.org/1999/xlink" x="0px" y="0px"
	 viewBox="0 336.5 612 105.2" enable-background="new 0 336.5 612 105.2" xml:space="preserve">
<g id="Group_1">
	<g>
		<g>
			<path fill="#FDFFD0" d="M612.3,412.6v26.7c0,0.2,0,0.4,0,0.5c-0.1,0.3,0,1.8-0.5,1.7c-0.5,0-1.3,0-1.7,0l-229.2,0.2
				c-7,0-24.9,0-31.7,0c-7.7-0.1-17,0-24.8,0c-10,0-20.9-0.1-30.9-0.1c-19,0.2-36.3-0.1-55.9-0.1c-5.4,0-11.6,0-16.9,0H119.5h-9.9
				h-8.3H51H-0.2c0-0.1,0-1.9,0-2c-0.6-9,0.5-17.6,0.5-26.1c1.5,0.1,1.7,0.1,1.7,1.4v1.9c0,0.4,0,0.8,0.5,0.8c1.1,0,1,0.7,1,1.5
				c0.1,0.6,0,1.3,0,1.9c-0.3,1.3,0.8,2.1,1.3,3c0.3,0.6,1.1,0.2,1.3-0.5c0.4-1.5,0.4-1.5,1.8-1.6c1,0,2-0.1,3-0.3
				c1.2-0.3,2.3-0.2,3.4,0.2c1.4,0.5,2.7-0.5,4.1-0.3c0.2,0,0.3-0.3,0.3-0.6c0.2-1.8,1-3,2.9-3.2c0.6-0.1,0.5-0.6,0.5-1v-17.3
				c0-2.1,1.5-3.5,3.6-3.5h7.2c1.9,0,2,0.1,2,1.9c0,1.1,0.1,2.3,0,3.4c-0.1,1.1,0.3,2.3,1.3,3c0.8,0.6,1.4,1.3,0.7,2.4
				c-0.1,0.3-0.2,0.8,0.3,1c0.5,0.1,0.4-0.4,0.5-0.6c0.2-0.6,0.7-0.7,1.2-0.7h3c1.5,0,1.6,0,1.8,1.5c0.1,0.4,0.1,0.7,0.6,0.8
				c0.6,0,1.1-0.1,1.7-0.3c0.7-0.1,0.7-0.5,0.8-1.1c0-0.4,0.3-0.6,0.6-0.2c0.2,0.3,0.1,1,0.8,0.7c0.6-0.3,1.4-0.3,1.6-1.2
				c0.7-2.4,0.8-2.4,3.2-2.5h3.1c0.8,0,1.4,0.2,1.4,1.1c0,0.8,0.2,1.1,1.1,1.2c1,0.1,0.9,0.9,0.9,1.6v8.7c0,0.9-0.2,1.9,0.5,2.5
				c0.8,0.6,1.7,1,2.6,1.3c0.3,0.1,0,0.4,0.4,0.6c1.4,0.8,2.2,0.4,2.2-1.1c0-0.7,0.3-1,1-1.1c0.5-0.1,0.8-0.2,1.2-0.5
				c0.8-0.5,1.4-1.1,1.3-2.3c-0.3-3.1,0.3-6.2-0.3-9.4c-0.1-0.5,0.3-0.8,0.8-0.9c0.5,0,0.9,0,1.2-0.4c1.2-1.4,2.8-1.4,4.3-1
				c0.9,0.2,0.8-0.2,0.8-0.8v-10.4c0-0.8,0.3-1.3,1.2-1.3c1.4-0.1,2.3-1,2.2-2.3c-0.1-2,0.2-3.9,0.4-5.8c0-0.4,0.2-0.8,0.6-1.1
				c0.9-0.8,2.2-1.5,2.2-2.9c2.2-1.7,1.1-4.3,1.8-6.5c0-0.3,0-0.7,0-1c0-0.3,0.1-0.7,0.5-0.7s0.2,0.5,0.3,0.8
				c0.3,1.9,0.7,3.7,0.8,5.6c0,0.7,2.1,2.8,2.8,2.9c0.6,0.1,0.8-0.3,1.2-0.7c1.5-1.9,1.6-1.8,2.8,0.2c0.1,0.1,0.1,0.3,0.2,0.4
				c1.7,0.6,2.4,2.4,4.1,3c1.8,0.6,2.3,1.5,2.3,3.4c0,1.5,0,1.6,1.5,1.8c0.9,0.1,0.8,0.7,0.8,1.3v7.6c0,0.8-0.2,1.5,1.1,1.8
				c0.6,0.1,1.3,1.2,1.2,2.3c-0.1,1.3,0,2.7,0,4c0,1.2,0.7,1.9,2,2h1c0.7,0,0.9,0.3,0.9,0.9c0,1.1,0,2.2,0,3.3
				c0,0.8,0.4,0.9,1.1,0.5c1.2-0.6,1.8-1.5,1.6-2.9c0-0.1,0-0.3,0-0.4c-0.3-5.3,0.5-10.8,0.4-16c0-1.2,0.5-2.3,0.4-3.5
				c0-0.1,0-0.3,0.1-0.3c1.6-0.5,0.9-1.8,1-2.9c0.1-0.8,0.2-1.7,1.4-1.6c0.7,0,0.9-0.3,1-0.9c0-0.3,0.3-0.6,0.3-0.9
				c-0.2-1.9,0.5-3.6,0.4-5.5c-0.1-1,0.1-2,0.6-2.9c0.7,2.3,0.7,4.5,1,6.8c0.1,0.8,0.2,1.6,0.4,2.4c0.1,0.5,0.2,1,0.9,1
				c0.5-0.1,1,0.3,1.1,0.8v0.2c0,0.9,1,1.3,0.8,2.3c-0.1,0.3,0.4,0.1,0.5,0.2c1.1,0.3,2.3,0.3,3.4,0.3c0.9,0,1.6,0.1,1.4,1.2
				c-0.2,1,0.5,1.1,1.3,1.1c0.9,0,1.1-0.5,1-1.2c0-1,0-2,0-3.1c0-1.4,0.7-2.2,2.1-2.3c2.1,0,4.2,0,6.3,0c0.8,0,1.2,0.2,1.1,1.1
				c0,1.2,0,2.4,0,3.6c0,1.7,0.2,1.9,1.8,2.2c0.7,0.1,1.7-0.3,2.2,0.3c0.5,0.7,0.2,1.6,0.2,2.4v11.4c0,0.4-0.2,1,0.3,1.2
				c0.7,0.2,1.4,0.2,2.1,0c0.5-0.2,0.3-0.8,0.3-1.2v-18.7c0-0.8-0.1-1.5,0.7-2c0.3-0.3,0.5-0.7,0.4-1c-0.1-1.4,0.6-2.8,0.4-4.1
				c-0.2-1.1,0.9-1.8,0.8-2.9c-0.1-1-0.2-2.1,0.5-2.9c0.5-0.7,0.2-1.5,0.3-2.2c0.3,0,0.3,0.2,0.3,0.3c0.1,1.7,0.1,1.6,1.7,1.7
				c1.2,0.1,2.4-0.3,3.8,0.3c1.1,0.5,2.6-0.2,3.9-0.5c0.7-0.2,0.7-0.8,0.7-1.4c0-0.3-0.2-0.8,0.4-0.9c0.4,0,0.7,0.2,0.7,0.6v0.2
				c-0.2,1.2,1.2,1.6,1.3,2.7c0,0.3,0.5,0.3,0.8,0.3c0.5,0,1-0.4,1-1c0-0.3-0.1-0.7,0.3-0.8c0.5-0.1,0.5,0.5,0.7,0.8
				c0.1,0.1,0.1,0.2,0.1,0.3c-0.4,1.9,0.9,3.7,0.8,5.6c0,0.6,0.2,1.2,0.4,1.6c1.1,2,1.6,4.3,1.5,6.7c-0.1,2.9,0,5.8,0,8.9
				c0,0.8,0,1.3,1.1,1.4c0.5,0,1.2,0.2,1.2,1c0,1,0.7,0.9,1.3,0.9c1.5,0,3.1,0,4.6,0c0.9,0,1.5,0.1,1.4,1.2c-0.2,1,0.5,1.1,1.3,1.1
				c1.5,0,3,0,4.4,0c0.9,0,1.2,0.3,1.2,1.2c0,3.1,0,6.2,0,9.5c0,1.6,0,1.7,1.6,1.7h4.6c0.9,0,1.9,0.2,2.7-0.6
				c0.2-0.2,0.7-0.2,1.1-0.2h7.5c0.6,0,1.1-0.1,1.3,0.7c0.1,0.5,0.6,0.4,1,0.4c1.6,0.1,3.3-0.3,4.9,0.3c0.2,0,0.4-0.1,0.5-0.2
				c0.5-1.1,1.5-0.8,2.3-0.8s1.6-0.1,2.1,0.9c0.2,0.4,0.5,0.1,0.6-0.3c0-0.2-0.1-0.6,0.2-0.7c0.3,0,0.2,0.3,0.2,0.5
				c0,0.5,0.2,0.8,0.7,1.1c1.3,1.1,1.7,2.8,2,4.4c0.2,0.9,0.3,1.2,1.3,1.3c1.8,0.3,3.6,0,5.3,1c0.6,0.4,1.5,0.1,2.3,0.1
				c1.2,0,1.6-0.2,1.5,1.5c0,0.2,0,0.4,0.1,0.6c0.4-0.1,0.3-0.3,0.3-0.5c0-0.3,0-0.5,0-0.8c0-4.9,0-9.9,0-14.8
				c0-1.1,0.2-1.8,1.5-1.9c0.4,0,0.8-0.2,1.3-0.2c0.3,0,0.6-0.1,0.6-0.3c0-1.6,1.2-1.2,2-1.2c1.7,0,3.5,0,5.2,0c1,0,1.5,0.3,1.3,1.3
				c-0.1,1,0.2,1.4,1.3,1.4c1.6,0,3,0.9,4.6,1.2c0.5,0.1,0.6,0.4,0.4,0.8c-0.2,0.5-0.3,1-0.2,1.5c0,0.8-0.3,1.8,0.2,2.4
				c0.6,0.7,1.4-0.2,2.1-0.2c1.6,0.1,3.3,0.1,5,0c1,0,1.6,0.4,1.5,1.5c-0.1,0.8,0.2,1.3,1.2,1.3c1.8-0.1,2.9,1.3,4.4,2
				c0.1,1.2,1,1.6,1.8,2.1c0.4,0.3,0.3,0.8,0.3,1.2c0,1,0,1.9,0,2.9c0,0.7,0.3,0.9,0.9,1c1.4,0.3,2.7,0,4.1,0c0.1,0,0.3,0,0.4,0
				c0.6-1.6,2.2-1,3.4-1.4c0.7-0.3,0.9-0.5,0.9-1.2c0-2.8,0-5.5,0-8.3c0-1.6,0.1-1.7,1.8-1.8c0.6,0,1.2,0.1,1.7,0
				c0.8-0.2,1.9,0,1.9-1.3c0-0.6,0.6-0.6,1-0.5c0.7,0,0.9-0.3,0.9-1v-31.5c0-0.6,0.1-1.1,0.8-1c2.8,0.5,5.6-0.1,8.4-0.4
				c2.3-0.2,4.5,0.6,6.8,0.4c0.5,0,1.5,1.4,1.5,2.3c0,0.5,0,0.9,0,1.3v17.3c0,1.5,0,1.5,1.5,1.7c0.8,0.1,0.8,0.6,0.8,1.2
				c0,3-0.2,6,0,9.1c0.4,4.7,0.3,9.5,0.3,14.1c0,0.8,0.2,1.8,0.7,2c1,0.4,2,0.4,3,0c0.8-0.3,0.9-1.1,0.9-2c0-3.2-0.2-6.4,0-9.6
				c0.3-3.8,0-7.7,0.4-11.5c0.3-3.2,0-6.3,0.4-9.6c0.5-4,0.2-8.2,0.3-12.3c0-0.3,0-0.5,0-0.8c1-1.9,0.5-4,0.8-6
				c0.7-6.6,0.2-13.3,0.4-19.9c0-1.6,1.2-2.8,2-4.1c0.1-0.2,0.3-0.2,0.5-0.2c0.1,0,0.1,0.1,0.2,0.2c0.3,0.6,0.9,0.4,1.3,0.5
				c0.7,0.1,1-0.3,1-1c0-1,0-2,0-3.4c0.6,1.1,0.4,1.8,0.4,2.5c0,0.6,0.1,1.1,0.5,1.6c0.2,0.2,0.4,0.3,0.7,0.3c0.3,0,0.5-0.3,0.4-0.5
				c0-0.6,0-1.2,0-1.7c0-0.2,0-0.5,0.3-0.6c0.4,0,0.4,0.2,0.4,0.5s0,0.7,0,1c0,0.7,0.1,1.2,0.9,1.1c0.7-0.1,1.2,0.4,1.8,0.4
				c1.5,0.1,1.6,0,1.8-1.5c0.1-0.7,0.3-1,0.9-0.3c0.1,0.2,0.5,0.2,0.7,0.3c1.9,0.7,1.9,0.7,1.9,2.9c0,2-0.2,4.1,0,6.1
				c0.3,3,0.4,6,0.3,9.2c0,0.7,0.3,1,1,1c0.8,0,1.5,0,2.3,0c0.7,0,0.9,0.3,0.9,0.9c0,0.5,0,1,0,1.5v52.9c0,0.5,0,0.9,0,1.3
				c-0.1,0.9,0.5,1.1,1.2,1c0.3,0,0.5-0.3,0.9-0.2c0.6,0.2,0.6,0.2,0.6-0.3c0-4.3,0.1-8.8,0-13.1c-0.1-3.8,0.5-7.7,0.4-11.5
				c0-0.7,0.2-1.1,1-1c1.4,0.2,1.4-0.6,1.4-1.6c0-6.1,0.1-12.3-0.1-18.4c0-1.3,0.8-2.2,0.9-3.4c0-0.3,0.3-0.3,0.6-0.3
				c1.8,0,3.3-0.9,4.9-1.4c2-0.6,4.1-0.6,5.9,0.7c0,0,0.1,0.2,0.1,0.1c1.3-0.3,2.6-0.5,3.9-0.8c0.3-0.1,0.1-0.7,0.1-1.1
				c0.2-1.3,1-2,2.2-1.5c0.7,0.3,1.6-0.2,2.2,0.4c0.5,0.6,0,1.5,0.2,2.2c0.5,1.4,0.4,2.9,0.4,4.3c0,8.3,0,16.5,0,24.8v1.3
				c0,0.5,0.2,0.8,0.8,0.8h0.4c3.1,0.2,3.1,0.2,3.1,3.3v7.7c0,0.7,0,1.3,1,1.2c0.7-0.1,1.8,0.5,1.8-1c0-0.9,0.5-1.4,1.3-1.7
				c1-0.2,2,0.2,2.5,1c0.6,1,1.8,1.5,3,1.2c0.5-0.2,0.5-0.5,0.5-0.9c0-1.2,0-2.3,0-3.4c0-1.1,0.2-1.1,1.2-0.5
				c0.7,0.4,1.3,0.7,1.5-0.5c0-0.4,0.3-0.7,0.7-0.7h0.2c0.4,0,1-0.1,1,0.6c0,0.9,0.6,1,1.3,0.9c0.9-0.1,1.1,0.4,1.1,1.2
				c0,0.7,0,1.3,0,1.9s0,1.2,0.8,1.2c0.6,0,0.7,0.4,0.7,0.9c0.1,0.6,0,1.3,0,1.9c-0.3,1.3,0.5,2.3,1.1,3.3c0.2,0.3,0.6,0.5,1,0.4
				c0.5,0,0.6-0.4,0.6-0.8c-0.1-1.2,0.6-1.6,1.7-1.5c1.5,0.2,2.9-0.5,4.3-0.4c0.8,0,1.5,0,2.3,0.3c1.3,0.5,2.6-0.5,4-0.3
				c0.5,0,0.4-0.5,0.5-0.9c0.2-1.3,1.3-2.7,2.6-2.8c1-0.1,0.8-0.8,0.8-1.4v-16.9c0-2.2,1.4-3.6,3.7-3.6h7.1c1.8,0,1.9,0.1,1.9,1.8
				c0,1.3,0.1,2.6,0,3.8c-0.1,1,0.3,1.9,1.1,2.5c0.8,0.7,1.7,1.4,0.9,2.7c-0.2,0.2-0.1,0.7,0.2,0.8c0.4,0.2,0.5-0.2,0.6-0.5
				c0.2-0.7,0.7-0.8,1.3-0.8c1.2,0,2.3,0,3.5,0c0.9,0,1.5,0.1,1.3,1.2c-0.1,1.1,0.6,1.2,1.3,1c0.8-0.2,1.8-0.2,1.8-1.5
				c0-0.4,0.4-0.5,0.6,0c0.2,0.3,0.1,0.9,0.7,0.7c0.6-0.3,1.4-0.3,1.6-1.1c0-0.3,0-0.5,0-0.8c0.2-1,1.1-1.8,2.1-1.8
				c1.3,0,2.6,0,3.8,0c1,0,1.8,0.2,1.7,1.5c0,0.5,0.2,0.8,0.8,0.8c1.1,0,1.2,0.7,1.1,1.6v8.7c0,0.9-0.1,1.8,0.5,2.6s1.6,0.8,2.4,1.3
				c0.7,0.3,1.5,0.4,2.1,1c0.4,0.3,0.7,0.1,0.8-0.3c0-0.3,0-0.6,0-1c0-0.7,0-1.1,0.9-1.1c0.7,0,1.3-0.5,1.8-0.9
				c0.5-0.3,0.8-0.8,0.7-1.4c-0.2-3.2,0.3-6.5-0.3-9.8c-0.1-0.4,0.1-0.8,0.5-0.9c0,0,0.1,0,0.2,0c0.6-0.1,1.2-0.2,1.5-0.7
				c1-1.2,2.4-1,3.7-0.9c1.3,0.1,1.3,0.2,1.3-1.1v-10.4c0-0.9,0.4-1.4,1.3-1.5c1.2-0.1,2.1-1,2.1-2.2c0-2,0.1-3.9,0.4-5.9
				c0-0.5,0.3-0.9,0.6-1.2c0.8-0.8,2.1-1.4,2.1-2.8c1.4-0.7,1.3-2.1,1.5-3.3c0.1-1.3,0.7-2.5,0.5-3.8c0-0.3,0-0.6,0.1-0.9
				c0-0.2,0.3-0.2,0.4-0.3c0,0.1,0.2,0.2,0.2,0.3c0.3,1.9,0.6,3.7,0.8,5.6c0.1,0.6,0.1,1.4,0.5,1.6c1,0.3,1.3,1.6,2.3,1.8
				c0.6,0.1,0.8-0.2,1.3-0.6c0.5-0.6,0.7-1.7,1.7-1.6c0.8,0.1,0.8,1.2,1.2,1.8c0,0,0,0.1,0.1,0.2c0.1,0.2,0.2,0.4,0.4,0.4
				c1.8,0.2,2.1,2.3,3.8,2.7c1.7,0.5,2.2,1.4,2.3,3.2c0,0.3,0,0.5,0,0.8c-0.1,0.8,0.2,1.3,1.1,1.1c1.1-0.1,1.3,0.4,1.3,1.3
				c0,2.5,0,5,0,7.6c0,0.7-0.1,1.4,1,1.6c0.8,0.2,1.3,1.2,1.3,2.2c0,1.3,0,2.7,0,4c0,1.4,0.7,2.1,2.1,2c2.1,0,1.7,0.3,1.8,1.8
				c0,0.8,0,1.6,0,2.5c0,0.7,0.4,0.8,1,0.5c1.3-0.6,1.8-1.6,1.6-3c-0.1-0.9,0-1.9,0-2.9c-0.2-4.5,0.6-9.1,0.4-13.6
				c0-1.1,0.5-2.2,0.3-3.4c0-0.2,0.1-0.5,0.1-0.5c1.5-0.4,0.9-1.6,1-2.5c0.1-1.4,0.2-1.6,1.5-1.9c0.5-0.1,0.8-0.3,0.8-0.8
				c0-0.3,0.3-0.6,0.3-0.9c-0.2-1.9,0.5-3.8,0.4-5.7c-0.1-1,0.1-2,0.7-2.9c0.4,2.6,0.8,5.2,0.9,7.8c0.1,0.7,0.2,1.3,0.4,2
				c0,0.2,0.2,0.4,0.3,0.4c2.1,0,1.6,2,2.2,3c0.4,0.5,0.5,0.5,1,0.7c1,0.4,2,0.3,3,0.2c1,0,1.6,0.1,1.5,1.3c-0.1,0.9,0.4,1,1.2,1
				s1.2-0.2,1.1-1.1c0-1.1,0-2.2,0-3.3c0-1.1,0.7-2.1,1.8-2.1c2.3-0.1,4.6,0,6.9,0c0.7,0,0.8,0.4,0.8,1c0.1,1.3,0,2.7,0,4
				c-0.1,1.2,0.5,1.6,1.4,1.8c0.2,0,0.4,0.1,0.6,0.1c0.7,0.1,1.5-0.3,2,0.2c0.6,0.6,0.2,1.6,0.2,2.4c0,3.7,0,7.6,0,11.4
				c0,1.3,1.2,1.9,2.3,1.3c0.2-0.1,0.4-0.4,0.4-0.6v-18.2c0-0.8-0.2-1.8,0.7-2.4c0.3-0.3,0.5-0.7,0.4-1c-0.2-1.5,0.5-2.9,0.4-4.3
				c-0.1-0.5,0.1-1,0.5-1.4c0.3-0.2,0.4-0.5,0.3-0.9c-0.4-2,1-3.6,0.9-5.5c0.4,2.1,0.4,2.1,2.8,2.1c0.9,0,1.8-0.1,2.8,0.3
				c1.3,0.5,2.7-0.1,4-0.6c0.8-0.3,0.6-1,0.6-1.6c0-0.3,0-0.7,0.5-0.7c0.2,0,0.5,0.3,0.5,0.5c0,1,0.6,1.6,1.1,2.3
				c0.3,0.4,0.2,1,1,0.9c0.6,0,1.1-0.5,1.1-1l0,0c0-0.3-0.1-0.7,0.4-0.7c0.4,0,0.4,0.5,0.6,0.7c0.1,0.1,0.2,0.2,0.2,0.3
				c-0.4,1.9,0.9,3.7,0.8,5.6c0,0.6,0.2,1.1,0.5,1.6c1.2,2.3,1.6,4.7,1.5,7.3c-0.1,2.8,0,5.6,0,8.5c0,0.7,0,1.2,1,1.3
				c0.7,0,1.3,0.4,1.4,1.3c0,0.6,0.5,0.6,1,0.6c1.6,0,3.3,0,5,0c0.8,0,1.4,0.1,1.3,1.1c-0.2,1.1,0.5,1.2,1.4,1.2c1.4,0,2.8,0,4.2,0
				c1,0,1.3,0.3,1.3,1.3c0,3.1,0,6.2,0,9.5c0,1.6,0,1.6,1.6,1.6h5.4c0.7,0,1.3,0.1,1.8-0.5c0.5-0.5,1.1-0.3,1.6-0.3c2,0,4.1,0,6.1,0
				c0.9,0,2.1-0.5,2.5,1c0.1,0.3,0.7,0.2,1.1,0.2c1.5,0.1,3.1-0.3,4.6,0.3c0.3,0.1,0.4,0,0.7-0.2c1.4-1.2,2.8-1.1,4.3,0
				c0.5,0.4,0.7,0.1,0.7-0.4c0-0.2,0-0.5,0.4-0.7c-0.1,1,0.5,1.5,1,2.1c1,1.2,1.6,2.8,1.6,4.3c0,0.7,0.2,1.1,1,1
				c1.3-0.1,2.6,0.1,3.9,0.5c1.6,0.6,3.2,0.6,4.8,0.6c0.5,0,0.6,0.3,0.7,0.8c0,0.4,0,0.9,0.1,1.6c0.5-0.9,0.3-1.5,0.3-2.1
				c0-4.8,0-9.7,0-14.4c0-1.1,0.2-1.5,1.4-1.8c0.9-0.1,2.3,0.1,2.3-1.5c0-0.3,0.6-0.2,0.9-0.2c2,0,4.1,0,6.1,0
				c0.9,0,1.3,0.3,1.2,1.2c-0.2,1.1,0.2,1.7,1.5,1.5c0.2,0,0.5,0,0.7,0.1C612.3,409.3,612.3,407.8,612.3,412.6z"/>
			<path fill="#FDFFD0" d="M65.2,422.5"/>
		</g>
	</g>
</g>
</svg>
