<?xml version="1.0" encoding="utf-8"?>
<!-- Generator: Adobe Illustrator 17.1.0, SVG Export Plug-In . SVG Version: 6.00 Build 0)  -->
<!DOCTYPE svg PUBLIC "-//W3C//DTD SVG 1.1//EN" "http://www.w3.org/Graphics/SVG/1.1/DTD/svg11.dtd">
<svg version="1.1" id="Layer_1" xmlns="http://www.w3.org/2000/svg" xmlns:xlink="http://www.w3.org/1999/xlink" x="0px" y="0px"
	 viewBox="6 101.5 598.3 591" enable-background="new 6 101.5 598.3 591" xml:space="preserve">
<g>
	<path fill="#FFFFFF" d="M201.5,663.3c-3.4-3-3.6-6.6-3.6-10.2c0.1-9,0-18.1,0-27.1c0-6.9,3.2-10.2,10.2-10.2c2.8,0,5.7,0,8.4,0
		c0.5-1.1-0.6-1.3-1-1.8c-2-2.8-2.5-5.7-1.1-8.8c1.4-3.2,3.8-5,7.4-5.3c1.6-0.2,3.2-0.3,4.8-0.1c3.3,0.6,4.1-1.1,4.4-3.9
		c1.9-18.2,3.8-36.3,5.7-54.5c2-18.5,4-37.1,6-55.5c0.2-2.2,0.7-4.3,0.7-6.5c0-1.9,0.9-2,2.4-2c36.7,0,73.5,0,110.2,0
		c1.5,0,2.2,0.2,2.4,2c2.3,22.8,4.8,45.7,7.3,68.5c1.8,16.6,3.7,33.1,5.4,49.7c0.2,2,1,2.3,2.7,2.2c1.9-0.1,3.8,0,5.7,0
		c4.2-0.2,7.7,1.1,9.4,5.2c1.7,3.9,0.6,7.3-2.7,10.8c3.4,0,6.3,0,9.3,0c6.9,0,10.2,3.3,10.2,10.2c0,9.5,0,19,0,28.6
		c0,3.2-0.8,6.1-3.7,8.7c3.8,0,7,0,10.2,0c5.2,0.1,8.7,3,9,8.1c0.4,5.9,0.3,11.8,0,17.8c-0.2,2.2-1,2.9-3.4,2.9
		c-77.4-0.1-154.8-0.1-232.3,0c-2.4,0-3.2-0.8-3.2-3c0-6-0.2-11.8,0-17.8c0.2-4.7,3.6-7.9,8.4-8
		C194.2,663.2,197.6,663.3,201.5,663.3z"/>
	<path fill="#FFFFFF" d="M403.3,101.7c1,3.7-0.2,7.2-0.5,10.8c-1.9,18.1-4,36.1-6,54.2c-2,17.8-4.1,35.5-6,53.3
		c-1.2,11.5-6,21.9-9.3,32.6c-7.1,22.7-14.5,45.2-21.8,67.8c-1.3,4-3.2,7.4-6.9,9.6c6.9,4.7,7.1,10.1,0.8,16.4c3,2,4.2,5.7,7.6,7.6
		c-40.4,0-80.9,0-121.8,0c3.6-2.8,6.9-5.4,10.5-8.1c-2.8-2.1-4.4-4.8-4.1-8.4c0.2-3.5,2.3-5.9,5.4-7.5c-3.9-2.2-5.9-5.7-7.2-9.8
		c-9.8-30.5-19.7-61-29.5-91.6c-2.1-6.5-2-13.3-2.8-20c-2.3-19.8-4.4-39.6-6.7-59.5c-1.7-15.6-3.5-31.2-5.2-46.9
		c0-0.2,0.1-0.3,0.2-0.8c4.9,6.1,9.7,12.1,14.5,18.1c12.4,15.5,24.8,31,37.2,46.5c1.1,1.4,1.6,1.8,3,0.1
		c14.4-18.1,28.9-36.1,43.3-54.3c2.7-3.5,5.4-3,7.8,0c14.3,18.2,28.9,36.2,43.3,54.3c0.8,1.1,1.4,1.8,2.6,0.2
		c17.1-21.4,34.2-42.8,51.3-64.1C403,102.2,403.1,101.9,403.3,101.7L403.3,101.7z M253.1,179.6c-14.5-18-28.7-35.8-43.5-54.2
		c0.2,1.7,0.2,2.6,0.2,3.5c1.4,13,2.9,26,4.4,39c1.7,15.8,3.5,31.6,5.2,47.4c0.3,2.6,1.1,3.5,3.8,3.5c52.3-0.1,104.5-0.1,156.8-0.1
		c0.5,0,1.1,0,1.7,0c1.2,0.1,1.8-0.3,2-1.7c0.7-6.7,1.4-13.5,2.2-20.2c2-17.9,4-35.7,6-53.6c0.6-5.7,1.2-11.4,2-17.8
		c-1,1.2-1.6,1.8-2,2.5c-13.3,16.6-26.7,33.2-39.9,49.8c-1.3,1.6-1.9,1.7-3.2,0c-15-18.8-30.1-37.6-45.1-56.4
		c-1.7-2-2.3-1.8-3.8,0.1c-11,13.9-22.1,27.7-33.2,41.4C262.2,168.3,257.7,173.9,253.1,179.6z"/>
	<path fill="#FFFFFF" d="M436.3,679.8c-0.7-5-0.4-9.9-0.1-15c0.5-6.8,7-7.5,9.9-11.9c-0.6-0.1-1.4-0.1-2.2-0.3
		c-2.3-0.6-3.1-2.5-1.8-4.5c0.4-0.6,1.2-1,0.3-1.8c-1.5-1.4-1.1-2.8,0.1-4.6c-3.6,0-6.9-0.1-10.2,0c-1.5,0-1.9-0.5-1.7-2
		c1.6-18.5,3.5-37.1,4.5-55.7c0.4-6.8,2.6-12.1,6.8-17.3c9-11.5,17.6-23.2,26.3-34.8c1-1.3,5.8-2.4,6.9-1.5c0.9,0.7,0.5,1.8,0.4,2.6
		c-0.3,2.1,0.5,3.2,2.5,4c6,2.3,10.9,6.1,15.2,10.8c6.4,6.8,13.1,13.3,19.8,19.7c1.2,1.2,1.4,2,0.4,3.5c-3.1,4.4-6,8.9-9,13.3
		c-1.4,2.1-6.1,2.9-7.5,0.9c-3.4-4.9-7.5-4.5-12.4-2.9c-4.5,1.5-9.2,2.4-14.2,3.7c2.2,2.5,4.3,4.9,6.3,7.2
		c12.1,13.6,24.3,27.3,36.5,40.8c1.2,1.4,1.1,1.9-0.1,3.2c-2.7,3.2-5.7,5.4-10.6,4c0.6,2,1.4,3.5-0.2,4.9c-0.5,0.5-0.2,0.8,0.1,1.4
		c1.7,2.9,0.7,4.7-2.7,5c-0.4,0-0.8-0.2-1,0.3c2.7,2.3,5.6,4.7,8.1,7.2c0.9,0.9,3.2,1.7,1.2,3.7c-0.2,0.2,0.8,1.2,0.8,1.9
		c0,4.7,0.6,9.3-0.5,14c0.7,0,1.3,0.1,2,0.1c0.5,0,1.1,0,1.7,0.2c2.5,0.6,3.2,3.1,2.5,8.4c-0.3,2.1-1.5,3.1-3.6,3.1
		c-25.6,0-51.2,0-76.8,0c-2.3,0-3.2-1.1-3.5-3.2c-0.1-0.4,0-0.8-0.1-1.1C430,680.6,430.2,680.5,436.3,679.8z"/>
	<path fill="#FFFFFF" d="M152.5,605.6c5.6-0.3,7.1,1.4,5.6,5c5.4,0.2,7.4,2.9,5.7,8.3c-0.5,1.6-1.7,2.4-3.5,2.4c-2.3,0-4.5,0-6.8,0
		c-1.4-0.1-1.9,0.1-1.7,1.8c1.9,12,3.6,24,5.4,35.9c0.2,1.6,1,1.9,2.4,1.9c3.8,0,4.7,1.4,3.4,5c1,0,1.9,0,2.8,0c1.8,0,2.9,1.1,3,2.8
		c0.1,4,0.6,8-0.5,12c0.7,0.5,1.4,0.3,2.2,0.3c2.2,0.1,3.2,1.1,3.2,3.4c0.2,7.1,0.3,7.1-6.8,7.1c-21.6,0-43.3,0-65,0
		c-3.8,0-4.1-0.4-4.1-4.2c0-0.7,0-1.3,0-2c0-3.6,0.5-4.1,4-4.3c0.5,0,0.9-0.1,1.4-0.1c-1-4.1-0.5-8.2-0.5-12.3
		c0-1.7,1.1-2.6,2.7-2.6c0.9-0.1,1.9,0,2.9,0c-1.1-3.8-0.5-4.7,3.4-5c1.6-0.1,1.6-1.1,1.7-2c1.6-10.4,3.1-20.8,4.7-31.2
		c0-0.2,0-0.4,0.1-0.5c0.2-1.9,1.6-4.4,0.4-5.5c-1.1-1-3.8-0.4-5.7-0.4c-1.8,0-4,0.3-4.7-1.7c-0.9-2.5-1.1-5.3,0.2-7.7
		c1-2,3.2-1,5.1-1.4c-0.5-1.4-1.1-2.9,0.3-4.2c1.4-1.2,3.1-0.5,4.8-0.8c-0.8-1.4-1.2-2.9,0.3-4.2c0.3-0.2,0.3-0.4,0.2-0.8
		c-1.5-3.5-1.2-4.1,2.6-5.2c-4.4-4.4-7-9.6-8.3-15.7c-2.7-12.5,2.4-25.1,13.3-31.9c1.1-0.7,1.2-1.4,1.2-2.5c0-3.5,0-7.2,0-10.7
		c0-3.2,0.8-4,4-4c2.8,0,5.7,0.1,8.4,0c2.3-0.1,3.2,1.1,3.2,3.2c0,3.8,0,7.7,0,11.6c0,1.1,0.2,1.8,1.4,2.5
		c10.5,6.2,14.2,15.9,13.7,27.4c-0.3,7.6-3.1,14.5-8.9,20c1.4,0.5,2.8,0.6,3.5,2c0.8,1.5,0.1,2.5-1,3.5c-0.5,0.5,0.2,0.6,0.3,0.8
		C154,602.6,153.9,604,152.5,605.6z"/>
	<path fill="#FFFFFF" d="M54.2,692.4c-6.9,0-13.7,0-20.6,0c-0.8,0-2.1,0.5-2-1.1c0.1-1.3-0.7-3.2,1.4-3.5c1.7-0.2,1.7-0.9,1.5-2.1
		c-0.2-1.5,0-3-0.1-4.5c0-1.5,0.3-2.7,2.1-2.6c1.1,0.1,1.2-0.3,1-1.3c-0.2-0.7,0.4-1.5,1-1.5c2.9,0.1,2.3-2.1,2.5-3.7
		c1.1-9.8,2.1-19.7,3.2-29.5c0.3-2.6-0.3-3.4-2.9-3.2c-3.6,0.2-4.3-0.7-3.8-4.3c0.1-0.3,0-0.8,0.2-0.8c1.8-1,2.9-2.9,4.4-4
		c1.1-0.8,1.7-1.2,1.7-2.4c0-2,0.3-3.8-0.5-5.8c-2.1-5.5-3.7-11.2-5.6-16.8c-0.5-1.4-0.3-2.4,1.4-2.6c0.5,0,1.1,0.2,1.2-0.5
		c0.1-3.2,2.4-2.3,4.3-2.5c1.4-0.1,2.3,0.4,2.3,1.8c0,1.4,0.9,1.2,1.7,1.1c1.2-0.1,0.8-1,0.9-1.7c0.2-4.1,0.2-4.1,4.3-4.1
		c0.5,0,1.1,0.1,1.7,0c2.7-0.5,3.8,0.7,3.5,3.4c-0.2,1.1-0.4,2.6,1.7,2.3c0.6-0.1,1.1-0.2,1.1-0.9c-0.1-2.2,1.4-2,2.9-2
		c1.5,0.1,3.5-0.5,3.5,2c0,0.6,0.3,0.9,0.8,0.8c2.6-0.1,2.4,1.4,1.7,3.2c-2.1,5.8-3.7,11.8-6,17.6c-0.7,1.7-0.1,4.1,0.1,6.1
		c0,0.5,0.8,0.5,1.2,0.5c2,0.2,2.1,1.4,1.7,2.9c1.2,0.3,2.7-0.2,3.2,1.6c1,3.1-0.2,4.9-3.5,4.9c-3.9,0-3.9,0-3.5,4
		c1.1,10,2.2,20,3.2,30c0.2,1.2,0.2,2.3,1.8,2.1c0.2,0,0.4,0.1,0.5,0.1c2.1-0.2,0.2,3,2.6,3c2.4,0,1.8,2.3,1.7,3.7
		c-0.2,1.6,0.7,3.2-0.5,4.8c-0.5,0.6,0.8,1,1.4,0.9c2.3-0.3,2,1.3,2,2.7c0.2,2.2-1.4,1.6-2.4,1.6C67.7,692.4,60.9,692.4,54.2,692.4z
		"/>
	<path fill="#FFFFFF" d="M551,650.3c-7.2-9-7.1-17.3-0.2-24c5.8-5.7,15.3-5.8,21.9-0.3c7,5.9,7.2,14.6,0.4,24.3c2.1,0,4.1,0,6,0
		c1.5,0,2.7,0.5,2.6,2.3c-0.1,1.5-1.3,1.8-2.7,1.8c-5.7,0.1-5.7,0.1-4.4,5.7c0.7,3.2,1.4,6.4,2,9.6c0.3,1.4,0.8,2.3,2.6,2.2
		c1.6-0.2,2.9,0.5,2.6,2.4c-0.2,1.1,0.5,1.1,1.1,1.1c2.2,0.1,2.9,1.4,2.8,3.4c-0.1,1.3,0,2.6,0,3.9c0,1.7-1.1,3.5,2.3,3.8
		c2.2,0.2,1.1,3,1.1,4.7c0,1.7-1.6,0.8-2.4,0.8c-16.3,0.1-32.6,0.1-48.8,0c-0.8,0-2.6,0.9-2.4-1.2c0.2-1.8-1.1-4.4,2-4.7
		c1.7-0.2,1.6-0.8,1.4-2.1c-0.2-1.6,0-3.2-0.1-4.8c-0.1-2.2,0.2-4,3-3.9c0.1,0,0.2,0,0.3,0c-0.6-3.9,5.3-2.8,5.2-6.9
		c-0.1-3.8,1.4-7.7,2.4-11.5c0.5-2,0-2.7-2.1-2.4c-0.9,0.2-1.9,0-2.8,0c-1.3,0-2.3-0.5-2.3-2c0-1.3,1-2,2.3-2
		C546.4,650.3,548.5,650.3,551,650.3z"/>
	<path fill="#FFFFFF" d="M383.4,420.9c8.1-10.1,15.9-19.9,23.8-29.8c0.5-0.7,1.1-1.4,1.7-1.9c1.4-1.2,2.6-0.8,3,1.1
		c0.2,0.6,0.1,1.3,0.1,2c0,17-0.1,33.9,0.1,50.8c0,2.5-0.7,3.4-3.2,3.2c-2.7-0.2-5.5-0.2-8.2,0c-2.6,0.2-3.5-0.6-3.4-3.3
		c0.2-6,0.1-12,0.1-18.6c-4.3,5-8.1,9.3-11.9,13.9c-1.5,1.9-2.5,2-4.1,0c-3.6-4.5-7.5-8.8-11.8-13.7c0,6.6-0.1,12.6,0.1,18.5
		c0.1,2.4-0.6,3.4-3.2,3.2c-3-0.2-6-0.1-9,0c-1.7,0.1-2.6-0.5-2.6-2.4c0.1-17.5,0-35,0-52.5c0-1.1,0-2.3,1.1-2.7
		c1.4-0.6,2.2,0.7,2.9,1.6c7.5,9.4,15,18.8,22.5,28.3C382.1,419.3,382.7,420,383.4,420.9z"/>
	<path fill="#FFFFFF" d="M131.7,418.1c0,8.4-0.1,17,0,25.4c0,2-0.5,2.9-2.7,2.8c-3.2-0.2-6.4-0.2-9.6,0c-2.1,0.1-2.9-0.7-2.8-2.8
		c0.1-4.6-0.1-9.2,0.1-13.9c0.1-1.9-0.3-2.6-2.4-2.6c-5,0.2-9.9,0.2-15,0c-1.8-0.1-2.5,0.4-2.4,2.3c0.2,4.6-0.1,9.2,0.1,13.9
		c0.1,2.4-0.8,3.2-3.1,3c-3.2-0.2-6.4-0.1-9.6,0c-1.7,0.1-2.3-0.5-2.3-2.3c0.1-17.3,0.1-34.7,0-51.9c0-1.7,0.7-2.3,2.3-2.3
		c3.4,0.1,6.8,0.2,10.2,0c2.1-0.1,2.6,0.9,2.6,2.7c-0.1,6.5,0.1,13-0.1,19.4c0,1.9,0.4,2.6,2.5,2.6c5-0.2,9.9-0.2,15,0
		c1.9,0.1,2.4-0.5,2.4-2.3c-0.2-6.4,0.1-12.8-0.1-19.2c-0.1-2.4,0.7-3.4,3.2-3.2c3.1,0.2,6.2,0.2,9.3,0c2-0.1,2.6,0.8,2.6,2.6
		C131.7,401,131.7,409.5,131.7,418.1z"/>
	<path fill="#FFFFFF" d="M299.9,422.5c0,5.3,0,10.6,0,15.9c0,7.8,0,7.8-7.9,7.8c-7.3,0-7.3,0-7.3-7.2c0-15.4,0.1-30.7-0.1-46
		c0-2.6,0.8-3.5,3.4-3.3c3,0.2,6,0.2,9,0c2.1-0.1,2.9,0.7,2.8,2.8c-0.1,6.2,0,12.4,0,19.2c1.1-1.1,1.8-1.8,2.4-2.6
		c5-5.8,10.2-11.6,15.1-17.5c1.1-1.4,2.3-2,4.1-1.9c4.2,0.1,8.4,0,12.7,0.1c0.9,0,2.1-0.5,2.5,0.7c0.4,1.1-0.6,1.7-1.2,2.4
		c-6,7.1-12.1,14.2-18.2,21.2c-1.4,1.6-1.4,2.6-0.2,4.2c6,8.1,12,16.4,17.9,24.6c0.6,0.8,1.7,1.6,1.3,2.6c-0.5,1.2-1.8,0.6-2.8,0.7
		c-4.4,0.1-8.8-0.1-13.3,0.1c-2.2,0.1-3.5-0.8-4.7-2.5c-4.5-6.5-9.1-12.9-13.7-19.4c-0.5-0.8-1.1-1.4-1.6-2.1
		C300.2,422.5,300,422.5,299.9,422.5z"/>
	<path fill="#FFFFFF" d="M557.4,417.9c0-8.3,0.1-16.6-0.1-24.9c0-2.4,0.6-3.3,3.2-3.3c10.7,0.2,21.5,0.1,32.2,0
		c2.2,0,3.1,0.7,2.9,2.9c-0.2,2.4-0.2,4.9,0,7.3c0.1,2-0.7,2.7-2.6,2.6c-6.1-0.1-12.2,0-18.4-0.1c-1.7,0-2.3,0.3-2.2,2.1
		c0.2,2.7,0.2,5.4,0,8.2c-0.1,1.5,0.5,1.9,1.9,1.9c5.2-0.1,10.3,0,15.5-0.1c2,0,2.9,0.6,2.9,2.8c-0.1,2.3-0.1,4.5,0,6.8
		c0.1,2-0.8,2.7-2.7,2.6c-5-0.1-10.2,0.1-15.2-0.1c-1.7,0-2.7,0.3-2.3,2.3c0.1,0.5,0.1,1,0,1.4c-0.4,2.3,0.3,3.1,2.8,2.9
		c5.7-0.2,11.5,0,17.3-0.2c2.5-0.1,3.4,0.8,3.2,3.3c-0.2,2.3-0.2,4.5,0,6.8s-0.8,2.9-2.9,2.9c-10.7-0.1-21.5-0.2-32.2,0
		c-2.6,0-3.2-1-3.2-3.3C557.4,434.6,557.4,426.2,557.4,417.9z"/>
	<path fill="#FFFFFF" d="M37.9,388.2c9,0.2,17.2,2.6,23.7,9.3c1.7,1.7,2,2.9-0.4,4.3c-2.6,1.5-5.1,3.2-7.5,5
		c-1.6,1.2-2.7,1.1-4.1-0.4c-3.4-3.7-7.8-4.8-12.5-4.6c-10.3,0.6-16.5,9.3-14.2,20c1.2,5.5,4.1,9.7,9.7,11.4
		c6,1.7,11.8,1.3,16.6-3.3c1.9-1.8,3.2-2,5.2-0.5c2.2,1.7,4.6,3.3,7,4.7c2.3,1.3,2,2.3,0.4,4.1c-6.3,6.7-14.2,9.3-23.1,9.4
		c-11.5,0.2-21.3-3.4-27.4-13.9c-6.9-12.1-5.5-33.7,11.1-41.9C27.2,389.3,32.4,388.4,37.9,388.2z"/>
	<path fill="#FFFFFF" d="M239.6,388.2c10.1,0.2,18.4,2.6,24.9,9.6c1.6,1.7,1.5,2.7-0.5,3.9c-2.4,1.4-4.8,2.9-7,4.7
		c-2,1.6-3.3,1.4-5.2-0.4c-5.7-5.6-15.8-5.7-21.6-0.5c-6.2,5.5-6.6,17.6-0.9,23.9c5.5,6,16.5,6.3,22.7,0.3c1.8-1.7,3.1-1.8,5-0.4
		c2.4,1.8,5,3.4,7.5,5c1.6,1,1.7,1.9,0.5,3.3c-4.5,5-10.2,8-16.7,9.2c-8.7,1.6-17.1,0.8-24.8-3.7c-9.7-5.7-14.8-17.9-12.8-30.1
		C213,397.4,224,388.3,239.6,388.2z"/>
	<path fill="#FFFFFF" d="M153.7,418c0-8.4,0.1-16.7-0.1-25.1c0-2.3,0.5-3.2,2.9-3.2c10.9,0.2,21.6,0.1,32.5,0c2.1,0,2.9,0.8,2.7,2.8
		c-0.2,2.4-0.2,4.9,0,7.3c0.1,2.1-0.7,2.9-2.8,2.8c-6-0.1-12.1,0.1-18.1-0.1c-1.9,0-2.4,0.5-2.3,2.3c0.2,2.6,0.2,5,0,7.6
		c-0.1,1.7,0.4,2.3,2.2,2.2c5-0.2,10.2,0,15.2-0.1c2,0,2.9,0.6,2.8,2.8c-0.2,2.2-0.2,4.4,0,6.5c0.2,2.5-1,3-3.2,2.9
		c-4.8-0.1-9.6,0.1-14.4-0.1c-2-0.1-2.8,0.4-2.7,2.6c0.2,4,0,4,4.1,4c5.2,0,10.3,0.2,15.5-0.1c2.9-0.2,3.8,0.9,3.6,3.7
		c-0.2,2.3-0.1,4.7,0,7.1c0,1.6-0.6,2.2-2.2,2.1c-11.2-0.1-22.4-0.1-33.6,0c-2,0-2.3-0.9-2.3-2.6C153.7,435.1,153.7,426.6,153.7,418
		z"/>
	<path fill="#FFFFFF" d="M477.3,446.3c-0.8,0-1.7-0.1-2.6,0c-3.7,0.6-6.3-0.5-6.9-4.4c-0.2-1.2-1-1.6-2.3-1.6
		c-5.6,0.1-11.1,0.1-16.7,0c-1.7,0-2.2,0.9-2.4,2.1c-0.7,3.3-2.6,4.3-5.9,4c-2.9-0.3-5.8-0.1-8.7-0.1c-3,0-3.2-0.4-2-3.1
		c4-8.6,8.1-17.1,12.1-25.7c4.2-8.9,8.4-17.8,12.7-26.7c0.5-1.2,1-2.7,2.6-2.7c1.6,0,2,1.6,2.6,2.7c8.3,17.5,16.5,34.9,24.8,52.4
		c1.3,2.7,1.1,3-2,3.1C480.9,446.3,479.1,446.3,477.3,446.3z M457.3,414.8c-1.8,4.7-3.3,8.6-5,12.5c-0.5,1.2-0.4,1.7,1.1,1.7
		c2.6-0.1,5.3-0.1,7.9,0c1.3,0,1.4-0.4,1-1.5C460.7,423.5,459.1,419.5,457.3,414.8z"/>
	<path fill="#FFFFFF" d="M511.5,424.1c0-6.5-0.1-13,0-19.4c0-1.6-0.5-2.1-2-2c-2.8,0.2-5.7,0-8.4,0.1c-1.7,0-2.4-0.7-2.4-2.3
		c0-2.7,0-5.4,0-8.2c0-1.6,0.5-2.4,2.3-2.4c12.1,0.1,24.3,0,36.4,0c1.6,0,2.3,0.6,2.3,2.2c0,2.8,0,5.7,0,8.4c0,1.7-0.9,2.3-2.5,2.3
		c-2.7-0.1-5.5,0.2-8.2-0.1c-1.9-0.2-2.3,0.5-2.3,2.3c0.1,12.6-0.1,25.2,0.1,37.8c0,2.9-0.9,3.8-3.7,3.5c-2.7-0.2-5.5-0.2-8.2,0
		c-2.9,0.2-3.5-1-3.5-3.6C511.6,436.5,511.5,430.3,511.5,424.1z"/>
	<path fill="#FFFFFF" d="M191,520.9c-9.8-0.1-17.3-7.5-17.3-17.3c0-9.9,7.6-17.4,17.6-17.3c9.8,0.1,17.3,7.5,17.3,17.3
		C208.5,513.5,200.9,520.9,191,520.9z M204.2,503.5c0-7.6-5.6-13.3-13.1-13.3c-7.4,0-13,5.7-13,13.1c-0.1,7.6,5.6,13.4,13,13.4
		C198.5,516.9,204.2,511.2,204.2,503.5z"/>
	<path fill="#FFFFFF" d="M46.3,503.4c0-4.8,0-9.6,0-14.4c0-1.1-0.2-2.2,1.4-2.1c4.4,0.2,8.8-0.5,13.2,0.5c4.3,1,7.1,3.5,7.8,7.8
		c0.8,4.6,0.5,9.2-3.8,12.2c-1.6,1.1-1.5,1.8-0.7,3.2c1.2,2.1,2.3,4.3,3.3,6.5c0.4,0.9,1.8,2.3,0.6,2.8c-1.4,0.6-3.5,1.1-4.6-1.2
		c-1.1-2.5-2.6-4.8-3.6-7.3c-0.6-1.4-1.4-2-3-1.7c-2.1,0.4-5-0.9-6.2,0.6c-1.1,1.4-0.2,4.1-0.5,6.3c-0.2,1.4,1.3,3.6-1.9,3.7
		c-1.7,0-2.3-0.5-2.3-2.3C46.3,513.2,46.3,508.3,46.3,503.4z M50.4,498.3c0,8.3,0,8.3,7.9,7.3c4.1-0.5,6.5-2.9,6.6-7.1
		c0.2-4.2-2.1-7-6.3-7.6c-1.7-0.2-3.4,0-5-0.2c-2.3-0.3-3.5,0.3-3.1,2.9C50.6,495.3,50.4,496.8,50.4,498.3z"/>
	<path fill="#FFFFFF" d="M487.1,503.3c0-4.8,0.1-9.6,0-14.4c0-1.6,0.5-2.1,2.1-2.1s2.2,0.4,2.2,2c-0.1,4.9,0,9.8-0.1,14.7
		c0,1.5,0.3,2.1,2,2.1c4.1-0.2,8.3-0.2,12.4,0c1.7,0.1,2-0.6,2-2.1c-0.1-4.8,0-9.6-0.1-14.4c0-1.7,0.5-2.3,2.3-2.3s2.2,0.8,2.2,2.3
		c-0.1,9.6-0.1,19.2,0,28.8c0,1.7-0.5,2.3-2.3,2.3c-1.8,0-2.3-0.8-2.2-2.4c0.1-2.3,0-4.5,0.1-6.8c0.1-1.3-0.5-1.6-1.7-1.6
		c-4.3,0.1-8.7,0.1-13,0c-1.4,0-1.7,0.5-1.7,1.8c0.1,2,0,4.1,0,6.2c0,1.4,0.2,2.7-2,2.7c-2.2,0-2.2-1.1-2.2-2.6
		C487.1,513,487.1,508.1,487.1,503.3z"/>
	<path fill="#FFFFFF" d="M113.6,503.5c0-4.8,0.1-9.6,0-14.4c-0.1-1.7,0.5-2.3,2.3-2.2c4,0.2,8.1-0.4,12.1,0.5
		c6.2,1.4,8.7,5.2,8.4,12.3c-0.3,5.7-3.8,9.3-9.6,9.9c-2.3,0.2-4.5,0.3-6.8,0.2c-1.8-0.1-2.3,0.6-2.2,2.3c0.2,1.9,0,3.8,0.1,5.7
		c0,1.5,0.1,2.7-2.2,2.6c-2.3-0.1-2-1.4-2-2.8C113.6,512.9,113.6,508.2,113.6,503.5z M117.7,498.3c0,8.3,0,8.3,7.8,7.4
		c4.6-0.5,7.1-3.5,6.6-8.1c-0.5-5.2-3.7-6.9-12.4-6.7c-2,0.1-2,0.1-2,6C117.7,497.3,117.7,497.8,117.7,498.3z"/>
	<path fill="#FFFFFF" d="M6,503.9c0.2-7.3,3-12.7,9.4-15.8c6.3-3.1,12.6-2.6,18.3,1.6c0.8,0.5,2.8,1,1.4,2.6c-1,1.2-2.2,2.2-4,0.8
		c-3.2-2.6-7.1-3.3-11.2-2.3c-5.5,1.4-8.6,5.1-9.6,10.6c-0.9,5.4,1.4,10.8,5.8,13.4c4.7,2.9,9.6,2.8,14.4-0.2
		c0.8-0.5,1.4-1.6,2.4-1.4c1.1,0.2,2.1,1,2.6,2c0.4,1.1-0.8,1.4-1.4,1.9c-5.7,4.3-11.8,5-18.3,2.1C9.3,516.3,6.2,510.8,6,503.9z"/>
	<path fill="#FFFFFF" d="M463.8,520.9c-7.7,0-14.2-4.6-16.6-11.6c-2.4-7.5,0.2-15.7,6.4-20c5.9-4.1,14.7-4.1,20.3,0.3
		c0.8,0.6,2.9,1.1,1.5,2.9c-1,1.3-2.2,1.9-4,0.6c-5.8-4.1-13.3-3.3-17.6,1.7c-4.3,5-4.3,12.9,0,17.9c4.4,5,11.7,5.7,17.6,1.7
		c0.8-0.5,1.4-1.4,2.7-0.6c2.2,1.4,2.3,2,0.2,3.6C471.6,519.7,467.9,520.9,463.8,520.9z"/>
	<path fill="#FFFFFF" d="M562.5,520.9c-2.6,0.1-5.5-0.8-8.4-1.9c-1.5-0.6-2-1.3-1.3-2.9c0.7-1.5,1.4-1.7,2.8-0.9
		c2.7,1.5,5.6,2.1,8.7,1.7c2.1-0.2,3.8-1.1,4.5-3.2c0.7-2.1-0.2-3.9-1.8-5.3c-2.6-2.2-5.8-3.5-8.6-5.4c-2.9-1.9-5.3-4.2-5.5-8
		c-0.3-4.6,2.6-8.1,7.3-8.8c3.5-0.5,6.9,0.2,10.2,1.4c1.4,0.5,1.7,1.2,1,2.6c-0.5,1.1-0.8,2-2.4,1.3c-2.4-1.1-5-1.7-7.7-1.3
		c-1.7,0.2-3.1,0.8-3.8,2.4c-0.8,1.7-0.2,3.3,0.8,4.7c1,1.3,2.3,2.2,3.7,2.9c2,1.2,4.1,2.3,6.1,3.5c4.5,3,6.1,6.6,4.8,10.9
		C571.9,518.8,568.1,520.9,562.5,520.9z"/>
	<path fill="#FFFFFF" d="M593.5,520.9c-3.2,0.1-6.1-0.9-9-2.1c-1.6-0.6-1.4-1.4-0.8-2.6c0.5-1.2,1-2,2.5-1.1c2.9,1.6,6,2.3,9.3,1.9
		c2-0.3,3.6-1.1,4.3-3.2c0.7-2-0.1-3.7-1.6-5c-2.5-2.3-5.7-3.5-8.6-5.4c-2.5-1.7-4.7-3.5-5.5-6.5c-1.4-5,1.6-9.6,6.8-10.4
		c3.6-0.6,7.1,0.1,10.5,1.4c1.5,0.6,1.4,1.4,0.9,2.6c-0.5,1.2-1,1.9-2.5,1.1c-2.3-1.1-4.8-1.6-7.4-1.3c-1.7,0.2-3.2,0.7-3.9,2.3
		c-0.8,1.8-0.4,3.5,0.9,5c1,1.2,2.3,2,3.5,2.8c2,1.1,3.9,2.2,5.9,3.4c4.7,3,6.5,6.8,5.1,11.1C602.6,518.9,599,521,593.5,520.9z"/>
	<path fill="#FFFFFF" d="M524.8,503.4c0-4.8,0.1-9.6,0-14.4c0-1.6,0.5-2.1,2.1-2.1c4.6,0.1,9.2,0.1,13.9,0c1.4,0,2,0.5,2,1.9
		c0,1.6-0.5,2.2-2.1,2.1c-3.3-0.1-6.6,0-9.9-0.1c-1.4,0-1.7,0.5-1.7,1.7c0.1,3.8,0.1,7.5,0,11.3c-0.1,1.7,0.7,1.8,2,1.8
		c2.6-0.1,5.3,0.1,7.9-0.1c1.7-0.1,2.1,0.6,2.1,2.2c0,1.7-0.8,1.8-2.1,1.8c-2.6-0.1-5.3,0-7.9-0.1c-1.4-0.1-2,0.2-2,1.8
		c-0.2,5-0.2,5,4.7,5c2.3,0,4.7,0.1,7.1,0c1.5-0.1,2,0.5,2,2c0,1.4-0.2,2.1-1.9,2c-4.7-0.1-9.4-0.1-14.1,0c-1.8,0.1-2-0.9-2-2.3
		C524.8,513.2,524.8,508.3,524.8,503.4z"/>
	<path fill="#FFFFFF" d="M77.7,487.2c2.9-0.8,4.9-0.2,6.3,2.5c2,3.5,4.3,6.9,6.7,10.6c2.2-3.4,4.2-6.6,6.3-9.7
		c0.5-0.8,1.1-1.7,1.7-2.6c0.7-0.9,4.5-1.6,4.9-0.8c0.6,1.3-0.8,2-1.2,2.9c-0.5,0.9-1.1,1.8-1.7,2.6c-6.3,7.3-9.4,15.6-7.9,25.3
		c0.2,1.4,0.1,2.5-2,2.5c-2.1,0-2.4-1-2.2-2.6c1.5-9.6-1.6-17.8-7.8-25.1C79.6,491.1,78.2,489.4,77.7,487.2z"/>
	<path fill="#FFFFFF" d="M152.6,505.4c0-4.2-0.1-8.4,0-12.7c0-1.4-0.3-2-1.9-1.9c-1.5,0.2-3-0.1-4.5,0.1c-1.6,0.1-2.2-0.5-2.2-2.1
		c0-1.5,0.7-1.9,2-1.9c5.7,0.1,11.5,0.1,17.2,0c1.4,0,2.1,0.3,2.1,1.9s-0.5,2.2-2.1,2.2c-2,0-4.7-0.9-6,0.4
		c-1.3,1.4-0.4,4.1-0.4,6.3c-0.1,6.8-0.1,13.6,0,20.3c0,1.7-0.4,2.6-2.3,2.5c-2,0-2.1-1-2-2.5C152.7,513.7,152.6,509.6,152.6,505.4z
		"/>
	<path fill="#010101" d="M403.3,101.7c0.1,0.1,0.2,0.1,0.3,0.2C403.5,101.8,403.3,101.8,403.3,101.7L403.3,101.7z"/>
	<path fill="#FDC620" d="M253.1,179.6c4.6-5.7,9.1-11.2,13.6-16.8c11.1-13.8,22.2-27.6,33.2-41.4c1.5-1.9,2.2-2.1,3.8-0.1
		c15,18.8,30.1,37.6,45.1,56.4c1.3,1.7,1.9,1.6,3.2,0c13.3-16.7,26.6-33.2,39.9-49.8c0.5-0.7,1.1-1.3,2-2.5
		c-0.7,6.4-1.3,12.1-2,17.8c-2,17.9-4,35.7-6,53.6c-0.8,6.7-1.6,13.5-2.2,20.2c-0.2,1.4-0.8,1.8-2,1.7c-0.5-0.1-1.1,0-1.7,0
		c-52.3,0-104.5,0-156.8,0.1c-2.8,0-3.6-0.8-3.8-3.5c-1.7-15.8-3.5-31.7-5.2-47.4c-1.4-13-2.9-26-4.4-39c-0.1-0.9-0.2-1.8-0.2-3.5
		C224.3,143.8,238.6,161.6,253.1,179.6z"/>
</g>
</svg>
