<svg height="512pt" viewBox="0 0 512 512" width="512pt" xmlns="http://www.w3.org/2000/svg" xmlns:xlink="http://www.w3.org/1999/xlink"><linearGradient id="a" gradientUnits="userSpaceOnUse" x1="256" x2="256" y1="0" y2="512"><stop offset="0" stop-color="#2af598"/><stop offset="1" stop-color="#009efd"/></linearGradient><path d="m512 401v20c0 50.054688-40.707031 90.800781-90.816406 91h-.367188c-50.109375-.199219-90.816406-40.945312-90.816406-91 0-50.179688 40.796875-91 90.945312-91 12.867188 0 25.320313 2.644531 37.007813 7.859375l-16.296875 36.527344c-6.527344-2.910157-13.496094-4.386719-20.710938-4.386719-28.089843 0-50.945312 22.878906-50.945312 51 0 28.0625 22.859375 50.902344 51 51 21.023438-.074219 39.101562-12.84375 46.898438-31h-42.898438v-40zm-379-15.5c0 30.601562-24.898438 55.5-55.5 55.5h-37.5v71h-40v-182h77.5c30.601562 0 55.5 24.898438 55.5 55.5zm-40 0c0-8.546875-6.953125-15.5-15.5-15.5h-37.5v31h37.5c8.546875 0 15.5-6.953125 15.5-15.5zm266.890625-214.390625c-33.085937 0-60-26.914063-60-60v-71.109375h-174.890625c-11.027344 0-20 8.972656-20 20v230h-40v-230c0-33.085938 26.914062-60 60-60h203.757812l142.128907 142.855469v147.144531h-40v-118.890625zm0-40h42.886719l-62.886719-63.210937v43.210937c0 11.03125 8.96875 20 20 20zm-101.890625 300.453125-53.800781-101.5625h-43.199219v182h40v-101.5625l53.800781 101.5625h43.199219v-182h-40zm0 0" fill="url(#a)"/></svg>