<?xml version="1.0" encoding="utf-8"?>
<!-- Generator: Adobe Illustrator 17.1.0, SVG Export Plug-In . SVG Version: 6.00 Build 0)  -->
<!DOCTYPE svg PUBLIC "-//W3C//DTD SVG 1.1//EN" "http://www.w3.org/Graphics/SVG/1.1/DTD/svg11.dtd">
<svg version="1.1" id="Layer_1" xmlns="http://www.w3.org/2000/svg" xmlns:xlink="http://www.w3.org/1999/xlink" x="0px" y="0px"
	 viewBox="0 0 512 512" enable-background="new 0 0 512 512" xml:space="preserve">
<linearGradient id="SVGID_1_" gradientUnits="userSpaceOnUse" x1="248.4453" y1="514" x2="248.4453" y2="12" gradientTransform="matrix(1 0 0 -1 0.5 514)">
	<stop  offset="0" style="stop-color:#2AF598"/>
	<stop  offset="1" style="stop-color:#009EFD"/>
</linearGradient>
<path fill="url(#SVGID_1_)" d="M86,60c0-11,9-20,20-20h174.9v71.1c0,33.1,26.9,60,60,60h71V290h40V142.9L309.8,0H106
	C72.9,0,46,26.9,46,60v230h40V60z M320.9,111.1V67.9l62.9,63.2h-42.9C329.9,131.1,320.9,122.1,320.9,111.1z M174,320h40v115
	c0,36.9-30.1,67-67,67s-67-30.1-67-67h40c0,14.9,12.1,27,27,27s27-12.1,27-27V320z M414,446.5c0,30.6-24.9,55.5-55.5,55.5H269v-40
	h89.5c8.5,0,15.5-7,15.5-15.5s-7-15.5-15.5-15.5h-34c-30.6,0-55.5-24.9-55.5-55.5s24.9-55.5,55.5-55.5H393v40h-68.5
	c-8.5,0-15.5,7-15.5,15.5s7,15.5,15.5,15.5h34C389.1,391,414,415.9,414,446.5z"/>
</svg>
