<?xml version="1.0" encoding="utf-8"?>
<!-- Generator: Adobe Illustrator 17.1.0, SVG Export Plug-In . SVG Version: 6.00 Build 0)  -->
<!DOCTYPE svg PUBLIC "-//W3C//DTD SVG 1.1//EN" "http://www.w3.org/Graphics/SVG/1.1/DTD/svg11.dtd">
<svg version="1.1" id="Layer_1" xmlns="http://www.w3.org/2000/svg" xmlns:xlink="http://www.w3.org/1999/xlink" x="0px" y="0px"
	 viewBox="0 0 612 792" enable-background="new 0 0 612 792" xml:space="preserve">
<linearGradient id="SVGID_1_" gradientUnits="userSpaceOnUse" x1="263.4658" y1="202.7059" x2="263.4658" y2="826.8105" gradientTransform="matrix(1.1953 0 0 1.1953 0.5977 -242.2969)">
	<stop  offset="0" style="stop-color:#2AF598"/>
	<stop  offset="1" style="stop-color:#009EFD"/>
</linearGradient>
<path fill="url(#SVGID_1_)" d="M86.6,100.8c0-18.5,12.9-33.6,28.7-33.6h251.1v119.5c0,55.6,38.6,100.8,86.2,100.8h101.9v199.9H612
	V240.2L408,0H115.3C67.8,0,29.2,45.2,29.2,100.8v386.6h57.4V100.8z M397.5,186.7v-72.6l90.3,106.2h-61.6
	C410.4,220.4,397.5,205.2,397.5,186.7z M111,545.4h39.1v126.8c0,40.7-29.4,73.9-65.5,73.9S19,712.8,19,672.1h39.1
	c0,16.4,11.8,29.8,26.4,29.8s26.4-13.3,26.4-29.8V545.4z M305.4,679.3c0,32.5-23.2,58.9-51.7,58.9h-83.4v-42.5h83.4
	c7.9,0,14.4-7.4,14.4-16.5c0-9-6.5-16.5-14.4-16.5H222c-28.5,0-51.7-26.4-51.7-58.9c0-32.5,23.2-58.9,51.7-58.9h63.8v42.5H222
	c-7.9,0-14.4,7.4-14.4,16.5c0,9,6.5,16.5,14.4,16.5h31.7C282.2,620.4,305.4,646.8,305.4,679.3z M432.2,643.1
	c0.1,12-0.6,23.9-2.4,35.7c-2.2,13.6-5.8,26.6-12.2,38.2c-4.8,8.5-10.7,15.4-18.4,20.2c-5,3.1-10.3,5-15.8,5.9
	c-7.6,1.2-15.1,0.9-22.6-1.1c-13.6-3.7-23.7-13-31.1-27.1c-4.9-9.4-8-19.6-10-30.3c-1.9-9.7-2.9-19.5-3.3-29.4
	c-0.4-9.4-0.5-18.8,0.1-28.2c0.5-9.2,1.6-18.3,3.4-27.2c2.4-11.4,6.1-22.2,12-31.7c7.2-11.8,16.6-19.7,28.6-22.9
	c5.6-1.5,11.2-1.8,16.9-1.5c6.5,0.4,12.8,2,18.8,5c9.4,4.8,16.6,12.5,22.1,22.7c5.4,9.9,8.7,20.8,10.8,32.2
	c1.9,10.5,2.9,21.1,3.1,31.8C432.3,637.9,432.2,640.5,432.2,643.1z M361.4,643.5c0,3.2-0.1,6.3,0,9.5c0.2,8.2,0.6,16.4,1.9,24.5
	c0.7,4.7,1.7,9.2,3.8,13.4c4.4,8.9,11.1,11.4,18.5,8.8c4.7-1.6,7.8-5.6,10.1-10.6c2.2-4.8,3.2-10.2,3.9-15.6
	c1.3-9.4,1.6-19,1.6-28.5c0-5.9-0.1-11.8-0.4-17.7c-0.4-7.2-1.2-14.4-3-21.3c-1.4-5.3-3.3-10.4-6.7-14.4c-4.6-5.4-12.3-6.5-17.7-2.3
	c-3.1,2.4-5.1,5.9-6.6,9.8c-2.7,6.9-3.8,14.2-4.5,21.7C361.4,628.3,361.2,635.9,361.4,643.5z M540.1,652.4l-41.6-109.9H465v196.9
	H496V629.5l41.6,109.9H571V542.5h-30.9V652.4z"/>
</svg>
