<?xml version="1.0" encoding="utf-8"?>
<!-- Generator: Adobe Illustrator 17.1.0, SVG Export Plug-In . SVG Version: 6.00 Build 0)  -->
<!DOCTYPE svg PUBLIC "-//W3C//DTD SVG 1.1//EN" "http://www.w3.org/Graphics/SVG/1.1/DTD/svg11.dtd">
<svg version="1.1" id="Layer_1" xmlns="http://www.w3.org/2000/svg" xmlns:xlink="http://www.w3.org/1999/xlink" x="0px" y="0px"
	 viewBox="0 0 612 792" enable-background="new 0 0 612 792" xml:space="preserve">
<g>
	<linearGradient id="SVGID_1_" gradientUnits="userSpaceOnUse" x1="78.914" y1="632.3682" x2="274.8354" y2="632.3682">
		<stop  offset="0" style="stop-color:#2AF598"/>
		<stop  offset="1" style="stop-color:#009EFD"/>
	</linearGradient>
	<path fill="url(#SVGID_1_)" d="M274.8,631.7c0.2,15.4-0.9,30.7-4.1,45.9c-3.6,17.5-9.7,34.1-20.6,49.1c-8,10.9-18.1,19.8-30.9,25.9
		c-8.4,4-17.3,6.4-26.7,7.6c-12.8,1.6-25.5,1.2-38.1-1.4c-22.9-4.7-40-16.7-52.4-34.8c-8.2-12-13.4-25.2-16.9-39
		c-3.2-12.4-4.9-25.1-5.6-37.8c-0.7-12.1-0.8-24.1,0.1-36.2c0.8-11.8,2.6-23.5,5.8-35c4.1-14.7,10.3-28.5,20.2-40.7
		c12.2-15.2,28.1-25.3,48.3-29.5c9.4-1.9,18.9-2.4,28.5-1.9c11,0.6,21.6,2.5,31.7,6.4c15.8,6.1,27.9,16.1,37.3,29.1
		c9.1,12.7,14.7,26.7,18.2,41.4c3.3,13.5,4.8,27.1,5.2,40.9C274.9,625.1,274.8,628.4,274.8,631.7z M145.7,632.2
		c0,4.1-0.1,8.1,0,12.2c0.3,10.5,1.1,21,3.2,31.4c1.2,6,2.9,11.8,6.4,17.2c7.4,11.4,18.8,14.6,31.1,11.3c7.9-2.1,13.1-7.2,17-13.6
		c3.8-6.2,5.4-13.1,6.6-20c2.1-12.1,2.7-24.4,2.7-36.6c0-7.6-0.2-15.2-0.7-22.7c-0.6-9.3-2.1-18.5-5.1-27.4
		c-2.4-6.9-5.6-13.3-11.3-18.4c-7.8-6.9-20.7-8.3-29.8-3c-5.3,3.1-8.6,7.6-11.2,12.6c-4.5,8.8-6.3,18.2-7.6,27.8
		C145.6,612.7,145.3,622.4,145.7,632.2z"/>
</g>
<linearGradient id="SVGID_2_" gradientUnits="userSpaceOnUse" x1="255.9794" y1="202.7059" x2="255.9794" y2="830.1569" gradientTransform="matrix(1.1953 0 0 1.1953 0.5977 -242.2969)">
	<stop  offset="0" style="stop-color:#2AF598"/>
	<stop  offset="1" style="stop-color:#009EFD"/>
</linearGradient>
<path fill="url(#SVGID_2_)" d="M64.4,91c0-16.7,13.4-30.3,29.7-30.3h259.9v107.9c0,50.2,40,91,89.2,91h105.5V440h59.4V216.8L397,0
	H94.1C45,0,5,40.8,5,91V440h59.4V91z M413.5,168.6V103l93.5,95.9h-63.8C426.9,198.9,413.5,185.2,413.5,168.6z M506,674.9
	c0,41.4-34.3,75.1-76.4,75.1H306.6v-54.1h123.1c11.7,0,21.3-9.5,21.3-21s-9.6-21-21.3-21h-46.8c-42.1,0-76.4-33.7-76.4-75.1
	s34.3-75.1,76.4-75.1h94.2v54.1h-94.2c-11.7,0-21.3,9.5-21.3,21c0,11.5,9.6,21,21.3,21h46.8C471.8,599.8,506,633.5,506,674.9z"/>
</svg>
