<?xml version="1.0" encoding="utf-8"?>
<!-- Generator: Adobe Illustrator 17.1.0, SVG Export Plug-In . SVG Version: 6.00 Build 0)  -->
<!DOCTYPE svg PUBLIC "-//W3C//DTD SVG 1.1//EN" "http://www.w3.org/Graphics/SVG/1.1/DTD/svg11.dtd">
<svg version="1.1" id="Layer_1" xmlns="http://www.w3.org/2000/svg" xmlns:xlink="http://www.w3.org/1999/xlink" x="0px" y="0px"
	 viewBox="0 0 612 792" enable-background="new 0 0 612 792" xml:space="preserve">
<g>
	<path fill="#FEFEFE" d="M315.7,414.1c-4.2-4.2-6.5-9.7-6.5-15.3v-5.6c0-5.6,2.3-11.1,6.5-15.3l59.8-59.3c8.3-8.3,8.3-22.3,0-30.6
		l0,0l-54.2-54.7c-8.3-8.3-22.3-8.3-30.6,0L236.5,288c-8.3,8.3-8.3,22.3,0,30.6l59.3,59.3c4.2,4.2,6.5,9.7,6.5,15.3v5.6
		c0,5.6-2.3,11.1-6.5,15.3l-59.3,59.3c-8.3,8.3-8.3,22.3,0,30.6l0,0l54.2,54.2c8.3,8.3,22.3,8.3,30.6,0l0,0l54.2-53.8
		c8.3-8.3,8.3-22.3,0-30.6l0,0L315.7,414.1z"/>
	<path fill="#FEFEFE" d="M275.4,380.7l-54.7-54.2c-8.3-8.3-22.3-8.3-30.6,0l0,0l-59.3,59.3c-8.3,8.3-22.3,8.3-30.6,0L70,355.7
		c-8.3-8.3-22.3-8.3-30.6,0l0,0l-24.6,24.6c-8.3,8.3-8.3,22.3,0,30.6l24.6,24.6c8.3,8.3,22.3,8.3,30.6,0l0,0l30.1-30.1
		c8.3-8.3,22.3-8.3,30.6,0l59.3,60.3c8.3,8.3,22.3,8.3,30.6,0l0,0l54.2-54.2C283.7,403,283.7,389,275.4,380.7L275.4,380.7z"/>
	<path fill="#FEFEFE" d="M572.6,356.1c-8.3-8.3-22.3-8.3-30.6,0l-30.1,30.1c-4.2,4.2-9.7,6.5-15.3,6.5h-0.5
		c-5.6,0-11.1-2.3-15.3-6.5l-59.3-59.8c-8.3-8.3-22.3-8.3-30.6,0l0,0l-54.2,54.2c-8.3,8.3-8.3,22.3,0,30.6l54.2,54.2
		c8.3,8.3,22.3,8.3,30.6,0l59.8-59.3c4.2-4.2,9.7-6.5,15.3-6.5h0.5c5.6,0,11.1,2.3,15.3,6.5l30.1,30.1c8.3,8.3,22.3,8.3,30.6,0l0,0
		l24.6-24.6c8.3-8.3,8.3-22.3,0-30.6L572.6,356.1z"/>
</g>
</svg>
