<svg xmlns="http://www.w3.org/2000/svg" width="93" height="21" style=""><rect id="backgroundrect" width="100%" height="100%" x="0" y="0" fill="none" stroke="none" class="" style=""/>
    
<g class="currentLayer" style=""><title>Layer 1</title>
        
        
    <path fill="#4B97D6" d="M1.385999985098839,0 h7.206 v11.519 H-1.490116116609208e-8 V1.3860000000000001 C-1.490116116609208e-8,0.6200000000000002 0.619999985098839,0 1.385999985098839,0 zm10.27,0 h7.207 c0.7640000000000002,0 1.3840000000000001,0.6200000000000002 1.3840000000000001,1.3860000000000001 v5.54 h-8.59 V0 zM-1.490116116609208e-8,14 h8.592 v6.927 H1.385999985098839 C0.619999985098839,20.927 -1.490116116609208e-8,20.307 -1.490116116609208e-8,19.542 V14 zm11.656,-4.59 h8.59 v10.133 c0,0.7650000000000002 -0.6200000000000002,1.3860000000000001 -1.385,1.3860000000000001 h-7.205 V9.409 z" id="svg_2" class=""/><path fill="#4B97D6" d="M1.385999985098839,0 h7.206 v11.519 H-1.490116116609208e-8 V1.3860000000000001 C-1.490116116609208e-8,0.6200000000000003 0.6199999850988391,0 1.385999985098839,0 zm10.27,0 h7.207 c0.7640000000000003,0 1.3840000000000001,0.6200000000000003 1.3840000000000001,1.3860000000000001 v5.54 h-8.59 V0 zM-1.490116116609208e-8,14 h8.592 v6.927 H1.385999985098839 C0.6199999850988391,20.927 -1.490116116609208e-8,20.307 -1.490116116609208e-8,19.542 V14 zm11.656,-4.59 h8.59 v10.133 c0,0.7650000000000003 -0.6200000000000003,1.3860000000000001 -1.385,1.3860000000000001 h-7.205 V9.409 z" class="" id="svg_1"/><g fill="#FEFEFE" id="svg_3" class="">
            <path d="M31.751578430533414,16.70842104792595 c-3.664,0 -6.279,-2.505 -6.279,-5.9879999999999995 c0,-3.483 2.617,-5.987 6.2780000000000005,-5.987 c3.661,0 6.26,2.494 6.26,5.987 s-2.604,5.986 -6.26,5.986 v0.0010000000000000007 zm0,-2.922 c1.733,0 2.99,-1.2810000000000001 2.99,-3.065 c0,-1.783 -1.2570000000000001,-3.064 -2.99,-3.064 c-1.735,0 -3.01,1.2890000000000001 -3.01,3.063 c0,1.774 1.274,3.059 3.01,3.059 v0.007000000000000006 zM45.08057843053341,16.70842104792595 c-3.47,0 -6.06,-2.5700000000000003 -6.06,-5.978 c0,-3.41 2.59,-5.996 6.06,-5.996 c2.987,0 5.3,1.971 5.763,4.86 H47.66157843053341 c-0.3910000000000002,-1.169 -1.377,-1.928 -2.575,-1.928 c-1.6150000000000002,0 -2.798,1.298 -2.798,3.062 c0,1.7650000000000001 1.183,3.03 2.798,3.03 c1.264,0 2.258,-0.8260000000000003 2.5780000000000003,-2.09 h3.212 c-0.43400000000000016,2.997 -2.755,5.031 -5.796,5.031 v0.008000000000000005 zM57.84557843053341,16.70842104792595 c-3.47,0 -6.06,-2.5700000000000003 -6.06,-5.978 c0,-3.41 2.59,-5.996 6.06,-5.996 c2.988,0 5.3,1.971 5.763,4.86 h-3.182 c-0.3900000000000002,-1.169 -1.377,-1.928 -2.575,-1.928 c-1.6150000000000002,0 -2.798,1.298 -2.798,3.062 c0,1.7650000000000001 1.183,3.03 2.798,3.03 c1.264,0 2.258,-0.8260000000000003 2.5780000000000003,-2.09 h3.213 c-0.43400000000000016,2.997 -2.754,5.031 -5.795,5.031 l-0.0020000000000000013,0.008000000000000005 zM72.5765784305334,13.695421047925949 v2.723 h-7.431 V5.022421047925949 h7.293 v2.713 h-4.166 v1.6800000000000006 h3.7430000000000003 v2.574 h-3.7430000000000003 v1.706 zM74.11657843053341,13.606421047925949 h2.9370000000000003 v2.813 h-2.9370000000000003 zM78.85257843053341,7.627421047925949 h3.03 v8.791 h-3.03 V7.627421047925949 zm0.02400000000000001,-3.6710000000000003 h2.982 v2.5700000000000003 h-2.982 v-2.5700000000000003 zM83.2735784305334,12.023421047925948 c0,-2.726 2.066,-4.683 4.93,-4.683 c2.863,0 4.928,1.957 4.928,4.683 s-2.066,4.683 -4.93,4.683 c-2.863,0 -4.928,-1.963 -4.928,-4.683 zm4.93,1.964 c1.102,0 1.8960000000000006,-0.802 1.8960000000000006,-1.964 c0,-1.163 -0.791,-1.963 -1.8960000000000006,-1.963 s-1.8970000000000002,0.802 -1.8970000000000002,1.964 c0,1.163 0.792,1.964 1.8970000000000002,1.964 v-0.0010000000000000007 z" id="svg_4"/>
        </g></g></svg>