<?xml version="1.0" encoding="utf-8"?>
<!-- Generator: Adobe Illustrator 17.1.0, SVG Export Plug-In . SVG Version: 6.00 Build 0)  -->
<!DOCTYPE svg PUBLIC "-//W3C//DTD SVG 1.1//EN" "http://www.w3.org/Graphics/SVG/1.1/DTD/svg11.dtd">
<svg version="1.1" id="Layer_1" xmlns="http://www.w3.org/2000/svg" xmlns:xlink="http://www.w3.org/1999/xlink" x="0px" y="0px"
	 viewBox="0 0 121 43.6" enable-background="new 0 0 121 43.6" xml:space="preserve">
<rect id="backgroundrect" fill="none" width="504" height="182"/>
<g>
	<title>Layer 1</title>
	<g id="svg_1">
		<g id="svg_2">
			<path id="svg_3" fill="#FEFEFE" d="M67.2,30.8c0.4,0.8,0,1.2-0.7,1.2h-2.2c-0.8,0-1-0.3-1.4-1.1l-3.7-6.6h-3.4v6.5
				c0,0.8-0.4,1.2-1.2,1.2h-1.8c-0.8,0-1.2-0.5-1.2-1.2V13.2c0-0.8,0.5-1.2,1.2-1.2h7.1c5,0,7.6,2.4,7.6,6.2c0,2.8-1.6,4.7-4.2,5.5
				L67.2,30.8z M55.7,21.3h4.4c1.9,0,3.1-1.1,3.1-2.9c0-1.8-1.2-3-3.1-3h-4.4L55.7,21.3L55.7,21.3z"/>
			<path id="svg_4" fill="#FEFEFE" d="M77.4,29.3c1.2,0,2.6-0.3,3.9-1.4c0.6-0.4,1-0.5,1.5,0l0.7,0.7c0.6,0.6,0.3,1,0,1.4
				c-1.6,1.6-4.3,2.3-6.5,2.3c-4.6,0-8.4-3.2-8.4-8.1c0-4.6,3.4-8.1,8.1-8.1c2.3,0,4.3,0.8,5.6,2.2c1.4,1.4,2.2,3.4,2.2,5.6
				c0,0.9-0.3,1.3-1.3,1.3H72.7C72.9,27.9,75,29.3,77.4,29.3z M72.7,22.7h7.9c-0.2-1-0.5-1.8-1.1-2.3c-0.7-0.7-1.7-1.1-2.8-1.1
				C74.5,19.3,73,20.6,72.7,22.7z"/>
			<path id="svg_5" fill="#FEFEFE" d="M102.7,11.2v19.6c0,0.7-0.4,1.2-1.2,1.2h-1.2c-0.7,0-1.1-0.5-1.1-1.2v-0.6
				c-1.2,1.4-3,2.2-5.1,2.2c-4.5,0-7.8-3.6-7.8-8.1c0-4.6,3.2-8.1,7.8-8.1c1.8,0,3.3,0.6,4.6,1.5v-6.2c0-0.7,0.4-1,1.1-1.2l1.7-0.3
				C102.3,9.9,102.7,10.4,102.7,11.2z M98.9,24.3c0-2.9-1.9-4.6-4.2-4.6c-2.6,0-4.3,2-4.3,4.6s1.7,4.5,4.3,4.5
				C97,28.9,98.9,27.2,98.9,24.3z"/>
			<path id="svg_6" fill="#FEFEFE" d="M121,11.2v19.6c0,0.7-0.4,1.2-1.2,1.2h-1.2c-0.7,0-1.1-0.5-1.1-1.2v-0.6
				c-1.2,1.4-3,2.2-5.1,2.2c-4.5,0-7.8-3.6-7.8-8.1c0-4.6,3.2-8.1,7.8-8.1c1.8,0,3.3,0.6,4.6,1.5v-6.2c0-0.7,0.4-1,1.1-1.2l1.7-0.3
				C120.6,9.9,121,10.4,121,11.2z M117.2,24.3c0-2.9-1.9-4.6-4.2-4.6c-2.6,0-4.3,2-4.3,4.6s1.7,4.5,4.3,4.5
				C115.3,28.9,117.2,27.2,117.2,24.3z"/>
		</g>
		<path id="svg_7" fill="#00AEEF" d="M24.4,0.2C23.6,0.1,22.7,0,21.8,0C13.9,0,7,4.2,3.1,10.5l7.1,8.7L27.7,12L24.4,0.2z"/>
		<polygon id="svg_8" fill="#E31B23" points="27.7,12 10.2,19.3 20.8,32.4 31.2,24.8 		"/>
		<path id="svg_9" fill="#008FC5" d="M3.1,10.5C1.1,13.8,0,17.7,0,21.8c0,0.5,0,1.1,0.1,1.6l10.1-4.2L3.1,10.5z"/>
		<path id="svg_10" fill="#FDBB30" d="M42.9,16.2c-2.3-8.5-9.5-15-18.5-16l6.8,24.6L42.9,16.2z"/>
		<path id="svg_11" fill="#54B948" d="M10.2,19.3L0.1,23.4c0.5,7.1,4.4,13.2,10.1,16.8l10.7-7.9L10.2,19.3z"/>
		<path id="svg_12" fill="#8DC63F" d="M10.1,40.2c3.4,2.1,7.4,3.4,11.7,3.4c2.5,0,4.9-0.4,7.2-1.2l-8.2-10.1L10.1,40.2z"/>
		<path id="svg_13" fill="#F04D3C" d="M31.2,24.8l-10.3,7.6L29,42.4c2.2-0.8,4.3-1.9,6.1-3.3L31.2,24.8z"/>
		<path id="svg_14" fill="#FFD200" d="M31.2,24.8l4,14.3c5.2-4,8.5-10.3,8.5-17.3c0-2-0.3-3.8-0.7-5.6L31.2,24.8z"/>
	</g>
</g>
</svg>
