<svg id="Layer_1" enable-background="new 0 0 512 512" height="512" viewBox="0 0 512 512" width="512" xmlns="http://www.w3.org/2000/svg"><g><path d="m244.998 11.002c-83.498 0-157.226 41.781-201.456 105.565v278.866c44.23 63.784 117.958 105.565 201.456 105.565 135.309 0 244.998-109.689 244.998-244.998s-109.69-244.998-244.998-244.998z" fill="#73c3f9"/><path d="m334.955 202.76s57.451-5.99 100.171 0l30.447 32.193h-108.893z" fill="#fff3e1"/><path d="m296.178 145.298s46.381-6.337 84.602 0l27.173 28.731s-52.164 5.779-92.386 0z" fill="#fff3e1"/><path d="m153.09 145.298s36.327-4.952 75.31 0l13.012 28.731s-34.525 6.125-81.816 0z" fill="#fff3e1"/><path d="m166.102 202.76s49.055-6.336 88.322 0l14.58 32.193h-95.612z" fill="#fff3e1"/><path d="m.836 235.787h81.383v-33.86h-76.219c-2.484 11.024-4.223 22.328-5.164 33.86z" fill="#ffe8c2"/><path d="m13.674 175.147h68.545v-30.967h-55.266c-5.111 9.945-9.547 20.29-13.279 30.967z" fill="#ffe8c2"/><path d="m26.388 145.298h55.831v-28.731h-38.677c-6.342 9.146-12.084 18.738-17.154 28.731z" fill="#422953"/><path d="m5.819 202.76h76.4v-28.731h-68.151c-3.312 9.331-6.075 18.92-8.249 28.731z" fill="#422953"/><g fill="#543e5b"><path d="m228.4 145.298-13.012-28.731h-68.804l6.506 28.731z"/><path d="m159.595 174.029 6.507 28.731h88.321l-13.011-28.731z"/><path d="m380.78 145.298-27.174-28.731h-76.816l19.388 28.731z"/><path d="m334.955 202.76h100.172l-27.174-28.731h-92.386z"/><path d="m80.142 202.76s55.381-5.212 88.036 0l7.29 32.193h-95.326z"/></g><path d="m158.571 233.424c1.034-.78.697-2.419-.562-2.723-30.304-7.314-32.728-27.94-32.728-27.94s-.104-.814-.292-2.278c-23.797.298-44.847 2.278-44.847 2.278v32.193h76.666c.569-.574 1.176-1.087 1.763-1.53z" fill="#422953"/><path d="m252.347 202.76s46.68-4.173 85.724 0l21.724 32.193h-92.869z" fill="#543e5b"/><path d="m80.142 145.298s39.222-3.481 75.025 0l6.506 28.731s-49.308 3.962-81.531 0z" fill="#543e5b"/><path d="m121.761 175.753c-1.215-9.18-2.64-19.816-4.107-30.455-.072-.524-.13-1.036-.176-1.541-21.107.101-37.336 1.541-37.336 1.541v28.731c12.585 1.548 27.777 1.886 41.619 1.724z" fill="#422953"/><path d="m226.323 145.298s39.545-4 72.971 0l19.389 28.731s-43.184 3.183-79.348 0z" fill="#543e5b"/><path d="m43.542 395.433h463.382c2.803 0 5.076-2.273 5.076-5.076v-68.413h-503.011c7.416 26.597 19.211 51.365 34.553 73.489z" fill="#af713b"/><path d="m164.997 329.525c1.835-2.15 2.525-4.937 2.084-7.58h-158.092c7.416 26.597 19.211 51.364 34.553 73.489h127.156c-29.67-29.671-15.017-54.993-5.701-65.909z" fill="#965b27"/><path d="m506.924 252.129h-506.875c-.02 1.289-.049 2.577-.049 3.871 0 23.516 3.32 46.254 9.505 67.781h502.495v-66.576c0-2.804-2.273-5.076-5.076-5.076z" fill="#965b27"/><path d="m165.144 317.604c-24.079-30.087-2.568-56.242 3.87-62.925.763-.792.459-2.097-.563-2.501-.041-.016-.077-.032-.118-.048h-168.284c-.02 1.288-.049 2.576-.049 3.87 0 23.516 3.321 46.254 9.505 67.781h157.697c.066-2.177-.617-4.377-2.058-6.177z" fill="#7e471c"/><path d="m.038 253.029h509.769l-133.001-134.013c-1.555-1.567-3.672-2.449-5.88-2.449h-21.473l108.694 114.924h-456.93c-.705 7.094-1.093 14.28-1.179 21.538z" fill="#c7874e"/><path d="m430.973 202.76s18.438 9.989 27.468-1.488l-81.634-82.256c-1.555-1.567-3.672-2.449-5.88-2.449h-21.473z" fill="#e29b61"/><path d="m168.451 252.177c-20.098-7.955-14.368-15.365-9.88-18.753.646-.487.757-1.309.442-1.933h-157.796c-.705 7.094-1.093 14.279-1.179 21.538h169.274c-.154-.369-.444-.687-.861-.852z" fill="#af713b"/><path d="m299.294 145.298-19.388-28.731h-66.595l13.012 28.731z" fill="#fff3e1"/><path d="m155.167 145.298-6.506-28.731h-68.519v28.731z" fill="#fff3e1"/><path d="m137.163 118.251c1.33-.36 2.538-.944 3.612-1.684h-60.633v28.731h37.512c-2.422-17.571 9.715-24.396 19.509-27.047z" fill="#ffe8c2"/><path d="m239.335 174.029 13.012 28.731h85.724l-19.389-28.731z" fill="#fff3e1"/><path d="m80.142 174.029v28.731h88.036l-6.505-28.731z" fill="#fff3e1"/><path d="m121.533 174.029h-41.391v28.731h45.14c-.001 0-1.563-12.241-3.749-28.731z" fill="#ffe8c2"/><path d="m147.119 321.739c-.907-8.194-7.527-14.816-15.72-15.731-6.754-.754-12.844 2.263-16.467 7.207-1.199 1.635-3.069 2.643-5.096 2.643h-16.215c-2.512 0-4.735-1.523-5.753-3.819-4.704-10.605-15.577-17.864-28.07-17.207-15.058.792-27.145 13.331-27.421 28.407-.255 13.978 9.384 25.75 22.382 28.778 3.382.788 6.604-1.846 6.604-5.319v-11.824c-6.78 0-12.139-6.083-10.918-13.089.941-5.402 5.903-9.297 11.382-9.088 4.331.165 7.638 2.64 9.344 5.932 4.06 7.837 11.8 13.075 20.626 13.075h18.037c2.036 0 3.906 1.02 5.112 2.661 3.253 4.426 8.485 7.304 14.399 7.304 10.551 0 18.969-9.136 17.774-19.93z" fill="#ffd185"/><path d="m101.281 315.857h-7.661c-2.511 0-4.735-1.523-5.753-3.819-4.704-10.605-15.577-17.864-28.07-17.207-15.058.792-27.146 13.331-27.421 28.407-.255 13.978 9.384 25.75 22.382 28.778 3.382.788 6.604-1.846 6.604-5.319v-11.824c-6.78 0-12.139-6.083-10.918-13.089.941-5.402 5.902-9.297 11.381-9.088 4.331.165 7.639 2.64 9.344 5.932 4.06 7.837 11.799 13.075 20.625 13.075h9.485c-9.209-9.21.002-15.846.002-15.846z" fill="#f4bc6a"/><path d="m61.363 308.042c-8.678 0-15.738 7.061-15.738 15.739s7.06 15.739 15.738 15.739c8.679 0 15.739-7.06 15.739-15.739 0-8.678-7.06-15.739-15.739-15.739z" fill="#fff3e1"/><path d="m135.603 323.781c0 3.629-2.942 6.571-6.571 6.571s-6.571-2.942-6.571-6.571 2.942-6.571 6.571-6.571c3.628 0 6.571 2.942 6.571 6.571z" fill="#fff3e1"/><path d="m453.899 127.955c-43.094-70.157-120.529-116.953-208.901-116.953-41.724 0-81.008 10.433-115.392 28.831 21.027 26.601 63.428 54.608 147.185 42.15 126.756-18.852 124.128 65.827 177.108 45.972z" fill="#9bd8f9"/><path d="m93.883 448.833c41.626 32.674 94.09 52.165 151.114 52.165 56.554 0 108.624-19.172 150.088-51.357-30.655-21.011-64.471-21.013-64.471-21.013s-129.333 0-174.667 0c-25.899-.001-47.926 10.877-62.064 20.205z" fill="#9bd8f9"/></g></svg>