<?xml version="1.0" encoding="utf-8"?>
<!-- Generator: Adobe Illustrator 17.1.0, SVG Export Plug-In . SVG Version: 6.00 Build 0)  -->
<!DOCTYPE svg PUBLIC "-//W3C//DTD SVG 1.1//EN" "http://www.w3.org/Graphics/SVG/1.1/DTD/svg11.dtd">
<svg version="1.1" id="Layer_1" xmlns="http://www.w3.org/2000/svg" xmlns:xlink="http://www.w3.org/1999/xlink" x="0px" y="0px"
	 viewBox="0 559.6 612 232.4" enable-background="new 0 559.6 612 232.4" xml:space="preserve">
<g>
	<g>
		<g>
			<defs>
				<rect id="SVGID_1_" x="-25.2" y="559.6" width="657.5" height="237.1"/>
			</defs>
			<clipPath id="SVGID_2_">
				<use xlink:href="#SVGID_1_"  overflow="visible"/>
			</clipPath>
			<g clip-path="url(#SVGID_2_)">
				<path d="M89.7,732.1l12,12l-12,12l-12-12.3L89.7,732.1z"/>
				<path d="M103.2,718.4l12,12l-12,12.1l-12-12L103.2,718.4z"/>
				<path d="M116.6,705.3l12.1,12.1l-12.1,12l-12-12.3L116.6,705.3z"/>
				<path d="M130,691.6l12,12l-12,12l-12-12L130,691.6z"/>
				<path d="M143.5,678.4l12,12l-12,12l-12-12.3L143.5,678.4z"/>
				<path d="M156.9,664.8l12,12l-12,12l-12-12L156.9,664.8z"/>
				<path d="M130,665l12,12l-12,12l-12-12.3L130,665z"/>
				<path d="M143.5,651.3l12,12l-12,12l-12-12L143.5,651.3z"/>
				<path d="M116.6,651.6l12,12l-12,12.1l-12-12.3L116.6,651.6z"/>
				<path d="M116.6,678.2l12,12l-12,12.1l-12-12L116.6,678.2z"/>
				<path d="M103.2,691.6l12,12l-12,12l-12-12L103.2,691.6z"/>
				<path d="M89.7,704.8l12,12l-12,12l-12-12L89.7,704.8z"/>
				<path d="M103.2,664.8l12,12l-12,12l-12-12L103.2,664.8z"/>
				<path d="M130,638l12,12l-12,12l-12-12L130,638z"/>
				<path d="M103.2,638.2l12,12l-12,12.1l-12-12.3L103.2,638.2z"/>
				<path d="M89.7,651.3l12,12l-12,12l-12-12L89.7,651.3z"/>
				<path d="M116.6,624.6l12,12l-12,12.1l-12-12L116.6,624.6z"/>
				<path d="M89.7,624.7l12,12l-12,12l-12-12.3L89.7,624.7z"/>
				<path d="M63,624.6l12,12l-12,12l-12-12L63,624.6z"/>
				<path d="M63,705.1l12,12l-12,12l-12-12L63,705.1z"/>
				<path d="M63,678.2l12,12l-12,12l-12-12L63,678.2z"/>
				<path d="M36.1,651.3l12,12l-12,12l-12-12L36.1,651.3z"/>
				<path d="M103.2,611.1l12,12l-12,12.1l-12-12.1L103.2,611.1z"/>
				<path d="M89.7,597.7l12,12l-12,12l-12-12L89.7,597.7z"/>
				<path d="M224.8,658.3c2.4-2.2,4-5.4,4-9.1c0-8-6.7-13.4-14.7-13.4h-18.4v46.9h19.8c8.5,0,15.2-5.4,15.2-13.9
					C230.7,664.1,228.5,660.6,224.8,658.3z M214.1,645.7c2.4,0,4,1.8,4,4.3s-1.8,4.3-4,4.3h-7.6V646h7.6V645.7z M215.5,672.6h-9v-9
					h9c2.7,0,4.5,1.8,4.5,4.5C220,670.8,218.1,672.6,215.5,672.6z M234.1,682.7h10.1v-49h-10.1L234.1,682.7L234.1,682.7z
					 M265.8,683.6c9.8,0,17.6-7.7,17.6-17.6c0-10.1-7.8-17.6-17.6-17.6c-9.8,0-17.6,7.5-17.6,17.5S256,683.6,265.8,683.6z
					 M265.8,673.7c-4.3,0-7.7-3.2-7.7-7.8c0-4.7,3.4-7.8,7.7-7.8c4.3,0,7.6,3.2,7.6,7.8S270.3,673.7,265.8,673.7z M303.9,683.6
					c6.5,0,12.3-3.4,15.2-8.7l-8.7-5.1c-1.1,2.2-3.5,3.8-6.5,3.8c-4.3,0-7.6-3.2-7.6-7.8c0-4.7,3.2-7.8,7.6-7.8
					c2.9,0,5.4,1.3,6.5,3.8l8.7-5.1c-2.9-5.1-8.7-8.5-15.2-8.5c-10.3,0-17.6,7.7-17.6,17.6C286.1,675.8,293.5,683.6,303.9,683.6z
					 M353.5,682.7L341,665.9l12.3-16.8h-11.8l-10.1,14.7v-28.2h-10.1v46.9h10.1v-14.6l10.7,14.7H353.5z M369.5,683.6
					c6.5,0,12.3-3.4,15.2-8.7l-8.7-5.1c-1.1,2.2-3.5,3.8-6.5,3.8c-4.3,0-7.6-3.2-7.6-7.8c0-4.7,3.2-7.8,7.6-7.8
					c2.9,0,5.4,1.3,6.5,3.8l8.7-5.1c-2.9-5.1-8.7-8.5-15.2-8.5c-10.3,0-17.9,7.7-17.9,17.6C351.7,675.8,359.5,683.6,369.5,683.6z
					 M406.7,648.3c-4.5,0-7.8,1.6-9.6,4v-16.5H387v46.9h10.1v-18.4c0-4.7,2.4-6.9,6.3-6.9c3.2,0,5.8,2.1,5.8,6.1v19.2h10.1v-20.6
					C419.4,652.9,413.7,648.3,406.7,648.3z M448.9,649.1v3.2c-2.2-2.4-5.6-4-10.1-4c-8.7,0-16.1,7.7-16.1,17.6
					c0,10.1,7.2,17.6,16.1,17.6c4.5,0,7.8-1.6,10.1-4v3.2H459v-33.6H448.9z M440.9,674.2c-4.7,0-8-3.2-8-8.3s3.4-8.3,8-8.3
					c4.7,0,8,3.2,8,8.3S445.6,674.2,440.9,674.2z M469.7,646.2c3.4,0,6.1-2.7,6.1-6.1s-2.7-6.1-6.1-6.1c-3.4,0-6.1,2.7-6.1,6.1
					C463.8,643.5,466.4,646.2,469.7,646.2z M464.6,682.7h10.1v-33.6h-10.1V682.7z M500.1,648.3c-4.5,0-7.8,1.6-9.6,4v-3.2h-10.1
					v33.6h10.1v-18.4c0-4.7,2.4-6.9,6.3-6.9c3.2,0,5.8,2.1,5.8,6.1v19.2h10.1v-20.6C512.7,652.9,506.9,648.3,500.1,648.3z
					 M515.6,682.7h32v-10.3H532l7.8-7.8c4.3-4.3,7.4-9.1,7.4-14.7c0-9.4-7.6-15-15.9-15c-6.5,0-12.8,3.4-15.9,10.3l9.1,5.4
					c1.3-2.9,3.5-5.1,6.9-5.1c3.2,0,5.1,2.1,5.1,4.9c0,2.7-2.1,5.6-4.7,8.3l-15.9,16.3v7.8L515.6,682.7L515.6,682.7z M585.8,665.2
					h-4.7v-10.1h-10.9v10.1h-9.8l15-29.5h-11.7l-15,29.5v9.8H570v7.7h10.9V675h4.7v-9.8H585.8z"/>
				<path d="M210.4,702.4v10.1h2.9l5.8-10.1h3.4l-6.7,10.9l7.4,11.8h-3.2l-6.3-10.1h-3.4v10.1h-2.9V715H204l-6.1,10.1h-3.2l7.4-11.8
					l-6.7-10.9h3.4l5.8,10.1h2.7v-10.1C207.4,702.4,210.4,702.4,210.4,702.4z M227.8,731.5c-0.5,0-0.9,0-1.1,0
					c-0.5,0-0.7-0.2-0.7-0.2l0.7-2.2c0.9,0.2,1.8,0.2,2.4,0c0.7-0.2,1.1-1.1,1.6-2.2l0.5-1.3l-6.3-17.3h2.9l4.7,13.6h0.2l4.7-13.6
					h2.9l-7.4,19.5C231.8,730.3,230.2,731.5,227.8,731.5z M243.7,731.7v-23.5h2.4v2.7h0.2c0.2-0.2,0.5-0.7,0.9-1.1
					c0.5-0.5,0.9-0.9,1.6-1.3c0.7-0.5,1.6-0.5,2.7-0.5c1.3,0,2.7,0.5,3.8,1.1c1.1,0.7,2.1,1.8,2.4,3.2c0.7,1.3,0.9,2.9,0.9,4.7
					s-0.2,3.4-0.9,4.7c-0.7,1.3-1.6,2.2-2.4,3.2c-1.1,0.7-2.2,1.1-3.8,1.1c-1.1,0-2.1-0.2-2.7-0.5c-0.7-0.5-1.1-0.9-1.6-1.3
					c-0.5-0.4-0.7-0.9-0.9-1.1h-0.2v9h-2.4V731.7z M246.1,716.6c0,2.1,0.5,3.5,1.3,4.7c0.9,1.1,2.1,1.8,3.5,1.8
					c1.1,0,2.1-0.2,2.7-0.9c0.7-0.7,1.3-1.3,1.6-2.4c0.5-0.9,0.7-2.1,0.7-3.4c0-1.1-0.2-2.2-0.5-3.4c-0.5-0.9-0.9-1.8-1.6-2.2
					c-0.7-0.7-1.6-0.9-2.7-0.9c-1.6,0-2.9,0.7-3.5,1.8C246.6,713.1,246.1,714.7,246.1,716.6z M265.3,708.1v7.4h8.3v-7.4h2.7v17h-2.7
					v-7.4h-8.3v7.4h-2.7v-17H265.3z M285.9,725.6c-1.1,0-2.1-0.2-2.9-0.7c-0.9-0.5-1.6-1.1-2.1-1.8c-0.5-0.9-0.7-1.8-0.7-2.9
					c0-0.9,0.2-1.8,0.7-2.4c0.5-0.7,0.9-1.1,1.6-1.3c0.7-0.5,1.3-0.7,2.2-0.7c0.9-0.2,1.6-0.2,2.4-0.5c1.1-0.2,1.8-0.2,2.4-0.2
					c0.7,0,1.1-0.2,1.3-0.5c0.2-0.2,0.5-0.5,0.5-0.9l0,0c0-1.1-0.2-2.1-0.9-2.4c-0.7-0.7-1.6-0.9-2.7-0.9c-1.3,0-2.2,0.2-2.9,0.9
					c-0.7,0.5-1.1,1.1-1.6,1.8l-2.4-0.9c0.5-1.1,1.1-1.8,1.8-2.4c0.7-0.7,1.6-0.9,2.4-1.1c0.9-0.2,1.8-0.5,2.7-0.5
					c0.5,0,1.1,0,1.8,0.2c0.7,0.2,1.3,0.5,2.1,0.9c0.7,0.5,1.3,0.9,1.8,1.8c0.5,0.9,0.7,1.8,0.7,3.4v11.2h-2.7v-2.2h-0.2
					c-0.2,0.5-0.5,0.7-0.9,1.1c-0.5,0.5-0.9,0.7-1.6,1.1C288.2,726.1,286.8,725.6,285.9,725.6z M286.4,723.2c1.1,0,2.1-0.2,2.7-0.7
					c0.7-0.5,1.3-0.9,1.6-1.6c0.5-0.7,0.5-1.3,0.5-2.1v-2.4c-0.2,0.2-0.5,0.2-0.7,0.5c-0.5,0-0.9,0.2-1.3,0.2
					c-0.5,0-0.9,0.2-1.3,0.2c-0.5,0-0.9,0-1.1,0.2c-0.7,0-1.3,0.2-2.1,0.5c-0.7,0.3-1.1,0.5-1.3,0.9c-0.5,0.5-0.5,0.9-0.5,1.6
					c0,0.9,0.5,1.6,1.1,2.1C284.4,722.9,285.3,723.2,286.4,723.2z M297.1,725.1v-2.4h0.7c0.7,0,1.1-0.2,1.6-0.7
					c0.5-0.5,0.7-1.1,0.9-2.1c0.2-1.1,0.2-2.4,0.5-4.5l0.2-7.6h11.4v17.3h-2.7v-14.6h-6.3l-0.2,6.1c0,1.8-0.2,3.4-0.7,4.7
					c-0.2,1.3-0.9,2.2-1.6,2.9c-0.7,0.7-1.8,0.9-2.9,0.9L297.1,725.1L297.1,725.1z M332.7,725.6c-1.6,0-2.9-0.5-4-1.1
					s-2.1-1.8-2.7-3.2c-0.7-1.3-0.9-2.9-0.9-4.7c0-1.8,0.2-3.4,0.9-4.7c0.7-1.3,1.6-2.4,2.7-3.2c1.1-0.7,2.4-1.1,4-1.1
					c1.6,0,2.9,0.5,4,1.1s2.1,1.8,2.7,3.2c0.7,1.3,0.9,2.9,0.9,4.7c0,1.8-0.2,3.4-0.9,4.7c-0.7,1.3-1.6,2.2-2.7,3.2
					C335.6,725.1,334.3,725.6,332.7,725.6z M332.7,723.2c1.1,0,2.2-0.2,2.9-0.9c0.7-0.7,1.3-1.3,1.8-2.4c0.5-0.9,0.5-2.1,0.5-3.2
					s-0.2-2.2-0.5-3.2c-0.5-0.9-0.9-1.8-1.8-2.4c-0.7-0.7-1.8-0.9-2.9-0.9c-1.1,0-2.2,0.2-2.9,0.9c-0.7,0.7-1.3,1.3-1.8,2.4
					c-0.5,0.9-0.5,2.1-0.5,3.2s0.2,2.2,0.5,3.2c0.5,0.9,0.9,1.8,1.8,2.4C330.6,722.9,331.6,723.2,332.7,723.2z M366,701.7l1.3,1.6
					c-0.5,0.5-1.1,0.9-1.8,1.1s-1.3,0.2-2.2,0.5c-0.9,0-1.8,0-2.9,0.2c-1.8,0-3.2,0.7-4,1.8c-0.9,1.1-1.3,2.9-1.6,5.1h0.2
					c0.7-1.1,1.3-1.8,2.4-2.4c1.1-0.5,2.1-0.7,3.4-0.7s2.4,0.2,3.5,0.9c1.1,0.7,2.1,1.6,2.4,2.7c0.7,1.1,0.9,2.7,0.9,4.5
					s-0.2,3.4-0.9,4.7c-0.7,1.3-1.6,2.2-2.7,2.9c-1.1,0.7-2.4,1.1-4,1.1c-2.2,0-4.3-0.9-5.6-2.4c-1.3-1.6-2.1-4-2.1-7.2V714
					c0-7.7,2.7-11.7,7.8-11.7c0.5,0,0.7,0,0.9,0c0.2,0,0.7,0,0.9,0c0.9,0,1.6,0,2.2,0C365.1,702.4,365.5,702.1,366,701.7z
					 M360.2,723.2c1.6,0,2.7-0.7,3.5-1.8c0.9-1.1,1.3-2.7,1.3-4.7c0-1.8-0.5-3.4-1.3-4.3c-0.9-1.1-2.1-1.6-3.5-1.6
					c-1.6,0-2.7,0.5-3.5,1.6c-0.9,1.1-1.3,2.4-1.3,4.3c0,2.1,0.5,3.4,1.3,4.7C357.3,722.5,358.6,723.2,360.2,723.2z M370.3,725.1
					v-2.4h0.7c0.7,0,1.1-0.2,1.6-0.7c0.5-0.5,0.7-1.1,0.9-2.1c0.2-1.1,0.2-2.4,0.5-4.5l0.2-7.6h11.4v17.3h-2.7v-14.6h-6.3l-0.2,6.1
					c0,1.8-0.2,3.4-0.7,4.7c-0.2,1.3-0.9,2.2-1.6,2.9c-0.7,0.7-1.8,0.9-2.9,0.9L370.3,725.1L370.3,725.1z M397.1,725.6
					c-1.6,0-2.9-0.5-4-1.1s-2.1-1.8-2.7-3.2c-0.7-1.3-0.9-2.9-0.9-4.7c0-1.8,0.2-3.4,0.9-4.7c0.7-1.3,1.6-2.4,2.7-3.2
					c1.1-0.7,2.4-1.1,4-1.1s2.9,0.5,4,1.1s2.1,1.8,2.7,3.2c0.7,1.3,0.9,2.9,0.9,4.7c0,1.8-0.2,3.4-0.9,4.7c-0.7,1.3-1.6,2.2-2.7,3.2
					C399.9,725.1,398.6,725.6,397.1,725.6z M397.1,723.2c1.1,0,2.2-0.2,2.9-0.9c0.7-0.7,1.3-1.3,1.8-2.4c0.5-0.9,0.5-2.1,0.5-3.2
					s-0.2-2.2-0.5-3.2c-0.5-0.9-0.9-1.8-1.8-2.4c-0.7-0.7-1.8-0.9-2.9-0.9c-1.1,0-2.2,0.2-2.9,0.9c-0.7,0.7-1.3,1.3-1.8,2.4
					c-0.5,0.9-0.5,2.1-0.5,3.2s0.2,2.2,0.5,3.2c0.5,0.9,0.9,1.8,1.8,2.4C395,722.9,395.9,723.2,397.1,723.2z M408.9,725.1v-17h2.7
					v7.4h1.8l6.1-7.4h3.4l-6.9,8.3l6.9,9h-3.4l-5.6-7.2h-2.4v6.9L408.9,725.1L408.9,725.1z M438.8,708.1v17h-2.7v-6.1
					c-0.7,0.2-1.3,0.2-2.1,0.5c-0.7,0-1.3,0.2-2.2,0.2c-2.1,0-3.5-0.5-4.7-1.6c-1.1-1.1-1.8-2.7-1.8-4.7v-5.4h2.7v5.4
					c0,1.3,0.5,2.2,1.1,2.9c0.7,0.7,1.6,0.9,2.7,0.9c0.9,0,1.6,0,2.2-0.2c0.7,0,1.3-0.2,2.1-0.5V708h2.7L438.8,708.1L438.8,708.1z
					 M451,725.6c-1.6,0-3.2-0.5-4.3-1.1c-1.1-0.7-2.1-1.8-2.7-3.2c-0.7-1.3-0.9-2.9-0.9-4.7c0-1.8,0.2-3.4,0.9-4.7
					c0.7-1.3,1.6-2.4,2.7-3.2c1.1-0.7,2.4-1.1,4-1.1c0.9,0,1.8,0.2,2.7,0.5c0.9,0.3,1.6,0.7,2.4,1.3c0.7,0.7,1.3,1.6,1.8,2.7
					s0.7,2.4,0.7,4v1.1h-12.3c0,1.8,0.7,3.2,1.6,4.3c0.9,0.9,2.2,1.6,3.8,1.6c1.1,0,2.1-0.2,2.7-0.7c0.7-0.5,1.3-1.1,1.6-2.1
					l2.4,0.7c-0.5,1.3-1.1,2.2-2.4,3.2C454.1,725.1,452.6,725.6,451,725.6z M445.6,715.3h9.8c0-1.3-0.5-2.7-1.3-3.5
					c-0.9-0.9-2.1-1.3-3.4-1.3c-0.9,0-1.8,0.2-2.7,0.7c-0.9,0.5-1.3,1.1-1.8,1.8C445.8,713.6,445.6,714.4,445.6,715.3z M464.6,721.4
					l8.3-13.2h3.2v17h-2.7v-13.2l-8.3,13.2h-3.2v-17h2.7V721.4z M471.1,702.4h2.4c0,1.1-0.5,2.2-1.3,2.9c-0.9,0.7-2.1,1.1-3.4,1.1
					s-2.4-0.5-3.4-1.1s-1.3-1.8-1.3-2.9h2.4c0,0.7,0.2,1.1,0.5,1.6c0.2,0.5,0.9,0.7,1.6,0.7c0.7,0,1.3-0.2,1.6-0.7
					C470.8,703.5,471.1,703,471.1,702.4z M483.2,708.1v7.4h8.3v-7.4h2.7v17h-2.7v-7.4h-8.3v7.4h-2.7v-17H483.2z M506,725.6
					c-1.6,0-3.2-0.5-4.3-1.1c-1.1-0.7-2.1-1.8-2.7-3.2c-0.7-1.3-0.9-2.9-0.9-4.7c0-1.8,0.2-3.4,0.9-4.7c0.7-1.3,1.6-2.4,2.7-3.2
					c1.1-0.7,2.4-1.1,4-1.1c0.9,0,1.8,0.2,2.7,0.5c0.9,0.2,1.6,0.7,2.4,1.3c0.7,0.7,1.3,1.6,1.8,2.7c0.5,1.1,0.7,2.4,0.7,4v1.1H501
					c0,1.8,0.7,3.2,1.6,4.3c0.9,0.9,2.2,1.6,3.8,1.6c1.1,0,2.1-0.2,2.7-0.7c0.7-0.5,1.3-1.1,1.6-2.1l2.4,0.7
					c-0.5,1.3-1.1,2.2-2.4,3.2C509.1,725.1,507.8,725.6,506,725.6z M500.6,715.3h9.8c0-1.3-0.5-2.7-1.3-3.5
					c-0.9-0.9-2.1-1.3-3.4-1.3c-0.9,0-1.8,0.2-2.7,0.7c-0.7,0.5-1.3,1.1-1.8,1.8C501.1,713.6,500.6,714.4,500.6,715.3z"/>
			</g>
		</g>
	</g>
</g>
</svg>
