<?xml version="1.0" encoding="utf-8"?>
<!-- Generator: Adobe Illustrator 17.1.0, SVG Export Plug-In . SVG Version: 6.00 Build 0)  -->
<!DOCTYPE svg PUBLIC "-//W3C//DTD SVG 1.1//EN" "http://www.w3.org/Graphics/SVG/1.1/DTD/svg11.dtd">
<svg version="1.1" id="Layer_1" xmlns="http://www.w3.org/2000/svg" xmlns:xlink="http://www.w3.org/1999/xlink" x="0px" y="0px"
	 viewBox="0 83 800 852" enable-background="new 0 83 800 852" xml:space="preserve">
<g>
	<g>
		<path fill="#5C0106" d="M305,787.3c-16.4,2.1-16.4-16-27.2-22.5c-12.9-7.8-20.3-6.1-31.6,1.7c-33.3,22.9-64.9,47.6-94.3,75.3
			c-5.6,5.2-12.1,10.3-18.7,14.3c-13.8,7-28.1,7.3-40.2-3c-11.7-9.5-14.3-22-9.1-37.2c12.6-36.8,31.1-70.5,47.1-106
			c22.5-50.1,45.4-100.4,69.2-150.1c6.5-13.8,11.2-26.4,7-41.5c6.1-2.6,10.3,2.1,16,3.5c2.6,0.9,5.6,1.7,7.8,3.5
			c10,22.5,32,14.3,48.9,19.9c4.7,1.2,10,2.6,14.7,4.4c1.7,0.9,3.5,2.1,5.2,3.5c5.6,10,9.1,20.3,10.3,31.6
			c-0.9,7.3-5.6,13.8-5.2,21.1c-0.9,3-2.1,5.2-3.9,7.8c-7.3,11.7-18.2,21.1-21.1,35.1c0,20.3-4.7,38.9-19,54.5
			c-3.9,4.4-5.2,10-2.6,16c4.4,7.3,11.7,12.1,16.4,19c8.7,12.1,21.1,19.4,31.6,29.4c3,4.7,4.7,9.6,3.5,15.2
			C308.5,784.4,307.1,786.1,305,787.3z"/>
		<path fill="#5C0106" d="M557.6,534.7c40.7,89.1,81.7,178.3,122,267.3c10,22,0,45-20.8,54.1c-21.1,9.5-44.2,0.9-55.4-22.9
			c-17.3-36.8-34.2-74-50.1-111.6c-4.7-11.2-10.8-16.4-22.5-13.4c-7-0.4-13.4,9.1-20.8,0.9c-13.4-17.8-29-34.2-25.5-59.2
			c0.9-7.8-4.4-15.2-9.1-21.6c-5.6-9.5-13.8-18.7-12.1-29.4c-2.1,5.6-2.6,16.9-14.7,19c-1.7-1.2-3-2.6-3.9-4.7c-0.9-3-0.9-6.1,0-9.1
			c3.5-9.5,8.2-18.7,10-28.5c0.9-5.2,1.2-10,3-14.7c5.2-7.8,5.6-17.3,10-25.5c7.8-8.2,16-16.4,26.9-21.1
			c24.3-3.5,38.4-25.1,60.1-33.7c4.7-2.1,9.1-4.4,14.7-3.9c15.5,14.3-3.9,19.4-7.8,28.5c-2.1,4.7-16,0.9-8.7,12.1
			C556.3,522.6,550.3,530.5,557.6,534.7z"/>
		<path fill="#5C0106" d="M301.5,315c7.8,6.1,10,1.2,12.9-5.6c10-22.9,20.8-45.4,31.1-67.9c7.8-17.8,20.3-30.2,40.2-30.2
			c19.9,0,32.8,11.7,40.2,29.9c10,24.3,20.8,48.4,31.1,72.3c2.6,3.9,7.3,6.1,8.2,10.8c-0.4,20.3,4.7,41-1.2,61.4
			c-10.8,10.8-17.3-1.7-25.5-4.7c-1.7-0.9-3.9-1.7-5.6-2.6c-11.7-6.1-23.4,2.6-35.1-0.9c-6.5-1.7-7-10-12.9-11.7
			c-4.7,3.9-4.7,10-8.2,14.3c-4.7,5.2-10.8,8.7-17.3,11.2c-10.3,1.7-17.3,7.8-21.6,16.9c-4.4,5.6-7.3,12.1-10.3,18.7
			c-3.5,7.3-8.7,13.4-18.2,10.3c-15.2-10.8-8.7-28.1-12.1-42.4c-6.1-19.4,5.6-38.9,0-58.3C292.9,328,283.4,318.9,301.5,315z"/>
		<path fill="#510405" d="M462,324.1c-1.2-3.5-3-7-4.4-10.3c10.3-2.1,19-1.7,17.8,12.6c-3,30.7,15.2,54.5,26.4,81.4
			c11.2-7.8,17.3-18.7,23.4-29c11.7-19.9,7.8-36.8-10.8-50.6c-10.8-8.2-22.5-15.5-33.3-23.8c-11.2-9.1-19.9-20.3-25.1-34.2
			c-3.5-9.6-8.7-22.5,0-27.2c9.5-5.2,14.3,8.7,19.4,15.5c16.9,22.5,42.4,32.8,66.5,48.9c4.4-19.4-2.1-35.5-9.1-50.6
			c-10.8-23.4-22.9-46.3-34.6-69.2c-3-6.5-6.1-12.9-8.2-19.9c-3.5-10.3-7.3-24.3,4.4-28.5c11.7-4.4,12.1,10.8,16,18.7
			c15.5,31.6,43.3,54.5,61.8,87.3c3-12.6,1.2-22.5-0.9-32c-1.7-7.8,0-14.3,3-20.8c2.1-4.7,7-7.3,12.6-7c6.1,0.4,4.7,6.1,5.2,10
			c1.2,7.8,3,15.5,7.8,22c20.3,27.7,17.8,54.5-1.2,81.7c-4.7,6.5-7.8,14.7-13.4,25.1c16-3,16.9-22.9,33.3-20.8
			c-7.8,17.3-6.1,35.1-6.5,53.2c-0.4,41.5-30.7,80-74,96.9c-4.7,1.7-14.3-0.4-12.6,7.8c2.1,9.1,10.3,4.4,16.4,3.5
			c19.4-3.5,38.4-7.8,57.5-19.9c-6.1,31.6-15.2,58.8-37.7,80c-3.5,3-6.1,6.1-4.4,11.2c-7.8-2.6-12.1-6.5-5.2-14.7
			c-4.4-7,0.4-10.3,5.6-12.9c10-4.4,14.3-13.8,17.8-22.9c4.7-12.1-4.4-8.7-10.3-7.3c-19.9,6.1-40.2,7-60.6,11.2
			c-14.7,2.6-25.1-3.5-32-16.4c0-3.5,1.7-6.1,4.4-8.2c7-4.7,12.6-10.3,19.9-14.3c10.3-3.5,21.1-6.1,31.6-10
			c12.6-3,23.4-9.5,32.5-16.9c-8.7,0.4-15.2,19.9-27.7,4.4c5.2-16,18.2-27.7,24.6-42.8c10.8-23.4,10.8-48.4,14.7-73.1
			c0.4-3,0.9-6.5,2.1-9.5c18.2-22.9,26-47.6,12.1-75.3c2.6,18.7-0.9,36.3-11.2,52.4c-9.5,11.2-16,9.1-20.3-4.4
			c-2.6-8.2-3.9-16-4.7-24.6c1.2-19.4-17.8-27.7-22-40.2c5.6,10,12.9,23.4,19,37.2c7,22,16.4,45.4,8.2,67.4
			c-11.7,32.8-6.1,70.5-30.2,99.9c-10,11.7-16.9,24.6-33.7,26.4c-8.7-10.3-18.2-20.3-22.5-33.7C466.3,380,466,351.9,462,324.1z"/>
		<path fill="#4F0305" d="M301.5,315c-7,5.2-10,10.8,0,16c-0.4,7.8,0.9,15.5-1.2,23.4c-8.7,32.8-8.2,65.3,3,97.8
			c0,2.1-0.4,4.4-1.7,6.5c-10,4.4-16.9-2.1-23.8-6.5c-21.1-24.3-45.9-45-58-76.1c-5.2-13.4-0.9-29-9.1-41.5
			c-1.2-12.1-2.1-24.3-5.2-36.3c-1.2-19.9,2.1-38.4,12.6-55.9c5.6-7.3,10-15.5,13.8-24.3c3-3.9,4.7-8.7,7-12.9
			c-2.1,1.7-2.6,4.7-3.9,7c-9.1,10-17.3,20.8-25.1,31.6c-10.3,9.1-9.6,21.6-9.6,33.7c-4.4,6.5-8.7,3.5-12.9,0
			c-4.7-6.1-7.8-12.6-10.3-19.4c-4.4-15.2-0.9-29.9,4.4-44.5c-1.2,3.5-2.1,6.5-3.5,10c-8.2,19.4-14.7,38.9,4.7,55.9
			c0.9,1.7,1.7,3.9,2.1,6.1c1.7,11.7,7.8,22,7.8,33.7c0.9,22.9,3,45.4,12.9,66.5c3.5,6.5,7.8,12.9,7.3,20.8
			c-3.5,8.7-9.6,6.5-15.5,3.5c-5.6-3-9.5-8.7-15.5-10.8c-16.4-6.1-10-22.9-16.4-33.7c-4.7-10.8-1.2-22-3.5-32.8
			c3,11.2-1.7,22.9,3.9,33.7c4.7,11.2,1.2,25.5,13.4,33.7c13.4,14.7,26.9,29,45,37.7c3.5,1.7,7.3,3,11.2,4.4
			c13.4,5.6,28.1,6.5,40.7,14.3c12.6,6.5,22.9,14.7,21.6,31.1c-0.4,7.8-0.9,16-11.2,17.8c-11.2-0.9-16.9-13.4-28.1-14.3
			c-20.8-4.4-41.5-8.2-62.7-8.2c-10.8,5.2-1.2,10,0.4,14.7c2.6,7.3,12.1,12.6,5.2,22c-27.2-14.7-28.5-42.4-36.8-70.9
			c27.7,10.3,52.4,19.4,79.1,19c-0.4-11.2-8.7-10.3-13.8-12.1c-51-17.3-77.9-54.5-77.9-108.1c0-14.3-2.1-28.1-6.5-42.4
			c12.9-1.7,15.5,11.7,25.5,15.2c0-12.6-7.3-22-12.6-31.6c-11.7-22.5-11.2-43.7,3-64.9c4.7-7,9.6-14.7,10-23.4
			c0.4-5.2-1.2-12.6,7.3-12.9c7.8-0.4,11.7,6.1,13.4,12.1c1.2,6.1,1.7,12.9-0.4,19c-2.1,7-4.4,12.9,0.9,22.9
			c22.5-30.2,49.3-55,64.1-88.7c2.6-5.6,3-14.3,11.7-12.6c8.2,1.7,6.5,10,7,16c0.9,12.9-5.2,23.4-10.3,34.6
			c-15.5,32-36.8,61.4-43.7,97.8c-1.2,6.1-3,12.1,0,19.4c27.2-13.4,54.1-27.2,70.9-54.1c3-4.7,7-12.9,14.7-9.5
			c7.3,3.5,4.4,11.2,3,17.3c-4.4,22.5-18.2,38.4-35.9,51.5c-54.5,38.9-55,45-10,97.8c0.4,0.4,1.2,0.4,2.1,0.9
			c16.4-24.6,22.9-51.9,22.5-81.4C288.1,316.3,289,316.3,301.5,315z"/>
		<path fill="#541111" d="M409.2,829.4c-1.7,3.9-3.5,7.8-5.6,11.2c-2.6,3.9-0.4,18.2-11.2,3.9c-3.5-4.4-3.9,8.2-7.3,8.7
			c-8.7,5.2-4.4-20.8-17.3-4.7c-2.6,3-5.2-4.7-7-8.7c-4.7-11.7-10.3-16.9-18.2-0.4c-2.6-9.1-4.7-16-7-22.5c-3-4.4-2.1-8.2,2.1-11.7
			c13.4-4.7,20.3,9.1,31.6,11.2c5.6,3,9.1,8.2,11.7,14.7c5.6-5.2,7.3-12.1,13.4-15.5c6.1-2.6,8.7,1.2,11.7,5.2
			C408,823.7,408,826.8,409.2,829.4z"/>
		<path fill="#500D0D" d="M514.4,708.2c5.6,6.1,11.2-6.5,16.9,0.4c-3.5,5.2,16,4.7,3.5,9.5c-12.1,4.7-12.1,16-18.7,22.5
			c-11.7,11.7-22.5,26.4-40.7,29.4c-1.7-0.9-3-2.1-3.9-3.9c0-10,7.3-15.2,12.9-22c9.1-7.8,18.2-15.2,21.1-27.2
			C508.3,713,510,709.5,514.4,708.2z"/>
		<path fill="#551213" d="M475.9,770.1c-3.5,18.2-21.1,26.9-28.6,42.8c-2.6,5.2-9.5,9.5-16.4,3.9c-4.7-6.1-3.5-12.6,0-18.7
			c3-6.1,8.2-9.6,13.4-12.9c5.6-3.5,8.2-9.6,11.7-14.7c5.6-8.7,12.1-8.7,18.7-1.2L475.9,770.1z"/>
		<path fill="#480608" d="M338.3,807.7c-0.9,3-1.7,6.5-2.6,9.5c-20.8,0.9-29-11.2-30.7-30.2c0.4-2.1,0.9-4.4,1.2-6.5
			c4.4-2.6,8.2-0.4,11.7,1.7C323.7,791.7,341,791.7,338.3,807.7z"/>
		<path fill="#E0C7A1" d="M201.6,517.4c-0.9-12.6-12.1-19.9-16.9-30.7c-3.5-7.3-2.6-10,4.7-11.7c1.2,1.2,3,2.6,4.4,3.9
			c8.2,9.1,14.3,19.4,24.6,26.4c8.2,6.1,10.8,13.4-0.4,19.9c-3.5-2.6-5.6-7.3-11.7-7.3C205.1,517.9,203.4,517.4,201.6,517.4z"/>
		<path fill="#4D110F" d="M409.2,829.4c-1.2-1.7-2.6-3.5-3.9-5.2c-0.4-9.1,3.5-15.5,12.6-18.7c7,0.4,7.3,7.8,11.7,10.8
			c-2.1,6.5-4.7,12.9-7,20.3C414.8,840.1,417.1,825.4,409.2,829.4z"/>
		<path fill="#A9816E" d="M429.1,816.8c-7,1.2-12.1,0.4-10.3-8.7c1.2-10,3.5-19,16.4-9.5c-1.2,6.1-2.6,12.1-3.9,18.2l-0.9,0.9
			L429.1,816.8z"/>
		<path fill="#FAD2AA" d="M449.4,604.9c-0.4,2.6-0.9,5.2-1.2,8.2c-10.3,8.2-21.1,15.2-35.1,9.1c3,8.2,9.5,15.2,15.2,22.9
			c7.8,19,6.1,36.8-8.7,51.9c-6.5,3.9-13.4,4.4-20.8,1.2c-3.5-1.7-4.4-4.7-4.7-8.7c0.4-5.6,4.4-9.5,7.3-13.8
			c2.6-5.6,8.7-11.2,2.6-18.2c-15.2,1.7-30.2,0-45.4,1.2c-5.2,12.6,8.2,17.3,10.8,26.9c0.9,10.3-5.6,13.4-14.3,14.3
			c-6.1,0-11.2-2.1-15.2-7c-7.8-14.7-12.1-29.9-4.7-46.3c4.7-10.8,6.1-20.3-7.8-25.1c-3.5-1.2-7.3-3-10.3-5.6
			c-3.5-2.1-5.2-5.6-6.5-9.5c-2.1-7-1.7-14.3-3.9-21.6c-3.5-10.8-6.5-21.6-10-32.5c-1.2-6.5,3-7,7.8-7c5.2,2.1,6.5,7.8,9.1,12.1
			c3.9,7,11.2,7.3,17.8,9.5c2.6,0.9,4.7,0,2.1,0c0-1.2-0.4-2.6-2.1-3.5c-6.1-5.2-11.7-10-15.5-16.9c-5.2-12.1-15.2-23.8-3.9-37.7
			c1.7-1.2,3.5-2.1,5.6-2.1c1.7,0.9,3.5,2.1,4.7,3.9c0.4,13.8,8.7,15.5,19.9,12.6c7.3-4.4,15.5-8.7,24.3-6.1
			c13.8,4.7,26.9-0.9,40.2-1.2c12.9-1.2,22.9,12.6,36.8,7.8c5.2,1.2,8.7,4.7,10.8,9.5c1.2,7.3-8.7,8.2-8.2,15.2
			c-3.5,6.5-9.5,10.8-15.2,15.5c-4.4,3.5-7,8.7-12.6,10.8c-1.2,0-3.5-0.4-3.9,0c-1.7,2.1,0.9,0.4,1.2,0.9c2.6-2.1,2.1,7,6.1,1.7
			c1.2-2.1,2.6-4.7,4.7-6.5c7-5.6,16-5.6,23.4-10.3c2.6-1.7,5.2-2.6,8.2-3c2.1,0.4,3.5,1.2,4.7,2.6c-0.4,5.2-1.2,10.8-1.7,16
			C451.7,585,447.3,593.5,449.4,604.9z"/>
		<path fill="#F6F5F5" d="M286.8,561.2c7.8,22.5,1.7,41.5-10.8,58.8c-6.1,8.2-13.8,16.4-12.1,26.4c4.4,27.2-15.2,32.5-36.8,41.5
			C247.9,643.8,267.3,602.2,286.8,561.2z"/>
		<path fill="#DDB692" d="M318.4,613.4c3,1.2,6.1,2.6,9.1,3.9c1.2,1.2,2.1,3.5,2.1,5.2c-0.9,6.1-1.7,11.7-3.9,17.3
			c-3.9,9.6-24.3,7.8-16.4,25.1c0.9,3.9,0.9,8.2-0.4,12.1c-0.9,3-2.1,5.6-3.9,8.2c-3.9,7.3-0.9,16.9-7.3,23.4
			c-2.1,0.9-4.4,0.4-6.1-0.4c-7-10-6.5-22.5-11.2-33.3c-2.1-9.1-7.8-17.8-5.2-27.7c-1.2-17.8,15.2-25.5,22-38.4
			C303.8,613.4,310.2,616.9,318.4,613.4z"/>
		<path fill="#631813" d="M217.7,525.6c3-7.8,2.6-13.8-5.6-19c-10-7-19-15.2-23.4-27.2c11.7-6.1,21.1,0.9,31.1,5.2
			c19,18.7,43.3,26.9,67,36.3c7.3,9.5,13.4,19.4,5.2,31.6c-4.4,0-9.1,1.2-12.9-2.1c-4.4-0.9,4.4-7.8-5.2-8.7c-16-1.7-32-7-46.8-14.7
			C225,526.5,221.5,526.1,217.7,525.6z"/>
		<path fill="#F2CFAA" d="M293.3,708.2c0.9,0,2.1,0,3,0c5.6,3.5,5.6,9.6,6.5,15.2c0,11.2,7,21.1,7.8,32c-0.9,5.6,0,12.1-8.2,12.6
			c-11.7-8.2-27.7-12.6-31.6-29.4c1.2-1.7,2.6-2.6,4.7-2.6c10.3,1.2,7.3-7,8.7-12.6C285.1,717.3,287.2,711.7,293.3,708.2z"/>
		<path fill="#B88D72" d="M292.9,552.5c0-10.8-2.1-21.1-8.2-30.7c0.9-2.1,1.7-3.9,3.5-5.2c4.7-2.6,12.6-1.7,11.7-10.3
			c5.6-1.7,10.8-2.1,14.7,3.9c-10.8,13.4,4.7,24.3,3.5,36.8c-3.9,4.4-8.7,1.2-12.9,1.2c-3.5,0.4-7,1.2-8.7,4.7
			C295.4,553,294.2,552.5,292.9,552.5z"/>
		<path fill="#EBD2B3" d="M275.1,646.8c3,8.7,5.6,17.3,8.7,25.5c2.1,7,0.4,12.6-5.6,16.9c-6.1,5.2-3.9,13.4-6.5,19.9
			c-5.2,4.7-7.8,13.8-17.8,11.7c-6.5-4.7-7.3-12.1-2.6-16.9C267.8,687.8,274.3,668.8,275.1,646.8z"/>
		<path fill="#DEC0A3" d="M228.5,526.5c17.8,4.4,35.1,9.1,52.7,13.4c3,0.9,7.8-0.9,7.3,4.7c-0.4,5.2-8.2-0.4-8.7,5.6
			c-4.7-0.9-9.5-1.2-14.3-2.1C250.5,545.5,233.6,546,228.5,526.5z"/>
		<path fill="#CEAB88" d="M302.4,768.3c5.2-3,3-8.7,3.9-12.9c6.1-6.1,10.3,7.3,16.4,1.2c3.5-1.2,7.3-2.6,11.2-2.1
			c4.4,2.1,5.2,5.6,3.9,10c-7.8,7-8.7,21.1-22.5,21.6c-1.2-4.4-5.2-4.7-9.1-5.2C305,776.5,303.8,772.7,302.4,768.3z"/>
		<path fill="#C6A78B" d="M254.4,720.8c7.8-1.2,7.3-13.8,16.9-12.6c12.6,8.2,7,19.4,4.4,30.2c-1.7,0-3,0.4-4.7,0.4
			C262.2,735.8,257.5,729.4,254.4,720.8z"/>
		<path fill="#AC7F5D" d="M318.4,613.4c-0.4,13.4-10.8,5.6-16,6.1c-7,0.9-4.4-7-4.7-11.2c1.2-1.2,2.6-2.6,4.4-3.9
			c3.5-4.4,7.8-3,12.1-0.9C315,607,316.7,610.1,318.4,613.4z"/>
		<path fill="#5B0801" d="M313.7,603.5c-3.9,0.4-7.8,0.9-12.1,0.9c-7-8.7,0.9-13.4,4.7-19C314.6,589.3,311.1,597.5,313.7,603.5z"/>
		<path fill="#EFCEAA" d="M423,643.3c-8.2-3-10.3-10-13.8-17.3c-2.1-5.6-0.4-8.7,2.6-10.8c7.8-5.6,6.5,0.9,6.1,5.2
			c10-2.6,19.9-5.2,29.9-7.8c0.9,0.9,1.2,2.1,1.2,3.5c10,3,20.8,3.5,29.9,9.5c9.1,4.4,12.9,15.2,11.2,21.6
			c-6.5,26.9,14.3,41.5,23.8,60.6c-1.2,3,0,7.3-4.4,9.1c-16,2.6-13.8-11.2-17.8-19.4c-2.1-3.9-4.7-7.3-7.8-10.3
			c-8.2-6.1-8.2,7.8-14.7,5.6c-2.1,0-3.9-0.9-5.6-2.1c-4.7-7.8-8.2-16-9.5-25.1c4.4-15.5-7.3-21.6-16.9-29c2.6,1.2-3.5-1.2-0.9-1.7
			c0,0,0-1.2,0-1.7C433,636.8,432.1,645.5,423,643.3z"/>
		<path fill="#F3EFEE" d="M510,623.9c-17.3,5.6-24.3-3.9-29-14.3c-3.9-8.2-6.1-17.3-7.8-26.4c-1.2-7-6.1-18.2,2.6-20.8
			c8.7-2.6,10.3,9.5,13.4,16C496.6,593.2,502.7,608.3,510,623.9z"/>
		<path fill="#E6C29B" d="M556.8,483.7c-12.9,7-24.3,16-35.1,26c-7,6.1-15.2,10-25.1,7.8c-4.4-3.5-5.2-8.2-5.2-13.4
			c0-10.3,6.1-15.5,15.5-18.2C523.4,485.9,539.5,476.9,556.8,483.7z"/>
		<path fill="#DAC2A7" d="M569.3,472.9c4.7-2.6,10-4.7,16.4-8.2c-3.9,24.6-18.7,40.2-33.3,55.9c-6.1-2.1-16-2.6-4.4-11.2
			c8.2-6.1,16.9-11.7,22.5-20.8c2.1-3.5,6.1-7-0.9-9.5C567.1,476.9,567.1,475.1,569.3,472.9z"/>
		<path fill="#AEADAD" d="M495.7,505.3c0,3.9,0.4,7.8,0.4,11.7c-10,3.9-12.9,18.7-26.4,18.2c-0.9-0.9-1.7-2.1-2.6-3
			C464.2,505,473.3,496.3,495.7,505.3z"/>
		<path fill="#E3D5CB" d="M569.3,472.9c0,1.7,0.4,3.5,0.4,5.6c-4.4,1.7-8.7,3.5-12.9,5.2c-17.3,1.7-34.6,3-51.9,4.7
			c-3.9,1.2-4.7-0.4-3.9-3.5C523.9,480.7,546.3,476.9,569.3,472.9z"/>
		<path fill="#B18B72" d="M478.9,626c-11.2,0.9-22,0.4-29.9-9.5c6.1-6.1,11.2-12.6,14.3-22.5C468.9,605.2,474.2,615.7,478.9,626z"/>
		<path fill="#E3D7D4" d="M443.8,547.8c-6.1-10.8,8.7-7,9.5-12.9c1.2-1.2,3-2.6,4.7-3c3.9-0.4,7.8-0.4,10.3,3.5l0.9,0.4l0.9-0.9
			c-2.1,9.1,3,20.3-8.2,26.4c-1.7-0.4-3.5-0.9-5.2-1.2C452.9,555.5,448.5,551.2,443.8,547.8z"/>
		<path fill="#C7A786" d="M488,547.8c-4.4,1.7-9.1,7-12.6-0.4c-2.6-5.2,0.4-7.8,6.1-7.8c13.4-0.9,26-13.8,40.7-3.9
			C514,548.6,499.2,543,488,547.8z"/>
		<path fill="#B18B72" d="M449.4,604.9c-12.9-15.5-1.7-22,10.8-27.2C456.9,586.7,452.9,595.8,449.4,604.9z"/>
		<path fill="#E0C6A9" d="M488,547.8c10.3-7.3,24.3-3.9,34.2-12.6c4.4-0.9,8.2-1.2,12.9,2.6C519.1,543.9,504.4,550.4,488,547.8z"/>
		<path fill="#F50405" d="M357.4,388.5c5.6-2.6,9.1-10,16.4-9.5c6.5-7,13.4-10.3,22-4.7c13.4,0.4,26.9-8.2,40.2,0
			c-0.4,3.5-2.1,5.6-4.7,7.8c-6.5,4.7-15.2,5.2-22,8.7c-5.2,2.6-23.8-0.9-9.1,15.2c3,3-1.7,6.1-5.2,7.3c-5.2,2.1-11.2,1.2-19,3
			c25.1,6.1,39.3,20.8,44.2,44.2c-0.9,2.1-2.6,3.9-4.7,4.7c-12.9,4.4-26,1.7-38.9,2.6c-21.1-0.9-42.4-3.9-62.3-10.8
			c-8.7-5.6-7.8-12.9-3-20.8c18.2-2.6,11.7-24.3,24.6-31.1c5.6,3,4.4,8.2,3.9,13.4c-2.6,25.1-2.6,25.1,22.9,23.4c3,0,5.6,0,12.1,0
			c-12.6-4.4-30.2,4.4-30.7-10.3C343.4,416.7,334.4,396.4,357.4,388.5z"/>
		<path fill="#B80405" d="M474.5,409.8c5.6,10.3,19.4,16,17.8,30.2c3.9,3.9,2.1,8.7,1.2,12.9c-1.7,7.8-7.3,11.2-14.7,12.9
			c-28.1-0.9-37.7-10.8-39.8-41.5c-0.4-5.6-0.4-11.2-0.4-16.9c1.7-10.8-4.7-22,1.2-32.5c8.2,2.6,11.2,13.4,20.8,13.8
			C468.9,393.3,468.9,403.2,474.5,409.8z"/>
		<path fill="#FC4848" d="M357.4,388.5c-18.2,10-2.1,29-10.3,42.4c-3,4.7,10,5.2,15.2,3.5c14.7-4.4,19,2.6,21.1,16.9
			c-10,0.4-16-7-26.4-4.4c-23.8,6.5-30.7-3.5-23.8-27.7c1.2-4.7,3-9.5,1.7-14.7C338.7,394.6,344.3,385.9,357.4,388.5z"/>
		<path fill="#DED69B" d="M310.6,436.2c0,5.6,0,11.2-0.4,16.9c-1.7,3.5-3.9,6.1-8.7,3.5c-18.7-33.7-14.7-68.3-4.7-103.9
			c7.3,13.8-2.6,29.9,5.2,43.7C304.6,409.8,302.4,424,310.6,436.2z"/>
		<path fill="#E0D9C6" d="M474.5,409.8c-8.2-4.4-13.4-10.8-13.8-20.8c3-21.6-3.5-43.3,1.2-64.9C470.2,351.9,474.2,380.3,474.5,409.8
			z"/>
		<path fill="#E5DCCE" d="M302,396.4c-11.7-13.4-0.9-29.4-5.2-43.7c1.2-7.3-2.6-16,4.7-22C312,352.7,296.3,374.7,302,396.4z"/>
		<path fill="#FC2828" d="M440,375.1c4.4,11.2,5.6,22.5,4.4,34.2c-4.7,6.5,0.9,15.5-7,24.3c-11.2-18.7-8.7-36.3-6.1-54.1
			c1.7-1.7,3.5-3.5,5.2-5.2C437.4,374.7,438.6,374.7,440,375.1z"/>
		<path fill="#DDD1CD" d="M395.8,374.2c-7.3,1.7-14.7,3-22,4.7c0.9-9.5,5.2-16.9,11.2-25.5C392,359.2,393.7,366.9,395.8,374.2z"/>
		<path fill="#F5F1B0" d="M493.6,453c-10-3-0.4-8.7-1.2-12.9c26.4-14.7,36.3-41.5,49.3-66.7c7.3-14.3-9.5-29.4-3.9-34.6
			c10.3-9.1,14.3-18.2,15.2-30.7c1.7-21.1-5.6-40.7-9.5-60.6c-0.4-3.9-3.9-9.1,1.7-10.8c6.1-1.7,7.3,5.2,10.3,8.2
			c2.1,10,4.4,19.4,6.1,29.4c3,18.7,8.2,0.9,12.6,0.9c5.2-3.9,9.5-2.1,12.1,2.6c4.4,7.8-3,12.6-6.1,18.7
			c-7.3,5.2-8.7,13.4-11.7,20.8c-3.5,10.3-1.7,21.1-1.7,31.6c0,13.4,0.9,26.4-6.1,38.4c-3.9,16-15.2,27.2-26,38.9
			c-3.5,5.2,2.1,12.6-4.4,16.9C519.1,450.4,507,454.3,493.6,453z"/>
		<path fill="#D60202" d="M431.3,379.5c8.7,14.7,2.1,31.1,5.6,47.6c5.6-5.2,0.9-14.3,7.3-17.8c0.9,12.6-0.9,24.3,6.1,36.8
			c10.8,18.7,9.1,19.4,28.1,8.2c3.9,3.9-1.2,7.8,0.4,11.7c-1.7,2.1-3,3.9-4.7,6.1c-6.5,4.4-13.4,5.2-20.8,4.4
			c-3.5-1.7-6.1-5.2-8.7-8.2c-6.5-8.7-18.7-2.6-25.5-10c-14.3-15.5-23.4-39.3-51-35.9c-1.2,0-3.5-2.6-3.9-4.4c-0.4-4.4,3-7,6.5-7.3
			c8.7-0.9,16.9-0.9,26.4-1.2c-3.5-6.5-12.6-4.4-15.2-12.1C395.8,385.1,414.5,384.7,431.3,379.5z"/>
		<path fill="#C9C4C4" d="M453.4,473.8c7-0.4,13.8-1.2,20.8-1.7c10,1.7,12.1,19.9,26.4,12.6c1.2,1.2,2.6,2.6,3.9,3.5
			c-5.6,4.4-10,9.5-8.7,17.3c-26.4-5.6-24.6,14.3-27.7,29.9c-3.9,0-7.8,0-11.7-0.4c-7.8-12.1-6.5-24.6,1.7-35.5
			c8.7-11.2,2.1-15.5-6.5-20.3C451.7,477.2,452,475.5,453.4,473.8z"/>
		<path fill="#E6DFB6" d="M577.9,297.7c-3.9-7,18.7-18.7-3.9-22.5c10-20.3,13.4-41,3.5-64.4c34.2,27.2,26,72.6,0.9,91.3
			c-0.9-0.9-1.2-1.7-0.9-3C577.5,298.6,577.9,297.7,577.9,297.7z"/>
		<path fill="#C7B194" d="M560.6,388.2c3-24.3-5.2-49.3,5.2-73.1c6.5,11.2-0.4,22.9,1.7,34.2c-1.7-11.7,2.1-22.5,1.7-34.2
			c-0.4-7.3,4.4-8.2,10-7C574.1,334.9,577.5,363.9,560.6,388.2z"/>
		<path fill="#DAD1B0" d="M521.3,316.8c-22.5-12.1-46.8-21.1-53.2-48.4C481,289.9,510,294.8,521.3,316.8z"/>
		<path fill="#E3DCBE" d="M555.9,245.4c-3.5,3.9-11.7-14.7-12.6,2.6c-9.5-17.8-19-35.5-28.5-53.2
			C532.5,208.2,549.4,222.5,555.9,245.4z"/>
		<path fill="#D2C9A3" d="M530.4,443.9c0.4-6.1-6.5-13.4,4.4-16.9c17.8,5.6,25.1-10,38.4-15.2C565.4,430.1,549.8,439.2,530.4,443.9z
			"/>
		<path fill="#663F20" d="M579.3,308.1c-14.7,2.1-4.4,13.4-6.5,19.9c-3,8.2-3,17.8-4.7,31.1c-6.1-17.8-0.9-31.1-2.1-44.2
			c2.1-7-0.4-17.8,12.1-16.9c0,1.2,0,3,0,4.4C578.8,304.2,578.8,306.3,579.3,308.1z"/>
		<path fill="#E1D7B9" d="M600.4,375.6c-1.7,12.9-7.3,23.4-20.3,29.9c7.3-15.2,11.7-31.6,16.4-47.6
			C606.9,362.2,601.3,369.5,600.4,375.6z"/>
		<path fill="#B9A997" d="M600.4,375.6c-1.7-5.6,1.7-12.6-3.9-17.8c-2.1-10.8,2.6-20.3,6.1-30.2C603.9,344,608.3,360.1,600.4,375.6z
			"/>
		<path fill="#EFEAAA" d="M223.7,241.5c-10,17.3-11.2,36.8-13.4,55.9c-1.7,13.4,3,26,4.4,38.9c3,4.4,12.9,4.4,9.1,13.8
			c-9.1,22,5.2,38.1,16.4,53.6c11.7,16.4,26.4,30.2,39.8,45c2.1,4.7-0.4,6.5-4.4,7.8c-15.2-2.1-29.4-6.1-43.3-12.6
			c-3.9-7-5.6-15.5-15.2-17.8c-2.6-1.7-4.4-3.9-5.6-6.5c-2.6-4.4,1.7-9.5-1.2-14.3c-3-5.6-5.6-11.7-8.7-17.3
			c-6.1-23.4-5.6-47.1-7.8-70.5c-1.2-11.7-8.7-21.1-11.2-32.5c12.9-2.6,22.5-8.2,17.8-24.3c0.4-5.6,2.6-10,6.1-14.3
			c3.5-4.4,4.7-10.8,10-12.9C225.9,230.2,226.8,234.2,223.7,241.5z"/>
		<path fill="#FBFAFA" d="M301.5,457c3-1.2,5.6-2.6,8.7-3.5c21.6,3,43.3,6.1,64.9,9.1c11.2,4.4,23.8-1.2,35.5,3.9
			c-5.2,13.8-16.4,13.8-27.2,14.3c-20.3,1.2-40.2,1.2-48.9,25.5c-2.6,7-9.5,7.8-16,3c-1.2,0-3,0.4-4.4,0.9
			c-5.6-0.4-11.7-0.9-17.3-0.9c-7,2.1-11.2,0.9-12.1-7c14.3-1.2,6.1-12.6,8.7-19c3.5-8.2-3.9-19.4,7-26L301.5,457z"/>
		<path fill="#ECC7A1" d="M285.1,501.9c3.9,2.1,8.2,4.7,12.1,7c-1.7,2.6,16.4,7.3-0.9,9.1c-3.9,0.4-7.8,2.6-11.7,3.9
			c-26.4-2.1-47.6-14.7-65.3-33.7c0.4-10.8,7.8-3.9,12.1-4.7c10.3-2.1,20.8,4.4,31.1,0.9C273.9,485.4,277.8,495.9,285.1,501.9z"/>
		<path fill="#B8A982" d="M197.8,314.7c7.3,24.3,7.3,48.4,4.7,73.5c-12.6-21.6-15.5-45-13.4-69.7C197.3,329.7,194.3,315,197.8,314.7
			z"/>
		<path fill="#E8E2A5" d="M181.7,258.4c2.6,5.6,5.2,10.8,7.3,16.4c0.4,8.2-3.9,8.2-10,5.6c-21.6-27.7-21.6-31.1-3.9-57.5
			C183,233.7,172.7,247.6,181.7,258.4z"/>
		<path fill="#E8DCD0" d="M262.6,484.2c-13.8,9.1-29.4-0.9-43.7,3.9c-10.3-1.2-18.7-10.8-29.9-9.1c0-1.2,0-2.6,0-4.4
			C214.2,474.6,238.5,478.1,262.6,484.2z"/>
		<path fill="#E2DBB5" d="M215.4,419.8c0.4,0.9,1.2,2.1,1.7,3c1.2,6.1,22.5,5.6,6.1,17.8c-20.8-7.3-35.1-22-47.1-39.3
			c-2.1-4.4,0.4-5.2,3.9-5.6C192.6,402.4,201.1,415.4,215.4,419.8z"/>
		<path fill="#DED7B4" d="M223.7,241.5c-0.9-4.4-2.1-9.6-7-2.6c-3,4.4-3.5,11.2-11.2,9.1c0-2.1-0.9-4.4,0.4-6.5
			c8.7-10.3,17.3-21.1,26-31.6c4.4,2.1,3,6.5,3.9,10C231.5,226.8,227.6,234.2,223.7,241.5z"/>
		<path fill="#6B3E28" d="M215.4,419.8c-22,7.8-22.5-17.3-35.5-22.9c0.4-2.1,3.5-2.1,4.4-3.9c10.8,0,12.6,19.9,26.9,12.6
			C216.3,408.9,216.3,414,215.4,419.8z"/>
		<path fill="#C8BE82" d="M300.6,457.3c-2.1,8.7-4.7,17.3-7,26c2.1-14.3-17.8-13.8-18.2-26.9c1.2-2.6,2.6-5.2,4.4-7.8
			C287.2,450.9,292.1,458.6,300.6,457.3z"/>
		<path fill="#552116" d="M197.8,314.7c-0.9,3-1.2,6.1-2.1,9.1c-2.1-1.7-4.4-3.5-6.5-5.2c-0.9-11.2-9.5-20.8-9.1-32.5
			c0.4-2.1,1.7-2.1,3-0.9C190.4,293.9,197.3,303,197.8,314.7z"/>
		<path fill="#C7BDA2" d="M263.1,306.3c-10.8,11.2-22.5,19.4-40.2,10c12.1-5.6,23.8-10.3,35.1-15.5
			C260.8,301.6,262.6,303.3,263.1,306.3z"/>
		<path fill="#9D8886" d="M167.9,366.5c-18.2-10.3-4.4-26.4-10.3-44.2C172.7,338.4,165.3,353.1,167.9,366.5L167.9,366.5z"/>
		<path fill="#E8E3BA" d="M263.1,306.3c-1.7-1.7-3.5-3.5-5.2-5.6c10.8-8.2,22-16.9,32.8-25.1C286.8,291.3,276.9,300.4,263.1,306.3z"
			/>
		<path fill="#C9C0AD" d="M183.8,392.9c-1.2,1.2-3,2.6-4.4,3.9c-1.2,1.2-2.1,3-3.5,4.4c-7.3-10.3-17.8-20.3-8.7-34.6l-0.4,0.4
			C176.1,373.4,169.7,389.9,183.8,392.9z"/>
		<path fill="#DBD0CE" d="M181.7,258.4c-11.7-10.3-3-23.8-6.1-35.5c2.1-7.8,4.4-15.5,7-22.9C184.7,219.5,176.5,238.5,181.7,258.4z"
			/>
		<path fill="#6A291F" d="M205.5,241c0,2.1,0,4.4-0.4,6.5c0,4.7,0.4,10,0.4,14.7c-4.7,3.5,2.1,13.4-7.8,14.3
			C190.8,262.7,194.3,251,205.5,241z"/>
		<path fill="#DCD6C6" d="M235.3,219.5c-1.2-3.5-2.6-6.5-3.9-10c3.9-7.8,8.7-14.3,16.9-20.8C250,202.6,239.2,209.5,235.3,219.5z"/>
		<path fill="#DED7B4" d="M198.2,276.6c2.6-4.7,5.2-9.6,7.8-14.3c1.7,16.9-2.1,28.1-22.9,22.9c-0.9,0-2.1,0.4-3,0.9
			c-0.4-1.7-0.4-3.9-0.9-5.6c3.9-0.4,7.8-1.2,10-5.6C192.9,272.2,193.4,285.7,198.2,276.6z"/>
		<path fill="#DED7B4" d="M214.6,336.2c-3.5-12.9-12.6-25.1-4.4-38.9C214.2,309.8,215.9,322.9,214.6,336.2z"/>
		<path fill="#B3A185" d="M223.3,440.4c3.9-2.1,5.6-5.2,0.9-7.3c-5.2-2.1-9.1-3.9-7-10.3c16.9-1.2,17.3,9.1,15.5,21.1
			C228.9,444.8,225.9,443.5,223.3,440.4z"/>
		<path fill="#EDCCA5" d="M315,786.1c10.3-3.5,7.3-20.3,20.8-21.1c8.2-3.5,15.2-0.9,22,3.9c19.9,19.9,22.5,30.7,12.9,52.4
			c-14.3,4.4-19.9-12.6-32.5-12.9C330.5,800.8,322.8,793.4,315,786.1z"/>
		<path fill="#AD8360" d="M370.8,820.7c3.9-20.3-3.9-37.2-17.3-52.4c0.9-0.4,1.7-1.2,2.1-1.7c5.2-1.2,9.5,0.9,13.8,3
			c1.7,0.9,3.5,2.1,4.7,3.5c5.2,6.5,6.5,14.7,7,23.8c2.1-11.7,9.5-21.1,5.2-32.8c2.6-7,6.1-14.3,13.8-14.3
			c10.8,0.4,7,12.1,10.8,18.2c0.4,13.4-14.7,22.5-10.8,37.2c0.4,3.9,0,7.8-3.5,10.8c-4.7,7.8-9.5,15.5-15.2,25.1
			C377.6,833.2,374.2,827.1,370.8,820.7z"/>
		<path fill="#F0D0AA" d="M396.7,816.3c-0.4-4.4-0.4-8.2-0.9-12.6c3.9-14.7,26.9-13.4,26.4-31.6c1.2-4.4,3-7.8,7-10
			c3-1.2,6.1-1.2,9.5,0c1.7,0.9,3.5,2.6,4.7,4.4c3.5,7.3,6.5,15.2,5.2,23.4c-7-0.9-10,4.4-13.4,8.7c-8.7-2.6-11.7,4.7-16.4,9.6
			c-5.6,4.4-10.3,9.5-13.4,16C398.9,825,402.8,815.5,396.7,816.3z"/>
		<path fill="#D8B491" d="M448.5,790c-6.5-6.1-6.5-14.3-7.3-22.5c3-7.8,10.8-12.9,13.4-21.6c2.6-8.7,4.7-17.8,10.8-23.8
			c-10,1.7-10.3,10.8-13.4,18.2c-1.7,2.6-4.4,4.4-7.8,3c-7.3-23.4,1.2-44.2,22-52.4c1.7,0,3.5,0.4,5.2,0.4
			c7.8,11.7,8.7,25.5,11.2,38.4c0.4,3.5-0.4,7,0.9,10.3c1.7,2.1,2.1,4.4,2.6,6.5c-1.7,8.2-13.8,11.2-11.7,22
			c-7.8-3.9-12.9-1.2-16.4,6.1C455.5,780,456,787.3,448.5,790z"/>
		<path fill="#D6B89E" d="M486.6,747.2c-1.2-1.2-2.1-3-3.5-4.4c1.2-12.6,3.9-24.6,3-37.2c-0.4-5.6-1.7-14.3,9.5-10
			c5.2,7.3,2.1,19.9,14.7,22c-2.6,6.5,1.7,12.1,3,18.2c-8.2,2.1-6.1-7.3-11.7-8.7C499.7,735.8,502.7,748.9,486.6,747.2z"/>
		<path fill="#ECECEC" d="M318.4,509.2c4.7-0.4,11.7,0.9,12.6-5.6c3.5-29.4,26-27.2,46.8-29c9.5-0.9,20.3,2.6,28.1-6.5
			c-10-5.6-21.6,2.1-30.7-5.6c13.8-0.4,28.1-0.9,41.9-1.2c3.9-2.1,8.2-1.2,12.6-1.2c3.9,0,9.1-0.9,11.2,3.9
			c2.6,5.2-0.4,9.5-3.9,13.4c0,0-0.4,1.2-1.2,1.2c-19.4,7-27.7,22.9-32.5,41.5c-18.7,5.2-37.7-2.6-56.2,1.2
			c-10.8,0.9-20.3-1.7-28.6-8.7C318.8,511.8,318.8,510.6,318.4,509.2z"/>
		<path fill="#EEEFEF" d="M452.9,479c7,0.9,15.5-3.5,19.9,3.9c4.4,8.2-4.4,12.9-9.1,17.3c-10.8,10-4.4,23.4-7,34.6
			c-1.2,0-2.6,0-3.5,0c-3-2.6-6.1-5.6-9.1-8.2c-4.7-2.1-7-5.6-8.2-10.3C433.5,500.1,434.4,485.4,452.9,479z"/>
		<path fill="#976C4E" d="M353.4,657.2c0-4.7,3.9-10.3,7.3-8.2c16,9.1,32.8-1.2,48.9,3.5c2.1,9.5-4.4,17.3-3.9,26.4
			c-1.2,4.4-4.4,6.5-8.7,7.8c-3.5,3-6.5,19.4-11.2,2.1c-2.6-9.1-7.8-10-14.3-12.6C365.6,669.7,355.6,667.2,353.4,657.2z"/>
		<path fill="#5A130E" d="M423,643.3c7.3-4.4,10.3-12.1,14.7-22.9c1.2,7.3,2.1,10.3,2.6,13.8c7.8,17.3,2.6,35.1-0.9,51.9
			c-2.1,9.5-6.5,18.2-19.4,11.7c-0.9-0.9-1.7-1.7-2.6-2.6C425.3,678.4,431.3,662,423,643.3z"/>
		<path fill="#B88D6B" d="M374.7,587.6c0.9-2.6,2.1-4.4,1.7-5.2c-3-8.2-5.6-16,1.7-22.9c1.2-1.2,6.1-1.2,7.3-0.4
			c8.2,7.8,7,18.2,6.1,28.1c0,0.9-0.4,1.7-0.9,2.1c-5.2,5.2,1.2,19.4-10,17.8C372,605.7,376.8,593.5,374.7,587.6z"/>
		<path fill="#5B1610" d="M369.1,674.5c9.1,0.9,24.6-8.2,19,13.4c-0.9,3.5,0.4,3.9,9.1-1.2c0,3,0,5.6,0.4,8.7
			c-11.2,21.1-27.2,9.6-41.9,7c-2.1-1.7-2.6-3.5-1.2-6.1c8.7,0,15.5-1.7,12.1-12.9C363.8,679.2,363,675.4,369.1,674.5z"/>
		<path fill="#612017" d="M322.3,639.1c2.1-5.2-2.1-12.6,5.2-16.4c7,7.3,9.1,16.9,12.6,26c-7.3,14.3,0,28.1,1.2,41.9
			c0.4,8.2-4.4,7.3-10,6.1C321.9,677.9,315.8,659.3,322.3,639.1z"/>
		<path fill="#EAC7A0" d="M353.4,700c14.3-4.4,30.2,9.6,43.7-4.7c7,0,13.8,0,20.8,0l0.9-0.4c4.4,12.1-5.6,12.9-12.6,16.9
			c-15.5,4.7-31.6,7-47.1-0.4C354.8,708.6,352.1,705.2,353.4,700z"/>
		<path fill="#C0927E" d="M344.8,517.9c19.9,0,40.2-0.4,60.1-0.4c1.2-1.2,3-1.7,4.7-0.4c1.2,1.7,1.2,3,0.4,4.7
			c-16.4,2.1-32.5,7.8-49.3,0.9c-8.7-3.5-12.6,8.7-20.3,7.3C336.1,524,340.1,520.5,344.8,517.9z"/>
		<path fill="#C49E79" d="M339.6,648.5c-7.8-7-12.6-15.5-12.6-26c0-1.7,0-3,0-4.7C348.7,620.8,348.3,633,339.6,648.5z"/>
		<path fill="#EBE8E6" d="M443.8,547.8c14.7-7,13.8,3,12.9,12.6c-1.2,1.7-2.6,3.9-3.9,5.6c-8.2-4.4-19.9,11.2-26.9-4.4
			C432.1,556.8,437.9,552.5,443.8,547.8z"/>
		<path fill="#EAE3E3" d="M305,548.1c3.5-7.3,8.7-3,12.9-1.2c5.6,4.7,11.2,9.1,16.9,13.8c-4.4,10-7,10-23.8,1.2
			C305.9,559,305.4,553.4,305,548.1z"/>
		<path fill="#B88D72" d="M344.8,517.9c-1.2,3.9-3,8.2-4.4,12.1c-14.3,3-22.9-0.9-21.6-17.3C327.5,514.1,337,512.3,344.8,517.9z"/>
		<path fill="#A06656" d="M410.1,521.8c0-0.9,0-2.1,0-3c4.4-6.1,10.3-6.1,16.4-6.1c5.2,0,9.5,2.1,13.4,5.2c1.2,3,2.6,6.1,3.9,8.7
			C430,543,420.9,525.3,410.1,521.8z"/>
		<path fill="#5A130C" d="M369.1,674.5c-0.9,3-2.1,5.6-3,8.7c-12.9-4.4-16-13.4-12.6-25.5C359.5,662.3,373.8,659.7,369.1,674.5z"/>
		<path fill="#430605" d="M311.5,562.1c7.8-1.2,16.4,10.3,23.8-1.2c7.8,1.7,7.8,8.7,11.2,18.7C334,569.4,317.9,577.6,311.5,562.1z"
			/>
		<path fill="#56171A" d="M426.2,561.6c7.8,8.2,18.7-1.7,26.9,4.4c-7,7.8-17.3,5.2-26,9.1c-3,1.7-6.1,2.1-8.7-0.9
			C421.3,569.8,423.5,565.4,426.2,561.6z"/>
		<path fill="#C6A27C" d="M362.5,599.6c-2.6,13.4-0.9,24.3-11.2,32C356,622.2,345.7,609.6,362.5,599.6z"/>
		<path fill="#C39F83" d="M418.8,574.1c3,0.4,5.6,0.4,8.7,0.9c-2.6,13.8-15.2,5.6-22,10c-0.4-1.7-2.1-4.4-1.7-5.2
			C406.6,572.8,411.4,569.8,418.8,574.1z"/>
		<path fill="#7F5140" d="M353.4,700c1.2,2.6,2.6,5.6,4.4,8.2c-0.9,3-2.6,5.2-6.1,5.6c-7-5.6-19-6.1-19.9-18.7
			c4.4,0.4,7.3-1.2,9.1-5.2c4.4,1.7,8.7,3.9,12.6,5.6C353.9,697.4,353.9,698.7,353.4,700z"/>
		<path fill="#4A0A03" d="M405.4,678.7c-5.6-12.6-5.6-12.6,4.4-26.4C414.8,661.5,414.8,661.5,405.4,678.7z"/>
		<path fill="#B08663" d="M331.9,695.3c6.1,7,16.4,8.7,21.1,16.9c3.5,1.2,6.1,3.9,8.7,7c3.9,5.2,8.2,10.3,11.2,16.4
			c1.2,5.2,0.9,10-4.4,12.9c-16.9-0.9-24.3-16.9-36.8-24.3c-2.1,1.7-4.7,3-7.8,2.1c-8.7-7.8-7.3-18.7-8.7-28.6
			c1.2-10.8,1.2-21.1-4.7-31.1c-1.2,0-3,0-4.4,0c-12.1-19.4,3.5-22.9,16-28.5C325.3,657.6,328.8,676.3,331.9,695.3z"/>
		<path fill="#8B5A3F" d="M275.1,686.2c3-4.7,5.6-9.1,8.7-13.8c7,10.8,7.3,23.4,9.1,35.9c-1.7,5.6-3.5,11.2-5.2,16.9
			c-12.9,0.9-9.5-9.1-10.8-16C275.1,701.8,273.4,693.9,275.1,686.2z"/>
		<path fill="#E9C9A2" d="M305.9,677.5c0-3.5,0-7,0.4-10.3l0.9-1.2c4.7-5.2,8.7-1.7,8.7,2.6c0.4,8.7,3.5,16.9,0.4,25.5
			c-0.4,4.4,0.9,9.1-4.7,10.8c-2.1,0-4.4-0.9-6.1-2.6C299.4,693.9,301.5,685.7,305.9,677.5z"/>
		<path fill="#CDA37F" d="M305.9,677.5c-0.4,9.1-0.9,18.2,3.9,26.9c0.4,15.5-1.2,17.8-10.3,14.3c0.4-12.6-2.6-25.5,2.1-38.1
			C303.3,679.6,304.6,678.4,305.9,677.5z"/>
		<path fill="#7C4930" d="M301.5,680.5c0,13.4,0,26.9,0.4,40.2c1.2,3.5,0,4.7-3.5,4.4c-0.4-5.6-1.2-11.2-1.7-16.9
			C298,699.1,294.7,688.7,301.5,680.5z"/>
		<path fill="#936146" d="M298.5,725c1.2-1.2,2.1-3,3.5-4.4c6.5-3.5,0.4-13.4,8.2-16.4l0.9-0.4c10.3,17.3,19.4,35.1,12.6,56.7
			c-9.5,11.2-10-7.3-16.9-4.7C304.1,744.9,295.9,736.3,298.5,725z"/>
		<path fill="#B08060" d="M275.1,686.2c10.8,10.8-3.9,29.9,12.9,38.9c-0.9,6.5,3.9,13.8-2.6,19c-0.9,0.9-6.5-3.9-10-6.1
			c-6.5-9.5,0.4-20.3-4.4-30.2C269.1,700.4,266.1,692.2,275.1,686.2z"/>
		<path fill="#A98567" d="M326.1,726.8c1.7-1.7,3.5-3.9,5.2-5.6c7.8,15.5,25.1,26.9,22,47.6l0.4-0.4c-6.1-1.2-11.7-2.6-17.8-3.9
			c0-3.5-0.4-7-3.9-8.7C324,747.2,315.8,739,326.1,726.8z"/>
		<path fill="#F7D5AB" d="M326.1,726.8c-7.3,11.2,3.5,19.4,5.6,29c-1.7,3.5-4.7,4.4-8.2,4.4c-4.4-19-8.2-37.7-12.6-56.7
			c1.2-2.6,2.6-5.2,3.9-7.8c1.2-1.2,3-1.7,4.7-0.4C321.9,705.6,324,716.4,326.1,726.8z"/>
		<path fill="#AB7F5D" d="M404.9,708.2c3-6.1,13.8-3.9,13.8-12.9c9.1,3,15.2,0.9,16.4-9.5c1.7-16.9,3.9-34.2,5.6-51
			c12.1,7.3,29.4,12.1,16.9,32.5c-7,20.8-12.6,41.9-15.5,63.6c-0.4,3.9,0.4,9.1-6.1,9.1c-4.7-3-6.1-7.8-7-12.9
			c-0.4-2.1,0.4-4.4,0-6.5c-0.4-2.1-0.9-1.2-2.1,0.9c-3.9,7.3-5.6,20.3-19,10c-2.1-3.5-3-7.3-3.9-11.2
			C403.6,715.6,402.8,711.7,404.9,708.2z"/>
		<path fill="#E5C09A" d="M437,739.8c3.5-21.6,7-43.3,11.2-64.4c0.9-3.5-4.7-19,10-8.7c4.7,7.3,9.5,14.7,8.2,24.3
			c1.7,12.9-17.3,9.5-17.3,23.8c0,9.1-4.7,18.7-3.9,29c4.7,8.2,0,14.7-4.7,21.1c-3,0-6.1,0-9.1,0c-1.2-1.7-2.6-3.5-3-5.2
			C427.9,751.5,429.1,744.1,437,739.8z"/>
		<path fill="#87503B" d="M479.8,733.7c-3.9-13.8-9.1-27.2-8.2-41.9c7-3.9,0-15.5,8.2-17.3c6.5-1.2,7,7.3,9.1,12.1
			c-3.5,10-1.2,19.9,0,29.4C489.2,723.8,490.1,731.6,479.8,733.7z"/>
		<path fill="#AB7D5A" d="M479.8,733.7c6.1-6.1,7-12.6,4.7-21.1c-1.7-8.7-4.7-18.7,3.9-26c2.1,3,4.7,6.1,7,8.7
			c-9.5,2.1-3.5,9.1-3.5,13.8c-0.4,12.1,0,23.8-9.1,33.7c-2.1,0.9-6.5,2.6-6.5,2.1C474.2,740.2,478.4,737.2,479.8,733.7z"/>
		<path fill="#CBCACA" d="M426.5,517.4c-5.6,0.4-11.2,0.9-16.9,1.2c-1.7-0.4-3.5-0.9-4.7-1.2c-6.1-17.3-7.3-32,16.4-36.3
			c7.3-1.2,17.8-6.1,16-14.3c-1.7-10-13.8-2.1-20.3-5.6c0.9-0.9,1.2-2.1,2.1-3c9.5,3.5,22.9-7.8,29.9,7.3c3,5.2,1.2,10.3-1.7,13.8
			C436.5,489.8,432.6,504.1,426.5,517.4z"/>
		<path fill="#B3ADAD" d="M426.5,517.4c-4.7-11.7,2.6-19.9,8.2-29c4.7-7.8,13.8-12.9,14.3-23.4c1.2,2.6,3,5.6,4.4,8.2
			c0,1.7-0.4,3.5-0.4,5.2c-11.2,10.8-14.7,23.8-12.9,38.9C435.6,517.4,431.3,517.4,426.5,517.4z"/>
		<path fill="#DFB993" d="M409.7,730.2c7.3,3.5,10-1.7,11.7-7c2.1-6.5,3.5-13.4,10.8-16.9c6.1,7,0.4,13.4-0.4,19.4
			c3.5,11.2-1.7,20.3-6.5,29.4c-3.9,4.7-7,10-10.8,14.3c-2.1,0.9-3.9,0.9-5.6-0.9c-12.6-0.4-3.9-10.3-6.5-16.9
			c-5.6,4.7-10.3,8.7-14.7,12.6c-1.7-1.2-3-3-3.9-5.2c-1.7-8.7-3-17.3,3.5-24.6C395.8,737.2,402.8,732.5,409.7,730.2z"/>
		<path fill="#F2CDA6" d="M353.4,768.8c-5.6-16.4-21.6-28.6-22-47.6c1.7-3,4.4-12.1,4.7-8.7c2.6,19,22.9,21.1,29.9,34.6
			c-0.9,4.4-1.2,8.7,0.4,12.9c1.2,4.4,4.4,9.1-0.9,12.9C362.1,770.5,358.6,767.4,353.4,768.8z"/>
		<path fill="#E6C49E" d="M409.2,768.8c1.7,0,3.5-0.4,5.2-0.4c10-12.6,8.7,2.1,12.6,4.7c2.1,22.5-20.8,19.9-31.1,30.2
			C389,787.8,406.3,780.9,409.2,768.8z"/>
		<path fill="#5A0E0A" d="M387.6,761c-0.4,1.2,0,2.1,0.4,3.5c13.8,16-6.1,26.9-7,41c-3.5-10.8-7.3-21.6-10.8-32.5
			c3-4.4,7.8-6.5,10.8-10.8C382.9,760.6,385,758.4,387.6,761z"/>
		<path fill="#845439" d="M383.2,764c0.4,10.3-7.3,8.2-13.4,9.1c-1.2,0-3,0-4.4,0c-1.2-4.4-2.6-8.7-3.9-12.9
			C369.1,761,379,747.5,383.2,764z"/>
		<path fill="#773B26" d="M440,764.5c1.7-7,3-13.8,4.7-21.1c1.2-1.7,2.6-3.5,3.5-5.2c5.6-2.1,7.3,0.9,7.3,5.6
			c2.1,12.1-5.2,18.2-14.7,23.4C440.8,766.2,440.8,765.3,440,764.5z"/>
		<path fill="#BE9B79" d="M427,773c-3.9-2.1-5.6-10-12.6-4.7c-0.9-6.1-1.2-11.7,7-12.6c5.2-3.9,7,0.9,9.5,3.9c0,1.7,0,3,0,4.7
			C427.4,766.2,427.4,769.7,427,773z"/>
		<path fill="#744229" d="M455.5,744.1c-2.6-1.7-4.7-3.9-7.3-5.6c-2.6-12.9,10.8-17.8,16-26.9C466,723.4,466.3,735,455.5,744.1z"/>
		<path fill="#C9AB94" d="M404.9,708.2c1.7,3,3,6.1,4.7,9.1c-4.7,3.9-10.3,5.6-16.4,5.6c-7.8,0-16,0-23.8-0.4
			c-4.4,0-8.2-3.9-12.6-1.2c-3.5-1.7-3.9-5.2-3.9-8.7c1.7-1.2,3-2.6,4.7-3.9C373.3,710.8,389.3,711.7,404.9,708.2z"/>
		<path fill="#D8B790" d="M383.2,764c-6.1-7.8-15.2,0.9-21.6-3.9c-6.5-7-5.2-11.2,4.4-12.9c6.1-3,4.4-8.2,4.4-12.9
			c2.1-1.7,4.7-2.1,7-3c4.4-3,7-8.7,13.8-7c3.9,2.1,7,4.7,5.6,9.6c-0.4,2.1-3,1.7-4.7,0.9c-6.5,8.2-2.1,18.2-3.9,27.2
			C386.4,762.3,385,763.1,383.2,764z"/>
		<path fill="#CDA37F" d="M319.7,695.3c-1.7,0-3.5,0.4-4.7,0.4c-5.6-9.1,9.1-23.4-7.3-29.9c2.1-5.2,8.2-12.1,9.5-4.4
			C319.3,671.9,325.8,683.6,319.7,695.3z"/>
		<path fill="#AC876D" d="M379.9,738.1c-3-1.2-6.1-2.6-9.5-4.4c-9.5,0.9-7-10.8-12.9-13.4c2.1-3.5,5.6-3.9,9.5-3.5
			C376.8,720.8,385.9,724.6,379.9,738.1z"/>
		<path fill="#8C6856" d="M391.5,734.2c5.6-5.6-1.7-6.1-3.5-8.7c-2.6-4.4,1.2-6.1,3.9-8.2c6.1,0,11.7,0,17.8-0.4c0,4.4,0,8.7,0,12.9
			c-4.7,5.2-8.7,11.2-15.5,13.8C393.7,740.7,392.3,737.2,391.5,734.2z"/>
		<path fill="#9F7558" d="M430.9,759.7c-3-1.2-6.5-2.6-9.5-3.9c3.5-10,7-19.9,10.3-29.9c4.7,3.5,3.5,9.6,4.7,14.3
			C434.7,746.7,433,753.1,430.9,759.7z"/>
		<path fill="#4F0806" d="M392,717.3c-1.2,2.6-2.6,5.6-3.9,8.2c-4.7,3-0.9,11.7-8.2,12.9c2.1-11.2-6.5-15.5-12.9-21.1
			C375,717.3,383.7,717.3,392,717.3z"/>
	</g>
</g>
</svg>
