<?xml version="1.0" encoding="utf-8"?>
<!-- Generator: Adobe Illustrator 17.1.0, SVG Export Plug-In . SVG Version: 6.00 Build 0)  -->
<!DOCTYPE svg PUBLIC "-//W3C//DTD SVG 1.1//EN" "http://www.w3.org/Graphics/SVG/1.1/DTD/svg11.dtd">
<svg version="1.1" id="Layer_1" xmlns="http://www.w3.org/2000/svg" xmlns:xlink="http://www.w3.org/1999/xlink" x="0px" y="0px"
	 viewBox="0 0 176 176" enable-background="new 0 0 176 176" xml:space="preserve">
<g>
	<g>
		<path fill="#5C0106" d="M74.8,155.3c-3.8,0.5-3.8-3.7-6.3-5.2c-3-1.8-4.7-1.4-7.3,0.4c-7.7,5.3-15,11-21.8,17.4
			c-1.3,1.2-2.8,2.4-4.3,3.3c-3.2,1.6-6.5,1.7-9.3-0.7c-2.7-2.2-3.3-5.1-2.1-8.6c2.9-8.5,7.2-16.3,10.9-24.5
			c5.2-11.6,10.5-23.2,16-34.7c1.5-3.2,2.6-6.1,1.6-9.6c1.4-0.6,2.4,0.5,3.7,0.8c0.6,0.2,1.3,0.4,1.8,0.8c2.3,5.2,7.4,3.3,11.3,4.6
			c1.1,0.3,2.3,0.6,3.4,1c0.4,0.2,0.8,0.5,1.2,0.8c1.3,2.3,2.1,4.7,2.4,7.3c-0.2,1.7-1.3,3.2-1.2,4.9c-0.2,0.7-0.5,1.2-0.9,1.8
			c-1.7,2.7-4.2,4.9-4.9,8.1c0,4.7-1.1,9-4.4,12.6c-0.9,1-1.2,2.3-0.6,3.7c1,1.7,2.7,2.8,3.8,4.4c2,2.8,4.9,4.5,7.3,6.8
			c0.7,1.1,1.1,2.2,0.8,3.5C75.6,154.6,75.3,155,74.8,155.3z"/>
		<path fill="#5C0106" d="M133.2,96.9c9.4,20.6,18.9,41.2,28.2,61.8c2.3,5.1,0,10.4-4.8,12.5c-4.9,2.2-10.2,0.2-12.8-5.3
			c-4-8.5-7.9-17.1-11.6-25.8c-1.1-2.6-2.5-3.8-5.2-3.1c-1.6-0.1-3.1,2.1-4.8,0.2c-3.1-4.1-6.7-7.9-5.9-13.7c0.2-1.8-1-3.5-2.1-5
			c-1.3-2.2-3.2-4.3-2.8-6.8c-0.5,1.3-0.6,3.9-3.4,4.4c-0.4-0.3-0.7-0.6-0.9-1.1c-0.2-0.7-0.2-1.4,0-2.1c0.8-2.2,1.9-4.3,2.3-6.6
			c0.2-1.2,0.3-2.3,0.7-3.4c1.2-1.8,1.3-4,2.3-5.9c1.8-1.9,3.7-3.8,6.2-4.9c5.6-0.8,8.9-5.8,13.9-7.8c1.1-0.5,2.1-1,3.4-0.9
			c3.6,3.3-0.9,4.5-1.8,6.6c-0.5,1.1-3.7,0.2-2,2.8C132.9,94.1,131.5,95.9,133.2,96.9z"/>
		<path fill="#5C0106" d="M74,46.1c1.8,1.4,2.3,0.3,3-1.3c2.3-5.3,4.8-10.5,7.2-15.7c1.8-4.1,4.7-7,9.3-7c4.6,0,7.6,2.7,9.3,6.9
			c2.3,5.6,4.8,11.2,7.2,16.7c0.6,0.9,1.7,1.4,1.9,2.5c-0.1,4.7,1.1,9.5-0.3,14.2c-2.5,2.5-4-0.4-5.9-1.1c-0.4-0.2-0.9-0.4-1.3-0.6
			c-2.7-1.4-5.4,0.6-8.1-0.2c-1.5-0.4-1.6-2.3-3-2.7c-1.1,0.9-1.1,2.3-1.9,3.3c-1.1,1.2-2.5,2-4,2.6c-2.4,0.4-4,1.8-5,3.9
			c-1,1.3-1.7,2.8-2.4,4.3c-0.8,1.7-2,3.1-4.2,2.4c-3.5-2.5-2-6.5-2.8-9.8c-1.4-4.5,1.3-9,0-13.5C72,49.1,69.8,47,74,46.1z"/>
		<path fill="#510405" d="M111.1,48.2c-0.3-0.8-0.7-1.6-1-2.4c2.4-0.5,4.4-0.4,4.1,2.9c-0.7,7.1,3.5,12.6,6.1,18.8
			c2.6-1.8,4-4.3,5.4-6.7c2.7-4.6,1.8-8.5-2.5-11.7c-2.5-1.9-5.2-3.6-7.7-5.5c-2.6-2.1-4.6-4.7-5.8-7.9c-0.8-2.2-2-5.2,0-6.3
			c2.2-1.2,3.3,2,4.5,3.6c3.9,5.2,9.8,7.6,15.4,11.3c1-4.5-0.5-8.2-2.1-11.7c-2.5-5.4-5.3-10.7-8-16c-0.7-1.5-1.4-3-1.9-4.6
			c-0.8-2.4-1.7-5.6,1-6.6c2.7-1,2.8,2.5,3.7,4.3c3.6,7.3,10,12.6,14.3,20.2c0.7-2.9,0.3-5.2-0.2-7.4c-0.4-1.8,0-3.3,0.7-4.8
			c0.5-1.1,1.6-1.7,2.9-1.6c1.4,0.1,1.1,1.4,1.2,2.3c0.3,1.8,0.7,3.6,1.8,5.1c4.7,6.4,4.1,12.6-0.3,18.9c-1.1,1.5-1.8,3.4-3.1,5.8
			c3.7-0.7,3.9-5.3,7.7-4.8c-1.8,4-1.4,8.1-1.5,12.3c-0.1,9.6-7.1,18.5-17.1,22.4c-1.1,0.4-3.3-0.1-2.9,1.8c0.5,2.1,2.4,1,3.8,0.8
			c4.5-0.8,8.9-1.8,13.3-4.6c-1.4,7.3-3.5,13.6-8.7,18.5c-0.8,0.7-1.4,1.4-1,2.6c-1.8-0.6-2.8-1.5-1.2-3.4c-1-1.6,0.1-2.4,1.3-3
			c2.3-1,3.3-3.2,4.1-5.3c1.1-2.8-1-2-2.4-1.7c-4.6,1.4-9.3,1.6-14,2.6c-3.4,0.6-5.8-0.8-7.4-3.8c0-0.8,0.4-1.4,1-1.9
			c1.6-1.1,2.9-2.4,4.6-3.3c2.4-0.8,4.9-1.4,7.3-2.3c2.9-0.7,5.4-2.2,7.5-3.9c-2,0.1-3.5,4.6-6.4,1c1.2-3.7,4.2-6.4,5.7-9.9
			c2.5-5.4,2.5-11.2,3.4-16.9c0.1-0.7,0.2-1.5,0.5-2.2c4.2-5.3,6-11,2.8-17.4c0.6,4.3-0.2,8.4-2.6,12.1c-2.2,2.6-3.7,2.1-4.7-1
			c-0.6-1.9-0.9-3.7-1.1-5.7c0.3-4.5-4.1-6.4-5.1-9.3c1.3,2.3,3,5.4,4.4,8.6c1.6,5.1,3.8,10.5,1.9,15.6c-2.7,7.6-1.4,16.3-7,23.1
			c-2.3,2.7-3.9,5.7-7.8,6.1c-2-2.4-4.2-4.7-5.2-7.8C112.1,61.1,112,54.6,111.1,48.2z"/>
		<path fill="#4F0305" d="M74,46.1c-1.6,1.2-2.3,2.5,0,3.7c-0.1,1.8,0.2,3.6-0.3,5.4c-2,7.6-1.9,15.1,0.7,22.6c0,0.5-0.1,1-0.4,1.5
			c-2.3,1-3.9-0.5-5.5-1.5c-4.9-5.6-10.6-10.4-13.4-17.6c-1.2-3.1-0.2-6.7-2.1-9.6c-0.3-2.8-0.5-5.6-1.2-8.4
			c-0.3-4.6,0.5-8.9,2.9-12.9c1.3-1.7,2.3-3.6,3.2-5.6c0.7-0.9,1.1-2,1.6-3c-0.5,0.4-0.6,1.1-0.9,1.6c-2.1,2.3-4,4.8-5.8,7.3
			c-2.4,2.1-2.2,5-2.2,7.8c-1,1.5-2,0.8-3,0c-1.1-1.4-1.8-2.9-2.4-4.5c-1-3.5-0.2-6.9,1-10.3c-0.3,0.8-0.5,1.5-0.8,2.3
			c-1.9,4.5-3.4,9,1.1,12.9c0.2,0.4,0.4,0.9,0.5,1.4c0.4,2.7,1.8,5.1,1.8,7.8c0.2,5.3,0.7,10.5,3,15.4c0.8,1.5,1.8,3,1.7,4.8
			c-0.8,2-2.2,1.5-3.6,0.8c-1.3-0.7-2.2-2-3.6-2.5c-3.8-1.4-2.3-5.3-3.8-7.8c-1.1-2.5-0.3-5.1-0.8-7.6c0.7,2.6-0.4,5.3,0.9,7.8
			c1.1,2.6,0.3,5.9,3.1,7.8c3.1,3.4,6.2,6.7,10.4,8.7c0.8,0.4,1.7,0.7,2.6,1c3.1,1.3,6.5,1.5,9.4,3.3c2.9,1.5,5.3,3.4,5,7.2
			c-0.1,1.8-0.2,3.7-2.6,4.1c-2.6-0.2-3.9-3.1-6.5-3.3c-4.8-1-9.6-1.9-14.5-1.9c-2.5,1.2-0.3,2.3,0.1,3.4c0.6,1.7,2.8,2.9,1.2,5.1
			c-6.3-3.4-6.6-9.8-8.5-16.4c6.4,2.4,12.1,4.5,18.3,4.4c-0.1-2.6-2-2.4-3.2-2.8c-11.8-4-18-12.6-18-25c0-3.3-0.5-6.5-1.5-9.8
			c3-0.4,3.6,2.7,5.9,3.5c0-2.9-1.7-5.1-2.9-7.3c-2.7-5.2-2.6-10.1,0.7-15c1.1-1.6,2.2-3.4,2.3-5.4c0.1-1.2-0.3-2.9,1.7-3
			c1.8-0.1,2.7,1.4,3.1,2.8c0.3,1.4,0.4,3-0.1,4.4c-0.5,1.6-1,3,0.2,5.3c5.2-7,11.4-12.7,14.8-20.5c0.6-1.3,0.7-3.3,2.7-2.9
			c1.9,0.4,1.5,2.3,1.6,3.7c0.2,3-1.2,5.4-2.4,8c-3.6,7.4-8.5,14.2-10.1,22.6c-0.3,1.4-0.7,2.8,0,4.5c6.3-3.1,12.5-6.3,16.4-12.5
			c0.7-1.1,1.6-3,3.4-2.2c1.7,0.8,1,2.6,0.7,4c-1,5.2-4.2,8.9-8.3,11.9C55,54.6,54.9,56,65.3,68.2c0.1,0.1,0.3,0.1,0.5,0.2
			c3.8-5.7,5.3-12,5.2-18.8C70.9,46.4,71.1,46.4,74,46.1z"/>
		<path fill="#541111" d="M98.9,165c-0.4,0.9-0.8,1.8-1.3,2.6c-0.6,0.9-0.1,4.2-2.6,0.9c-0.8-1-0.9,1.9-1.7,2c-2,1.2-1-4.8-4-1.1
			c-0.6,0.7-1.2-1.1-1.6-2c-1.1-2.7-2.4-3.9-4.2-0.1c-0.6-2.1-1.1-3.7-1.6-5.2c-0.7-1-0.5-1.9,0.5-2.7c3.1-1.1,4.7,2.1,7.3,2.6
			c1.3,0.7,2.1,1.9,2.7,3.4c1.3-1.2,1.7-2.8,3.1-3.6c1.4-0.6,2,0.3,2.7,1.2C98.6,163.7,98.6,164.4,98.9,165z"/>
		<path fill="#500D0D" d="M123.2,137c1.3,1.4,2.6-1.5,3.9,0.1c-0.8,1.2,3.7,1.1,0.8,2.2c-2.8,1.1-2.8,3.7-4.3,5.2
			c-2.7,2.7-5.2,6.1-9.4,6.8c-0.4-0.2-0.7-0.5-0.9-0.9c0-2.3,1.7-3.5,3-5.1c2.1-1.8,4.2-3.5,4.9-6.3
			C121.8,138.1,122.2,137.3,123.2,137z"/>
		<path fill="#551213" d="M114.3,151.3c-0.8,4.2-4.9,6.2-6.6,9.9c-0.6,1.2-2.2,2.2-3.8,0.9c-1.1-1.4-0.8-2.9,0-4.3
			c0.7-1.4,1.9-2.2,3.1-3c1.3-0.8,1.9-2.2,2.7-3.4c1.3-2,2.8-2,4.3-0.3L114.3,151.3z"/>
		<path fill="#480608" d="M82.5,160c-0.2,0.7-0.4,1.5-0.6,2.2c-4.8,0.2-6.7-2.6-7.1-7c0.1-0.5,0.2-1,0.3-1.5c1-0.6,1.9-0.1,2.7,0.4
			C79.1,156.3,83.1,156.3,82.5,160z"/>
		<path fill="#E0C7A1" d="M50.9,92.9c-0.2-2.9-2.8-4.6-3.9-7.1c-0.8-1.7-0.6-2.3,1.1-2.7c0.3,0.3,0.7,0.6,1,0.9
			c1.9,2.1,3.3,4.5,5.7,6.1c1.9,1.4,2.5,3.1-0.1,4.6C53.9,94.1,53.4,93,52,93C51.7,93,51.3,92.9,50.9,92.9z"/>
		<path fill="#4D110F" d="M98.9,165c-0.3-0.4-0.6-0.8-0.9-1.2c-0.1-2.1,0.8-3.6,2.9-4.3c1.6,0.1,1.7,1.8,2.7,2.5
			c-0.5,1.5-1.1,3-1.6,4.7C100.2,167.5,100.7,164.1,98.9,165z"/>
		<path fill="#A9816E" d="M103.5,162.1c-1.6,0.3-2.8,0.1-2.4-2c0.3-2.3,0.8-4.4,3.8-2.2c-0.3,1.4-0.6,2.8-0.9,4.2
			c0,0-0.2,0.2-0.2,0.2L103.5,162.1z"/>
		<path fill="#FAD2AA" d="M108.2,113.1c-0.1,0.6-0.2,1.2-0.3,1.9c-2.4,1.9-4.9,3.5-8.1,2.1c0.7,1.9,2.2,3.5,3.5,5.3
			c1.8,4.4,1.4,8.5-2,12c-1.5,0.9-3.1,1-4.8,0.3c-0.8-0.4-1-1.1-1.1-2c0.1-1.3,1-2.2,1.7-3.2c0.6-1.3,2-2.6,0.6-4.2
			c-3.5,0.4-7,0-10.5,0.3c-1.2,2.9,1.9,4,2.5,6.2c0.2,2.4-1.3,3.1-3.3,3.3c-1.4,0-2.6-0.5-3.5-1.6c-1.8-3.4-2.8-6.9-1.1-10.7
			c1.1-2.5,1.4-4.7-1.8-5.8c-0.8-0.3-1.7-0.7-2.4-1.3c-0.8-0.5-1.2-1.3-1.5-2.2c-0.5-1.6-0.4-3.3-0.9-5c-0.8-2.5-1.5-5-2.3-7.5
			c-0.3-1.5,0.7-1.6,1.8-1.6c1.2,0.5,1.5,1.8,2.1,2.8c0.9,1.6,2.6,1.7,4.1,2.2c0.6,0.2,1.1,0,0.5,0c0-0.3-0.1-0.6-0.5-0.8
			c-1.4-1.2-2.7-2.3-3.6-3.9c-1.2-2.8-3.5-5.5-0.9-8.7c0.4-0.3,0.8-0.5,1.3-0.5c0.4,0.2,0.8,0.5,1.1,0.9c0.1,3.2,2,3.6,4.6,2.9
			c1.7-1,3.6-2,5.6-1.4c3.2,1.1,6.2-0.2,9.3-0.3c3-0.3,5.3,2.9,8.5,1.8c1.2,0.3,2,1.1,2.5,2.2c0.3,1.7-2,1.9-1.9,3.5
			c-0.8,1.5-2.2,2.5-3.5,3.6c-1,0.8-1.6,2-2.9,2.5c-0.3,0-0.8-0.1-0.9,0c-0.4,0.5,0.2,0.1,0.3,0.2c0.6-0.5,0.5,1.6,1.4,0.4
			c0.3-0.5,0.6-1.1,1.1-1.5c1.6-1.3,3.7-1.3,5.4-2.4c0.6-0.4,1.2-0.6,1.9-0.7c0.5,0.1,0.8,0.3,1.1,0.6c-0.1,1.2-0.3,2.5-0.4,3.7
			C108.7,108.5,107.7,110.5,108.2,113.1z"/>
		<path fill="#F6F5F5" d="M70.6,103c1.8,5.2,0.4,9.6-2.5,13.6c-1.4,1.9-3.2,3.8-2.8,6.1c1,6.3-3.5,7.5-8.5,9.6
			C61.6,122.1,66.1,112.5,70.6,103z"/>
		<path fill="#DDB692" d="M77.9,115.1c0.7,0.3,1.4,0.6,2.1,0.9c0.3,0.3,0.5,0.8,0.5,1.2c-0.2,1.4-0.4,2.7-0.9,4
			c-0.9,2.2-5.6,1.8-3.8,5.8c0.2,0.9,0.2,1.9-0.1,2.8c-0.2,0.7-0.5,1.3-0.9,1.9c-0.9,1.7-0.2,3.9-1.7,5.4c-0.5,0.2-1,0.1-1.4-0.1
			c-1.6-2.3-1.5-5.2-2.6-7.7c-0.5-2.1-1.8-4.1-1.2-6.4c-0.3-4.1,3.5-5.9,5.1-8.9C74.5,115.1,76,115.9,77.9,115.1z"/>
		<path fill="#631813" d="M54.6,94.8c0.7-1.8,0.6-3.2-1.3-4.4c-2.3-1.6-4.4-3.5-5.4-6.3c2.7-1.4,4.9,0.2,7.2,1.2
			c4.4,4.3,10,6.2,15.5,8.4c1.7,2.2,3.1,4.5,1.2,7.3c-1,0-2.1,0.3-3-0.5c-1-0.2,1-1.8-1.2-2c-3.7-0.4-7.4-1.6-10.8-3.4
			C56.3,95,55.5,94.9,54.6,94.8z"/>
		<path fill="#F2CFAA" d="M72.1,137c0.2,0,0.5,0,0.7,0c1.3,0.8,1.3,2.2,1.5,3.5c0,2.6,1.6,4.9,1.8,7.4c-0.2,1.3,0,2.8-1.9,2.9
			c-2.7-1.9-6.4-2.9-7.3-6.8c0.3-0.4,0.6-0.6,1.1-0.6c2.4,0.3,1.7-1.6,2-2.9C70.2,139.1,70.7,137.8,72.1,137z"/>
		<path fill="#B88D72" d="M72,101c0-2.5-0.5-4.9-1.9-7.1c0.2-0.5,0.4-0.9,0.8-1.2c1.1-0.6,2.9-0.4,2.7-2.4c1.3-0.4,2.5-0.5,3.4,0.9
			c-2.5,3.1,1.1,5.6,0.8,8.5c-0.9,1-2,0.3-3,0.3c-0.8,0.1-1.6,0.3-2,1.1C72.6,101.1,72.3,101,72,101z"/>
		<path fill="#EBD2B3" d="M67.9,122.8c0.7,2,1.3,4,2,5.9c0.5,1.6,0.1,2.9-1.3,3.9c-1.4,1.2-0.9,3.1-1.5,4.6
			c-1.2,1.1-1.8,3.2-4.1,2.7c-1.5-1.1-1.7-2.8-0.6-3.9C66.2,132.3,67.7,127.9,67.9,122.8z"/>
		<path fill="#DEC0A3" d="M57.1,95c4.1,1,8.1,2.1,12.2,3.1c0.7,0.2,1.8-0.2,1.7,1.1c-0.1,1.2-1.9-0.1-2,1.3
			c-1.1-0.2-2.2-0.3-3.3-0.5C62.2,99.4,58.3,99.5,57.1,95z"/>
		<path fill="#CEAB88" d="M74.2,150.9c1.2-0.7,0.7-2,0.9-3c1.4-1.4,2.4,1.7,3.8,0.3c0.8-0.3,1.7-0.6,2.6-0.5c1,0.5,1.2,1.3,0.9,2.3
			c-1.8,1.6-2,4.9-5.2,5c-0.3-1-1.2-1.1-2.1-1.2C74.8,152.8,74.5,151.9,74.2,150.9z"/>
		<path fill="#C6A78B" d="M63.1,139.9c1.8-0.3,1.7-3.2,3.9-2.9c2.9,1.9,1.6,4.5,1,7c-0.4,0-0.7,0.1-1.1,0.1
			C64.9,143.4,63.8,141.9,63.1,139.9z"/>
		<path fill="#AC7F5D" d="M77.9,115.1c-0.1,3.1-2.5,1.3-3.7,1.4c-1.6,0.2-1-1.6-1.1-2.6c0.3-0.3,0.6-0.6,1-0.9
			c0.8-1,1.8-0.7,2.8-0.2C77.1,113.6,77.5,114.3,77.9,115.1z"/>
		<path fill="#5B0801" d="M76.8,112.8c-0.9,0.1-1.8,0.2-2.8,0.2c-1.6-2,0.2-3.1,1.1-4.4C77,109.5,76.2,111.4,76.8,112.8z"/>
		<path fill="#EFCEAA" d="M102.1,122c-1.9-0.7-2.4-2.3-3.2-4c-0.5-1.3-0.1-2,0.6-2.5c1.8-1.3,1.5,0.2,1.4,1.2
			c2.3-0.6,4.6-1.2,6.9-1.8c0.2,0.2,0.3,0.5,0.3,0.8c2.3,0.7,4.8,0.8,6.9,2.2c2.1,1,3,3.5,2.6,5c-1.5,6.2,3.3,9.6,5.5,14
			c-0.3,0.7,0,1.7-1,2.1c-3.7,0.6-3.2-2.6-4.1-4.5c-0.5-0.9-1.1-1.7-1.8-2.4c-1.9-1.4-1.9,1.8-3.4,1.3c-0.5,0-0.9-0.2-1.3-0.5
			c-1.1-1.8-1.9-3.7-2.2-5.8c1-3.6-1.7-5-3.9-6.7c0.6,0.3-0.8-0.3-0.2-0.4c0,0,0-0.3,0-0.4C104.4,120.5,104.2,122.5,102.1,122z"/>
		<path fill="#F3EFEE" d="M122.2,117.5c-4,1.3-5.6-0.9-6.7-3.3c-0.9-1.9-1.4-4-1.8-6.1c-0.3-1.6-1.4-4.2,0.6-4.8
			c2-0.6,2.4,2.2,3.1,3.7C119.1,110.4,120.5,113.9,122.2,117.5z"/>
		<path fill="#E6C29B" d="M133,85.1c-3,1.6-5.6,3.7-8.1,6c-1.6,1.4-3.5,2.3-5.8,1.8c-1-0.8-1.2-1.9-1.2-3.1c0-2.4,1.4-3.6,3.6-4.2
			C125.3,85.6,129,83.5,133,85.1z"/>
		<path fill="#DAC2A7" d="M135.9,82.6c1.1-0.6,2.3-1.1,3.8-1.9c-0.9,5.7-4.3,9.3-7.7,12.9c-1.4-0.5-3.7-0.6-1-2.6
			c1.9-1.4,3.9-2.7,5.2-4.8c0.5-0.8,1.4-1.6-0.2-2.2C135.4,83.5,135.4,83.1,135.9,82.6z"/>
		<path fill="#AEADAD" d="M118.9,90.1c0,0.9,0.1,1.8,0.1,2.7c-2.3,0.9-3,4.3-6.1,4.2c-0.2-0.2-0.4-0.5-0.6-0.7
			C111.6,90,113.7,88,118.9,90.1z"/>
		<path fill="#E3D5CB" d="M135.9,82.6c0,0.4,0.1,0.8,0.1,1.3c-1,0.4-2,0.8-3,1.2c-4,0.4-8,0.7-12,1.1c-0.9,0.3-1.1-0.1-0.9-0.8
			C125.4,84.4,130.6,83.5,135.9,82.6z"/>
		<path fill="#B18B72" d="M115,118c-2.6,0.2-5.1,0.1-6.9-2.2c1.4-1.4,2.6-2.9,3.3-5.2C112.7,113.2,113.9,115.6,115,118z"/>
		<path fill="#E3D7D4" d="M106.9,99.9c-1.4-2.5,2-1.6,2.2-3c0.3-0.3,0.7-0.6,1.1-0.7c0.9-0.1,1.8-0.1,2.4,0.8l0.2,0.1
			c0,0,0.2-0.2,0.2-0.2c-0.5,2.1,0.7,4.7-1.9,6.1c-0.4-0.1-0.8-0.2-1.2-0.3C109,101.7,108,100.7,106.9,99.9z"/>
		<path fill="#C7A786" d="M117.1,99.9c-1,0.4-2.1,1.6-2.9-0.1c-0.6-1.2,0.1-1.8,1.4-1.8c3.1-0.2,6-3.2,9.4-0.9
			C123.1,100.1,119.7,98.8,117.1,99.9z"/>
		<path fill="#B18B72" d="M108.2,113.1c-3-3.6-0.4-5.1,2.5-6.3C109.9,108.9,109,111,108.2,113.1z"/>
		<path fill="#E0C6A9" d="M117.1,99.9c2.4-1.7,5.6-0.9,7.9-2.9c1-0.2,1.9-0.3,3,0.6C124.3,99,120.9,100.5,117.1,99.9z"/>
		<path fill="#F50405" d="M86.9,63.1c1.3-0.6,2.1-2.3,3.8-2.2c1.5-1.6,3.1-2.4,5.1-1.1c3.1,0.1,6.2-1.9,9.3,0
			c-0.1,0.8-0.5,1.3-1.1,1.8c-1.5,1.1-3.5,1.2-5.1,2c-1.2,0.6-5.5-0.2-2.1,3.5c0.7,0.7-0.4,1.4-1.2,1.7c-1.2,0.5-2.6,0.3-4.4,0.7
			c5.8,1.4,9.1,4.8,10.2,10.2c-0.2,0.5-0.6,0.9-1.1,1.1c-3,1-6,0.4-9,0.6c-4.9-0.2-9.8-0.9-14.4-2.5c-2-1.3-1.8-3-0.7-4.8
			c4.2-0.6,2.7-5.6,5.7-7.2c1.3,0.7,1,1.9,0.9,3.1c-0.6,5.8-0.6,5.8,5.3,5.4c0.7,0,1.3,0,2.8,0c-2.9-1-7,1-7.1-2.4
			C83.7,69.6,81.6,64.9,86.9,63.1z"/>
		<path fill="#B80405" d="M114,68c1.3,2.4,4.5,3.7,4.1,7c0.9,0.9,0.5,2,0.3,3c-0.4,1.8-1.7,2.6-3.4,3c-6.5-0.2-8.7-2.5-9.2-9.6
			c-0.1-1.3-0.1-2.6-0.1-3.9c0.4-2.5-1.1-5.1,0.3-7.5c1.9,0.6,2.6,3.1,4.8,3.2C112.7,64.2,112.7,66.5,114,68z"/>
		<path fill="#FC4848" d="M86.9,63.1c-4.2,2.3-0.5,6.7-2.4,9.8c-0.7,1.1,2.3,1.2,3.5,0.8c3.4-1,4.4,0.6,4.9,3.9
			c-2.3,0.1-3.7-1.6-6.1-1c-5.5,1.5-7.1-0.8-5.5-6.4c0.3-1.1,0.7-2.2,0.4-3.4C82.6,64.5,83.9,62.5,86.9,63.1z"/>
		<path fill="#DED69B" d="M76.1,74.1c0,1.3,0,2.6-0.1,3.9c-0.4,0.8-0.9,1.4-2,0.8C69.7,71,70.6,63,72.9,54.8
			c1.7,3.2-0.6,6.9,1.2,10.1C74.7,68,74.2,71.3,76.1,74.1z"/>
		<path fill="#E0D9C6" d="M114,68c-1.9-1-3.1-2.5-3.2-4.8c0.7-5-0.8-10,0.3-15C113,54.6,113.9,61.2,114,68z"/>
		<path fill="#E5DCCE" d="M74.1,64.9c-2.7-3.1-0.2-6.8-1.2-10.1c0.3-1.7-0.6-3.7,1.1-5.1C76.4,54.8,72.8,59.9,74.1,64.9z"/>
		<path fill="#FC2828" d="M106,60c1,2.6,1.3,5.2,1,7.9c-1.1,1.5,0.2,3.6-1.6,5.6c-2.6-4.3-2-8.4-1.4-12.5c0.4-0.4,0.8-0.8,1.2-1.2
			C105.4,59.9,105.7,59.9,106,60z"/>
		<path fill="#DDD1CD" d="M95.8,59.8c-1.7,0.4-3.4,0.7-5.1,1.1c0.2-2.2,1.2-3.9,2.6-5.9C94.9,56.3,95.3,58.1,95.8,59.8z"/>
		<path fill="#F5F1B0" d="M118.4,78c-2.3-0.7-0.1-2-0.3-3c6.1-3.4,8.4-9.6,11.4-15.4c1.7-3.3-2.2-6.8-0.9-8c2.4-2.1,3.3-4.2,3.5-7.1
			c0.4-4.9-1.3-9.4-2.2-14c-0.1-0.9-0.9-2.1,0.4-2.5c1.4-0.4,1.7,1.2,2.4,1.9c0.5,2.3,1,4.5,1.4,6.8c0.7,4.3,1.9,0.2,2.9,0.2
			c1.2-0.9,2.2-0.5,2.8,0.6c1,1.8-0.7,2.9-1.4,4.3c-1.7,1.2-2,3.1-2.7,4.8c-0.8,2.4-0.4,4.9-0.4,7.3c0,3.1,0.2,6.1-1.4,8.9
			c-0.9,3.7-3.5,6.3-6,9c-0.8,1.2,0.5,2.9-1,3.9C124.3,77.4,121.5,78.3,118.4,78z"/>
		<path fill="#D60202" d="M104,61c2,3.4,0.5,7.2,1.3,11c1.3-1.2,0.2-3.3,1.7-4.1c0.2,2.9-0.2,5.6,1.4,8.5c2.5,4.3,2.1,4.5,6.5,1.9
			c0.9,0.9-0.3,1.8,0.1,2.7c-0.4,0.5-0.7,0.9-1.1,1.4c-1.5,1-3.1,1.2-4.8,1c-0.8-0.4-1.4-1.2-2-1.9c-1.5-2-4.3-0.6-5.9-2.3
			c-3.3-3.6-5.4-9.1-11.8-8.3c-0.3,0-0.8-0.6-0.9-1c-0.1-1,0.7-1.6,1.5-1.7c2-0.2,3.9-0.2,6.1-0.3c-0.8-1.5-2.9-1-3.5-2.8
			C95.8,62.3,100.1,62.2,104,61z"/>
		<path fill="#C9C4C4" d="M109.1,82.8c1.6-0.1,3.2-0.3,4.8-0.4c2.3,0.4,2.8,4.6,6.1,2.9c0.3,0.3,0.6,0.6,0.9,0.8c-1.3,1-2.3,2.2-2,4
			c-6.1-1.3-5.7,3.3-6.4,6.9c-0.9,0-1.8,0-2.7-0.1c-1.8-2.8-1.5-5.7,0.4-8.2c2-2.6,0.5-3.6-1.5-4.7
			C108.7,83.6,108.8,83.2,109.1,82.8z"/>
		<path fill="#E6DFB6" d="M137.9,42.1c-0.9-1.6,4.3-4.3-0.9-5.2c2.3-4.7,3.1-9.5,0.8-14.9c7.9,6.3,6,16.8,0.2,21.1
			c-0.2-0.2-0.3-0.4-0.2-0.7C137.8,42.3,137.9,42.1,137.9,42.1z"/>
		<path fill="#C7B194" d="M133.9,63c0.7-5.6-1.2-11.4,1.2-16.9c1.5,2.6-0.1,5.3,0.4,7.9c-0.4-2.7,0.5-5.2,0.4-7.9
			c-0.1-1.7,1-1.9,2.3-1.6C137,50.7,137.8,57.4,133.9,63z"/>
		<path fill="#DAD1B0" d="M124.8,46.5c-5.2-2.8-10.8-4.9-12.3-11.2C115.5,40.3,122.2,41.4,124.8,46.5z"/>
		<path fill="#E3DCBE" d="M132.8,30c-0.8,0.9-2.7-3.4-2.9,0.6c-2.2-4.1-4.4-8.2-6.6-12.3C127.4,21.4,131.3,24.7,132.8,30z"/>
		<path fill="#D2C9A3" d="M126.9,75.9c0.1-1.4-1.5-3.1,1-3.9c4.1,1.3,5.8-2.3,8.9-3.5C135,72.7,131.4,74.8,126.9,75.9z"/>
		<path fill="#663F20" d="M138.2,44.5c-3.4,0.5-1,3.1-1.5,4.6c-0.7,1.9-0.7,4.1-1.1,7.2c-1.4-4.1-0.2-7.2-0.5-10.2
			c0.5-1.6-0.1-4.1,2.8-3.9c0,0.3,0,0.7,0,1C138.1,43.6,138.1,44.1,138.2,44.5z"/>
		<path fill="#E1D7B9" d="M143.1,60.1c-0.4,3-1.7,5.4-4.7,6.9c1.7-3.5,2.7-7.3,3.8-11C144.6,57,143.3,58.7,143.1,60.1z"/>
		<path fill="#B9A997" d="M143.1,60.1c-0.4-1.3,0.4-2.9-0.9-4.1c-0.5-2.5,0.6-4.7,1.4-7C143.9,52.8,144.9,56.5,143.1,60.1z"/>
		<path fill="#EFEAAA" d="M56,29.1c-2.3,4-2.6,8.5-3.1,12.9c-0.4,3.1,0.7,6,1,9c0.7,1,3,1,2.1,3.2c-2.1,5.1,1.2,8.8,3.8,12.4
			c2.7,3.8,6.1,7,9.2,10.4c0.5,1.1-0.1,1.5-1,1.8c-3.5-0.5-6.8-1.4-10-2.9c-0.9-1.6-1.3-3.6-3.5-4.1c-0.6-0.4-1-0.9-1.3-1.5
			c-0.6-1,0.4-2.2-0.3-3.3c-0.7-1.3-1.3-2.7-2-4c-1.4-5.4-1.3-10.9-1.8-16.3c-0.3-2.7-2-4.9-2.6-7.5c3-0.6,5.2-1.9,4.1-5.6
			c0.1-1.3,0.6-2.3,1.4-3.3c0.8-1,1.1-2.5,2.3-3C56.5,26.5,56.7,27.4,56,29.1z"/>
		<path fill="#FBFAFA" d="M74,78.9c0.7-0.3,1.3-0.6,2-0.8c5,0.7,10,1.4,15,2.1c2.6,1,5.5-0.3,8.2,0.9c-1.2,3.2-3.8,3.2-6.3,3.3
			c-4.7,0.3-9.3,0.3-11.3,5.9c-0.6,1.6-2.2,1.8-3.7,0.7c-0.3,0-0.7,0.1-1,0.2c-1.3-0.1-2.7-0.2-4-0.2c-1.6,0.5-2.6,0.2-2.8-1.6
			c3.3-0.3,1.4-2.9,2-4.4c0.8-1.9-0.9-4.5,1.6-6L74,78.9z"/>
		<path fill="#ECC7A1" d="M70.2,89.3c0.9,0.5,1.9,1.1,2.8,1.6c-0.4,0.6,3.8,1.7-0.2,2.1c-0.9,0.1-1.8,0.6-2.7,0.9
			c-6.1-0.5-11-3.4-15.1-7.8c0.1-2.5,1.8-0.9,2.8-1.1c2.4-0.5,4.8,1,7.2,0.2C67.6,85.5,68.5,87.9,70.2,89.3z"/>
		<path fill="#B8A982" d="M50,46c1.7,5.6,1.7,11.2,1.1,17c-2.9-5-3.6-10.4-3.1-16.1C49.9,49.5,49.2,46.1,50,46z"/>
		<path fill="#E8E2A5" d="M46.3,33c0.6,1.3,1.2,2.5,1.7,3.8c0.1,1.9-0.9,1.9-2.3,1.3c-5-6.4-5-7.2-0.9-13.3
			C46.6,27.3,44.2,30.5,46.3,33z"/>
		<path fill="#E8DCD0" d="M65,85.2c-3.2,2.1-6.8-0.2-10.1,0.9c-2.4-0.3-4.3-2.5-6.9-2.1c0-0.3,0-0.6,0-1C53.8,83,59.4,83.8,65,85.2z
			"/>
		<path fill="#E2DBB5" d="M54.1,70.3c0.1,0.2,0.3,0.5,0.4,0.7c0.3,1.4,5.2,1.3,1.4,4.1C51.1,73.4,47.8,70,45,66
			c-0.5-1,0.1-1.2,0.9-1.3C48.8,66.3,50.8,69.3,54.1,70.3z"/>
		<path fill="#DED7B4" d="M56,29.1c-0.2-1-0.5-2.2-1.6-0.6c-0.7,1-0.8,2.6-2.6,2.1c0-0.5-0.2-1,0.1-1.5c2-2.4,4-4.9,6-7.3
			c1,0.5,0.7,1.5,0.9,2.3C57.8,25.7,56.9,27.4,56,29.1z"/>
		<path fill="#6B3E28" d="M54.1,70.3c-5.1,1.8-5.2-4-8.2-5.3c0.1-0.5,0.8-0.5,1-0.9c2.5,0,2.9,4.6,6.2,2.9
			C54.3,67.8,54.3,69,54.1,70.3z"/>
		<path fill="#C8BE82" d="M73.8,79c-0.5,2-1.1,4-1.6,6c0.5-3.3-4.1-3.2-4.2-6.2c0.3-0.6,0.6-1.2,1-1.8C70.7,77.5,71.8,79.3,73.8,79z
			"/>
		<path fill="#552116" d="M50,46c-0.2,0.7-0.3,1.4-0.5,2.1c-0.5-0.4-1-0.8-1.5-1.2c-0.2-2.6-2.2-4.8-2.1-7.5
			c0.1-0.5,0.4-0.5,0.7-0.2C48.3,41.2,49.9,43.3,50,46z"/>
		<path fill="#C7BDA2" d="M65.1,44.1c-2.5,2.6-5.2,4.5-9.3,2.3c2.8-1.3,5.5-2.4,8.1-3.6C64.6,43,65,43.4,65.1,44.1z"/>
		<path fill="#9D8886" d="M43.1,58c-4.2-2.4-1-6.1-2.4-10.2C44.2,51.5,42.5,54.9,43.1,58L43.1,58z"/>
		<path fill="#E8E3BA" d="M65.1,44.1c-0.4-0.4-0.8-0.8-1.2-1.3c2.5-1.9,5.1-3.9,7.6-5.8C70.6,40.6,68.3,42.7,65.1,44.1z"/>
		<path fill="#C9C0AD" d="M46.8,64.1c-0.3,0.3-0.7,0.6-1,0.9c-0.3,0.3-0.5,0.7-0.8,1c-1.7-2.4-4.1-4.7-2-8c0,0-0.1,0.1-0.1,0.1
			C45,59.6,43.5,63.4,46.8,64.1z"/>
		<path fill="#DBD0CE" d="M46.3,33c-2.7-2.4-0.7-5.5-1.4-8.2c0.5-1.8,1-3.6,1.6-5.3C47,24,45.1,28.4,46.3,33z"/>
		<path fill="#6A291F" d="M51.8,29c0,0.5,0,1-0.1,1.5c0,1.1,0.1,2.3,0.1,3.4c-1.1,0.8,0.5,3.1-1.8,3.3C48.4,34,49.2,31.3,51.8,29z"
			/>
		<path fill="#DCD6C6" d="M58.7,24c-0.3-0.8-0.6-1.5-0.9-2.3c0.9-1.8,2-3.3,3.9-4.8C62.1,20.1,59.6,21.7,58.7,24z"/>
		<path fill="#DED7B4" d="M50.1,37.2c0.6-1.1,1.2-2.2,1.8-3.3c0.4,3.9-0.5,6.5-5.3,5.3c-0.2,0-0.5,0.1-0.7,0.2
			c-0.1-0.4-0.1-0.9-0.2-1.3c0.9-0.1,1.8-0.3,2.3-1.3C48.9,36.2,49,39.3,50.1,37.2z"/>
		<path fill="#DED7B4" d="M53.9,51c-0.8-3-2.9-5.8-1-9C53.8,44.9,54.2,47.9,53.9,51z"/>
		<path fill="#B3A185" d="M55.9,75.1c0.9-0.5,1.3-1.2,0.2-1.7c-1.2-0.5-2.1-0.9-1.6-2.4c3.9-0.3,4,2.1,3.6,4.9
			C57.2,76.1,56.5,75.8,55.9,75.1z"/>
		<path fill="#EDCCA5" d="M77.1,155c2.4-0.8,1.7-4.7,4.8-4.9c1.9-0.8,3.5-0.2,5.1,0.9c4.6,4.6,5.2,7.1,3,12.1c-3.3,1-4.6-2.9-7.5-3
			C80.7,158.4,78.9,156.7,77.1,155z"/>
		<path fill="#AD8360" d="M90,163c0.9-4.7-0.9-8.6-4-12.1c0.2-0.1,0.4-0.3,0.5-0.4c1.2-0.3,2.2,0.2,3.2,0.7c0.4,0.2,0.8,0.5,1.1,0.8
			c1.2,1.5,1.5,3.4,1.6,5.5c0.5-2.7,2.2-4.9,1.2-7.6c0.6-1.6,1.4-3.3,3.2-3.3c2.5,0.1,1.6,2.8,2.5,4.2c0.1,3.1-3.4,5.2-2.5,8.6
			c0.1,0.9,0,1.8-0.8,2.5c-1.1,1.8-2.2,3.6-3.5,5.8C91.6,165.9,90.8,164.5,90,163z"/>
		<path fill="#F0D0AA" d="M96,162c-0.1-1-0.1-1.9-0.2-2.9c0.9-3.4,6.2-3.1,6.1-7.3c0.3-1,0.7-1.8,1.6-2.3c0.7-0.3,1.4-0.3,2.2,0
			c0.4,0.2,0.8,0.6,1.1,1c0.8,1.7,1.5,3.5,1.2,5.4c-1.6-0.2-2.3,1-3.1,2c-2-0.6-2.7,1.1-3.8,2.2c-1.3,1-2.4,2.2-3.1,3.7
			C96.5,164,97.4,161.8,96,162z"/>
		<path fill="#D8B491" d="M108,155.9c-1.5-1.4-1.5-3.3-1.7-5.2c0.7-1.8,2.5-3,3.1-5c0.6-2,1.1-4.1,2.5-5.5c-2.3,0.4-2.4,2.5-3.1,4.2
			c-0.4,0.6-1,1-1.8,0.7c-1.7-5.4,0.3-10.2,5.1-12.1c0.4,0,0.8,0.1,1.2,0.1c1.8,2.7,2,5.9,2.6,8.9c0.1,0.8-0.1,1.6,0.2,2.4
			c0.4,0.5,0.5,1,0.6,1.5c-0.4,1.9-3.2,2.6-2.7,5.1c-1.8-0.9-3-0.3-3.8,1.4C109.6,153.6,109.7,155.3,108,155.9z"/>
		<path fill="#D6B89E" d="M116.8,146c-0.3-0.3-0.5-0.7-0.8-1c0.3-2.9,0.9-5.7,0.7-8.6c-0.1-1.3-0.4-3.3,2.2-2.3
			c1.2,1.7,0.5,4.6,3.4,5.1c-0.6,1.5,0.4,2.8,0.7,4.2c-1.9,0.5-1.4-1.7-2.7-2C119.8,143.4,120.5,146.4,116.8,146z"/>
		<path fill="#ECECEC" d="M77.9,91c1.1-0.1,2.7,0.2,2.9-1.3c0.8-6.8,6-6.3,10.8-6.7c2.2-0.2,4.7,0.6,6.5-1.5c-2.3-1.3-5,0.5-7.1-1.3
			c3.2-0.1,6.5-0.2,9.7-0.3c0.9-0.5,1.9-0.3,2.9-0.3c0.9,0,2.1-0.2,2.6,0.9c0.6,1.2-0.1,2.2-0.9,3.1c0,0-0.1,0.3-0.3,0.3
			c-4.5,1.6-6.4,5.3-7.5,9.6c-4.3,1.2-8.7-0.6-13,0.3c-2.5,0.2-4.7-0.4-6.6-2C78,91.6,78,91.3,77.9,91z"/>
		<path fill="#EEEFEF" d="M109,84c1.6,0.2,3.6-0.8,4.6,0.9c1,1.9-1,3-2.1,4c-2.5,2.3-1,5.4-1.6,8c-0.3,0-0.6,0-0.8,0
			c-0.7-0.6-1.4-1.3-2.1-1.9c-1.1-0.5-1.6-1.3-1.9-2.4C104.5,88.9,104.7,85.5,109,84z"/>
		<path fill="#976C4E" d="M86,125.2c0-1.1,0.9-2.4,1.7-1.9c3.7,2.1,7.6-0.3,11.3,0.8c0.5,2.2-1,4-0.9,6.1c-0.3,1-1,1.5-2,1.8
			c-0.8,0.7-1.5,4.5-2.6,0.5c-0.6-2.1-1.8-2.3-3.3-2.9C88.8,128.1,86.5,127.5,86,125.2z"/>
		<path fill="#5A130E" d="M102.1,122c1.7-1,2.4-2.8,3.4-5.3c0.3,1.7,0.5,2.4,0.6,3.2c1.8,4,0.6,8.1-0.2,12c-0.5,2.2-1.5,4.2-4.5,2.7
			c-0.2-0.2-0.4-0.4-0.6-0.6C102.6,130.1,104,126.3,102.1,122z"/>
		<path fill="#B88D6B" d="M90.9,109.1c0.2-0.6,0.5-1,0.4-1.2c-0.7-1.9-1.3-3.7,0.4-5.3c0.3-0.3,1.4-0.3,1.7-0.1
			c1.9,1.8,1.6,4.2,1.4,6.5c0,0.2-0.1,0.4-0.2,0.5c-1.2,1.2,0.3,4.5-2.3,4.1C90.3,113.3,91.4,110.5,90.9,109.1z"/>
		<path fill="#5B1610" d="M89.6,129.2c2.1,0.2,5.7-1.9,4.4,3.1c-0.2,0.8,0.1,0.9,2.1-0.3c0,0.7,0,1.3,0.1,2
			c-2.6,4.9-6.3,2.2-9.7,1.6c-0.5-0.4-0.6-0.8-0.3-1.4c2,0,3.6-0.4,2.8-3C88.4,130.3,88.2,129.4,89.6,129.2z"/>
		<path fill="#612017" d="M78.8,121c0.5-1.2-0.5-2.9,1.2-3.8c1.6,1.7,2.1,3.9,2.9,6c-1.7,3.3,0,6.5,0.3,9.7c0.1,1.9-1,1.7-2.3,1.4
			C78.7,130,77.3,125.7,78.8,121z"/>
		<path fill="#EAC7A0" d="M86,135.1c3.3-1,7,2.2,10.1-1.1c1.6,0,3.2,0,4.8,0c0,0,0.2-0.1,0.2-0.1c1,2.8-1.3,3-2.9,3.9
			c-3.6,1.1-7.3,1.6-10.9-0.1C86.3,137.1,85.7,136.3,86,135.1z"/>
		<path fill="#C0927E" d="M84,93c4.6,0,9.3-0.1,13.9-0.1c0.3-0.3,0.7-0.4,1.1-0.1c0.3,0.4,0.3,0.7,0.1,1.1
			c-3.8,0.5-7.5,1.8-11.4,0.2c-2-0.8-2.9,2-4.7,1.7C82,94.4,82.9,93.6,84,93z"/>
		<path fill="#C49E79" d="M82.8,123.2c-1.8-1.6-2.9-3.6-2.9-6c0-0.4,0-0.7,0-1.1C84.9,116.8,84.8,119.6,82.8,123.2z"/>
		<path fill="#EBE8E6" d="M106.9,99.9c3.4-1.6,3.2,0.7,3,2.9c-0.3,0.4-0.6,0.9-0.9,1.3c-1.9-1-4.6,2.6-6.2-1
			C104.2,102,105.5,101,106.9,99.9z"/>
		<path fill="#EAE3E3" d="M74.8,100c0.8-1.7,2-0.7,3-0.3c1.3,1.1,2.6,2.1,3.9,3.2c-1,2.3-1.6,2.3-5.5,0.3
			C75,102.5,74.9,101.2,74.8,100z"/>
		<path fill="#B88D72" d="M84,93c-0.3,0.9-0.7,1.9-1,2.8c-3.3,0.7-5.3-0.2-5-4C80,92.1,82.2,91.7,84,93z"/>
		<path fill="#A06656" d="M99.1,93.9c0-0.2,0-0.5,0-0.7c1-1.4,2.4-1.4,3.8-1.4c1.2,0,2.2,0.5,3.1,1.2c0.3,0.7,0.6,1.4,0.9,2
			C103.7,98.8,101.6,94.7,99.1,93.9z"/>
		<path fill="#5A130C" d="M89.6,129.2c-0.2,0.7-0.5,1.3-0.7,2c-3-1-3.7-3.1-2.9-5.9C87.4,126.4,90.7,125.8,89.6,129.2z"/>
		<path fill="#430605" d="M76.3,103.2c1.8-0.3,3.8,2.4,5.5-0.3c1.8,0.4,1.8,2,2.6,4.3C81.5,104.9,77.8,106.8,76.3,103.2z"/>
		<path fill="#56171A" d="M102.8,103.1c1.8,1.9,4.3-0.4,6.2,1c-1.6,1.8-4,1.2-6,2.1c-0.7,0.4-1.4,0.5-2-0.2
			C101.7,105,102.2,104,102.8,103.1z"/>
		<path fill="#C6A27C" d="M88.1,111.9c-0.6,3.1-0.2,5.6-2.6,7.4C86.6,117.1,84.2,114.2,88.1,111.9z"/>
		<path fill="#C39F83" d="M101.1,106c0.7,0.1,1.3,0.1,2,0.2c-0.6,3.2-3.5,1.3-5.1,2.3c-0.1-0.4-0.5-1-0.4-1.2
			C98.3,105.7,99.4,105,101.1,106z"/>
		<path fill="#7F5140" d="M86,135.1c0.3,0.6,0.6,1.3,1,1.9c-0.2,0.7-0.6,1.2-1.4,1.3c-1.6-1.3-4.4-1.4-4.6-4.3
			c1,0.1,1.7-0.3,2.1-1.2c1,0.4,2,0.9,2.9,1.3C86.1,134.5,86.1,134.8,86,135.1z"/>
		<path fill="#4A0A03" d="M98,130.2c-1.3-2.9-1.3-2.9,1-6.1C100.2,126.2,100.2,126.2,98,130.2z"/>
		<path fill="#B08663" d="M81,134c1.4,1.6,3.8,2,4.9,3.9c0.8,0.3,1.4,0.9,2,1.6c0.9,1.2,1.9,2.4,2.6,3.8c0.3,1.2,0.2,2.3-1,3
			c-3.9-0.2-5.6-3.9-8.5-5.6c-0.5,0.4-1.1,0.7-1.8,0.5c-2-1.8-1.7-4.3-2-6.6c0.3-2.5,0.3-4.9-1.1-7.2c-0.3,0-0.7,0-1,0
			c-2.8-4.5,0.8-5.3,3.7-6.6C79.5,125.3,80.3,129.6,81,134z"/>
		<path fill="#8B5A3F" d="M67.9,131.9c0.7-1.1,1.3-2.1,2-3.2c1.6,2.5,1.7,5.4,2.1,8.3c-0.4,1.3-0.8,2.6-1.2,3.9
			c-3,0.2-2.2-2.1-2.5-3.7C67.9,135.5,67.5,133.7,67.9,131.9z"/>
		<path fill="#E9C9A2" d="M75,129.9c0-0.8,0-1.6,0.1-2.4c0,0,0.2-0.3,0.2-0.3c1.1-1.2,2-0.4,2,0.6c0.1,2,0.8,3.9,0.1,5.9
			c-0.1,1,0.2,2.1-1.1,2.5c-0.5,0-1-0.2-1.4-0.6C73.5,133.7,74,131.8,75,129.9z"/>
		<path fill="#CDA37F" d="M75,129.9c-0.1,2.1-0.2,4.2,0.9,6.2c0.1,3.6-0.3,4.1-2.4,3.3c0.1-2.9-0.6-5.9,0.5-8.8
			C74.4,130.4,74.7,130.1,75,129.9z"/>
		<path fill="#7C4930" d="M74,130.6c0,3.1,0,6.2,0.1,9.3c0.3,0.8,0,1.1-0.8,1c-0.1-1.3-0.3-2.6-0.4-3.9
			C73.2,134.9,72.4,132.5,74,130.6z"/>
		<path fill="#936146" d="M73.3,140.9c0.3-0.3,0.5-0.7,0.8-1c1.5-0.8,0.1-3.1,1.9-3.8c0,0,0.2-0.1,0.2-0.1c2.4,4,4.5,8.1,2.9,13.1
			c-2.2,2.6-2.3-1.7-3.9-1.1C74.6,145.5,72.7,143.5,73.3,140.9z"/>
		<path fill="#B08060" d="M67.9,131.9c2.5,2.5-0.9,6.9,3,9c-0.2,1.5,0.9,3.2-0.6,4.4c-0.2,0.2-1.5-0.9-2.3-1.4c-1.5-2.2,0.1-4.7-1-7
			C66.5,135.2,65.8,133.3,67.9,131.9z"/>
		<path fill="#A98567" d="M79.7,141.3c0.4-0.4,0.8-0.9,1.2-1.3c1.8,3.6,5.8,6.2,5.1,11c0,0,0.1-0.1,0.1-0.1
			c-1.4-0.3-2.7-0.6-4.1-0.9c0-0.8-0.1-1.6-0.9-2C79.2,146,77.3,144.1,79.7,141.3z"/>
		<path fill="#F7D5AB" d="M79.7,141.3c-1.7,2.6,0.8,4.5,1.3,6.7c-0.4,0.8-1.1,1-1.9,1c-1-4.4-1.9-8.7-2.9-13.1
			c0.3-0.6,0.6-1.2,0.9-1.8c0.3-0.3,0.7-0.4,1.1-0.1C78.7,136.4,79.2,138.9,79.7,141.3z"/>
		<path fill="#AB7F5D" d="M97.9,137c0.7-1.4,3.2-0.9,3.2-3c2.1,0.7,3.5,0.2,3.8-2.2c0.4-3.9,0.9-7.9,1.3-11.8
			c2.8,1.7,6.8,2.8,3.9,7.5c-1.6,4.8-2.9,9.7-3.6,14.7c-0.1,0.9,0.1,2.1-1.4,2.1c-1.1-0.7-1.4-1.8-1.6-3c-0.1-0.5,0.1-1,0-1.5
			c-0.1-0.5-0.2-0.3-0.5,0.2c-0.9,1.7-1.3,4.7-4.4,2.3c-0.5-0.8-0.7-1.7-0.9-2.6C97.6,138.7,97.4,137.8,97.9,137z"/>
		<path fill="#E5C09A" d="M105.3,144.3c0.8-5,1.6-10,2.6-14.9c0.2-0.8-1.1-4.4,2.3-2c1.1,1.7,2.2,3.4,1.9,5.6c0.4,3-4,2.2-4,5.5
			c0,2.1-1.1,4.3-0.9,6.7c1.1,1.9,0,3.4-1.1,4.9c-0.7,0-1.4,0-2.1,0c-0.3-0.4-0.6-0.8-0.7-1.2C103.2,147,103.5,145.3,105.3,144.3z"
			/>
		<path fill="#87503B" d="M115.2,142.9c-0.9-3.2-2.1-6.3-1.9-9.7c1.6-0.9,0-3.6,1.9-4c1.5-0.3,1.6,1.7,2.1,2.8
			c-0.8,2.3-0.3,4.6,0,6.8C117.4,140.6,117.6,142.4,115.2,142.9z"/>
		<path fill="#AB7D5A" d="M115.2,142.9c1.4-1.4,1.6-2.9,1.1-4.9c-0.4-2-1.1-4.3,0.9-6c0.5,0.7,1.1,1.4,1.6,2
			c-2.2,0.5-0.8,2.1-0.8,3.2c-0.1,2.8,0,5.5-2.1,7.8c-0.5,0.2-1.5,0.6-1.5,0.5C113.9,144.4,114.9,143.7,115.2,142.9z"/>
		<path fill="#CBCACA" d="M102.9,92.9c-1.3,0.1-2.6,0.2-3.9,0.3c-0.4-0.1-0.8-0.2-1.1-0.3c-1.4-4-1.7-7.4,3.8-8.4
			c1.7-0.3,4.1-1.4,3.7-3.3c-0.4-2.3-3.2-0.5-4.7-1.3c0.2-0.2,0.3-0.5,0.5-0.7c2.2,0.8,5.3-1.8,6.9,1.7c0.7,1.2,0.3,2.4-0.4,3.2
			C105.2,86.5,104.3,89.8,102.9,92.9z"/>
		<path fill="#B3ADAD" d="M102.9,92.9c-1.1-2.7,0.6-4.6,1.9-6.7c1.1-1.8,3.2-3,3.3-5.4c0.3,0.6,0.7,1.3,1,1.9c0,0.4-0.1,0.8-0.1,1.2
			c-2.6,2.5-3.4,5.5-3,9C105,92.9,104,92.9,102.9,92.9z"/>
		<path fill="#DFB993" d="M99,142.1c1.7,0.8,2.3-0.4,2.7-1.6c0.5-1.5,0.8-3.1,2.5-3.9c1.4,1.6,0.1,3.1-0.1,4.5
			c0.8,2.6-0.4,4.7-1.5,6.8c-0.9,1.1-1.6,2.3-2.5,3.3c-0.5,0.2-0.9,0.2-1.3-0.2c-2.9-0.1-0.9-2.4-1.5-3.9c-1.3,1.1-2.4,2-3.4,2.9
			c-0.4-0.3-0.7-0.7-0.9-1.2c-0.4-2-0.7-4,0.8-5.7C95.8,143.7,97.4,142.6,99,142.1z"/>
		<path fill="#F2CDA6" d="M86,151c-1.3-3.8-5-6.6-5.1-11c0.4-0.7,1-2.8,1.1-2c0.6,4.4,5.3,4.9,6.9,8c-0.2,1-0.3,2,0.1,3
			c0.3,1,1,2.1-0.2,3C88,151.4,87.2,150.7,86,151z"/>
		<path fill="#E6C49E" d="M98.9,151c0.4,0,0.8-0.1,1.2-0.1c2.3-2.9,2,0.5,2.9,1.1c0.5,5.2-4.8,4.6-7.2,7
			C94.2,155.4,98.2,153.8,98.9,151z"/>
		<path fill="#5A0E0A" d="M93.9,149.2c-0.1,0.3,0,0.5,0.1,0.8c3.2,3.7-1.4,6.2-1.6,9.5c-0.8-2.5-1.7-5-2.5-7.5
			c0.7-1,1.8-1.5,2.5-2.5C92.8,149.1,93.3,148.6,93.9,149.2z"/>
		<path fill="#845439" d="M92.9,149.9c0.1,2.4-1.7,1.9-3.1,2.1c-0.3,0-0.7,0-1,0c-0.3-1-0.6-2-0.9-3
			C89.6,149.2,91.9,146.1,92.9,149.9z"/>
		<path fill="#773B26" d="M106,150c0.4-1.6,0.7-3.2,1.1-4.9c0.3-0.4,0.6-0.8,0.8-1.2c1.3-0.5,1.7,0.2,1.7,1.3
			c0.5,2.8-1.2,4.2-3.4,5.4C106.2,150.4,106.2,150.2,106,150z"/>
		<path fill="#BE9B79" d="M103,152c-0.9-0.5-1.3-2.3-2.9-1.1c-0.2-1.4-0.3-2.7,1.6-2.9c1.2-0.9,1.6,0.2,2.2,0.9c0,0.4,0,0.7,0,1.1
			C103.1,150.4,103.1,151.2,103,152z"/>
		<path fill="#744229" d="M109.6,145.3c-0.6-0.4-1.1-0.9-1.7-1.3c-0.6-3,2.5-4.1,3.7-6.2C112,140.5,112.1,143.2,109.6,145.3z"/>
		<path fill="#C9AB94" d="M97.9,137c0.4,0.7,0.7,1.4,1.1,2.1c-1.1,0.9-2.4,1.3-3.8,1.3c-1.8,0-3.7,0-5.5-0.1c-1,0-1.9-0.9-2.9-0.3
			c-0.8-0.4-0.9-1.2-0.9-2c0.4-0.3,0.7-0.6,1.1-0.9C90.6,137.6,94.3,137.8,97.9,137z"/>
		<path fill="#D8B790" d="M92.9,149.9c-1.4-1.8-3.5,0.2-5-0.9c-1.5-1.6-1.2-2.6,1-3c1.4-0.7,1-1.9,1-3c0.5-0.4,1.1-0.5,1.6-0.7
			c1-0.7,1.6-2,3.2-1.6c0.9,0.5,1.6,1.1,1.3,2.2c-0.1,0.5-0.7,0.4-1.1,0.2c-1.5,1.9-0.5,4.2-0.9,6.3
			C93.6,149.5,93.3,149.7,92.9,149.9z"/>
		<path fill="#CDA37F" d="M78.2,134c-0.4,0-0.8,0.1-1.1,0.1c-1.3-2.1,2.1-5.4-1.7-6.9c0.5-1.2,1.9-2.8,2.2-1
			C78.1,128.6,79.6,131.3,78.2,134z"/>
		<path fill="#AC876D" d="M92.1,143.9c-0.7-0.3-1.4-0.6-2.2-1c-2.2,0.2-1.6-2.5-3-3.1c0.5-0.8,1.3-0.9,2.2-0.8
			C91.4,139.9,93.5,140.8,92.1,143.9z"/>
		<path fill="#8C6856" d="M94.8,143c1.3-1.3-0.4-1.4-0.8-2c-0.6-1,0.3-1.4,0.9-1.9c1.4,0,2.7,0,4.1-0.1c0,1,0,2,0,3
			c-1.1,1.2-2,2.6-3.6,3.2C95.3,144.5,95,143.7,94.8,143z"/>
		<path fill="#9F7558" d="M103.9,148.9c-0.7-0.3-1.5-0.6-2.2-0.9c0.8-2.3,1.6-4.6,2.4-6.9c1.1,0.8,0.8,2.2,1.1,3.3
			C104.8,145.9,104.4,147.4,103.9,148.9z"/>
		<path fill="#4F0806" d="M94.9,139.1c-0.3,0.6-0.6,1.3-0.9,1.9c-1.1,0.7-0.2,2.7-1.9,3c0.5-2.6-1.5-3.6-3-4.9
			C91,139.1,93,139.1,94.9,139.1z"/>
	</g>
</g>
</svg>
