<?xml version="1.0" encoding="utf-8"?>
<!-- Generator: Adobe Illustrator 25.2.1, SVG Export Plug-In . SVG Version: 6.00 Build 0)  -->
<svg version="1.1" id="Layer_1" xmlns="http://www.w3.org/2000/svg" xmlns:xlink="http://www.w3.org/1999/xlink" x="0px" y="0px"
	 viewBox="0 0 132 119" style="enable-background:new 0 0 132 119;" xml:space="preserve">
<g>
	<path d="M68.1,63.4c-0.9-0.9-1.4-2.1-1.4-3.3v-1.2c0-1.2,0.5-2.4,1.4-3.3L81,42.8c1.8-1.8,1.8-4.8,0-6.6c0,0,0,0,0,0L69.3,24.4
		c-1.8-1.8-4.8-1.8-6.6,0L51,36.2c-1.8,1.8-1.8,4.8,0,6.6l12.8,12.8c0.9,0.9,1.4,2.1,1.4,3.3v1.2c0,1.2-0.5,2.4-1.4,3.3L51,76.2
		c-1.8,1.8-1.8,4.8,0,6.6c0,0,0,0,0,0l11.7,11.7c1.8,1.8,4.8,1.8,6.6,0c0,0,0,0,0,0L81,82.9c1.8-1.8,1.8-4.8,0-6.6c0,0,0,0,0,0
		L68.1,63.4z"/>
	<path d="M59.4,56.2L47.6,44.5c-1.8-1.8-4.8-1.8-6.6,0c0,0,0,0,0,0L28.2,57.3c-1.8,1.8-4.8,1.8-6.6,0l-6.5-6.5
		c-1.8-1.8-4.8-1.8-6.6,0c0,0,0,0,0,0l-5.3,5.3c-1.8,1.8-1.8,4.8,0,6.6l5.3,5.3c1.8,1.8,4.8,1.8,6.6,0c0,0,0,0,0,0l6.5-6.5
		c1.8-1.8,4.8-1.8,6.6,0L41,74.5c1.8,1.8,4.8,1.8,6.6,0c0,0,0,0,0,0l11.7-11.7C61.2,61,61.2,58,59.4,56.2
		C59.4,56.2,59.4,56.2,59.4,56.2z"/>
	<path d="M123.5,50.9c-1.8-1.8-4.8-1.8-6.6,0l-6.5,6.5c-0.9,0.9-2.1,1.4-3.3,1.4H107c-1.2,0-2.4-0.5-3.3-1.4L90.9,44.5
		c-1.8-1.8-4.8-1.8-6.6,0c0,0,0,0,0,0L72.6,56.2c-1.8,1.8-1.8,4.8,0,6.6l11.7,11.7c1.8,1.8,4.8,1.8,6.6,0l12.9-12.8
		c0.9-0.9,2.1-1.4,3.3-1.4h0.1c1.2,0,2.4,0.5,3.3,1.4l6.5,6.5c1.8,1.8,4.8,1.8,6.6,0c0,0,0,0,0,0l5.3-5.3c1.8-1.8,1.8-4.8,0-6.6
		L123.5,50.9z"/>
</g>
</svg>
