<?xml version="1.0" encoding="utf-8"?>
<!-- Generator: Adobe Illustrator 17.1.0, SVG Export Plug-In . SVG Version: 6.00 Build 0)  -->
<!DOCTYPE svg PUBLIC "-//W3C//DTD SVG 1.1//EN" "http://www.w3.org/Graphics/SVG/1.1/DTD/svg11.dtd">
<svg version="1.1" id="Layer_1" xmlns="http://www.w3.org/2000/svg" xmlns:xlink="http://www.w3.org/1999/xlink" x="0px" y="0px"
	 viewBox="-112.2 37.8 822.1 754.2" enable-background="new -112.2 37.8 822.1 754.2" xml:space="preserve">
<g>
	<g>
		<g>
			<g>
				<path fill="#1DA7F8" d="M115.7,335.8c14.2-1.2,27.2,2.7,38.8,9.1c84.2,45.4,168.3,93.2,244.6,152.8c28.5,20.6,32.4,49.3,37.5,79
					c1.2,9.1-3.9,16.9-11.6,20.6c-37.5,23.3-75.1,46.6-112.6,69.9c-9.1,5.2-19.4,6.4-23.3-5.2c-22.1-51.8-67.2-75.1-111.4-102.3
					c-40.2-24.5-79-49.3-119-71.2C4.3,460.2,9.5,433,34.3,383.9C48.5,351.5,82.1,339.8,115.7,335.8z"/>
				<path fill="#2FF3FA" d="M618,394.8"/>
				<path fill="#2FF3FA" d="M190.6,72.4C252.7,106,315,141.1,373.2,181.1c56.9,38.8,117.8,71.2,176.2,107.5"/>
				<path fill="#2FF3FA" d="M608.7,433.8c-54.5-31.1-112.4-55.7-164.2-92C344.9,273.1,236,217.4,135.1,151.4
					c-20.6-14.2-45.4-22.1-55.7-47.9C73,90.6,61.3,94.5,51,93.3"/>
				<path fill="#2FF3FA" d="M53.2,93.3c-5.4-0.4,11.1-13.2,15.3-16.7c35.3-31.1,75.9-34.4,124.2-8.7
					c62.1,33.6,124.4,68.7,182.5,108.7c56.9,38.8,114.5,73,172.6,109.3c41.5,26,55.5,45.8,64.6,91c2.3,14,3.7,32.4,0,44.3
					c-1.2,3.9,0,15.7-3.5,13.6c-52.2-29.1-112.8-63.1-162.3-97.8C347,268.4,238.1,212.7,137.2,146.7c-20.6-14.2-45.4-22.1-55.7-47.9
					C77.6,91.6,59,93.9,53.2,93.3z"/>
				<path fill="#1BE7F4" d="M54.7,88.5c10.3,1.2,26.2-4.3,31.6,8.7c10.3,26,37.1,31.6,57.8,45.8c101.1,67.2,204.6,121.5,305.7,188.7
					c53,36.3,106,62.1,160.5,94.5c2.7,16.9-3.7,40.4-14,53.4c-1.2,2.7-3.9,3.9-5.2,6.4l0,0c-26,5.2-41.5-10.3-60.8-23.3
					c-85.4-55.7-174.7-104.8-261.5-158c-58.2-36.3-115.3-73.8-177.4-106.2c-26-13-45.4-32.4-69.9-46.6
					C29.9,128.7,32.6,104.2,54.7,88.5z"/>
				<path fill="#0EDDED" d="M22.5,149c24.5,14.2,43.9,33.6,69.9,46.6c60.8,32.4,119,69.9,177.4,106.2
					c86.8,54.5,176.2,102.3,261.5,158c19.4,13,36.3,28.5,60.8,23.3c-27.2,36.3-69.9,49.3-104.8,76.3c-11.6,9.1-13-3.9-14.2-11.6
					c-9.1-58.2-43.9-94.5-93.2-124.4c-101.1-56.9-196.8-119-295.2-178.6c-10.3-6.4-22.1-13-32.4-19.4
					C14.7,204.4,10.9,192.9,22.5,149z"/>
				<path fill="#4C71FD" d="M107.9,777.5C51,791.7,1.7,699.7,19.8,654.5c24.5-59.6,45.4-75.1,97.2-73.8
					c19.4,1.2,38.8,11.6,49.3,20.6c29.7,27.2,81.5,33.6,85.4,85.4c0,6.4,5.2,13-2.7,15.5c-38.8,14.2-66,47.9-103.5,66
					C133.9,777.5,120.9,778.7,107.9,777.5z"/>
			</g>
		</g>
	</g>
	<line fill="none" stroke="#000000" stroke-width="0.3" x1="-337.4" y1="-977.1" x2="-337.4" y2="-510.9"/>
	<line fill="none" stroke="#000000" stroke-width="0.3" x1="-1036.5" y1="-277.8" x2="-570.5" y2="-277.8"/>
	<line fill="none" stroke="#000000" stroke-width="0.3" x1="-1036.5" y1="1112.6" x2="-570.5" y2="1112.6"/>
	<line fill="none" stroke="#000000" stroke-width="0.3" x1="-337.4" y1="1811.9" x2="-337.4" y2="1345.7"/>
	<line fill="none" stroke="#000000" stroke-width="0.3" x1="932.8" y1="-977.1" x2="932.8" y2="-510.9"/>
	<line fill="none" stroke="#000000" stroke-width="0.3" x1="1631.8" y1="-277.8" x2="1165.8" y2="-277.8"/>
	<line fill="none" stroke="#000000" stroke-width="0.3" x1="1631.8" y1="1112.6" x2="1165.8" y2="1112.6"/>
	<line fill="none" stroke="#000000" stroke-width="0.3" x1="932.8" y1="1811.9" x2="932.8" y2="1345.7"/>
</g>
</svg>
