<?xml version="1.0" encoding="utf-8"?>
<!-- Generator: Adobe Illustrator 17.1.0, SVG Export Plug-In . SVG Version: 6.00 Build 0)  -->
<!DOCTYPE svg PUBLIC "-//W3C//DTD SVG 1.1//EN" "http://www.w3.org/Graphics/SVG/1.1/DTD/svg11.dtd">
<svg version="1.1" id="Layer_1" xmlns="http://www.w3.org/2000/svg" xmlns:xlink="http://www.w3.org/1999/xlink" x="0px" y="0px"
	 viewBox="0 0 97.5 107" enable-background="new 0 0 97.5 107" xml:space="preserve">
<g>
	<g>
		<g>
			<g>
				<path fill="#FEFEFE" d="M0.5,0.5c32,0,64,0,96,0c1.7,0,2,0.3,2,2c-0.1,34.4-0.1,68.9,0,103.3c0,1.7-0.3,2-2,2
					c-31.4-0.1-62.7-0.1-94.1,0c-1.7,0-2-0.3-2-2C0.5,70.7,0.5,35.6,0.5,0.5z M72.2,59.4c0.1-0.2,0.3-0.3,0.4-0.5
					c0.8-1,1.3-2.1,1.1-3.4c0.2-1.2,1.1-2.1,0.8-3.4c-0.6-3.5-2.1-6.3-5.3-8.2c-4.5-2.8-9.2-5.4-13.6-8.3c-4.6-3-9.3-5.7-14.1-8.4
					c-4.1-2.3-8-1.6-10.8,1.6c-1.7,1.2-2,3.1-2.5,4.9c-0.9,3.4-0.5,4.3,2.3,5.9c0.8,0.5,1.7,1,2.5,1.5c7.6,4.7,15,9.5,22.7,13.9
					c3.9,2.3,6.6,5.1,7.2,9.6c0.1,0.6,0.2,1.6,1.1,0.9C66.7,63.3,70.1,62.3,72.2,59.4L72.2,59.4z M35.4,47.8
					c-2.7,0.3-5.3,1.2-6.5,3.7c-1.8,3.8-2.3,5.9,1.9,8.1c3.2,1.6,6.2,3.6,9.2,5.5c3.5,2.1,7,3.9,8.6,7.9c0.4,0.9,1.2,0.8,1.8,0.4
					c2.9-1.8,5.8-3.6,8.7-5.4c0.6-0.4,1-1,0.9-1.6c-0.4-2.3-0.7-4.5-2.9-6.1c-5.9-4.5-12.4-8.2-18.9-11.8
					C37.6,48.1,36.5,47.7,35.4,47.8z M34.8,81.9c1,0.1,2,0,3-0.5c2.8-1.4,4.9-3.9,8-5.1c0.6-0.2,0.2-0.8,0.2-1.2
					c-0.3-4-4.3-4.5-6.6-6.6c-0.8-0.7-2.3-1.6-3.8-1.6c-4-0.2-5.6,1-7.5,5.7C26.6,75.9,30.4,83,34.8,81.9z"/>
				<path fill="#1DA7F8" d="M35.4,47.8c1.1-0.1,2.1,0.2,3,0.7c6.5,3.5,13,7.2,18.9,11.8c2.2,1.6,2.5,3.8,2.9,6.1
					c0.1,0.7-0.3,1.3-0.9,1.6c-2.9,1.8-5.8,3.6-8.7,5.4c-0.7,0.4-1.5,0.5-1.8-0.4c-1.7-4-5.2-5.8-8.6-7.9c-3.1-1.9-6.1-3.8-9.2-5.5
					c-4.2-2.2-3.8-4.3-1.9-8.1C30.2,49,32.8,48.1,35.4,47.8z"/>
				<path fill="#2FF3FA" d="M30.6,28.7c2.8-3.1,6.7-3.8,10.8-1.6c4.8,2.6,9.6,5.3,14.1,8.4c4.4,3,9.1,5.5,13.6,8.3
					c3.2,2,4.6,4.7,5.3,8.2c0.2,1.3-0.6,2.3-0.8,3.4C69.4,53,65,50.7,61,47.9c-7.7-5.3-16.1-9.6-23.9-14.7c-1.6-1.1-3.5-1.7-4.3-3.7
					C32.3,28.5,31.4,28.8,30.6,28.7z"/>
				<path fill="#1BE7F4" d="M30.6,28.7c0.8,0.1,1.7-0.2,2.1,0.8c0.8,2,2.7,2.6,4.3,3.7c7.8,5.2,16.1,9.5,23.9,14.7
					c4.1,2.8,8.4,5.1,12.6,7.6c0.2,1.3-0.3,2.4-1.1,3.4c-0.1,0.2-0.3,0.3-0.4,0.5c0,0,0,0,0,0c-2,0.4-3.2-0.8-4.7-1.8
					c-6.6-4.3-13.5-8.1-20.2-12.2c-4.5-2.8-8.9-5.7-13.7-8.2c-2-1-3.5-2.5-5.4-3.6C28.7,31.8,28.9,29.9,30.6,28.7z"/>
				<path fill="#0EDDED" d="M28.2,33.6c1.9,1.1,3.4,2.6,5.4,3.6c4.7,2.5,9.2,5.4,13.7,8.2c6.7,4.2,13.6,7.9,20.2,12.2
					c1.5,1,2.8,2.2,4.7,1.8c-2.1,2.8-5.4,3.8-8.1,5.9c-0.9,0.7-1-0.3-1.1-0.9c-0.7-4.5-3.4-7.3-7.2-9.6C48,50.4,40.6,45.6,33,41
					c-0.8-0.5-1.7-1-2.5-1.5C27.6,37.9,27.3,37,28.2,33.6z"/>
				<path fill="#4C71FD" d="M34.8,81.9c-4.4,1.1-8.2-6-6.8-9.5c1.9-4.6,3.5-5.8,7.5-5.7c1.5,0.1,3,0.9,3.8,1.6
					c2.3,2.1,6.3,2.6,6.6,6.6c0,0.5,0.4,1-0.2,1.2c-3,1.1-5.1,3.7-8,5.1C36.8,81.9,35.8,82,34.8,81.9z"/>
				<path fill="#0EDDED" d="M72.2,59.4c0.1-0.2,0.3-0.3,0.4-0.5C72.4,59.1,72.3,59.3,72.2,59.4z"/>
			</g>
		</g>
	</g>
	<line fill="none" stroke="#000000" stroke-width="0.3" x1="0.4" y1="-53.6" x2="0.4" y2="-17.6"/>
	<line fill="none" stroke="#000000" stroke-width="0.3" x1="-53.6" y1="0.4" x2="-17.6" y2="0.4"/>
	<line fill="none" stroke="#000000" stroke-width="0.3" x1="-53.6" y1="107.8" x2="-17.6" y2="107.8"/>
	<line fill="none" stroke="#000000" stroke-width="0.3" x1="0.4" y1="161.8" x2="0.4" y2="125.8"/>
	<line fill="none" stroke="#000000" stroke-width="0.3" x1="98.5" y1="-53.6" x2="98.5" y2="-17.6"/>
	<line fill="none" stroke="#000000" stroke-width="0.3" x1="152.5" y1="0.4" x2="116.5" y2="0.4"/>
	<line fill="none" stroke="#000000" stroke-width="0.3" x1="152.5" y1="107.8" x2="116.5" y2="107.8"/>
	<line fill="none" stroke="#000000" stroke-width="0.3" x1="98.5" y1="161.8" x2="98.5" y2="125.8"/>
</g>
</svg>
