<?xml version="1.0" encoding="utf-8"?>
<!-- Generator: Adobe Illustrator 17.1.0, SVG Export Plug-In . SVG Version: 6.00 Build 0)  -->
<!DOCTYPE svg PUBLIC "-//W3C//DTD SVG 1.1//EN" "http://www.w3.org/Graphics/SVG/1.1/DTD/svg11.dtd">
<svg version="1.1" id="Layer_1" xmlns="http://www.w3.org/2000/svg" xmlns:xlink="http://www.w3.org/1999/xlink" x="0px" y="0px"
	 viewBox="0 0 612 792" enable-background="new 0 0 612 792" xml:space="preserve">
<g>
	<g>
		<g>
			<g>
				<path fill="#1DA7F8" d="M222.2,360.2c6.9-0.6,13.2,1.3,18.8,4.4c40.8,22,81.6,45.2,118.6,74.1c13.8,10,15.7,23.9,18.2,38.3
					c0.6,4.4-1.9,8.2-5.6,10c-18.2,11.3-36.4,22.6-54.6,33.9c-4.4,2.5-9.4,3.1-11.3-2.5c-10.7-25.1-32.6-36.4-54-49.6
					c-19.5-11.9-38.3-23.9-57.7-34.5c-26.4-13.8-23.9-27-11.9-50.8C189.6,367.8,205.9,362.1,222.2,360.2z"/>
				<path fill="#2FF3FA" d="M465.7,388.8"/>
				<path fill="#2FF3FA" d="M258.5,232.5c30.1,16.3,60.3,33.3,88.5,52.7c27.6,18.8,57.1,34.5,85.4,52.1"/>
				<path fill="#2FF3FA" d="M461.2,407.7c-26.4-15.1-54.5-27-79.6-44.6c-48.3-33.3-101.1-60.3-150-92.3c-10-6.9-22-10.7-27-23.2
					c-3.1-6.3-8.8-4.4-13.8-5"/>
				<path fill="#2FF3FA" d="M191.9,242.6c-2.6-0.2,5.4-6.4,7.4-8.1c17.1-15.1,36.8-16.7,60.2-4.2c30.1,16.3,60.3,33.3,88.5,52.7
					c27.6,18.8,55.5,35.4,83.7,53c20.1,12.6,26.9,22.2,31.3,44.1c1.1,6.8,1.8,15.7,0,21.5c-0.6,1.9,0,7.6-1.7,6.6
					c-25.3-14.1-54.7-30.6-78.7-47.4c-48.3-33.3-101.1-60.3-150-92.3c-10-6.9-22-10.7-27-23.2C203.7,241.8,194.7,242.9,191.9,242.6z
					"/>
				<path fill="#1BE7F4" d="M192.6,240.3c5,0.6,12.7-2.1,15.3,4.2c5,12.6,18,15.3,28,22.2c49,32.6,99.2,58.9,148.2,91.5
					c25.7,17.6,51.4,30.1,77.8,45.8c1.3,8.2-1.8,19.6-6.8,25.9c-0.6,1.3-1.9,1.9-2.5,3.1l0,0c-12.6,2.5-20.1-5-29.5-11.3
					c-41.4-27-84.7-50.8-126.8-76.6c-28.2-17.6-55.9-35.8-86-51.5c-12.6-6.3-22-15.7-33.9-22.6C180.6,259.8,181.9,247.9,192.6,240.3
					z"/>
				<path fill="#0EDDED" d="M177,269.6c11.9,6.9,21.3,16.3,33.9,22.6c29.5,15.7,57.7,33.9,86,51.5c42.1,26.4,85.4,49.6,126.8,76.6
					c9.4,6.3,17.6,13.8,29.5,11.3c-13.2,17.6-33.9,23.9-50.8,37c-5.6,4.4-6.3-1.9-6.9-5.6c-4.4-28.2-21.3-45.8-45.2-60.3
					c-49-27.6-95.4-57.7-143.1-86.6c-5-3.1-10.7-6.3-15.7-9.4C173.2,296.5,171.4,290.9,177,269.6z"/>
				<path fill="#4C71FD" d="M218.4,574.3c-27.6,6.9-51.5-37.7-42.7-59.6c11.9-28.9,22-36.4,47.1-35.8c9.4,0.6,18.8,5.6,23.9,10
					c14.4,13.2,39.5,16.3,41.4,41.4c0,3.1,2.5,6.3-1.3,7.5c-18.8,6.9-32,23.2-50.2,32C231,574.3,224.7,574.9,218.4,574.3z"/>
			</g>
		</g>
	</g>
	<line fill="none" stroke="#000000" stroke-width="0.3" x1="2.5" y1="-276.3" x2="2.5" y2="-50.3"/>
	<line fill="none" stroke="#000000" stroke-width="0.3" x1="-336.4" y1="62.7" x2="-110.5" y2="62.7"/>
	<line fill="none" stroke="#000000" stroke-width="0.3" x1="-336.4" y1="736.8" x2="-110.5" y2="736.8"/>
	<line fill="none" stroke="#000000" stroke-width="0.3" x1="2.5" y1="1075.8" x2="2.5" y2="849.8"/>
	<line fill="none" stroke="#000000" stroke-width="0.3" x1="618.3" y1="-276.3" x2="618.3" y2="-50.3"/>
	<line fill="none" stroke="#000000" stroke-width="0.3" x1="957.2" y1="62.7" x2="731.3" y2="62.7"/>
	<line fill="none" stroke="#000000" stroke-width="0.3" x1="957.2" y1="736.8" x2="731.3" y2="736.8"/>
	<line fill="none" stroke="#000000" stroke-width="0.3" x1="618.3" y1="1075.8" x2="618.3" y2="849.8"/>
</g>
</svg>
