<?xml version="1.0" encoding="utf-8"?>
<!-- Generator: Adobe Illustrator 17.1.0, SVG Export Plug-In . SVG Version: 6.00 Build 0)  -->
<!DOCTYPE svg PUBLIC "-//W3C//DTD SVG 1.1//EN" "http://www.w3.org/Graphics/SVG/1.1/DTD/svg11.dtd">
<svg version="1.1" id="Layer_1" xmlns="http://www.w3.org/2000/svg" xmlns:xlink="http://www.w3.org/1999/xlink" x="0px" y="0px"
	 viewBox="0 0 157.8 166" enable-background="new 0 0 157.8 166" xml:space="preserve">
<g>
	<g>
		<path fill="#FEFEFE" d="M160.3,105c0,19.7-0.1,39.3,0.1,59c0,2.5-0.6,3.1-3.1,3.1c-53.3-0.1-106.7-0.1-160,0
			c-2.5,0-3.1-0.6-3.1-3.1c0.1-53.3,0.1-106.7,0-160c0-2.5,0.6-3.1,3.1-3.1c53.3,0.1,106.7,0.1,160,0c2.5,0,3.1,0.6,3.1,3.1
			c-0.1,15.7-0.1,31.3-0.1,47c-1,1.9-0.5,3.9-0.5,5.9c-0.1,14.4,0,28.9,0,43.3C159.8,101.8,159.3,103.5,160.3,105z"/>
		<path fill="#242424" d="M160.3,105c-1.7-0.7-1.1-2.3-1.1-3.4c-0.1-15.9-0.1-31.8,0-47.7c0-1-0.5-2.4,1.1-2.9
			C160.3,69,160.3,87,160.3,105z"/>
		<path fill="#F90303" d="M142.4,67.1c0,2.8-0.5,5.5-1.9,8c-1.5,3.4-2.7,7-3.1,10.7c-0.3,2.5-0.6,4.8-3.8,4.7c-3-0.1-4.4-2-4.7-4.9
			c-0.1-0.7-0.3-1.3-0.2-2c0.3-6.6-5-11.8-11.6-11.4c-4.8,0.2-9.7,0-14.5,0.1c-1.8,0-3.7-0.4-5.3,1c-3.2,2.4-6.9,4.4-5.1,9.5
			c0.4,1,0.8,2.1,1.3,3.1c0.1,0.1,0.2,0.3,0.2,0.4c0.6,2.3,6.2,1.2,4.1,3.8c-1.7,2.1-4,5.6-9,4.7c-3.6-0.7-7.4-2.5-11.3-1.3
			c-6.5-6.1-5.4-14-5.1-21.8c0.1-1.5,0.6-2.9,1.2-4.3c1.4-2.3,3.4-3.6,6.1-3.7c3-0.1,6-1.4,8.8-1.2c7.4,0.7,15-2.5,22.1,1.3
			c4.6,1.5,9.1,3.1,13.1-1.3c1.1-0.8,1.7-2,2.5-3.1c4-1,7.4-3.4,11.4-4.5c1.8-0.5,2.5-2,3.7-3.1c1.2-1.3,2.6-2.4,4-0.1
			c0.3,2.4-0.2,4.8-0.7,7.2l0,0.1C142.3,61.4,143.2,64.5,142.4,67.1z"/>
		<path fill="#FDA3A1" d="M72.5,126.8c-13.2-2.6-25.9-7-38.8-10.5c-4.5-1.2-8.9-2.4-13.4-3.5c-1.4-1.5-3.3-2-5.1-3
			c-3.5-2-3.7-5.7-1-11.7c3.4-3.5,6.8-7,10.3-10.3c1.5-1.4,1.8-2.9,1.7-4.8c4.7,0.5,6.2,5.2,9.6,7.4c5.9,5.1,11.5,10.4,16.9,16
			c3.5,3.6,7.7,6.3,11,10C66.5,120,71.2,122,72.5,126.8z"/>
		<path fill="#FD0101" d="M16.3,73c-4.8-4.7-11.9-7.7-12-15.9c4.9-3.5,10.5-4.1,16.1-2.9c7.1,1.6,14.3,3,21.5,4.4
			c2.7,0.6,5.2,2.6,8.5,1c1.5-0.7,3.1,1.4,3.8,3.3C53,69.7,54.7,76.7,52,83.4c-1.5,3.6-3.5,5.7-7.6,3.7c-0.9-0.4-2-0.9-2.6,0.2
			C39.5,91,37.7,89,35,87.5C28,83.5,23.5,76.5,16.3,73z"/>
		<path fill="#A20203" d="M72.5,126.8c-3.1-3.2-6.3-6.5-9.4-9.7c1.6-2.4,4.2-3.9,6.7-3c3.2,1.2,5.1-0.3,7.3-1.8
			c6.4,0.8,12.7,2.7,19.3,2.3c5.2-0.3,10-2.4,15.3-2.2c2.6,2.9-0.2,3.9-1.8,5.2c-1.3,1-3.3,0.2-4.4,2c5.4,0.9,10.9-0.3,16.1,1.9
			c1.8,0.8,3.9,0.1,5.7-1c2.3-1.3,2.9,0.1,3.3,2c-0.5,4.6-0.6,9.3-4.1,13c-5,1.9-8.9-2-13.4-2.6c-11.1-1.6-21.8-5.4-33.2-4.5
			c-1.9,0.1-3.6-0.6-5.4-0.7C73.7,127.4,73.1,127.1,72.5,126.8z"/>
		<path fill="#FBA4A3" d="M126.2,135c1.6-4.2,2.6-8.5,3.1-12.9c0.3-3.1-0.1-6.2,1-9.2c1.5-5.3,2.7-10.7,4-16
			c1.1-3.4,0.8-7.3,3.9-9.9c-0.2,12.5,5,23.8,7.5,35.8c0.9,4.2,2.2,8.3,3.2,12.5c1.7,7-3.1,11.9-10.1,10.3c-4.5-1-8.9-2.4-13.4-3.6
			C123.6,139.4,124.7,137.2,126.2,135z"/>
		<path fill="#FB4E4F" d="M118.3,16.9c7.6-0.9,14.5-4.5,22-5.8c0.9,3.8-1.9,4.6-4.5,4.9c-2.6,0.4-4,1.4-5.4,3.6
			c-2.6,3.9-6.4,6.9-10.4,9c-4.2,2.3-7.3,6.2-12.1,7.4c-1.7,0.5,0.2,0.6,0.2,0.7c0.8,1.1,1,2.1-0.5,2.8c-7.9-0.9-15.9-1.4-23.9-0.9
			c-1.6-1.3-3.3-2.4-5.6-2.4c-3.3,0.1-5.9-1.5-7.7-4.3c5.3-1.7,10.6-3.4,15.8-5.1C96.4,22.1,107.1,18.6,118.3,16.9z"/>
		<path fill="#900101" d="M126.2,135c-0.3,2.3-0.6,4.6-0.9,6.9c-0.3,0.4-0.7,0.7-1,1.1c-1.4,1.4-1.4,3.6-3.3,4.8c-3,2.1-5.6,4-8.8,0
			c-1.9-2.3-5.4-3.4-8-3.6c-8.6-0.6-14.8-6-22-9.3c-2.6-2.4-5.3-4.9-7.9-7.3c8.2-0.5,16.3-1.9,24.6,1.6c4.5,1.9,10.4,1.2,15.6,2.5
			C118.5,132.7,121.8,136,126.2,135z"/>
		<path fill="#820404" d="M82.2,135c3.1,0,6,1.4,8.1,3c6.1,4.3,13.5,4.4,20,7.1c0.6,0.2,1.3,0.3,1.8,0.6c5.6,3.4,6.5,3.2,10.7-2.2
			c0.2-0.3,0.9-0.3,1.4-0.4c-0.9,4-1.5,8.2-2.6,12.1c-1.9,6.4-8.9,8.6-13.9,4.2C99.1,151.4,90.7,143.1,82.2,135z"/>
		<path fill="#FB4243" d="M108.3,38.9c-0.6-3.3-3.9-1-5.3-2.6c0-0.3,0-0.8,0.1-0.8c10.5-1.6,17.8-8.8,25.1-15.4
			c2.9-2.6,4.4-5.8,9-5.5c1.2,0.1,2.8-1.6,3.1-3.5c7.1-2.4,10.2-1.4,13,3.9c-1.3,2.6-2.8,1.1-4.5,0.3c-2.8-1.3-5-2.4-5.9,2.5
			c-0.6,3.4-3.2,6.3-6.1,8.8c-7,6.1-16,8.9-22.9,14.9C111.3,42.1,109.3,41.5,108.3,38.9z"/>
		<path fill="#FA1414" d="M53.2,63c-0.9-1.5-1.8-3.1-3.7-2.8c-2.2,0.4-0.5,3.1-2.4,4.5c-0.8-4.2-3.8-4.6-7.4-5.1
			c-8.5-1.2-16.6-4.1-25.2-4.6c-2.7-0.2-4.4,0.6-5,4.1c-1.1-3.5-2.8-4-5.2-2C4.1,53,6.8,51,10,49.8c3.5-1.3,7.3-2,10.9-3
			c2.9-0.9,5.3,0,8,1.2c5.6,2.6,11.7,4,17.8,4.6c4,0.4,7.5,1.7,10,5c0.5,1,0.7,2.1,0.8,3.2c-0.1,1.7,0,3.4-1.7,4.4
			C53.8,65.9,54,63.9,53.2,63z"/>
		<path fill="#F93B3C" d="M114.1,41.4c0.9-3.6,4.1-5.3,7-6.3c6.8-2.3,11.8-7.3,17.2-11.6c1.9-1.5,5.6-4.7,2.9-8.8
			c-0.6-1,0.5-1.6,1.2-1.6c2.6,0,5.5-1.3,7.4,1.3c1.2,1.5,2.1,1.2,3.4,0.5c2.1,3.6,0.5,6.8-0.8,10.1c-0.8-0.2-1.6-2.2-2.6,0
			c-1.1,2.6-3.1,3.3-5.6,2.6c-1.2-0.3-2.2-0.3-3.1,0.8c-5.5,7-13.8,10.5-20.6,15.9c-1.2,0.3-2.4,0-3.6-0.2
			C115.6,43.7,114.2,43.2,114.1,41.4z"/>
		<path fill="#FB2F30" d="M120.2,44c3.7-4.4,8.8-6.8,13.3-10.2c2.7-2,6.2-3.2,6.9-7.3c0.4-2.2,2.1-0.7,3.1-0.3c2.6,1.3,4.5,1,5.5-2
			c0.4-1.1-0.2-3.2,1.8-2.9c2.1,0.3,1,2.5,1.5,3.7c0,0-0.1,0.1-0.1,0.1c-2,2.4-1,5.5-2,8.2c0,3.1-0.7,6-2,8.8
			c-2.1-1.6-0.8-4.4-2.3-7.1c-0.7,4-3.5,4.6-6.1,5.9c-5.5,2.8-11.7,4.6-15.6,10c-2,0.5-2.5-0.9-3.1-2.3
			C121.2,47,119.8,45.7,120.2,44z"/>
		<path fill="#FAACAD" d="M118.3,16.9c-10.4,4.1-21.3,6.9-32.1,10c5.3-5.1,10.7-10.3,16-15.5c2.7-2.7,5.3-5.6,9.8-4.1
			C116.6,8.9,117.9,12.6,118.3,16.9z"/>
		<path fill="#EA0605" d="M53.2,63c0.6,0.7,1.3,1.3,1.9,2c1.4,6.3,0.2,12.8,0.6,19.1c0.3,4.6-1.3,8.4-4.7,11.5
			c-1.8,1.6-3.5,2.5-6.1,0.5c-2.9-2.2-6.4-3.3-9.6-5.1c-3-2.7-6-5.3-9.1-8c-3.3-3.3-6.6-6.7-9.9-10c4.3,0.5,7.4,2.6,10.1,6.1
			c1.9,2.4,4.8,4,7.4,5.9c0.5,0.4,1.6,0.2,1.8,0.6c4.2,7,4.7,1.1,6-1.8c1.6,0.1,2.1,1.6,3.2,2.3c2.4,1.5,4.2,1.5,5.4-1.6
			c1.5-3.7,2.4-7.5,2-11.5C51.9,69.5,52.8,66.3,53.2,63z"/>
		<path fill="#F82222" d="M124,51.2c0.2-2.3,1-4.3,3.3-5.1c5.2-2,9.3-6.3,15-7.1c2.5-0.4,1.8-2.3,2-3.9c0.2-1.4,0.9-2.1,2.3-1.9
			c1.2,0.1,1.6,1,1.6,2.1c0.1,2.3,0.1,4.6,0.2,6.9c-0.8,5.7-1.9,11.4-4.1,16.8c0-2.7-0.1-5.3-0.1-8c-1.2-1.1,0.4-2.5-0.4-3.7
			c-5.8,0.8-10.3,6.1-16.6,4.9c-0.7-0.1-1.4-0.2-2-0.4C124.7,51.7,124.3,51.5,124,51.2z"/>
		<path fill="#E30708" d="M138.2,86.9c-1.9,3.1-1.1,7-2.9,10.2c-2.5,1.4-4.7,4.9-7.9,1.1c-1.1-3.9-0.5-7.9-0.6-11.8
			c-0.3-9.1-2.9-11.8-12-12c-5.5-0.1-10.9,0.3-16.4-0.2c-0.9-0.2-1.7-0.5-2.2-1.3c0.5-2.4,2.4-1.8,3.9-1.9c6.8-0.7,13.7,1,20.7-1
			c1.6-0.5,5.7,3.2,6.7,5.7c1.3,3.4,3.1,3.9,6.4,3.8c-2.5,1.8-5.4,2.8-3.8,6.9c0.8,2.2,2,3,3.7,3.2c2.4,0.3,2.3-1.8,2.5-3.4
			c0.5-4,0.7-8.2,4.2-11.1C140.7,79.2,138.4,82.9,138.2,86.9z"/>
		<path fill="#F92C2C" d="M56.3,61c0-1-0.1-2-0.1-3c-1.8-1.6,1.4-4.4-0.9-5.4c-4.4-1.8-8.8-4-13.7-4.3c-5-0.2-9.7-1.5-14.3-3.4
			c4.5-1.9,9-3.4,13.8-4.1c5.9-0.9,11.5,0.4,16.9,2.4c5.6,2.1,5.7,2.8,3.7,8.5C60.2,55.1,60.1,59.1,56.3,61z"/>
		<path fill="#FB2120" d="M27.2,45c10.2,0.8,20.1,3.2,29.9,6.2c1.8,0.5,1.9,1.8,0.9,3c-1,1.2-2,2.2-1.8,3.9c-4-3.9-9.3-4.1-14.4-4.6
			c-7.4-0.8-13.7-5.1-20.9-6.5C22.8,45.6,25,45.1,27.2,45z"/>
		<path fill="#F8393C" d="M60.4,52.3c-0.3-1.4-0.1-2.5,1-3.6c1.3-1.3,0.6-2.6-0.9-3c-3.3-0.8-5.9-3.6-9.7-2.8
			c-3.6,0.8-6.2-3-9.8-2.1c4.1-2.1,8.6-3.1,13.1-4c4.1-0.9,8.1-2.1,11.7,1.5c1.1,1.1,2.5,0.6,3.8,0.3c1.1-0.2,2.4-0.5,2.9,1
			c0.4,1.4-0.6,2.1-1.5,2.9c-2,1.6-4.8,2.5-5.6,5.4C64.3,50,63.2,52.1,60.4,52.3z"/>
		<path fill="#F44649" d="M64.3,48c-0.2-5.1,5.9-4.6,8.1-9.1c-4.2,2.8-6.7,2-9.6-1.2c-1.8-2.1-5.7-0.3-8.6-0.8
			c5.2-2.3,10.7-3.6,16.2-4.9c3.6,1.2,6.7,3.9,10.9,3.1c1.7-0.3,1.9,1.4,2,2.7C76.9,41.1,70.8,44.9,64.3,48z"/>
		<path fill="#ECB2B2" d="M14.3,98.1c0,3.7-3.3,8.2,1.9,10.9c1.8,0.9,3.4,1.9,4.1,3.9C10.7,109.9,8.4,104.2,14.3,98.1z"/>
		<path fill="#F93B3C" d="M150.4,33.3c0.6-2.7-2.2-6.3,2-8.2C152.4,28,152,30.8,150.4,33.3z"/>
		<path fill="#F81416" d="M142.4,67.1c0.7-2.7-2.2-6.2,1.9-8C144.4,61.9,143.8,64.6,142.4,67.1z"/>
		<path fill="#FBFCFB" d="M64.3,48c5.6-4.8,11.7-8.5,19-10.1c8.4-1.4,16.7-1.1,25,1c1.8,1,3.6,2.2,5.8,2.5c0.5,1.2,1.5,1.7,2.8,1.8
			c2.5,1,4.4,2.6,5.3,5.2c0.4,1.1,0.6,2.3,1.9,2.8c0,0,0.1,0.1,0.1,0.1c3.8,3.8,2.6,7.8,0.3,11.8c-4.8,4.8-7,5.1-13.9,1.8
			c-2-1.3-3.2-3.2-4.7-5c-7-8.9-20.3-8.6-26.9,0.5c-1.5,2.2-3,4.4-4.4,6.6c-1.7,9.1-2.5,18,3.5,26c7.7,6.6,16.3,8.4,25.9,4.8
			c1.2-0.5,2.5-0.9,3.5-1.8c1.4-1.2,1.6-2.8,1.3-4.5c-0.4-1.9-2-2.1-3.5-2.1c-3.4,0.1-6.6-0.6-9.8-1.3c-1.4-0.3-2.4-0.9-3.1-2.2
			c-0.3-1-1.5-1.6-1.1-2.9c-0.4-5.4,1.3-7.8,7.1-9.9c6.4,0,12.9-0.2,19.3-0.1c6.9,0.1,10.2,3.6,10.4,10.5c0.2,5.1,0.2,10.2,0.2,15.4
			c1.8,5.5-2.7,7.6-5.6,10.6c-3.3,1.6-6.4,3.8-10.4,3.5c-12,3.5-24,4.1-36,0c-1.5,1.1-2.8,0.4-4.1-0.5c-4.9-3.4-9.6-7.2-12.9-12.3
			c-3.4-4.7-4.5-10.2-4.9-15.8c0.3-6.5-0.8-13,0.8-19.5c1.2-1.1,1.1-2.5,1.2-3.9c1.4-2.9,2.8-5.8,4.1-8.7
			C62.2,51.3,63.1,49.5,64.3,48z"/>
		<path fill="#F81A1B" d="M74.5,67c1.8-7.8,6.5-12.8,14.4-14.4c8.1-1.6,14.7,0.6,19,8.1c0.8,1.4,1.7,2.8,2.6,4.2
			c-0.8,0.1-2.3,1.6-2.4,0.3c-0.2-2.8-2.1-2.4-3.5-2.1c-8.5,1.9-17.3,0.1-25.8,1.8C77,65.3,76.2,66.9,74.5,67z"/>
		<path fill="#E00606" d="M92.3,85.9c4.4,2.6,9.3,1.9,14,2.1c1.3,0.1,3.5-0.9,3.8,1.2c0.4,2.5,1.3,5.6-0.5,7.6
			c-6.8,7.4-26.4,4.9-31.6-3.8c2.2,0.2,5-5.3,6.6,0.8c0.2,0.8,1.1,0.1,1.6-0.3c2.2-2.2,4-2.3,5.3,1.9c0.1-5,3.9-4.2,6.5-5.6
			C95.9,88.3,91.6,90.3,92.3,85.9z"/>
		<path fill="#F81416" d="M126.2,51c6.1,1.6,10.3-3.4,15.7-4.5c1.3-0.3,2.4-2.4,3.8-0.7c1.2,1.4,0,2.7-1.1,3.8
			c-0.3,0.3-0.3,0.9-0.5,1.4c-0.5,0.1-1.2,0.1-1.4,0.4c-3.8,6.1-10.2,7.2-16.4,8.6C125.6,57.1,125,54.1,126.2,51z"/>
		<path fill="#F8E1DA" d="M98.2,73.2c-3.7,2.3-6.7,5.2-7.1,9.9c-2.4-5.4,1.2-7.8,5-10.1C96.9,73,97.6,73.1,98.2,73.2z"/>
		<path fill="#FB2F30" d="M126.2,51c0.1,3,0.1,6,0.2,9.1c-0.3,1.3-0.1,2.9-2,3c1.8-4,0.8-7.9-0.3-11.8
			C124.8,51.2,125.5,51.1,126.2,51z"/>
		<path fill="#D60405" d="M54.3,84.4c1.5,5.3,3.2,10.6,5.9,15.5c0.6,5.3-2.9,8.4-8,7c-5.7-5.3-11.3-10.7-17-16
			c4.3,0.3,8.2,1.7,11.2,5c1.1,1.2,1.7-0.1,2.4-0.6C52.7,92.7,54.9,89.3,54.3,84.4z"/>
		<path fill="#BB0607" d="M52.3,107c4.7,0,7-2.8,8-7c4.5,5.4,9.3,10.4,16,13.2c-1.1,2.6-1.9,4.9-5.5,2.1c-2.4-1.8-5,1.3-7.7,1.8
			C59.5,113.7,55.9,110.3,52.3,107z"/>
		<path fill="#B30202" d="M112.3,113.1c3.3-1.5,6.6-2.9,9.9-4.4c1.1,0.4,2.1,0.6,3.3,0.3c5.2-1.2,5.2-1.2,6,4.1
			c-0.3,3.1-0.9,6.1-2.2,9c0-0.2,0-0.3-0.1-0.5c-7.2,3.3-14.1-0.9-21.2-1c-0.3,0-0.7,0.1-0.9,0.3c-1.4,0.9-3,3.3-3.8-0.4
			c-0.6-2.6,0.8-3.7,3.3-3.5C109.6,117.2,111.3,115.8,112.3,113.1z"/>
		<path fill="#C6080A" d="M131.5,113.1c-1.7-1.6-1.8-7.1-6.2-2.1c-1.3,1.5-2.8-0.3-3.1-2.2c2.8-2.8,5.5-5.6,6.1-9.8
			c2.9,1.5,4.2-3.1,7.1-1.8C134.6,102.6,133.2,107.9,131.5,113.1z"/>
		<path fill="#FB4243" d="M122.1,48.4c-1.8-1.7-3.5-3.5-5.3-5.2c1.3-0.3,2.3,0.3,3.4,0.8C121.5,45.2,122.7,46.4,122.1,48.4z"/>
	</g>
</g>
</svg>
