<?xml version="1.0" encoding="utf-8"?>
<!-- Generator: Adobe Illustrator 17.1.0, SVG Export Plug-In . SVG Version: 6.00 Build 0)  -->
<!DOCTYPE svg PUBLIC "-//W3C//DTD SVG 1.1//EN" "http://www.w3.org/Graphics/SVG/1.1/DTD/svg11.dtd">
<svg version="1.1" id="Layer_1" xmlns="http://www.w3.org/2000/svg" xmlns:xlink="http://www.w3.org/1999/xlink" x="0px" y="0px"
	 viewBox="0 90 612 616" enable-background="new 0 90 612 616" xml:space="preserve">
<g>
	<g>
		<path fill="#242424" d="M621.7,481.3c-6.6-2.7-4.3-8.9-4.3-13.2c-0.4-61.7-0.4-123.3,0-185c0-3.9-1.9-9.3,4.3-11.2
			C621.7,341.7,621.7,411.5,621.7,481.3z"/>
		<path fill="#F90303" d="M552.3,334.3c0,10.9-1.9,21.3-7.4,31c-5.8,13.2-10.5,27.1-12,41.5c-1.2,9.7-2.3,18.6-14.7,18.2
			c-11.6-0.4-17.1-7.8-18.2-19c-0.4-2.7-1.2-5-0.8-7.8c1.2-25.6-19.4-45.8-45-44.2c-18.6,0.8-37.6,0-56.2,0.4
			c-7,0-14.3-1.6-20.6,3.9c-12.4,9.3-26.8,17.1-19.8,36.8c1.6,3.9,3.1,8.1,5,12c0.4,0.4,0.8,1.2,0.8,1.6c2.3,8.9,24,4.7,15.9,14.7
			c-6.6,8.1-15.5,21.7-34.9,18.2c-14-2.7-28.7-9.7-43.8-5c-25.2-23.7-20.9-54.3-19.8-84.5c0.4-5.8,2.3-11.2,4.7-16.7
			c5.4-8.9,13.2-14,23.7-14.3c11.6-0.4,23.3-5.4,34.1-4.7c28.7,2.7,58.2-9.7,85.7,5c17.8,5.8,35.3,12,50.8-5c4.3-3.1,6.6-7.8,9.7-12
			c15.5-3.9,28.7-13.2,44.2-17.5c7-1.9,9.7-7.8,14.3-12c4.7-5,10.1-9.3,15.5-0.4c1.2,9.3-0.8,18.6-2.7,27.9v0.4
			C551.9,312.2,555.4,324.3,552.3,334.3z"/>
		<path fill="#FDA3A1" d="M281.2,565.9c-51.2-10.1-100.4-27.1-150.5-40.7c-17.5-4.7-34.5-9.3-52-13.6c-5.4-5.8-12.8-7.8-19.8-11.6
			c-13.6-7.8-14.3-22.1-3.9-45.4C68.3,441,81.4,427.4,95,414.6c5.8-5.4,7-11.2,6.6-18.6c18.2,1.9,24,20.2,37.2,28.7
			c22.9,19.8,44.6,40.3,65.5,62.1c13.6,14,29.9,24.4,42.7,38.8C257.9,539.5,276.1,547.3,281.2,565.9z"/>
		<path fill="#FD0101" d="M63.2,357.2c-18.6-18.2-46.2-29.9-46.5-61.7c19-13.6,40.7-15.9,62.4-11.2c27.5,6.2,55.5,11.6,83.4,17.1
			c10.5,2.3,20.2,10.1,33,3.9c5.8-2.7,12,5.4,14.7,12.8c-4.7,26.4,1.9,53.5-8.5,79.5c-5.8,14-13.6,22.1-29.5,14.3
			c-3.5-1.6-7.8-3.5-10.1,0.8c-8.9,14.3-15.9,6.6-26.4,0.8C108.6,397.9,91.1,370.8,63.2,357.2z"/>
		<path fill="#A20203" d="M281.2,565.9c-12-12.4-24.4-25.2-36.5-37.6c6.2-9.3,16.3-15.1,26-11.6c12.4,4.7,19.8-1.2,28.3-7
			c24.8,3.1,49.3,10.5,74.9,8.9c20.2-1.2,38.8-9.3,59.3-8.5c10.1,11.2-0.8,15.1-7,20.2c-5,3.9-12.8,0.8-17.1,7.8
			c20.9,3.5,42.3-1.2,62.4,7.4c7,3.1,15.1,0.4,22.1-3.9c8.9-5,11.2,0.4,12.8,7.8c-1.9,17.8-2.3,36.1-15.9,50.4
			c-19.4,7.4-34.5-7.8-52-10.1c-43-6.2-84.5-20.9-128.8-17.5c-7.4,0.4-14-2.3-20.9-2.7C285.8,568.2,283.5,567,281.2,565.9z"/>
		<path fill="#FBA4A3" d="M489.4,597.7c6.2-16.3,10.1-33,12-50c1.2-12-0.4-24,3.9-35.7c5.8-20.6,10.5-41.5,15.5-62.1
			c4.3-13.2,3.1-28.3,15.1-38.4c-0.8,48.5,19.4,92.3,29.1,138.8c3.5,16.3,8.5,32.2,12.4,48.5c6.6,27.1-12,46.2-39.2,39.9
			c-17.5-3.9-34.5-9.3-52-14C479.4,614.7,483.6,606.2,489.4,597.7z"/>
		<path fill="#FB4E4F" d="M458.8,139.6c29.5-3.5,56.2-17.5,85.3-22.5c3.5,14.7-7.4,17.8-17.5,19c-10.1,1.6-15.5,5.4-20.9,14
			c-10.1,15.1-24.8,26.8-40.3,34.9c-16.3,8.9-28.3,24-46.9,28.7c-6.6,1.9,0.8,2.3,0.8,2.7c3.1,4.3,3.9,8.1-1.9,10.9
			c-30.6-3.5-61.7-5.4-92.7-3.5c-6.2-5-12.8-9.3-21.7-9.3c-12.8,0.4-22.9-5.8-29.9-16.7c20.6-6.6,41.1-13.2,61.3-19.8
			C373.9,159.8,415.4,146.2,458.8,139.6z"/>
		<path fill="#900101" d="M489.4,597.7c-1.2,8.9-2.3,17.8-3.5,26.8c-1.2,1.6-2.7,2.7-3.9,4.3c-5.4,5.4-5.4,14-12.8,18.6
			c-11.6,8.1-21.7,15.5-34.1,0c-7.4-8.9-20.9-13.2-31-14c-33.4-2.3-57.4-23.3-85.3-36.1c-10.1-9.3-20.6-19-30.6-28.3
			c31.8-1.9,63.2-7.4,95.4,6.2c17.5,7.4,40.3,4.7,60.5,9.7C459.6,588.8,472.4,601.6,489.4,597.7z"/>
		<path fill="#820404" d="M318.8,597.7c12,0,23.3,5.4,31.4,11.6c23.7,16.7,52.4,17.1,77.6,27.5c2.3,0.8,5,1.2,7,2.3
			c21.7,13.2,25.2,12.4,41.5-8.5c0.8-1.2,3.5-1.2,5.4-1.6c-3.5,15.5-5.8,31.8-10.1,46.9c-7.4,24.8-34.5,33.4-53.9,16.3
			C384.3,661.3,351.8,629.1,318.8,597.7z"/>
		<path fill="#FB4243" d="M420,225c-2.3-12.8-15.1-3.9-20.6-10.1c0-1.2,0-3.1,0.4-3.1c40.7-6.2,69-34.1,97.3-59.7
			c11.2-10.1,17.1-22.5,34.9-21.3c4.7,0.4,10.9-6.2,12-13.6c27.5-9.3,39.6-5.4,50.4,15.1c-5,10.1-10.9,4.3-17.5,1.2
			c-10.9-5-19.4-9.3-22.9,9.7c-2.3,13.2-12.4,24.4-23.7,34.1c-27.1,23.7-62.1,34.5-88.8,57.8C431.7,237.4,423.9,235,420,225z"/>
		<path fill="#FA1414" d="M206.3,318.4c-3.5-5.8-7-12-14.3-10.9c-8.5,1.6-1.9,12-9.3,17.5c-3.1-16.3-14.7-17.8-28.7-19.8
			c-33-4.7-64.4-15.9-97.7-17.8c-10.5-0.8-17.1,2.3-19.4,15.9c-4.3-13.6-10.9-15.5-20.2-7.8c-0.8-15.9,9.7-23.7,22.1-28.3
			c13.6-5,28.3-7.8,42.3-11.6c11.2-3.5,20.6,0,31,4.7c21.7,10.1,45.4,15.5,69,17.8c15.5,1.6,29.1,6.6,38.8,19.4
			c1.9,3.9,2.7,8.1,3.1,12.4c-0.4,6.6,0,13.2-6.6,17.1C208.7,329.7,209.4,321.9,206.3,318.4z"/>
		<path fill="#F93B3C" d="M442.5,234.7c3.5-14,15.9-20.6,27.1-24.4c26.4-8.9,45.8-28.3,66.7-45c7.4-5.8,21.7-18.2,11.2-34.1
			c-2.3-3.9,1.9-6.2,4.7-6.2c10.1,0,21.3-5,28.7,5c4.7,5.8,8.1,4.7,13.2,1.9c8.1,14,1.9,26.4-3.1,39.2c-3.1-0.8-6.2-8.5-10.1,0
			c-4.3,10.1-12,12.8-21.7,10.1c-4.7-1.2-8.5-1.2-12,3.1c-21.3,27.1-53.5,40.7-79.9,61.7c-4.7,1.2-9.3,0-14-0.8
			C448.3,243.6,442.9,241.6,442.5,234.7z"/>
		<path fill="#FB2F30" d="M466.2,244.7c14.3-17.1,34.1-26.4,51.6-39.6c10.5-7.8,24-12.4,26.8-28.3c1.6-8.5,8.1-2.7,12-1.2
			c10.1,5,17.5,3.9,21.3-7.8c1.6-4.3-0.8-12.4,7-11.2c8.1,1.2,3.9,9.7,5.8,14.3l-0.4,0.4c-7.8,9.3-3.9,21.3-7.8,31.8
			c0,12-2.7,23.3-7.8,34.1c-8.1-6.2-3.1-17.1-8.9-27.5c-2.7,15.5-13.6,17.8-23.7,22.9c-21.3,10.9-45.4,17.8-60.5,38.8
			c-7.8,1.9-9.7-3.5-12-8.9C470.1,256.4,464.6,251.3,466.2,244.7z"/>
		<path fill="#FAACAD" d="M458.8,139.6c-40.3,15.9-82.6,26.8-124.5,38.8c20.6-19.8,41.5-39.9,62.1-60.1c10.5-10.5,20.6-21.7,38-15.9
			C452.2,108.6,457.3,123,458.8,139.6z"/>
		<path fill="#EA0605" d="M206.3,318.4c2.3,2.7,5,5,7.4,7.8c5.4,24.4,0.8,49.6,2.3,74.1c1.2,17.8-5,32.6-18.2,44.6
			c-7,6.2-13.6,9.7-23.7,1.9c-11.2-8.5-24.8-12.8-37.2-19.8c-11.6-10.5-23.3-20.6-35.3-31c-12.8-12.8-25.6-26-38.4-38.8
			c16.7,1.9,28.7,10.1,39.2,23.7c7.4,9.3,18.6,15.5,28.7,22.9c1.9,1.6,6.2,0.8,7,2.3c16.3,27.1,18.2,4.3,23.3-7
			c6.2,0.4,8.1,6.2,12.4,8.9c9.3,5.8,16.3,5.8,20.9-6.2c5.8-14.3,9.3-29.1,7.8-44.6C201.3,343.6,204.8,331.2,206.3,318.4z"/>
		<path fill="#F82222" d="M480.9,272.7c0.8-8.9,3.9-16.7,12.8-19.8c20.2-7.8,36.1-24.4,58.2-27.5c9.7-1.6,7-8.9,7.8-15.1
			c0.8-5.4,3.5-8.1,8.9-7.4c4.7,0.4,6.2,3.9,6.2,8.1c0.4,8.9,0.4,17.8,0.8,26.8c-3.1,22.1-7.4,44.2-15.9,65.2
			c0-10.5-0.4-20.6-0.4-31c-4.7-4.3,1.6-9.7-1.6-14.3c-22.5,3.1-39.9,23.7-64.4,19c-2.7-0.4-5.4-0.8-7.8-1.6
			C483.6,274.6,482.1,273.8,480.9,272.7z"/>
		<path fill="#E30708" d="M536,411.1c-7.4,12-4.3,27.1-11.2,39.6c-9.7,5.4-18.2,19-30.6,4.3c-4.3-15.1-1.9-30.6-2.3-45.8
			c-1.2-35.3-11.2-45.8-46.5-46.5c-21.3-0.4-42.3,1.2-63.6-0.8c-3.5-0.8-6.6-1.9-8.5-5c1.9-9.3,9.3-7,15.1-7.4
			c26.4-2.7,53.1,3.9,80.3-3.9c6.2-1.9,22.1,12.4,26,22.1c5,13.2,12,15.1,24.8,14.7c-9.7,7-20.9,10.9-14.7,26.8
			c3.1,8.5,7.8,11.6,14.3,12.4c9.3,1.2,8.9-7,9.7-13.2c1.9-15.5,2.7-31.8,16.3-43C545.7,381.3,536.8,395.6,536,411.1z"/>
		<path fill="#F92C2C" d="M218.3,310.7c0-3.9-0.4-7.8-0.4-11.6c-7-6.2,5.4-17.1-3.5-20.9c-17.1-7-34.1-15.5-53.1-16.7
			c-19.4-0.8-37.6-5.8-55.5-13.2c17.5-7.4,34.9-13.2,53.5-15.9c22.9-3.5,44.6,1.6,65.5,9.3c21.7,8.1,22.1,10.9,14.3,33
			C233.5,287.8,233.1,303.3,218.3,310.7z"/>
		<path fill="#FB2120" d="M105.5,248.6c39.6,3.1,78,12.4,116,24c7,1.9,7.4,7,3.5,11.6s-7.8,8.5-7,15.1
			c-15.5-15.1-36.1-15.9-55.8-17.8c-28.7-3.1-53.1-19.8-81.1-25.2C88.4,251,97,249,105.5,248.6z"/>
		<path fill="#F8393C" d="M234.3,276.9c-1.2-5.4-0.4-9.7,3.9-14c5-5,2.3-10.1-3.5-11.6c-12.8-3.1-22.9-14-37.6-10.9
			c-14,3.1-24-11.6-38-8.1c15.9-8.1,33.4-12,50.8-15.5c15.9-3.5,31.4-8.1,45.4,5.8c4.3,4.3,9.7,2.3,14.7,1.2
			c4.3-0.8,9.3-1.9,11.2,3.9c1.6,5.4-2.3,8.1-5.8,11.2c-7.8,6.2-18.6,9.7-21.7,20.9C249.4,268,245.1,276.2,234.3,276.9z"/>
		<path fill="#F44649" d="M249.4,260.3c-0.8-19.8,22.9-17.8,31.4-35.3c-16.3,10.9-26,7.8-37.2-4.7c-7-8.1-22.1-1.2-33.4-3.1
			c20.2-8.9,41.5-14,62.8-19c14,4.7,26,15.1,42.3,12c6.6-1.2,7.4,5.4,7.8,10.5C298.2,233.5,274.6,248.2,249.4,260.3z"/>
		<path fill="#ECB2B2" d="M55.5,454.6c0,14.3-12.8,31.8,7.4,42.3c7,3.5,13.2,7.4,15.9,15.1C41.5,500.3,32.6,478.2,55.5,454.6z"/>
		<path fill="#F93B3C" d="M583.3,203.2c2.3-10.5-8.5-24.4,7.8-31.8C591.1,182.7,589.5,193.6,583.3,203.2z"/>
		<path fill="#F81416" d="M552.3,334.3c2.7-10.5-8.5-24,7.4-31C560,314.2,557.7,324.6,552.3,334.3z"/>
		<path fill="#FBFCFB" d="M249.4,260.3c21.7-18.6,45.4-33,73.7-39.2c32.6-5.4,64.8-4.3,97,3.9c7,3.9,14,8.5,22.5,9.7
			c1.9,4.7,5.8,6.6,10.9,7c9.7,3.9,17.1,10.1,20.6,20.2c1.6,4.3,2.3,8.9,7.4,10.9l0.4,0.4c14.7,14.7,10.1,30.3,1.2,45.8
			c-18.6,18.6-27.1,19.8-53.9,7c-7.8-5-12.4-12.4-18.2-19.4c-27.1-34.5-78.7-33.4-104.3,1.9c-5.8,8.5-11.6,17.1-17.1,25.6
			c-6.6,35.3-9.7,69.8,13.6,100.8c29.9,25.6,63.2,32.6,100.4,18.6c4.7-1.9,9.7-3.5,13.6-7c5.4-4.7,6.2-10.9,5-17.5
			c-1.6-7.4-7.8-8.1-13.6-8.1c-13.2,0.4-25.6-2.3-38-5c-5.4-1.2-9.3-3.5-12-8.5c-1.2-3.9-5.8-6.2-4.3-11.2
			c-1.6-20.9,5-30.3,27.5-38.4c24.8,0,50-0.8,74.9-0.4c26.8,0.4,39.6,14,40.3,40.7c0.8,19.8,0.8,39.6,0.8,59.7
			c7,21.3-10.5,29.5-21.7,41.1c-12.8,6.2-24.8,14.7-40.3,13.6c-46.5,13.6-93.1,15.9-139.6,0c-5.8,4.3-10.9,1.6-15.9-1.9
			c-19-13.2-37.2-27.9-50-47.7c-13.2-18.2-17.5-39.6-19-61.3c1.2-25.2-3.1-50.4,3.1-75.6c4.7-4.3,4.3-9.7,4.7-15.1
			c5.4-11.2,10.9-22.5,15.9-33.7C241.2,273.1,244.7,266.1,249.4,260.3z"/>
		<path fill="#F81A1B" d="M288.9,333.9c7-30.3,25.2-49.6,55.8-55.8c31.4-6.2,57,2.3,73.7,31.4c3.1,5.4,6.6,10.9,10.1,16.3
			c-3.1,0.4-8.9,6.2-9.3,1.2c-0.8-10.9-8.1-9.3-13.6-8.1c-33,7.4-67.1,0.4-100.1,7C298.6,327.4,295.5,333.6,288.9,333.9z"/>
		<path fill="#E00606" d="M358,407.2c17.1,10.1,36.1,7.4,54.3,8.1c5,0.4,13.6-3.5,14.7,4.7c1.6,9.7,5,21.7-1.9,29.5
			c-26.4,28.7-102.4,19-122.6-14.7c8.5,0.8,19.4-20.6,25.6,3.1c0.8,3.1,4.3,0.4,6.2-1.2c8.5-8.5,15.5-8.9,20.6,7.4
			c0.4-19.4,15.1-16.3,25.2-21.7C371.9,416.6,355.3,424.3,358,407.2z"/>
		<path fill="#F81416" d="M489.4,271.9c23.7,6.2,39.9-13.2,60.9-17.5c5-1.2,9.3-9.3,14.7-2.7c4.7,5.4,0,10.5-4.3,14.7
			c-1.2,1.2-1.2,3.5-1.9,5.4c-1.9,0.4-4.7,0.4-5.4,1.6c-14.7,23.7-39.6,27.9-63.6,33.4C487.1,295.6,484.8,283.9,489.4,271.9z"/>
		<path fill="#F8E1DA" d="M380.9,358c-14.3,8.9-26,20.2-27.5,38.4c-9.3-20.9,4.7-30.3,19.4-39.2C375.8,357.2,378.5,357.6,380.9,358z
			"/>
		<path fill="#FB2F30" d="M489.4,271.9c0.4,11.6,0.4,23.3,0.8,35.3c-1.2,5-0.4,11.2-7.8,11.6c7-15.5,3.1-30.6-1.2-45.8
			C484,272.7,486.7,272.3,489.4,271.9z"/>
		<path fill="#D60405" d="M210.6,401.4c5.8,20.6,12.4,41.1,22.9,60.1c2.3,20.6-11.2,32.6-31,27.1c-22.1-20.6-43.8-41.5-65.9-62.1
			c16.7,1.2,31.8,6.6,43.4,19.4c4.3,4.7,6.6-0.4,9.3-2.3C204.4,433.6,212.9,420.4,210.6,401.4z"/>
		<path fill="#BB0607" d="M202.8,489.1c18.2,0,27.1-10.9,31-27.1c17.5,20.9,36.1,40.3,62.1,51.2c-4.3,10.1-7.4,19-21.3,8.1
			c-9.3-7-19.4,5-29.9,7C230.8,515.1,216.8,501.9,202.8,489.1z"/>
		<path fill="#B30202" d="M435.5,512.7c12.8-5.8,25.6-11.2,38.4-17.1c4.3,1.6,8.1,2.3,12.8,1.2c20.2-4.7,20.2-4.7,23.3,15.9
			c-1.2,12-3.5,23.7-8.5,34.9c0-0.8,0-1.2-0.4-1.9c-27.9,12.8-54.7-3.5-82.2-3.9c-1.2,0-2.7,0.4-3.5,1.2
			c-5.4,3.5-11.6,12.8-14.7-1.6c-2.3-10.1,3.1-14.3,12.8-13.6C425.1,528.6,431.7,523.2,435.5,512.7z"/>
		<path fill="#C6080A" d="M510,512.7c-6.6-6.2-7-27.5-24-8.1c-5,5.8-10.9-1.2-12-8.5c10.9-10.9,21.3-21.7,23.7-38
			c11.2,5.8,16.3-12,27.5-7C522,472,516.6,492.6,510,512.7z"/>
		<path fill="#FB4243" d="M473.5,261.8c-7-6.6-13.6-13.6-20.6-20.2c5-1.2,8.9,1.2,13.2,3.1C471.2,249.4,475.9,254.1,473.5,261.8z"/>
	</g>
</g>
</svg>
