<?xml version="1.0" encoding="utf-8"?>
<!-- Generator: Adobe Illustrator 17.1.0, SVG Export Plug-In . SVG Version: 6.00 Build 0)  -->
<!DOCTYPE svg PUBLIC "-//W3C//DTD SVG 1.1//EN" "http://www.w3.org/Graphics/SVG/1.1/DTD/svg11.dtd">
<svg version="1.1" id="Layer_1" xmlns="http://www.w3.org/2000/svg" xmlns:xlink="http://www.w3.org/1999/xlink" x="0px" y="0px"
	 viewBox="168.6 192.6 307.5 408" enable-background="new 168.6 192.6 307.5 408" xml:space="preserve">
<g id="krb-logo">
	<path fill="#FFED00" d="M306.3,374.6c4.4-0.8,8.3-2.4,11.8-5c3.4-2.5,6.7-6.9,9.7-12.7
		l67.5-131.8c2.6-4.4,5.9-7.9,9.6-10.7c3.7-2.6,8.1-4,13-4h42.8l-84.1,155c-3.7,6.4-7.9,11.6-12.6,15.6c-4.8,4-10.1,7.1-15.9,9.1
		c9,2.4,16.6,6.2,22.7,11.6c6.1,5.3,11.9,12.7,17.2,22.3L469,587.6h-47.1c-9.5,0-17.1-5.2-22.9-15.5l-66.3-138.6
		c-3.4-6.2-7.2-10.6-11.2-13.2c-4-2.6-9.1-4.2-15.2-4.6V486h-37v-70.6H242v172.2h-52.3V210.4H242v164.8h27.2v-81.5h37V374.6z"/>
</g>
</svg>
