<?xml version="1.0" encoding="utf-8"?>
<!-- Generator: Adobe Illustrator 17.1.0, SVG Export Plug-In . SVG Version: 6.00 Build 0)  -->
<!DOCTYPE svg PUBLIC "-//W3C//DTD SVG 1.1//EN" "http://www.w3.org/Graphics/SVG/1.1/DTD/svg11.dtd">
<svg version="1.1" id="Layer_1" xmlns="http://www.w3.org/2000/svg" xmlns:xlink="http://www.w3.org/1999/xlink" x="0px" y="0px"
	 viewBox="3 93.4 606.9 606.8" enable-background="new 3 93.4 606.9 606.8" xml:space="preserve">
<g>
	<g>
		<path fill="#010101" d="M288.9,93.4h33.2c3.7,2,7.9,1.3,11.8,1.6c61.3,5.7,116.1,27.7,163.8,66.5
			c98.7,80.2,136.6,211.5,96.4,332.1c-47.7,143.6-196.8,230.2-345.4,200.9C116.1,668.3,17.4,558.6,5.1,423.7c-0.1-1.4,0.1-3-0.2-4.5
			c-0.8-3.6-0.7-7.9-1.4-11.7v-20.1c0-0.8-0.7-2.1-0.5-2.9c0.6-2.8,1.2-5.7,1.8-8.6c0.1-0.6-0.1-1.4-0.1-2
			c2.1-23.7,6.3-46.9,13.7-69.5C56.1,187.9,157.7,106.6,280,95C283,94.7,286.3,95.7,288.9,93.4z M212.6,444.6c6,2.8,12,5.7,18,8.5
			c43.3,20.4,87.1,39.3,133.3,52.3c18.6,5.2,37.4,9.3,56.9,9.2c6.4,0,11.1-4,17.1-6.2c-1-0.8-1.1-1-1.2-1
			c-54.7-10.7-108.1-25.9-159.3-47.9c-39.8-17.1-78.4-36.5-113.6-62.1c-30.7-22.4-58.5-48.2-86-74.3c-12.7-12-26.3-23.4-34-39.7
			c-0.3-0.7-0.8-1.6-1.7-1.1c-1.1,0.5-0.7,1.6-0.5,2.4c2.3,13.6,6.2,26.7,12.6,38.9c19,36.3,45.5,66.2,77.6,91.3
			c64.9,50.8,136.2,88.8,216.1,110.2c22.9,6.1,45.6,12.7,69.1,15.9c2,0.3,5,1.9,6.2-0.2c1.6-2.6,0.8-5.8-0.6-8.6
			c-1.5-3.1-4-5.3-7.2-6.5c-2.9-1.1-6-2-9.1-2.6c-45.1-8.1-88.6-21.4-130.1-40.8c-22.5-10.5-44.2-22.3-64.4-36.8
			C212.1,445.3,212.3,444.9,212.6,444.6z M415.1,257c0.2-2.9-0.5-7.9-1-12.9c-4.2-38.1-31.3-59.9-69.1-56.1
			c-15.4,1.6-30.8,3.3-46.3,1.3c-8.3-1-16.6-1.9-25-1.9c-9.4,0.1-15.9,4.7-19.5,13.2c-2.4,5.5-2.8,11.3-1.7,17.2
			c2.1,11.2,6.5,14.9,17.9,15.1c5.1,0.1,6.3,1.4,6.3,7.1v118.6c0,3.9-3.1,7.1-7,7.1c-9.4,0-14.2,3.7-16.7,12.9
			c-0.2,0.6-0.3,1.2-0.4,1.9c-1.2,6.1-0.6,12,1.7,17.7c3.5,8.5,10.5,13.4,20.1,13c20.2-0.8,40.3-2.9,60.6-0.1
			c17,2.3,24-11.5,24.3-22.6c0.5-15.9-5.9-24.4-22.7-21.2c-6.7,1.3-9-0.8-9.3-7.7c-0.3-7.4,0-14.9-0.3-22.3c-0.1-3,0.9-3.7,3.7-3.8
			c8.7-0.2,17.4-0.3,26-1c25.7-2.1,43.6-15,53-39.3C413.7,282.2,414.9,270.7,415.1,257z M355.4,477.8c6.1,0.9,11.9,1.6,17.6,2.6
			c3.9,0.7,7.2,0,10.7-2.1c22.4-13.6,45-27,67-41.2c13.3-8.6,26.5-17.3,38-28.2c15.2-14.3,29.4-29.6,43.2-45.2
			c15.6-17.6,28.3-36.8,34.7-59.6c2.5-9.1,5.1-18.1,5.7-27.6c-68,80.5-150.2,142.7-241.8,193c4.1,0.8,8.5,1.6,12.9,2.7
			c2,0.5,3.6,0.2,5.4-0.8c31.4-17,63.3-32.9,93-52.8c2-1.4,4-2.9,7.2-3.2c-0.6,1.1-0.8,1.9-1.3,2.4
			C420.5,442.9,386.7,457.8,355.4,477.8z M432.4,540.7c0.9,16-3.4,21.8-16.9,22.9c-2.9,0.2-5.7-0.4-8.4-1.1c-3.3-0.9-6.6-2-10-2.9
			c-1.1-0.3-3.4-0.8-2.7,1c1.1,3.1-0.9,4.1-2.5,5.8c-2.1,2.3-1.1,4.3,0.8,6.1c3.8,3.6,8.4,5.8,13.6,6.1c17.8,1,42.9-5.6,51-30.2
			c2.2-6.6,3.6-13.4,3.5-20.4c0-1.7-0.2-3.2,1.7-4.5c8.9-6,15.7-14,20.8-23.5c2.3-4.4,5.9-7.4,11.1-8c2.8-0.3,6.5,0.6,7.6-2.4
			c1.1-3.1-2.6-4.7-4.4-6.6c-6.9-7.4-17.3-7.2-24.2,0.2c-3.4,3.6-6.1,7.7-8.1,12.2c-5,10.5-13.5,17.3-23.4,22.6
			c-2.9,1.6-5.9,3-8.9,4.4c-1.8,0.8-2.7,1.5-2.1,3.9C432.1,530.9,432.3,535.8,432.4,540.7z M218.9,575c4.8-0.2,10.3-1.1,15.2-3.9
			c4.4-2.5,4.5-5.8,0.5-8.9c-2-1.5-4-2.3-6.6-1.6c-3.2,0.8-6.5,1.3-9.7,1.9c-3.1,0.6-6.3,0.9-9.3-0.6c-9.6-4.6-13.8-24.7-6.6-32.6
			c2.4-2.6,1.5-3.7-1-4.8c-2.8-1.2-5.6-2.1-7.4-4.7c-7.4-10.5-13.5-21.8-17.6-33.9c-1.7-5.1-4.4-7.5-9-9c-6.2-2-12.2-1.2-17.9,1.5
			c-2,0.9-4.5,1.7-4.7,4.2s2.2,3.8,4.1,4.7c7,3.1,9.5,8.8,11.3,15.8c3.3,12.8,6.7,25.7,11.2,38.1C178.6,561.7,198,575.2,218.9,575z
			 M290.8,517.3c-7.5-2.4-13.9-4.5-20.2-6.6c-1.5-0.5-2.8,0-4.2,0.4c-12.8,3.9-25.6,7.8-38.5,11.6c-4.3,1.3-7.5,3.9-10.1,7.4
			c-2,2.7-4.2,5.9-2.3,9.1c2,3.4,5.7,1.3,8.7,0.9c0.9-0.1,1.8-0.5,2.7-0.7c12.2-3.9,24.4-7.7,36.5-11.8
			C272.3,524.5,281,521,290.8,517.3z M501.6,519.1c-17.6,0.4-17.5,0.5-25.5,6c-3.9,2.7-5.7,6.1-5.9,10.7c-0.3,5.8-0.3,5.9,5.6,5
			c1.2-0.2,2.5-0.3,3.8-0.2c10.7,1,21.3,0.1,31.7-2.5c2-0.5,4.6-0.6,4.8-3c0.3-3.5,1.9-6.1,4.1-8.8c1.3-1.7,1.4-3.9,0.6-5.9
			c-0.9-2.3-3-1.2-4.5-1.2C511.3,519,506.4,519.1,501.6,519.1z M150.4,544.7c2.7,0,5.4,0.2,8-0.1c2.2-0.2,4.1-1.3,3.3-4
			c-1.6-5.1-3.4-10.1-5.1-15.2c-0.8-2.3-2.2-3.6-5-3c-8.7,2-17.5,3.7-26.3,5.6c-0.8,0.2-2.7-0.2-2,1.7c1.5,3.5-1.1,5.7-2.4,8.2
			c-3.7,7-2.4,9.3,5.5,9.3c2,0,4.1-0.3,6.1-0.7C138.4,545.5,144.4,545,150.4,544.7z M98.9,542.2c1.8,0.2,2.4,0.2,3.1,0.3
			c6.1,0.4,10.6-3.3,11.4-9.4c0.5-4-3.2-7.4-9.2-8.2c-2-0.3-4.2-0.2-6.1,0.2c-8.9,2.2-15.6,7.5-19.8,15.6c-3.6,6.9-1.5,14.3,4.8,17
			c9.2,4.1,18.2,2.8,26.6-2.4c1.6-1,3.4-2.6,2.1-4.6c-1.6-2.4-3.3-0.3-4.7,0.7c-1.3,0.9-2.4,2.1-3.7,2.9c-5.5,3.3-11.8,2.3-15.4-2.3
			c-3.2-4.2-2.3-7.5,2.8-8.8C93.7,542.6,96.9,542.5,98.9,542.2z M556.5,525c0.2-6.4-1.1-8.5-6.9-10.1c-4.9-1.3-9.8-2.3-14.7-3.3
			c-1.6-0.3-4-1.5-4.9,1.1c-0.9,2.5,1.4,3.2,2.9,4.1c3.3,2.1,4.8,4.3,1.4,7.8c-3.1,3.3-4.3,7.7-5,12c-1.3,7.7,4,12.1,11.4,9.6
			C549.5,543.4,556.2,534.3,556.5,525z M205,511c4.9,4.1,10.8,7,14.8,6.2c12.7-2.6,24.6-7.8,37.5-12.4c-3.1-1.6-5.3-2.8-7.6-3.8
			c-2-0.9-3.8-3-6-2.2C231.1,503.3,218.3,507.4,205,511z M521.7,558.1c1.5-0.3,3.5-0.8,5.3-1.9c2.6-1.6,2.9-2.9-0.1-4.5
			c-2.2-1.1-4.3-2.6-6.5-3.9c-2.9-1.7-5.1-0.8-5.8,2.5C513.6,554.5,516.7,558.2,521.7,558.1z"/>
		<path fill="#FDFDFD" d="M415.1,257c-0.2,13.8-1.4,25.2-5.6,36.1c-9.3,24.3-27.3,37.2-53,39.3c-8.7,0.7-17.4,0.9-26,1
			c-2.8,0.1-3.8,0.8-3.7,3.8c0.3,7.4,0,14.9,0.3,22.3c0.3,7,2.6,9,9.3,7.7c16.8-3.2,23.2,5.4,22.7,21.2
			c-0.4,11.1-7.4,24.9-24.3,22.6c-20.2-2.7-40.4-0.7-60.6,0.1c-9.5,0.4-16.6-4.5-20.1-13c-2.3-5.7-2.8-11.6-1.7-17.7
			c0.1-0.6,0.2-1.2,0.4-1.9c2.3-9.1,7.1-12.9,16.5-12.9c6.1,0,7.2-1.1,7.2-7.1c0-39.5,0-79,0-118.6c0-5.7-1.2-7-6.3-7.1
			c-11.4-0.2-15.8-3.9-17.9-15.1c-1.1-5.9-0.6-11.7,1.7-17.2c3.6-8.5,10.1-13.1,19.5-13.2c8.4,0,16.7,0.9,25,1.9
			c15.5,1.9,30.9,0.3,46.3-1.3c37.8-3.9,64.9,18,69.1,56.1C414.7,249.1,415.3,254.1,415.1,257z M326.9,265.7c0,6.6,0,11.6,0,16.7
			c0,10.8,0,10.8,11.1,10.2c12.8-0.7,21.3-7.5,23.8-19c1.1-5.1,1.4-10.3,0.9-15.5c-1.6-16.8-10.7-25.9-25.2-25.3
			c-6.4,0.3-8.8,2.2-9.9,8.5C326,249.9,327.3,258.6,326.9,265.7z"/>
		<path fill="#F7F7F7" d="M211.8,445.6c20.2,14.5,41.9,26.3,64.4,36.8c41.5,19.4,85,32.7,130.1,40.8c3.1,0.6,6.1,1.5,9.1,2.6
			c3.2,1.2,5.7,3.4,7.2,6.5c1.4,2.8,2.1,6.1,0.6,8.6c-1.2,2.1-4.1,0.5-6.2,0.2c-23.5-3.2-46.3-9.8-69.1-15.9
			C268,503.8,196.6,465.8,131.8,415c-32.1-25.2-58.6-55-77.6-91.3c-6.4-12.3-10.3-25.3-12.6-38.9c-0.1-0.9-0.6-1.9,0.5-2.4
			c1-0.4,1.4,0.4,1.7,1.1c7.7,16.3,21.3,27.7,34,39.7c27.5,26.1,55.3,51.9,86,74.3c35.2,25.6,73.7,45,113.6,62.1
			c51.3,22,104.6,37.1,159.3,47.8c0.1,0,0.2,0.2,1.2,1c-6,2.2-10.7,6.2-17.1,6.2c-19.5,0.1-38.3-4-56.9-9.2
			c-46.2-12.9-90.1-31.9-133.3-52.3c-6-2.8-12-5.7-18-8.5c-0.4-0.2-0.8-0.3-1.2-0.5c-0.9-0.9-1.7-1.1-2.7-0.1c0.7,0.3,1.3,0.6,2,0.9
			C211.1,445.2,211.5,445.4,211.8,445.6z"/>
		<path fill="#F7F7F7" d="M355.4,477.8c31.3-19.9,65-34.9,92.3-59.9c0.5-0.5,0.7-1.2,1.3-2.4c-3.2,0.3-5.2,1.8-7.2,3.2
			c-29.7,19.9-61.6,35.9-93,52.8c-1.7,0.9-3.3,1.3-5.4,0.8c-4.4-1.1-8.9-1.9-12.9-2.7c91.6-50.4,173.8-112.6,241.8-193
			c-0.7,9.5-3.2,18.5-5.7,27.6c-6.4,22.9-19.1,42.1-34.7,59.6c-13.8,15.6-28,30.9-43.2,45.2c-11.6,10.9-24.8,19.6-38,28.2
			c-22,14.2-44.5,27.6-67,41.2c-3.5,2.1-6.8,2.8-10.7,2.1C367.3,479.4,361.6,478.7,355.4,477.8z"/>
		<path fill="#F7F7F7" d="M432.4,540.7c-0.1-4.9-0.3-9.8-1.5-14.6c-0.6-2.3,0.3-3.1,2.1-3.9c3-1.4,6-2.8,8.9-4.4
			c9.9-5.4,18.4-12.1,23.4-22.6c2.1-4.4,4.8-8.5,8.1-12.2c6.8-7.4,17.3-7.6,24.2-0.2c1.8,1.9,5.5,3.5,4.4,6.6s-4.8,2.1-7.6,2.4
			c-5.2,0.5-8.7,3.6-11.1,8c-5.1,9.5-11.9,17.5-20.8,23.5c-1.9,1.3-1.7,2.8-1.7,4.5c0.1,7-1.3,13.8-3.5,20.4
			c-8.1,24.6-33.3,31.2-51,30.2c-5.2-0.3-9.8-2.5-13.6-6.1c-1.9-1.8-2.9-3.8-0.8-6.1c1.5-1.6,3.6-2.6,2.5-5.8
			c-0.6-1.8,1.6-1.3,2.7-1c3.3,0.9,6.6,2,10,2.9c2.7,0.8,5.5,1.3,8.4,1.1C429,562.5,433.3,556.7,432.4,540.7z"/>
		<path fill="#F7F7F7" d="M218.9,575c-20.9,0.1-40.3-13.3-47.7-33.8c-4.5-12.4-7.9-25.3-11.2-38.1c-1.8-7-4.4-12.7-11.3-15.8
			c-2-0.9-4.4-2.1-4.1-4.7c0.2-2.5,2.8-3.3,4.7-4.2c5.8-2.6,11.8-3.5,17.9-1.5c4.5,1.5,7.2,3.9,9,9c4.1,12.1,10.2,23.4,17.6,33.9
			c1.9,2.7,4.7,3.6,7.4,4.7c2.5,1,3.4,2.1,1,4.8c-7.2,7.9-3,27.9,6.6,32.6c3,1.5,6.2,1.1,9.3,0.6c3.3-0.6,6.5-1.1,9.7-1.9
			c2.6-0.6,4.7,0.1,6.6,1.6c4,3.1,3.9,6.4-0.5,8.9C229.2,574,223.7,574.9,218.9,575z"/>
		<path fill="#F7F7F7" d="M290.8,517.3c-9.8,3.7-18.5,7.2-27.4,10.2c-12.1,4.1-24.3,7.9-36.5,11.8c-0.9,0.3-1.8,0.6-2.7,0.7
			c-3,0.4-6.7,2.5-8.7-0.9c-1.9-3.2,0.3-6.4,2.3-9.1c2.6-3.5,5.8-6.1,10.1-7.4c12.9-3.8,25.7-7.7,38.5-11.6c1.4-0.4,2.7-0.9,4.2-0.4
			C277,512.8,283.3,514.9,290.8,517.3z"/>
		<path fill="#F7F7F7" d="M501.6,519.1c4.9,0,9.8-0.1,14.7,0c1.6,0,3.6-1.1,4.5,1.2c0.8,2,0.7,4.2-0.6,5.9c-2.1,2.6-3.7,5.3-4.1,8.8
			c-0.2,2.4-2.8,2.5-4.8,3c-10.4,2.7-21,3.6-31.7,2.5c-1.2-0.1-2.5,0-3.8,0.2c-5.9,0.9-5.9,0.9-5.6-5c0.2-4.6,2-8,5.9-10.7
			C484,519.6,484,519.5,501.6,519.1z"/>
		<path fill="#F7F7F7" d="M150.4,544.7c-6,0.3-11.9,0.7-17.8,1.9c-2,0.4-4.1,0.7-6.1,0.7c-7.9,0-9.2-2.3-5.5-9.3
			c1.3-2.5,3.9-4.7,2.4-8.2c-0.8-1.8,1.2-1.5,2-1.7c8.8-1.9,17.6-3.7,26.3-5.6c2.8-0.6,4.2,0.6,5,3c1.7,5,3.5,10.1,5.1,15.2
			c0.8,2.7-1.1,3.8-3.3,4C155.7,544.9,153,544.7,150.4,544.7z"/>
		<path fill="#F7F7F7" d="M98.9,542.2c-2,0.2-5.2,0.3-8.2,1c-5.1,1.2-6.1,4.6-2.8,8.8c3.5,4.6,9.9,5.6,15.4,2.3
			c1.3-0.8,2.4-2,3.7-2.9c1.5-1,3.1-3.1,4.7-0.7c1.3,2-0.4,3.6-2.1,4.6c-8.5,5.2-17.4,6.5-26.6,2.4c-6.3-2.8-8.4-10.2-4.8-17
			c4.2-8.1,10.9-13.4,19.8-15.6c1.9-0.5,4.1-0.5,6.1-0.2c6,0.7,9.8,4.2,9.2,8.2c-0.8,6.1-5.3,9.9-11.4,9.4
			C101.3,542.5,100.7,542.4,98.9,542.2z"/>
		<path fill="#F7F7F7" d="M556.5,525c-0.3,9.3-7,18.4-15.8,21.4c-7.4,2.5-12.7-1.9-11.4-9.6c0.8-4.4,1.9-8.8,5-12
			c3.4-3.5,1.9-5.7-1.4-7.8c-1.6-1-3.8-1.7-2.9-4.1c0.9-2.6,3.2-1.5,4.9-1.1c4.9,0.9,9.9,2,14.7,3.3
			C555.4,516.5,556.7,518.6,556.5,525z"/>
		<path fill="#F7F7F7" d="M205,511c13.2-3.6,26.1-7.6,38.7-12.2c2.2-0.8,4,1.3,6,2.2c2.3,1,4.5,2.2,7.6,3.8
			c-12.9,4.6-24.8,9.8-37.5,12.4C215.9,518,209.9,515.1,205,511z"/>
		<path fill="#F7F7F7" d="M521.7,558.1c-5,0.1-8.1-3.6-7.1-7.8c0.8-3.3,2.9-4.2,5.8-2.5c2.2,1.3,4.2,2.8,6.5,3.9
			c3,1.6,2.7,2.9,0.1,4.5C525.1,557.3,523.2,557.8,521.7,558.1z"/>
		<path fill="#010101" d="M326.9,265.7c0.5-7.1-0.9-15.8,0.7-24.4c1.2-6.3,3.6-8.2,9.9-8.5c14.4-0.6,23.6,8.5,25.2,25.3
			c0.5,5.2,0.2,10.4-0.9,15.5c-2.5,11.5-11,18.3-23.8,19c-11.1,0.6-11.1,0.6-11.1-10.2C326.9,277.3,326.9,272.2,326.9,265.7z"/>
		<path fill="#010101" d="M210.7,444.9c-0.7-0.3-1.3-0.6-2-0.9c1-1,1.9-0.8,2.7,0.1C211.1,444.4,210.9,444.7,210.7,444.9z"/>
		<path fill="#010101" d="M211.4,444.1c0.4,0.2,0.8,0.3,1.2,0.5c-0.2,0.3-0.5,0.7-0.7,1c-0.4-0.2-0.8-0.4-1.2-0.6
			C210.9,444.7,211.1,444.4,211.4,444.1z"/>
	</g>
</g>
</svg>
