<svg xmlns="http://www.w3.org/2000/svg" xmlns:xlink="http://www.w3.org/1999/xlink" version="1.1" width="504" height="182" enable-background="new 0 0 522 198" xml:space="preserve" style=""><rect id="backgroundrect" width="100%" height="100%" x="0" y="0" fill="none" stroke="none"/>

<g class="currentLayer" style=""><title>Layer 1</title><g id="svg_1" class="">
	<g id="svg_2">
		<path fill="#262324" d="M279.842,128.28400064086915 c1.795,3.332 0,5.126 -3.075,5.126 h-9.358 c-3.331,0 -4.102,-1.411 -5.8950000000000005,-4.615 l-15.38,-27.685 h-14.098 v27.174 c0,3.204 -1.6660000000000001,5.126 -4.872,5.126 h-7.433 c-3.204,0 -4.999,-1.9220000000000002 -4.999,-5.126 V55.09900064086914 c0,-3.206 1.924,-4.999 5.126,-4.999 h29.608 c20.635,0 31.53,9.868 31.53,25.89 c0,11.663 -6.665,19.61 -17.432,23.072 L279.842,128.28400064086915 zM232.036,88.80600064086914 h18.2 c7.948,0 13.072,-4.742 13.072,-12.047 c0,-7.4350000000000005 -5.125,-12.305 -13.072,-12.305 h-18.2 V88.80600064086914 z" id="svg_3"/>
		<path fill="#262324" d="M322.264,122.13100064086913 c4.999,0 10.639,-1.411 16.278,-5.769 c2.306,-1.7930000000000001 4.102,-2.179 6.15,0 l3.079,3.076 c2.436,2.435 1.409,4.358 0,5.896 c-6.537,6.663 -17.947,9.74 -27.044,9.74 c-19.228,0 -34.862,-13.202 -34.862,-33.708 c0,-19.354 14.226,-33.71 33.578,-33.71 c9.744,0 17.947,3.461 23.458,8.972 c6.022,5.896 9.354,14.357 9.354,23.327 c0,3.589 -1.409,5.255 -5.256,5.255 h-44.345 C303.68,116.10700064086915 312.395,122.13100064086913 322.264,122.13100064086913 zM302.782,94.70200064086914 h32.809 c-0.6400000000000001,-3.973 -2.174,-7.305 -4.613,-9.74 c-2.821,-3.076 -6.923,-4.742 -11.79,-4.742 C310.345,80.22000064086915 304.062,85.85900064086914 302.782,94.70200064086914 z" id="svg_4"/>
		<path fill="#262324" d="M427.872,46.76700064086914 v81.645 c0,3.076 -1.795,4.998 -4.87,4.998 h-5.128 c-3.075,0 -4.742,-1.9220000000000002 -4.742,-4.998 v-2.692 c-5.128,5.640000000000001 -12.433,9.356 -21.405,9.356 c-18.841,0 -32.298,-14.867 -32.298,-33.708 c0,-18.97 13.457,-33.71 32.298,-33.71 c7.306,0 13.842,2.435 19.099,6.281 V48.30500064086914 c0,-2.947 1.6670000000000003,-4.23 4.742,-4.999 l7.177,-1.282 C426.206,41.38300064086914 427.872,43.434000640869144 427.872,46.76700064086914 zM411.852,101.36800064086914 c0,-12.176 -7.949,-18.97 -17.687,-18.97 c-10.767,0 -17.818,8.46 -17.818,18.97 s7.051,18.841 17.818,18.841 C403.902,120.20800064086913 411.852,113.41500064086914 411.852,101.36800064086914 z" id="svg_5"/>
		<path fill="#262324" d="M504,46.76700064086914 v81.645 c0,3.076 -1.792,4.998 -4.871,4.998 h-5.125 c-3.079,0 -4.745,-1.9220000000000002 -4.745,-4.998 v-2.692 c-5.125,5.640000000000001 -12.434,9.356 -21.402,9.356 c-18.841,0 -32.301,-14.867 -32.301,-33.708 c0,-18.97 13.459,-33.71 32.301,-33.71 c7.306,0 13.842,2.435 19.096,6.281 V48.30500064086914 c0,-2.947 1.6670000000000003,-4.23 4.742,-4.999 l7.18,-1.282 C502.337,41.38300064086914 504,43.434000640869144 504,46.76700064086914 zM487.98,101.36800064086914 c0,-12.176 -7.946,-18.97 -17.687,-18.97 c-10.767,0 -17.818,8.46 -17.818,18.97 s7.052,18.841 17.818,18.841 C480.034,120.20800064086913 487.98,113.41500064086914 487.98,101.36800064086914 z" id="svg_6"/>
	</g>
	<path fill="#00AEEF" d="M101.643,0.6590006408691416 c-3.54,-0.41900000000000004 -7.135,-0.6590000000000001 -10.79,-0.6590000000000001 c-33.004,0 -61.893,17.6 -77.806,43.927 L42.51,80.21300064086914 l72.812,-30.046 L101.643,0.6590006408691416 z" id="svg_7"/>
	<polygon fill="#E31B23" points="115.32099914550781,50.16699981689453 42.5099983215332,80.2130012512207 86.80400085449219,134.7650032043457 129.93899536132812,103.08199691772461 " id="svg_8"/>
	<path fill="#008FC5" d="M13.047999999999998,43.92600064086914 C4.769,57.62400064086914 0,73.68000064086914 0,90.85300064086914 c0,2.285 0.11300000000000002,4.541 0.278,6.784 L42.51,80.21300064086914 L13.047999999999998,43.92600064086914 z" id="svg_9"/>
	<path fill="#FDBB30" d="M178.614,67.32800064086913 c-9.466,-35.402 -39.771,-62.265 -76.971,-66.669 l28.296,102.424 L178.614,67.32800064086913 z" id="svg_10"/>
	<path fill="#54B948" d="M42.51,80.21300064086914 L0.27800000000000047,97.63700064086915 c2.176,29.421 18.348,54.931 41.897,69.912 l44.628,-32.784 L42.51,80.21300064086914 z" id="svg_11"/>
	<path fill="#8DC63F" d="M42.175,167.54900064086914 c14.072,8.952 30.765,14.157 48.678,14.157 c10.497,0 20.566,-1.798 29.943,-5.074 l-33.993,-41.867 L42.175,167.54900064086914 z" id="svg_12"/>
	<path fill="#F04D3C" d="M129.849,103.14800064086914 l-43.045,31.617 l33.993,41.867 c9.295,-3.244 17.894,-7.954 25.534,-13.855 L129.849,103.14800064086914 z" id="svg_13"/>
	<path fill="#FFD200" d="M129.848,103.14000064086915 l16.488,59.654 c21.54,-16.695 35.373,-42.696 35.373,-71.941 c0,-8.141 -1.086,-16.022 -3.095,-23.525 L129.848,103.14000064086915 z" id="svg_14"/>
</g></g></svg>