<?xml version="1.0" encoding="utf-8"?>
<!-- Generator: Adobe Illustrator 17.1.0, SVG Export Plug-In . SVG Version: 6.00 Build 0)  -->
<!DOCTYPE svg PUBLIC "-//W3C//DTD SVG 1.1//EN" "http://www.w3.org/Graphics/SVG/1.1/DTD/svg11.dtd">
<svg version="1.1" id="Layer_1" xmlns="http://www.w3.org/2000/svg" xmlns:xlink="http://www.w3.org/1999/xlink" x="0px" y="0px"
	 viewBox="0 0 250 250" enable-background="new 0 0 250 250" xml:space="preserve">
<g>
	<g>

		<path fill="#1A75CE" d="M214.6,95.7c0,14.8,0,29.7,0,44.5c-0.1,37.5-22.4,64.4-59.2,70.4c-21.6,3.5-43.2,3.1-63.8-6
			c-16.7-7.4-27.8-20.1-34.5-37c-3.5-9-5.6-18.1-5.1-27.7c0.2-2.6-0.7-3.7-3.3-3.5c-0.2,0-0.3,0-0.5,0c-4.1-0.5-9.6,1.9-11.8-1.2
			c-2-2.8-0.8-8-0.8-12.2c0-4.1-1.7-9.3,0.8-12.2c2.6-3,7.9-1.2,11.9-1c5.4,0.2,4.2-3.3,4.3-6.3c0.1-3.1,0.4-6.2-4.4-5.6
			c-2.3,0.3-4.7-0.3-7,0.1c-4.5,0.8-6-0.7-5.7-5.3c0.4-5.8,0.2-11.7,0.1-17.5c-0.1-3,1-4.2,4.1-4.1c3,0.2,6-0.1,9,0.1
			c3.1,0.2,4.1-1,4-4c-0.1-7.8,0.1-15.7-0.1-23.5c-0.1-3.4,1-4.7,4.5-4.6c9.8,0.2,19.7,0.2,29.5,0c3.6-0.1,4.6,1.3,4.5,4.7
			c-0.2,7.7,0.1,15.3-0.1,23c-0.1,3.5,1,4.6,4.5,4.5c17.7-0.2,35.3,0.1,53-0.2c4.3-0.1,6,1.1,5.7,5.6c-0.4,5.5-0.3,11,0,16.5
			c0.2,3.8-1.2,4.8-4.9,4.8c-17.8-0.2-35.7-0.1-53.5,0c-1.6,0-4.2-1.1-4.5,1.6c-0.3,3.2-1,6.6,0.5,9.7c0.2,0.5,1.8,0.4,2.8,0.4
			c18.2,0,36.3,0,54.5-0.2c3.9-0.1,5.3,1.1,5.1,5.1c-0.3,5.5-0.3,11,0,16.5c0.2,3.9-1,5.2-5,5.2c-17.8-0.2-35.7-0.1-53.5-0.1
			c-5.9,0-6.6,0.9-4.9,6.7c6.6,23.1,24.3,33.9,49.7,30.5c7.5-1,14.7-2.7,21.1-6.9c9.2-5.9,14.2-14.4,14.7-25.3
			c0.3-6.9,0.1-13.8,0.1-20.6c0-25.6,0.1-51.1-0.1-76.7c0-3.9,1.1-5.1,5-5c9.5,0.3,19,0.2,28.5,0c3.9-0.1,5.2,1.1,5.2,5.1
			C214.5,61.4,214.6,78.5,214.6,95.7C214.6,95.7,214.6,95.7,214.6,95.7z M212,97.6c0-16.2,0-32.3,0-48.5c0-6.9-0.5-7.3-7.5-7.3
			c-6,0-12,0-18,0c-8.3,0-8.5,0.2-8.5,8.3c0,30.7-0.3,61.3,0.1,92c0.2,15.3-12.1,28.1-24.1,31.4c-9.6,2.6-19.4,3-29.2,2.2
			c-6.1-0.5-12.4-1.5-17.8-4.4c-11-6-17.5-15.5-18.9-28.2c-0.9-7.8,0.3-9.2,8-9.2c16.3,0,32.7-0.1,49,0c4.2,0,6.2-1.6,6-5.9
			c-0.2-3.2,0-6.3,0-9.5c-0.1-5.9-0.7-6.6-6.7-6.6c-16.3-0.1-32.7,0-49,0c-6,0-6.6-0.7-6.6-7.8c0-7.6,0.4-8.2,6.5-8.3
			c14-0.1,28,0,42,0c15.5-0.1,13.6,1.6,13.7-14.1c0-7.6-0.3-8-7.8-8c-16.2,0-32.3,0-48.5,0c-6.1,0-6.6-0.6-6.7-6.5
			c-0.1-6.5-0.1-13,0-19.5c0.1-4.2-1.5-6.1-5.8-6C75.2,42,68,42,60.8,41.8c-4.3-0.1-6,1.7-5.9,6c0.1,7,0,14,0,21
			c0,3.6-1.6,5-5.1,5.1C38,74.5,38,74.6,38,86.4c0,0.7,0,1.3,0,2c0,7.3,0.3,7.5,7.7,7.6c9.4,0.1,9.4,0.1,9.3,9.5
			c0,0.8,0,1.7-0.1,2.5c-0.1,2.6-1.5,3.9-4.1,4c-1.7,0-3.3,0.1-5,0.1c-7.4,0.1-7.7,0.4-7.7,7.6c0,0.8,0,1.7,0,2.5
			c0,12.6-1,12.1,11.3,11.9c4.1-0.1,5.8,1.7,5.6,5.7c-0.5,8.1,1.2,15.9,3.8,23.5c6.6,19.4,19,33.3,38.3,40.7
			c14.7,5.6,30.2,6.8,45.7,6.1c14.1-0.7,27.6-4.3,39.1-12.1c19.1-12.9,29.2-31.6,30-54.7C212.5,128,212,112.8,212,97.6z"/>
		<path fill="#0794E5" d="M212,97.6c0,15.2,0.4,30.3-0.1,45.5c-0.8,23.1-11,41.8-30,54.7c-11.5,7.8-25.1,11.4-39.1,12.1
			c-15.6,0.7-31-0.5-45.7-6.1c-19.3-7.3-31.7-21.3-38.3-40.7c-2.6-7.6-4.3-15.4-3.8-23.5c0.2-4-1.5-5.8-5.6-5.7
			C37,134.2,38,134.7,38,122.1c0-0.8,0-1.7,0-2.5c0-7.2,0.3-7.5,7.7-7.6c1.7,0,3.3,0,5-0.1c2.6-0.1,4-1.4,4.1-4
			c0-0.8,0.1-1.7,0.1-2.5c0.2-9.4,0.1-9.4-9.3-9.5c-7.4-0.1-7.6-0.3-7.7-7.6c0-0.7,0-1.3,0-2c0-11.8,0-11.9,11.8-12.5
			c3.5-0.2,5.2-1.5,5.1-5.1c-0.1-7,0.1-14,0-21c-0.1-4.2,1.6-6.1,5.9-6c7.2,0.2,14.3,0.2,21.5,0c4.4-0.1,5.9,1.9,5.8,6
			c-0.2,6.5-0.1,13,0,19.5c0.1,6,0.6,6.5,6.7,6.5c16.2,0,32.3,0,48.5,0c7.5,0,7.9,0.4,7.8,8c-0.1,15.7,1.8,14-13.7,14.1
			c-14,0.1-28,0-42,0c-6.1,0-6.6,0.7-6.5,8.3c0,7,0.5,7.7,6.6,7.8c16.3,0.1,32.7,0,49,0c6,0,6.6,0.7,6.7,6.6c0,3.2-0.1,6.3,0,9.5
			c0.2,4.3-1.7,5.9-6,5.9c-16.3-0.1-32.7-0.1-49,0c-7.8,0-8.9,1.4-8,9.2c1.4,12.7,7.9,22.2,18.9,28.2c5.4,2.9,11.7,3.9,17.8,4.4
			c9.8,0.8,19.6,0.4,29.2-2.2c11.9-3.3,24.2-16.1,24.1-31.4c-0.4-30.7-0.1-61.3-0.1-92c0-8.2,0.2-8.3,8.5-8.3c6,0,12,0,18,0
			c7,0,7.5,0.4,7.5,7.3C212.1,65.3,212,81.5,212,97.6z"/>
	</g>
</g>
</svg>
