<?xml version="1.0" encoding="utf-8"?>
<!-- Generator: Adobe Illustrator 17.1.0, SVG Export Plug-In . SVG Version: 6.00 Build 0)  -->
<!DOCTYPE svg PUBLIC "-//W3C//DTD SVG 1.1//EN" "http://www.w3.org/Graphics/SVG/1.1/DTD/svg11.dtd">
<svg version="1.1" id="Layer_1" xmlns="http://www.w3.org/2000/svg" xmlns:xlink="http://www.w3.org/1999/xlink" x="0px" y="0px"
	 viewBox="0 0 2118 1145.4" enable-background="new 0 0 2118 1145.4" xml:space="preserve">
<g>
	<defs>
		<rect id="SVGID_1_" y="0" width="2118" height="1145.4"/>
	</defs>
	<clipPath id="SVGID_2_">
		<use xlink:href="#SVGID_1_"  overflow="visible"/>
	</clipPath>
	<path clip-path="url(#SVGID_2_)" fill="#EFF1FD" d="M0,867.4c220.1-22,392-207.8,392-433.7S220.1,22,0,0V867.4z"/>
	<path clip-path="url(#SVGID_2_)" fill="#FFFFFF" d="M17.7,2.1c-2.7-0.4-5.3-0.7-8-1.1L0,49.2v41L17.7,2.1z"/>
	<path clip-path="url(#SVGID_2_)" fill="#FFFFFF" d="M48.7,7.7c-2.6-0.6-5.3-1.1-7.9-1.6L0,209.2v41L48.7,7.7z"/>
	<path clip-path="url(#SVGID_2_)" fill="#FFFFFF" d="M79.3,15.5c-2.6-0.8-5.2-1.5-7.8-2.2L0,369.2v41L79.3,15.5z"/>
	<path clip-path="url(#SVGID_2_)" fill="#FFFFFF" d="M109.4,25.5c-2.5-1-5.1-1.9-7.7-2.8L0,529.2v41L109.4,25.5z"/>
	<path clip-path="url(#SVGID_2_)" fill="#FFFFFF" d="M139,38c-2.5-1.2-5-2.3-7.5-3.4L0,689.2v41L139,38z"/>
	<path clip-path="url(#SVGID_2_)" fill="#FFFFFF" d="M160.8,48.8L0,849.2v18.2c1.6-0.2,3.1-0.3,4.7-0.5L168.2,52.8
		C165.7,51.4,163.2,50.1,160.8,48.8"/>
	<path clip-path="url(#SVGID_2_)" fill="#FFFFFF" d="M196.8,70.3c-2.4-1.6-4.8-3.2-7.3-4.7l-160.3,798c2.9-0.5,5.7-1,8.5-1.5
		L196.8,70.3z"/>
	<path clip-path="url(#SVGID_2_)" fill="#FFFFFF" d="M224.9,90.5c-2.4-1.8-4.7-3.7-7.1-5.5L62.8,856.4c2.9-0.7,5.8-1.5,8.7-2.3
		L224.9,90.5z"/>
	<path clip-path="url(#SVGID_2_)" fill="#FFFFFF" d="M252.3,114c-2.3-2.1-4.6-4.2-7-6.3L97,846.3c3-1,5.9-2.1,8.9-3.1L252.3,114z"/>
	<path clip-path="url(#SVGID_2_)" fill="#FFFFFF" d="M279,140.9c-2.2-2.5-4.5-4.9-6.8-7.3L131.8,832.7c3-1.3,6.1-2.7,9.1-4.1
		L279,140.9z"/>
	<path clip-path="url(#SVGID_2_)" fill="#FFFFFF" d="M304.9,172.2c-2.1-2.9-4.3-5.7-6.5-8.5L167.6,815c3.1-1.7,6.2-3.5,9.3-5.3
		L304.9,172.2z"/>
	<path clip-path="url(#SVGID_2_)" fill="#FFFFFF" d="M329.6,209c-2-3.4-4.1-6.7-6.2-10L204.3,792.1c3.2-2.2,6.4-4.5,9.6-6.9
		L329.6,209z"/>
	<path clip-path="url(#SVGID_2_)" fill="#FFFFFF" d="M352.9,253.1c-1.9-4.1-3.8-8.2-5.8-12.2L242.4,762.4c3.4-3,6.7-6,10-9
		L352.9,253.1z"/>
	<path clip-path="url(#SVGID_2_)" fill="#FFFFFF" d="M373.8,308.9c-1.6-5.3-3.3-10.6-5-15.8l-86.3,429.5c3.7-4.1,7.3-8.4,10.8-12.6
		L373.8,308.9z"/>
	<path clip-path="url(#SVGID_2_)" fill="#FFFFFF" d="M389.8,389.6c-0.8-8.4-1.9-16.7-3.2-24.9l-60,298.9c4.4-7,8.6-14.2,12.6-21.5
		L389.8,389.6z"/>
</g>
<g>
	<defs>
		<path id="SVGID_3_" d="M49.3,1078.2c-16.5,25.8-24.6,48.2-27.9,67.2l284.8-0.3c48.6-32.2,98.5-78.1,144.6-143.1
			c-24.4-10.9-66.5-21.1-119.5-21.1C253.1,981,151.6,1003.2,49.3,1078.2"/>
	</defs>
	<clipPath id="SVGID_4_">
		<use xlink:href="#SVGID_3_"  overflow="visible"/>
	</clipPath>
	
		<linearGradient id="SVGID_5_" gradientUnits="userSpaceOnUse" x1="0" y1="1145.4104" x2="1" y2="1145.4104" gradientTransform="matrix(-446.1347 123.7566 -123.7566 -446.1347 142203.1719 512010.875)">
		<stop  offset="0" style="stop-color:#FF636E"/>
		<stop  offset="1" style="stop-color:#F98D6C"/>
	</linearGradient>
	<polygon clip-path="url(#SVGID_4_)" fill="url(#SVGID_5_)" points="420,870.4 -21,992.7 52,1256 493,1133.6 	"/>
</g>
<g>
	<defs>
		<rect id="SVGID_6_" y="0" width="2118" height="1145.4"/>
	</defs>
	<clipPath id="SVGID_7_">
		<use xlink:href="#SVGID_6_"  overflow="visible"/>
	</clipPath>
	<path clip-path="url(#SVGID_7_)" fill="#FFFFFF" d="M422.5,1011.7c-9.4,2.9-18.7,5.8-28.1,8.7c8,7.9,17,14.7,26.6,20.4
		c-0.8,1-1.6,1.9-2.4,2.9c-10.2-6.1-19.7-13.4-28.2-22c-12.1,3.7-24.2,7.5-36.3,11.2c-0.4,0.4-0.9,0.5-1.5,0.5
		c-10.3,3.2-20.6,6.4-30.8,9.5c-1.1,0.3-2.2,0.7-3.4,1.1c9.3,15.9,24.7,26.6,40.8,34.8c6.1,3.1,12.3,6,18.6,8.6
		c-1.1,1-2.2,2.1-3.3,3.1c-23.9-9.8-47.2-23.5-59.8-45.4c-20.7,6.5-41.2,13.4-61.5,20.7c20.3,28.6,53.3,43.6,85.7,55.5
		c-1.2,0.9-2.3,1.8-3.5,2.7c-32.6-12.2-65.7-27.6-85.9-56.9c-8.9,3.2-17.7,6.6-26.5,10c-0.1,0.1-0.1,0.1-0.2,0.2
		c-0.5,0.6-1.3,0.8-1.9,0.6c-5.4,2.1-10.8,4.3-16.1,6.5c21.6,23.6,46.5,44,73.5,60.7l-7,0c-25.8-16.5-49.4-36.4-70.2-59.1
		c-14.5,6-28.9,12.3-43.1,19c-3.4,1.6-6.7,3.2-10,4.8c6.6,13.4,15.6,25.1,26.1,35.4l-5.2,0c-9.7-9.9-18-21-24.3-33.7
		c-14.4,7-28.7,14.4-42.8,22.1c1.5,4,3.1,7.9,4.9,11.7l-4.2,0c-1.5-3.2-2.8-6.5-4.1-9.9c-5.9,3.3-11.9,6.6-17.7,9.9l-7.6,0
		c4.9-2.8,9.8-5.6,14.8-8.4c21.8-12.2,43.9-23.6,66.4-34.3c21.5-38.9,46.6-75.5,75.1-109.5c2-0.5,4-1,6-1.4
		c-28.4,33.5-53.7,69.8-75.2,108.1c12.9-6,26-11.8,39.2-17.4c0.4-0.9,1.5-1.4,2.5-1.1c6.4-2.7,12.8-5.3,19.2-7.8
		c27.2-32.2,56.1-62.9,86.5-92c1.9-0.1,3.9-0.2,5.8-0.3c-29.8,28.3-58.2,58.1-84.9,89.4c5.4-2.1,10.8-4.2,16.2-6.2
		c34.9-12.9,70.4-24.1,106.1-35c1.1-17.9,8.5-33.2,18.9-46.7c1.5,0.1,2.9,0.3,4.4,0.5c-10.3,13-17.9,27.8-19.4,45
		c22.1-6.7,44.2-13.3,66.3-20.1C423.3,1007.5,424.8,1011,422.5,1011.7"/>
</g>
<g>
	<defs>
		<path id="SVGID_8_" d="M0.4,760.3L0.7,1128c23.6,10.7,41.4,7.3,41.4,7.3c5-7.4,144-182.1,26.2-449.7
			C49.6,698.8,24.2,724,0.4,760.3"/>
	</defs>
	<clipPath id="SVGID_9_">
		<use xlink:href="#SVGID_8_"  overflow="visible"/>
	</clipPath>
	
		<linearGradient id="SVGID_10_" gradientUnits="userSpaceOnUse" x1="0" y1="1145.4843" x2="1" y2="1145.4843" gradientTransform="matrix(94.2687 -441.7464 441.7464 94.2687 -505966.9063 -106852.4766)">
		<stop  offset="0" style="stop-color:#FF636E"/>
		<stop  offset="1" style="stop-color:#F98D6C"/>
	</linearGradient>
	<polygon clip-path="url(#SVGID_9_)" fill="url(#SVGID_10_)" points="178,1176.6 278.6,705.4 8.5,647.7 -92.1,1119 	"/>
</g>
<g>
	<defs>
		<rect id="SVGID_11_" y="0" width="2118" height="1145.4"/>
	</defs>
	<clipPath id="SVGID_12_">
		<use xlink:href="#SVGID_11_"  overflow="visible"/>
	</clipPath>
	<path clip-path="url(#SVGID_12_)" fill="#6883DE" d="M77.4,1145.3l-76.6,0.1l-0.2-170C105,862.7,228,834.1,282.7,836
		C242,1006.9,149.7,1098.1,77.4,1145.3"/>
</g>
<g>
	<defs>
		<path id="SVGID_13_" d="M627.5,1020.6c0-5.3,4.3-9.6,9.6-9.6c5.3,0,9.6,4.3,9.6,9.6s-4.3,9.6-9.6,9.6
			C631.8,1030.2,627.5,1025.9,627.5,1020.6 M619.8,1020.6c0,9.6,7.8,17.3,17.3,17.3s17.3-7.8,17.3-17.3c0-9.6-7.8-17.3-17.3-17.3
			S619.8,1011,619.8,1020.6"/>
	</defs>
	<clipPath id="SVGID_14_">
		<use xlink:href="#SVGID_13_"  overflow="visible"/>
	</clipPath>
	
		<linearGradient id="SVGID_15_" gradientUnits="userSpaceOnUse" x1="0" y1="1145.38" x2="1" y2="1145.38" gradientTransform="matrix(0 24.0645 24.0645 0 -26925.875 1006.4841)">
		<stop  offset="0" style="stop-color:#FF636E"/>
		<stop  offset="1" style="stop-color:#F98D6C"/>
	</linearGradient>
	<rect x="619.8" y="1003.2" clip-path="url(#SVGID_14_)" fill="url(#SVGID_15_)" width="34.7" height="34.7"/>
</g>
<g>
	<defs>
		<path id="SVGID_16_" d="M1509.2,61.1c0-5.3,4.3-9.6,9.6-9.6c5.3,0,9.6,4.3,9.6,9.6c0,5.3-4.3,9.6-9.6,9.6
			C1513.5,70.7,1509.2,66.4,1509.2,61.1 M1501.4,61.1c0,9.6,7.8,17.3,17.3,17.3s17.3-7.8,17.3-17.3s-7.8-17.3-17.3-17.3
			S1501.4,51.5,1501.4,61.1"/>
	</defs>
	<clipPath id="SVGID_17_">
		<use xlink:href="#SVGID_16_"  overflow="visible"/>
	</clipPath>
	
		<linearGradient id="SVGID_18_" gradientUnits="userSpaceOnUse" x1="0" y1="1145.38" x2="1" y2="1145.38" gradientTransform="matrix(0 24.0645 24.0645 0 -26044.2266 46.9927)">
		<stop  offset="0" style="stop-color:#FF636E"/>
		<stop  offset="1" style="stop-color:#F98D6C"/>
	</linearGradient>
	<rect x="1501.4" y="43.8" clip-path="url(#SVGID_17_)" fill="url(#SVGID_18_)" width="34.7" height="34.7"/>
</g>
<g>
	<defs>
		<path id="SVGID_19_" d="M2091,1047.5c0-5.3,4.3-9.6,9.6-9.6c5.3,0,9.6,4.3,9.6,9.6c0,5.3-4.3,9.6-9.6,9.6
			C2095.3,1057.1,2091,1052.8,2091,1047.5 M2083.3,1047.5c0,9.6,7.8,17.3,17.3,17.3c9.6,0,17.3-7.8,17.3-17.3
			c0-9.6-7.8-17.3-17.3-17.3C2091.1,1030.2,2083.3,1038,2083.3,1047.5"/>
	</defs>
	<clipPath id="SVGID_20_">
		<use xlink:href="#SVGID_19_"  overflow="visible"/>
	</clipPath>
	
		<linearGradient id="SVGID_21_" gradientUnits="userSpaceOnUse" x1="0" y1="1145.38" x2="1" y2="1145.38" gradientTransform="matrix(0 24.0645 24.0645 0 -25462.3535 1033.4159)">
		<stop  offset="0" style="stop-color:#FF636E"/>
		<stop  offset="1" style="stop-color:#F98D6C"/>
	</linearGradient>
	<rect x="2083.3" y="1030.2" clip-path="url(#SVGID_20_)" fill="url(#SVGID_21_)" width="34.7" height="34.7"/>
</g>
<g>
	<defs>
		<rect id="SVGID_22_" y="0" width="2118" height="1145.4"/>
	</defs>
	<clipPath id="SVGID_23_">
		<use xlink:href="#SVGID_22_"  overflow="visible"/>
	</clipPath>
	<path clip-path="url(#SVGID_23_)" fill="#6883DE" d="M1401.9,190.7l0-29.3c0-1.2-1-2.2-2.2-2.2s-2.2,1-2.2,2.2l0,29.3
		c0,1.2,1,2.2,2.2,2.2C1400.9,193,1401.9,192,1401.9,190.7"/>
	<path clip-path="url(#SVGID_23_)" fill="#6883DE" d="M1414.3,173.8H1385c-1.2,0-2.2,1-2.2,2.2c0,1.2,1,2.2,2.2,2.2h29.3
		c1.2,0,2.2-1,2.2-2.2C1416.5,174.8,1415.5,173.8,1414.3,173.8"/>
	<path clip-path="url(#SVGID_23_)" fill="#6883DE" d="M899.8,130.6v-22.9c0-1-0.8-1.8-1.8-1.8c-1,0-1.8,0.8-1.8,1.8v22.9
		c0,1,0.8,1.8,1.8,1.8C899.1,132.4,899.8,131.6,899.8,130.6"/>
	<path clip-path="url(#SVGID_23_)" fill="#6883DE" d="M909.5,117.4h-22.9c-1,0-1.8,0.8-1.8,1.8c0,1,0.8,1.8,1.8,1.8h22.9
		c1,0,1.8-0.8,1.8-1.8C911.3,118.2,910.5,117.4,909.5,117.4"/>
	<path clip-path="url(#SVGID_23_)" fill="#6883DE" d="M1008,1096.9V1074c0-1-0.8-1.8-1.8-1.8c-1,0-1.8,0.8-1.8,1.8v22.9
		c0,1,0.8,1.8,1.8,1.8C1007.2,1098.7,1008,1097.9,1008,1096.9"/>
	<path clip-path="url(#SVGID_23_)" fill="#6883DE" d="M1017.7,1083.7h-22.9c-1,0-1.8,0.8-1.8,1.8c0,1,0.8,1.8,1.8,1.8h22.9
		c1,0,1.8-0.8,1.8-1.8C1019.5,1084.5,1018.7,1083.7,1017.7,1083.7"/>
</g>
</svg>
