<svg id="Capa_1" enable-background="new 0 0 512 512" height="512" viewBox="0 0 512 512" width="512" xmlns="http://www.w3.org/2000/svg" xmlns:xlink="http://www.w3.org/1999/xlink"><linearGradient id="SVGID_1_" gradientUnits="userSpaceOnUse" x1="65.483" x2="405.135" y1="455.411" y2="50.629"><stop offset="0" stop-color="#fff3ee" stop-opacity="0"/><stop offset=".2938" stop-color="#ffeade" stop-opacity=".373"/><stop offset=".7874" stop-color="#ffd6bb"/></linearGradient><linearGradient id="SVGID_2_" gradientUnits="userSpaceOnUse" x1="256" x2="256" y1="462.643" y2="41.357"><stop offset="0" stop-color="#ff4d4d" stop-opacity=".4"/><stop offset=".1463" stop-color="#ff4d4d" stop-opacity=".342"/><stop offset="1" stop-color="#ff4d4d" stop-opacity="0"/></linearGradient><g><g><g><path d="m488.514 218.085c-30.706-80.231-103.012-76.269-107.727-120.509-9.232-86.615-29.828-98.222-46.599-97.549-26.827 1.077-66.332 38.387-106.664 35.35-65.639-4.943-115.02-72.434-179.333-6.116-59.691 61.551 18.418 144.839-12.512 208.782-15.442 31.922-34.689 80.576-24.923 119.022 31.041 122.202 128.891 162.044 274.811 153.924 201.861-11.234 246.896-178.069 202.947-292.904z" fill="url(#SVGID_1_)"/></g><g><g><g><path d="m176.649 319.107h-45.603c-5.409 0-9.82-4.298-9.994-9.705-.684-21.282-3.986-47.529-12.335-78.442-13.221-48.952-5.844-100.97 19.735-139.147 10.918-16.296 28.595-35.209 56.591-49.381 5.232-2.648 11.616-.216 13.786 5.231 5.15 12.921 11.86 29.566 17.131 43.24 0 0-74.065 23.779-53.889 117.305 6.789 31.466 14.578 69.584 14.578 110.899z" fill="#6c6cff"/><path d="m162.077 208.21c4.46 20.71 9.36 44.29 12.19 69.78-1.01.35-2.1.54-3.23.54h-52.61c-1.93-14.35-5.03-30.23-9.71-47.57-11.75-43.51-7.23-89.44 11.89-125.92h50.43c5.49 0 9.95 4.43 10 9.91-15.81 17.68-28.96 46.91-18.96 93.26z" fill="#4d4dff"/><path d="m404.066 205-27.65 16.65c-3.11 1.87-6.98 1.91-10.12.11l-30-17.15-4.76-19.32s-11.19 21.55-52.23 20.06c0 0 89.82 98.1 89.82 201.86h-225.6s38.19-63.51 3.81-186.68c-15.19-54.42-2.85-143.55 108.15-157.63 2.98-.38 5.61 1.96 5.61 4.97v20.23l136.34 57.05c3.3 1.38 5.61 4.42 6.06 7.97l5.33 42.06c.501 3.92-1.369 7.78-4.76 9.82z" fill="#9494ff"/><g><path d="m181.037 115.04v153.49c0 5.52-4.48 10-10 10h-11.87c-2.19-17.57-5.94-36.91-11.83-58-9.45-33.87-8.24-81.18 20.79-115.49h2.91c5.519 0 10 4.48 10 10z" fill="#8383ff"/></g><path d="m298.344 370.48c0 13.87-4.77 26.63-12.76 36.73h-93.01c-7.99-10.1-12.76-22.86-12.76-36.73 0-32.73 26.53-104.39 59.27-104.39 32.73 0 59.26 71.66 59.26 104.39z" fill="#8383ff"/><g><path d="m252.142 229.336c-2.734 0-5.485-.525-8.089-1.606l-18.935-7.86c-7.938-3.295-13.066-10.978-13.066-19.571v-50.076c0-2.762 2.239-5 5-5s5 2.238 5 5v50.076c0 4.538 2.708 8.595 6.9 10.335l18.935 7.86c3.989 1.657 8.628.849 11.821-2.059l16.238-14.778c2.042-1.857 5.205-1.709 7.063.333 1.859 2.042 1.71 5.204-.333 7.063l-16.238 14.777c-3.961 3.606-9.1 5.506-14.296 5.506z" fill="#8383ff"/></g><g><path d="m391.371 439.232h-267.897v-26.046c0-9.578 7.765-17.343 17.343-17.343h233.212c9.578 0 17.343 7.765 17.343 17.343v26.046z" fill="#6c6cff"/><path d="m396.619 462.643h-278.392c-4.789 0-8.671-3.882-8.671-8.671v-19.938c0-4.789 3.882-8.671 8.671-8.671h278.392c4.789 0 8.671 3.882 8.671 8.671v19.938c0 4.789-3.882 8.671-8.671 8.671z" fill="#8383ff"/></g></g><path d="m277.721 140.44c-5.996 0-10.857-4.861-10.857-10.857v-6.202c0-2.058 2.025-3.505 3.973-2.838l15.713 5.385c1.213.416 2.027 1.556 2.027 2.838v.818c.001 5.996-4.86 10.856-10.856 10.856z" fill="#4d4dff"/><g><g><path d="m383.258 390.018h-62.73c-2.669 0-4.833-2.164-4.833-4.833v-62.73c0-2.669 2.164-4.833 4.833-4.833h62.73c2.669 0 4.833 2.164 4.833 4.833v62.73c0 2.669-2.164 4.833-4.833 4.833z" fill="#ffe8dc"/><path d="m455.654 390.018h-62.73c-2.669 0-4.833-2.164-4.833-4.833v-62.73c0-2.669 2.164-4.833 4.833-4.833h62.73c2.669 0 4.833 2.164 4.833 4.833v62.73c0 2.669-2.164 4.833-4.833 4.833z" fill="#ff9d33"/><path d="m383.258 462.414h-62.73c-2.669 0-4.833-2.164-4.833-4.833v-62.73c0-2.669 2.164-4.833 4.833-4.833h62.73c2.669 0 4.833 2.164 4.833 4.833v62.73c0 2.67-2.164 4.833-4.833 4.833z" fill="#ff9d33"/><path d="m455.654 462.414h-62.73c-2.669 0-4.833-2.164-4.833-4.833v-62.73c0-2.669 2.164-4.833 4.833-4.833h62.73c2.669 0 4.833 2.164 4.833 4.833v62.73c0 2.67-2.164 4.833-4.833 4.833z" fill="#ffe8dc"/></g></g><g><g><g><path d="m414.208 247.088h-18.583c-2.761 0-5-2.238-5-5s2.239-5 5-5h18.583c2.761 0 5 2.238 5 5s-2.238 5-5 5z" fill="#ff4d4d"/></g><g><path d="m454.208 267.47h-58.583c-2.761 0-5-2.238-5-5s2.239-5 5-5h58.583c2.761 0 5 2.238 5 5s-2.238 5-5 5z" fill="#ff4d4d"/></g><g><path d="m454.208 287.852h-58.583c-2.761 0-5-2.238-5-5s2.239-5 5-5h58.583c2.761 0 5 2.238 5 5s-2.238 5-5 5z" fill="#ff4d4d"/></g></g></g><ellipse cx="385.547" cy="167.787" fill="#4d4dff" rx="5.824" ry="9.967"/><g><g><path d="m171.037 254.531h-109.524c-5.523 0-10-4.477-10-10v-153.487c0-5.523 4.477-10 10-10h109.524c5.523 0 10 4.477 10 10v153.486c0 5.523-4.477 10.001-10 10.001z" fill="#fff"/></g><g><g><path d="m105.566 121.539h-18.583c-2.761 0-5-2.239-5-5s2.239-5 5-5h18.583c2.761 0 5 2.239 5 5s-2.239 5-5 5z" fill="#ff6c6c"/></g><g><path d="m145.566 141.92h-58.583c-2.761 0-5-2.239-5-5s2.239-5 5-5h58.583c2.761 0 5 2.239 5 5s-2.239 5-5 5z" fill="#ffab66"/></g><g><path d="m145.566 162.302h-58.583c-2.761 0-5-2.239-5-5s2.239-5 5-5h58.583c2.761 0 5 2.239 5 5s-2.239 5-5 5z" fill="#ffab66"/></g><g><path d="m145.566 203.471h-40.583c-2.761 0-5-2.239-5-5s2.239-5 5-5h40.583c2.761 0 5 2.239 5 5s-2.239 5-5 5z" fill="#ffab66"/><g fill="#ff6c6c"><circle cx="86.983" cy="198.471" r="5"/><circle cx="86.983" cy="218.853" r="5"/></g></g><g><path d="m145.566 223.853h-40.583c-2.761 0-5-2.239-5-5s2.239-5 5-5h40.583c2.761 0 5 2.239 5 5s-2.239 5-5 5z" fill="#ffab66"/></g></g></g></g><g><g><path d="m66.528 329.413c-2.761 0-5-2.238-5-5 0-3.492-2.841-6.334-6.333-6.334-2.761 0-5-2.238-5-5s2.239-5 5-5c3.492 0 6.333-2.841 6.333-6.333 0-2.762 2.239-5 5-5s5 2.238 5 5c0 3.492 2.841 6.333 6.333 6.333 2.761 0 5 2.238 5 5s-2.239 5-5 5c-3.492 0-6.333 2.842-6.333 6.334 0 2.762-2.238 5-5 5z" fill="#ffab66"/></g><g><path d="m441.875 169.587c-2.761 0-5-2.238-5-5 0-3.492-2.841-6.334-6.333-6.334-2.761 0-5-2.238-5-5s2.239-5 5-5c3.492 0 6.333-2.841 6.333-6.333 0-2.762 2.239-5 5-5s5 2.238 5 5c0 3.492 2.841 6.333 6.333 6.333 2.761 0 5 2.238 5 5s-2.239 5-5 5c-3.492 0-6.333 2.842-6.333 6.334 0 2.762-2.238 5-5 5z" fill="#ff6c6c"/></g><g><path d="m102.211 57.689c-2.761 0-5-2.238-5-5 0-3.492-2.841-6.333-6.333-6.333-2.761 0-5-2.238-5-5s2.239-5 5-5c3.492 0 6.333-2.841 6.333-6.333 0-2.762 2.239-5 5-5s5 2.238 5 5c0 3.492 2.841 6.333 6.333 6.333 2.761 0 5 2.238 5 5s-2.239 5-5 5c-3.492 0-6.333 2.841-6.333 6.333 0 2.762-2.239 5-5 5z" fill="#8383ff"/></g><g><path d="m96.275 388.877c-2.761 0-5-2.238-5-5 0-3.492-2.841-6.334-6.333-6.334-2.761 0-5-2.238-5-5s2.239-5 5-5c3.492 0 6.333-2.841 6.333-6.333 0-2.762 2.239-5 5-5s5 2.238 5 5c0 3.492 2.841 6.333 6.333 6.333 2.761 0 5 2.238 5 5s-2.239 5-5 5c-3.492 0-6.333 2.842-6.333 6.334 0 2.762-2.239 5-5 5z" fill="#ff6c6c"/></g><g><path d="m426.92 105.573c-1.28 0-2.559-.488-3.536-1.465l-5.464-5.464-5.464 5.464c-1.953 1.953-5.118 1.953-7.071 0-1.953-1.952-1.953-5.118 0-7.07l9-9c1.953-1.953 5.118-1.953 7.071 0l9 9c1.953 1.952 1.953 5.118 0 7.07-.977.977-2.256 1.465-3.536 1.465z" fill="#8383ff"/></g></g></g></g><path d="m460.487 385.185v-62.73c0-2.669-2.164-4.833-4.833-4.833h-62.73c-2.669 0-4.833 2.164-4.833 4.833 0-2.669-2.164-4.833-4.833-4.833h-33.633c-26.418-64.314-70.318-112.272-70.318-112.272 41.04 1.49 52.23-20.06 52.23-20.06l4.76 19.32 30 17.15c3.14 1.8 7.01 1.76 10.12-.11l27.65-16.65c3.39-2.04 5.26-5.9 4.76-9.82l-5.33-42.06c-.45-3.55-2.76-6.59-6.06-7.97l-136.34-57.05v-20.23c0-3.01-2.63-5.35-5.61-4.97-17.673 2.242-32.836 6.393-45.794 11.997-3.74-9.439-7.612-19.078-10.862-27.234-2.171-5.447-8.555-7.879-13.786-5.231-21.994 11.134-37.617 25.194-48.6 38.613h-74.932c-5.523 0-10 4.477-10 10v153.486c0 5.523 4.477 10 10 10h52.813c4.297 20.891 6.223 39.228 6.726 54.872.174 5.407 4.584 9.705 9.994 9.705h30.635c-.162 37.474-7.608 63.16-12.914 76.736h-7.951c-9.578 0-17.343 7.764-17.343 17.343v12.176h-5.247c-4.789 0-8.671 3.882-8.671 8.671v19.938c0 4.789 3.882 8.671 8.671 8.671l337.427-.229c2.669 0 4.833-2.164 4.833-4.833v-62.73c0-2.669-2.164-4.833-4.833-4.833 2.67 0 4.834-2.164 4.834-4.833z" fill="url(#SVGID_2_)"/></g></svg>