<?xml version="1.0" encoding="utf-8"?>
<!-- Generator: Adobe Illustrator 17.1.0, SVG Export Plug-In . SVG Version: 6.00 Build 0)  -->
<!DOCTYPE svg PUBLIC "-//W3C//DTD SVG 1.1//EN" "http://www.w3.org/Graphics/SVG/1.1/DTD/svg11.dtd">
<svg version="1.1" id="Layer_1" xmlns="http://www.w3.org/2000/svg" xmlns:xlink="http://www.w3.org/1999/xlink" x="0px" y="0px"
	 viewBox="0 0 612 792" enable-background="new 0 0 612 792" xml:space="preserve">
<g>
	<g>
		<path fill="#2702F7" d="M226.1,140c-2.5-5.1-1.1-10.6-1.9-15.9c-1.5-9.8-1.5-19.9-2.3-29.8c-0.2-2.5,0.5-4.4,2-6.2c9,0,18,0,27,0
			c2.4,1.4,3.6,3.6,3.9,6.1c1.4,11.3,2.6,22.6,3.9,33.9c-0.8,0.3-1.6,0.5-2.3,0.8C246.4,132.5,236.8,137.7,226.1,140z"/>
		<path fill="#F27335" d="M8,610.9c2.2-5.1,3.7-10.4,7.9-14.7c7.1-7.2,15.6-9.8,25.2-10.3c7.8-0.3,15.4,0.1,22.8,2.8
			c2.3,0.9,3.1,1.3,2.3,4c-1,3.1-0.9,6.5-1.3,9.7c-0.1,0.9,0.3,2.1-1.2,2.3c-1.4,0.2-2.7-0.6-2.6-1.7c0.7-5.6-1.7-9.5-6.9-10.9
			c-7.9-2.2-16-2.5-23.3,2.2c-5.8,3.8-8.9,9.5-9,16.4c-0.1,6.2-0.6,12.3,2.5,18.3c5.9,11.7,18,15.2,29.1,13.3
			c3.5-0.6,7.1-1.2,10.2-3c2.3-1.3,2.4,0.5,1.9,1.7c-0.6,1.6-1.4,3-3.3,4c-13.3,6.7-37.4,5.4-48.4-8.7c-3.1-4-4.1-9-6.1-13.6
			C8,618.9,8,614.9,8,610.9z"/>
		<path fill="#2702F7" d="M324,88c5.8,1.5,4.4,6.6,4.9,10.5c0.5,3.8-0.2,7.7,0.9,11.5c-1.6,0-3.1,0-4.7,0c-0.5-3.3,0.4-6.7-1-9.9
			c-0.9-2.2,1.3-5.6-1.2-6.8c-2.2-1-5.2-0.1-7.9-0.3c-3.2-0.3-4.3,0.8-4.2,4.1c0.2,6.3,0,12.6-0.1,19c-2.5-0.2-4.7,0.7-7.1,1.5
			c-6.7,2.2-12.7,5.9-19.6,7.5c0.6-10.8,1.2-21.7,1.8-32.5c0.1-2.6,2.9-2.8,4-4.5C301.3,88,312.6,88,324,88z"/>
		<path fill="#2F08F3" d="M325.1,110c1.6,0,3.1,0,4.7,0c0.1,5.6,0.1,11.3,0.2,16.9c0.1,5.8,1.5,7.1,7.3,7.1c4.3,0,8.6,0,13,0
			c2.7,0,4.4-1.1,4.7-3.9c1.3-11.7,2.7-23.3,4-35c0.3-3,1.4-5.5,4-7.1c8.7,0,17.3,0,26,0c4,2.7,3.5,6.9,2.9,10.5
			c-1.1,6.8-1,13.7-2,20.5c-1.5,0.2-2.8-0.5-4.1-1.1c0.4-7.3,0.8-14.5,1.3-21.8c0.2-2.3-0.5-3.3-3-3.2c-5.6,0.2-11.3,0.1-17,0
			c-1.8,0-3,0-3.2,2.5c-0.4,4.9-1.2,9.8-1.9,14.7c-1,7.3-1.3,14.7-3,21.9c-0.7,3-2.4,5.2-5.6,6c-7,1.6-14,1.3-21.1,0
			c-3.9-0.7-5.9-3.4-6.1-6.8C325.7,124.2,324.1,117.1,325.1,110z"/>
		<path fill="#985BC2" d="M399.5,476.7c4.9,3,7.9,7.6,9.1,12.9c2.9,12.5,9.5,22.9,17.8,32.5c2,2.3,4.5,4.8,2.6,8.7
			c-1.9,3.7-4.8,5.1-8.8,5.1c-60.3,0-120.5,0-180.8,0c-0.5,0-1-0.1-1.5-0.1c0.3-1.2,0.7-2.5,1-3.7c1-0.1,2-0.2,3-0.2
			c18.8,0,37.6-0.1,56.3,0.1c3.6,0,5.1-0.7,4.8-4.6c-0.3-4.1,0-8.3,0.1-12.5c1.5,0,2.9-0.2,4.4-0.8c12.7-5.2,25.5-10.2,38.2-15.3
			C363.7,491.5,381.6,484.1,399.5,476.7z"/>
		<path fill="#9055C6" d="M399.5,476.7c-17.9,7.4-35.8,14.8-53.8,22.1c-12.7,5.2-25.5,10.2-38.2,15.3c-1.5,0.6-2.9,0.8-4.4,0.8
			c-0.9-18,1.2-36,0.9-54c16.1-5,31.2-12.5,47-18.5c3.2-1.2,6.2-3.1,9.8-3.5c-0.4,5.4,2.9,8.3,7.2,10.6c4.8,2.5,9.9,4.3,13.8,8.6
			c2.5,2.7,4.6,5.5,5,8.9c0.4,3.5,2.3,4.8,5.2,5.6C394.9,473.2,397.4,474.6,399.5,476.7z"/>
		<path fill="#2F08F3" d="M284.1,125c6.9-1.6,12.9-5.3,19.6-7.5c2.4-0.8,4.6-1.7,7.1-1.5c0,11,0,22,0,33
			c-16.5,6.6-32.8,13.7-49.5,20c-4.6,1.7-9.6,2.6-13.4,6.1c-9.5-2.9-17.5-7.5-20.3-18c-1.6-5.6-1.9-11.3-1.4-17.1
			c10.7-2.3,20.2-7.5,30.3-11.2c0.8-0.3,1.5-0.5,2.3-0.8c0.2,4.4,2.6,6.3,7,6c3-0.2,5.9,0,8.9,0C283.3,134,283.7,133.6,284.1,125z"
			/>
		<path fill="#834ACC" d="M360.8,438.9c-3.5,0.4-6.5,2.2-9.8,3.5c-15.7,6-30.8,13.6-47,18.5c0-13.7,0-27.3,0-41
			c4-0.1,7.2-2.3,10.8-3.5c13.6-4.6,26.2-11.9,40-16.2c4-1.3,8.5-2.7,11.6-6.1c3.7,8.1,7.8,16,10,24.7c2,7.8-0.4,12.1-8.3,14.4
			C365,434.3,362,435.4,360.8,438.9z"/>
		<path fill="#F27335" d="M380.7,629.7c5.8-12.6,11.6-25.1,17.3-37.8c1.6-3.4,2.6-6.4,7.8-5.3c4.2,0.9,8.9,1,13.3-0.4
			c1.8-0.6,2.5,0.4,2.8,1.8c0.3,1.7-0.9,1.8-2.2,1.8c-4.5,0-5.8,2.7-5.8,6.8c0.1,12.8-0.1,25.7,0.1,38.5c0.1,4.1-0.7,9.1,6.1,8.9
			c1.2,0,1.9,1.2,1.8,2.6c-0.1,1.5-1.3,1.2-2.3,1.2c-8,0-16,0-24,0c-1,0-2.6,0.5-2.6-1.4c0-1.6,0.9-2.7,2.4-2.5
			c5.7,0.7,5.5-3.1,5.5-6.9c0-12.1,0-24.2,0-37.7c-6.4,11.6-11,22.5-16,33.2c-2.2,4.7-4.3,9.5-6.4,14.3c-0.6,1.2-1.1,2.3-2.8,2.1
			c-1.7-0.1-1.4-1.4-1.9-2.4c-7.2-15-14.5-30-22.5-46.5c-0.2,2.6-0.3,3.8-0.3,5c0,11.3,0.1,22.7-0.1,34c0,3.2,0.6,5.2,4.4,4.8
			c1.4-0.2,2.6-0.1,2.7,1.9c0,2-1.2,2-2.6,2c-5.3,0-10.7,0-16,0c-1.1,0-2.5,0.2-2.3-1.7c0.1-1.3,1-2.4,2.2-2.2
			c6,0.7,5.7-3.2,5.7-7.2c0-13.5-0.2-27,0.1-40.5c0.1-4.2-1.5-6.2-5.5-6.4c-1.4-0.1-3,0-2.4-2c0.5-1.7,1.5-1.6,3.3-1.4
			c4.9,0.5,10.1,0.9,14.9,0c3.1-0.6,3.7,0.4,4.6,2.4c6,12.4,12,24.7,18,37.1C378.6,627.3,378.9,628.8,380.7,629.7z"/>
		<path fill="#380FEF" d="M247.9,175c3.8-3.4,8.9-4.4,13.4-6.1c16.7-6.2,33-13.4,49.5-20c0,11.7,0,23.3,0,35
			c-18.2,7.3-36.5,14.5-54.6,22.1c-3.2,1.3-7.9,1-9.2,5.7c-4.3-0.2-6-2.8-6-6.7c0.2-15.2-2.3-14.3,13.4-14.1
			c4.1,0.1,4.6-0.8,2.8-4.7C255,181.6,250.6,179.1,247.9,175z"/>
		<path fill="#481CE8" d="M271.1,281c-0.1-5.5-0.2-10.9-0.2-16.4c0-10.1-1-20.2-3-30.1c-0.2-0.8,0.1-1.6,0.1-2.5
			c7.3-2.2,14-6.1,21.2-8.6c7.2-2.5,13.8-6.5,21.5-7.4c0,16.7,0,33.3-0.1,50c-3.9,0.3-7,2.7-10.6,4
			C290.5,273.6,281.1,278.1,271.1,281z"/>
		<path fill="#F27335" d="M86.3,647.9c-3.8,0-7.7,0-11.5,0c-1,0-2.6,0.5-2.7-1.3c-0.1-1.6,0.8-2.8,2.3-2.6c6.2,0.9,5.6-3.1,5.6-7.1
			c-0.1-13.5-0.2-27,0.1-40.5c0.1-4.3-1-6.5-5.5-6.5c-1.3,0-2.9,0.2-2.5-1.9c0.3-1.6,1.5-2.3,2.9-2c8,1.5,16,1.6,24,0
			c0.8-0.2,1.7,0,1.8,1.1c0.1,1,0.4,2.6-0.7,2.6c-10,0-6.1,8.4-6.8,12.7c-1.8,10.4-1.1,10.5,9.3,10.5c5,0,10-0.1,15,0
			c2.5,0.1,3.5-0.6,3.4-3.3c-0.2-5.6,0.1-11.2-1-16.8c-0.5-2.7-2.5-2.8-4.4-2.9c-1.8-0.1-2.9-0.5-2.6-2.5c0.3-2.1,2-1.6,3.1-1.4
			c7.7,1.3,15.4,1.6,23.1,0c1.5-0.3,2.6,0.6,2.8,2.2c0.2,1.8-1.1,1.7-2.3,1.7c-4.6-0.1-5.9,2.2-5.8,6.7c0.3,8.3-1.4,16.5-0.9,24.8
			c0.4,6.4,1.6,12.8,1.1,19.3c-0.2,3.2,2,3.3,4.4,3.2c1.8-0.1,3.6,0.3,3.5,2.5c-0.1,2.4-2.2,1.4-3.5,1.4c-7.3,0.1-14.7,0.1-22,0
			c-1.3,0-3.2,0.8-3.4-1.7c-0.2-2.8,1.7-2.3,3.3-2.3c2.9,0.1,3.7-1.3,3.7-4c0-5.6-0.4-11.2,0.9-16.8c0.7-2.9-0.3-4.5-3.9-4.3
			c-7,0.3-14,0.2-21,0c-2.3,0-3,0.7-3.2,3.1c-0.5,6.5,1.1,12.8,1.1,19.3c0,2.9,2.4,2.7,4.4,2.7c1.5,0,2.6,0.2,2.5,2.1
			c0,2.1-1.4,1.9-2.7,1.9C94.3,647.9,90.3,647.9,86.3,647.9z"/>
		<path fill="#F27335" d="M288,615.3c2.6-0.1,3.7-1.6,5-2.9c5.5-5.5,11.1-11.1,16.6-16.6c0.6-0.6,1.6-1.1,1.7-1.8
			c2.2-11.8,12.4-5.1,18.4-7.9c1-0.5,1.3,0.7,1.3,1.6c0,1,0,1.9-1.4,2.2c-12,2.8-18.1,13.1-26.5,20.5c-2.2,1.9-0.3,3.5,0.7,4.6
			c6.4,7.3,12,15.3,18.9,22.1c2.8,2.8,4.5,7.1,9.5,7c0.9,0,0.8,1.3,0.8,2.1c0.1,1.3-0.7,1.7-1.9,1.7c-5.2,0-10.3,0-15.5,0
			c-1,0-1.3-0.7-1.8-1.3c-7.3-8.7-14.6-17.3-21.9-26c-0.8-0.9-1.5-1.8-2.8-1.5c-1.7,0.4-1,1.9-1.1,2.9c-0.7,6.6,1.4,13.2,1,19.8
			c-0.2,3.2,2.3,2,3.9,2.2c1.4,0.2,3.1-0.3,3.1,2.1c-0.1,2.5-1.9,1.9-3.2,1.9c-7.2,0-14.3,0.1-21.5,0c-1.3,0-3.1,0.7-3.3-1.8
			c-0.1-2.4,1.5-2.3,3-2.1c3,0.2,3.8-1.2,4.1-4.1c1.1-10.4,1-20.9,0.9-31.3c-0.1-5.1-0.7-10.2-0.9-15.3c-0.2-3-2.4-3.2-4.5-3.3
			c-1.9,0-2.8-0.7-2.5-2.7c0.4-2.1,2-1.5,3.2-1.2c7.2,1.4,14.4,1.4,21.6,0c1.1-0.2,2.8-0.8,3.1,1.3c0.1,0.9,0.4,2.4-1,2.4
			c-8.4,0.1-6,7.1-6.8,11.4C287.3,605.7,288,610.5,288,615.3z"/>
		<path fill="#7C44D0" d="M366.4,394.1c-3.1,3.4-7.6,4.9-11.6,6.1c-13.8,4.4-26.3,11.6-40,16.2c-3.6,1.2-6.8,3.4-10.8,3.5
			c0-9.3,0-18.7-0.1-28c7.3-0.6,13.1-5.3,19.8-7.6c11.5-3.9,22.7-8.9,34.1-13.4C360.7,378.7,363.5,386.4,366.4,394.1z"/>
		<path fill="#6330D9" d="M341.8,282c1.9,12.6,0.9,25.5,4,38c-1.8,0.1-3.6-0.2-5.4,0.8c-8.5,4.6-17.7,7.4-26.5,11.2
			c-3.3,1.4-6.7,3-10.4,3c-0.1-5.1-0.3-10.3-0.3-15.4c0-2.6-0.5-3.9-3.5-3.8c-7.8,0.2-15.6,0.2-23.4,0.1c-2.5,0-3.7,0.8-3.8,3.2
			c-0.2,0.4-0.3,0.8-0.5,1.2c-1,12.6-4.8,24.5-7.6,36.7c-1.4,0-2.9,0-4.3,0c3.3-12.4,6.1-24.9,8-37.6c0.5-3.1,0-6.6,2-9.4
			c5.5-1.3,10.5-3.6,15.7-5.8c8.1-3.4,16.1-7.6,24.9-9.2c0.1,3.2,0.3,6.3,0.1,9.4c-0.1,2.7,0.7,3.8,3.6,3.8c7-0.2,14-0.2,20.9,0.1
			c3.1,0.1,4-0.9,3.9-4c-0.2-7.4-2-14.8-1-22.3C339.4,282,340.6,282,341.8,282z"/>
		<path fill="#4015EC" d="M310.8,216c-7.7,0.9-14.3,4.9-21.5,7.4c-7.2,2.5-13.8,6.4-21.2,8.6c-1.3-5.7-3.1-11.1-7.8-15.2
			c-3.9-3.4-8.5-4.3-13.4-5c1.3-4.7,6-4.4,9.2-5.7c18.1-7.6,36.4-14.8,54.6-22.1C310.8,194.6,310.8,205.3,310.8,216z"/>
		<path fill="#6C37D6" d="M303.5,335c3.8,0,7.1-1.6,10.4-3c8.8-3.8,18-6.6,26.5-11.2c1.7-0.9,3.5-0.7,5.4-0.8
			c1.8,9.3,3.5,18.6,5.3,28c-1.5-0.1-2.9,0.5-4.3,1.1c-14.4,5.5-28.3,12.2-42.9,17C302.9,355.7,303.2,345.3,303.5,335z"/>
		<path fill="#F27335" d="M582.1,647.9c-6.2,0-12.3,0.1-18.5,0c-1.2,0-3,0.9-3.4-0.9c-0.4-1.6,1.6-1.8,2.6-2.5
			c1.4-1,2.2-2.2,2.2-4.2c-0.1-10.4,1.3-20.8,1.1-31.3c-0.1-5.3-1.2-10.5-1.1-15.8c0-3.3-2.9-2.5-4.6-3.2c-1.3-0.5-2.5-0.4-2.4-2.3
			c0.1-2.1,1.5-2,2.8-1.8c12.5,2.6,25-0.2,37.6,0c1.3,0,2.7-0.1,4,0.2c2.1,0.6,4.3,0.9,2.9,4.4c-0.8,2-0.2,4.6-0.2,6.9
			c0,1.1,0.2,2.4-1.6,2.5c-1.2,0-2.4,0-2.4-1.7c-0.1-7.4-5.3-6.3-10.1-6.3c-12.9,0.1-12.9,0-12.9,13c0,8,0,8,8.1,8
			c1.5,0,3-0.1,4.5,0c2.7,0.2,4.9,0.1,4.6-3.8c-0.1-1.2,0.5-3.7,2.8-3.1c2.3,0.6,1.8,2.2,1.4,4.3c-0.7,3.5-0.9,7.2,0.2,10.8
			c0.5,1.6,1.4,3.8-0.9,4.6c-2.7,0.9-3.7-1.6-3.5-3.4c0.2-3.1-1.6-3.1-3.8-3.8c-3.3-1.1-6.6-0.6-9.9-0.5c-2.4,0-3.7,1.4-3.6,4.2
			c0.2,5,0,10,0.1,15c0,2.7,0.9,4,4,5c6.1,1.9,11.8-0.3,17.6-0.4c1.9,0,2.3-2.2,2.3-3.8c0-1.6,0.4-2.9,1.2-4.2
			c0.6-1.1,1.7-0.9,2.7-0.7c1.5,0.3,1,1.1,0.6,2.2c-0.4,1-0.3,2.3-0.4,3.4c-0.1,10.3,1.4,9.3-9.3,9.3
			C591.8,647.9,587,647.9,582.1,647.9z"/>
		<path fill="#F27335" d="M172.4,647.9c-6.3,0-12.7,0-19,0c-1.1,0-2.6,0.6-3.1-0.7c-0.5-1.4,0.9-1.8,1.9-2.4c1.8-1,2.8-2.5,2.8-4.8
			c0.1-11.4,1.3-22.8,1.1-34.3c-0.1-4.3-1.4-8.4-1.2-12.8c0.1-3-3-2.5-4.8-2.9c-1.8-0.4-2.2-1.1-2.1-2.6c0.1-1.8,1.5-1.7,2.6-1.5
			c12.5,2.6,25-0.2,37.6,0c0.7,0,1.3,0,2,0c3.3,0.3,6.5,0.4,4.9,5.4c-0.6,1.8,0,4-0.1,6c0,1.1,0.4,2.5-1.4,2.6
			c-1.5,0.1-2.6-0.1-2.6-2c-0.3-6.4-4.6-6.4-9.3-6c-2.3,0.2-4.7,0-7,0c-6.1,0-6.5,0.4-6.6,6.8c0,3.5,0.2,7-0.1,10.5
			c-0.3,3.3,1.1,4,4,3.8c2.3-0.2,4.7-0.1,7,0c3.3,0.1,6.8,0.8,6.4-4.5c-0.1-1.1,0.9-3.1,3-2.3c1.4,0.5,2,1.8,1.5,3.3
			c-1.3,4.2-1.2,8.3,0,12.6c0.3,1.2,1.3,3.5-1.4,4c-2.3,0.4-3.4-1.7-3.2-2.9c0.6-4.3-2.7-4.4-5.1-4.9c-2.7-0.5-5.6-0.3-8.5-0.2
			c-2.4,0.1-3.9,1.2-3.8,4.1c0.2,5,0,10,0.1,15c0,2.6,0.6,4.2,3.8,5.2c6.1,1.8,11.8-0.2,17.6-0.4c2,0,2.4-2.1,2.5-3.7
			c0.1-1.5,0.4-2.9,1.1-4.2c0.8-1.4,2-1,3.1-0.8c0.8,0.1,1,0.9,0.6,1.5c-1.5,3-0.6,6.2-0.6,9.3c0,3.1-1.3,4.1-4.2,4
			C185.4,647.8,178.9,647.9,172.4,647.9z"/>
		<path fill="#F27335" d="M480.1,647.9c-3.7,0-7.3,0-11,0c-1.3,0-3.1,0.6-3.2-1.9c0-2,1.1-2.1,2.6-2.1c3.8,0,4-2.2,2.9-5
			c-3.5-8.9-1.8-9.9-13.2-9.9c-1.5,0-3,0-4.5,0c-8.5,0-11.8,3-12.7,11.3c-0.4,3.5,2.6,2.9,4.2,3.5c1.4,0.5,3,0.2,2.8,2.5
			c-0.2,2.1-1.7,1.6-2.9,1.7c-5.2,0-10.3,0-15.5,0c-1.1,0-2.5,0.3-2.5-1.5c0-0.8-0.1-2.2,0.6-2.2c7.1-0.2,7.6-6.5,9.5-10.9
			c5.9-13.8,11.2-27.8,17.1-41.6c1-2.4,1.3-5.8,5.6-5.9c4.6-0.1,4.9,3.5,6,6c6.6,15.6,12.9,31.3,20,46.7c1.4,2.9,2.8,5.2,6.3,5.3
			c1.6,0.1,1.9,0.9,1.9,2.2c0,1.7-1.1,1.8-2.3,1.8C487.8,647.9,483.9,647.9,480.1,647.9z M447.2,623.9c5.2,0,9.8-0.2,14.5,0
			c3.9,0.2,3.5-1.4,2.3-4.1c-2.6-5.8-5-11.7-7.5-17.6c-0.8,1.4-1.7,2.8-2.3,4.3C451.8,612.1,449.6,617.7,447.2,623.9z"/>
		<path fill="#733ED4" d="M303.9,366c14.6-4.8,28.6-11.5,42.9-17c1.4-0.5,2.7-1.2,4.3-1.1c2.2,7.7,4.5,15.3,6.7,23
			c-11.3,4.5-22.5,9.5-34.1,13.4c-6.7,2.3-12.4,7-19.8,7.6C303.9,383.3,303.9,374.6,303.9,366z"/>
		<path fill="#F27335" d="M240.8,586c5.9-0.7,12,0.9,18.1,2.9c0.9,0.3,2.6,0.3,2.5,1.2c-0.4,4.8-0.8,9.7-2,14.3
			c-0.3,1.4-3.2,0.3-3.2-1.2c-0.1-4.5-0.6-8.4-5.5-10.3c-5.7-2.3-11.7-2.8-17.4-1.4c-10.7,2.6-16.2,10.7-16.4,21.4
			c-0.1,8.7,0.9,16.7,7.5,23.1c6.9,6.7,15.2,8,24.2,6.6c3.3-0.5,6.8-1.1,9.8-2.8c0.7-0.4,1.4-1.3,2.1-0.4c0.8,0.9,0.2,1.8-0.2,2.7
			c-1.7,4.1-5.9,4.8-9.3,5.6c-11.5,2.4-22.7,2-33.4-3.7c-16.5-8.9-19.1-34.9-7.5-47C217.1,589.7,228.1,585.2,240.8,586z"/>
		<path fill="#F27335" d="M530.9,617.9c0,7,0.1,14-0.1,21c-0.1,3.5,0.7,5.5,4.6,5.1c1.5-0.2,3.6-0.7,3.4,2.2c-0.2,2.5-2,1.7-3.3,1.7
			c-7.5,0.1-15,0.1-22.5,0c-1.4,0-3.1,0.6-3.2-1.9c0-2.4,1.7-2.2,3.1-2c4.3,0.5,4.9-2.1,4.9-5.4c0-14.3-0.1-28.6,0-42.9
			c0-2.7-0.6-3.7-3.5-3.8c-4-0.2-7.8,1.4-11.8,1.2c-2.4-0.1-1.6,2-1.7,3.3c-0.1,2.3,0.2,5.4-2.7,5.3c-3.4-0.1-2.2-3.5-2.2-5.6
			c-0.1-3-0.8-6.5,0.5-8.8c1.7-2.9,5.3-0.2,8.1-0.2c13.8-0.3,27.6-0.1,41.4-0.2c7.5,0,8,0.7,6.2,8.4c-0.3,1.1-0.2,2.3-0.4,3.4
			c-0.2,1.1,0.8,3-1.4,3.1c-1.8,0.1-2.8-1.2-2.6-2.9c0.7-4.9-1.5-6.7-6.1-6.1c-0.6,0.1-1.2-0.6-1.8-0.8c-7.7-1.6-9.1-0.5-9.1,7.4
			C530.9,605.6,530.9,611.8,530.9,617.9z"/>
		<path fill="#5627E1" d="M310.7,295c-8.8,1.6-16.8,5.7-24.9,9.2c-5.1,2.2-10.2,4.6-15.7,5.8c-0.8-9.7,1.5-19.3,1-29
			c10-2.9,19.3-7.4,29-11c3.5-1.3,6.7-3.7,10.6-4C310.7,275.6,310.7,285.3,310.7,295z"/>
		<path fill="#733ED4" d="M260.1,357c1.4,0,2.9,0,4.3,0c-3.7,12.7-8.1,25.2-13,37.5c-3.2,8-7.9,15.3-9.9,23.7c-1.9,8-1,9.5,7,11.7
			c1.6,0.4,3,1.4,4.4,2.1c0,1.1,0.1,2.3-1.1,3c-2-1.1-4.1-1.8-6.4-2.1c-6.4-0.9-9.6-5.4-8.4-11.8c0.9-4.8,2.2-9.6,4.3-13.9
			C249.3,391.1,255,374.1,260.1,357z"/>
		<path fill="#4015EC" d="M386.8,154c-1.2,9.3-6.3,15-15.2,18.3c-7.3,2.7-13,7.8-16.1,15.5c-1,2.5-0.6,3.3,2,3.2c2.3-0.1,4.6,0,7,0
			c7.7,0,8.6,1,8.2,9c-1.6,0-3.1,0-4.7,0c0.2-3.4-0.2-5.5-4.8-4.2c-2.7,0.8-5.9,0.5-8.7-0.7c-3.7-1.6-5.3-3.9-3.7-8
			c3.2-8.4,8.8-14.7,17.1-17.9c8-3,13.3-7.8,14.9-16.3C383.8,154.4,385.4,153.9,386.8,154z"/>
		<path fill="#834ACC" d="M251.9,435c1.2-0.7,1.1-1.9,1.1-3c6.6,5,5.8,11.3,1.9,15.6c-3,3.3-6.5,6-10.8,7.5
			c-5.9,2.1-11.3,5.2-12.6,12.1c-0.9,5.1-3.9,7.4-8.6,8.9c-7.3,2.4-12.4,6.9-14.2,15c-0.9,4.1-3,7.9-4.6,11.8
			c-1.1,0-2.2-0.1-3.3-0.1c3.4-6.3,3.5-13.9,7.5-20c3.2-4.9,7.3-8.3,12.9-9.9c3.9-1.1,6.2-3,7.1-7.5c1.4-7.2,7.1-11.1,13.7-13.4
			c3.2-1.1,6-2.6,8.3-5C255,442.3,255.2,441.1,251.9,435z"/>
		<path fill="#9055C6" d="M200.9,502.9c1.1,0,2.2,0.1,3.3,0.1c-2.6,7.6-7.6,13.8-12.6,19.9c-1.6,2-4.3,3.7-3,6.7
			c1.3,3.1,4.5,2.2,7.1,2.2c14.5,0.1,28.9,0.1,43.4,0.2c-0.3,1.2-0.7,2.5-1,3.7c-14.7,0.1-29.5,0.2-44.2,0.1c-3.8,0-6.8-1.6-8.9-5.1
			c-2.1-3.6,0.5-5.7,2.2-7.8C192.1,516.6,196.8,510,200.9,502.9z"/>
		<path fill="#481CE8" d="M368.1,200c1.6,0,3.1,0,4.7,0c0.5,9.2-0.1,9.9-9.3,12.2c-14.4,3.7-15.9,10.1-18.5,24
			c-0.5,2.6-0.8,5.2-1.2,7.7c-1.3,0-2.6,0-3.9,0c0.4-3.7,0.7-7.5,1.1-11.2c1.7-13.3,8.3-22.1,19.8-24.3
			C366.2,207.3,369,205.7,368.1,200z"/>
		<path fill="#2702F7" d="M133,693.5c0-0.7-0.1-1.3,0-2c0.6-3.4-2-8.6,1.6-10c4.5-1.7,10.1-1.4,14.9,0.7c3.4,1.5,3.9,6.8,1.2,10.4
			c-1,1.3-1.5,1.6,0,3.1c2.5,2.4,0.4,6.4,2,9.3c0.3,0.6-0.8,0.8-1.4,0.9c-0.8,0.1-1.3-0.2-1.4-1c-0.1-1.3,0-2.7-0.1-4
			c-0.2-2.6-1.4-4.7-4.1-5.5c-3.1-0.9-6.2-0.6-9.3-0.2c-1,0.2-0.6,1.7-0.6,2.7c0,2,0,4,0,6c0,1,0,2-1.5,2c-1.5,0-1.5-1-1.5-2
			C133,700.4,133,697,133,693.5z M141.8,692.9c0.8,0,1.7,0,2.5,0c2.9,0.2,5.4-0.4,5.7-3.9c0.2-3.1-0.8-4.8-4.5-5.5
			c-2.5-0.4-4.9-0.3-7.3-0.6c-1-0.1-1.8-0.1-2.2,1.3C134.2,689.7,136.3,692.9,141.8,692.9z"/>
		<path fill="#2702F7" d="M280,693.2c0.1-7.5,5.2-12.5,12.6-12.3c7.2,0.2,11.1,5,11.3,13c0.1,6.6-4.4,13.2-12.2,13
			C285,706.8,279.9,700.7,280,693.2z M301,694.1c0-7.6-3.2-11.4-9.6-11.2c-5.5,0.1-8,4-8.5,11.2c-0.3,5.2,2.5,10.3,8.9,10.6
			C297.4,705,302,700.1,301,694.1z"/>
		<path fill="#5627E1" d="M339.9,243.9c1.3,0,2.6,0,3.9,0c-0.8,12.7-2.1,25.3-2,38c-1.2,0-2.4,0-3.6,0c-0.1-7.2-0.4-14.3-0.1-21.5
			C338.3,255,338.4,249.4,339.9,243.9z"/>
		<path fill="#2702F7" d="M209,693.1c0-0.8-0.1-1.7,0-2.5c0.4-3.2-1.6-8.3,1-9.2c4.4-1.4,9.8-1.4,14.5,0.8c2.5,1.2,3.7,3.7,3.5,6.6
			c-0.2,2.8-1.4,5.2-4.2,6.1c-1.6,0.5-3.2,1.5-5.2,1.1c-5.2-1-7.7,0.7-6.7,6.4c0.2,1.1,1.1,3.4-1.3,3.5c-2.5,0.1-1.5-2.1-1.6-3.3
			C208.9,699.4,209,696.2,209,693.1z M217.3,692.9c7.8,0,7.6-0.1,7.8-5.2c0.1-3.3-1.9-3.9-4.2-4.3c-3-0.6-6.7-1.9-8.6,0.7
			c-1.3,1.7-0.8,5.3-0.1,7.8C212.9,694.1,215.8,692.4,217.3,692.9z"/>
		<path fill="#380FEF" d="M386.8,154c-1.4-0.1-3,0.4-3.9-1.2c-0.5-7.2,0.5-14.3,1.3-21.3c0.5-4.5-0.2-9.2,1.5-13.6
			c1.3,0.6,2.6,1.3,4.1,1.1c-0.9,9.2-1.8,18.4-2.7,27.6C386.9,149,386.9,151.5,386.8,154z"/>
		<path fill="#2702F7" d="M445.5,705.9c-5,0-9.9-0.1-14.9,0c-1.8,0-2.7-0.4-2.7-2.5c0.1-6.8,0-13.6,0-20.4c0-1,0-2.1,1.4-2.1
			c5.2,0,10.3,0,15.5,0.7c-3.5,2-7.2,1.4-10.8,1.2c-4.1-0.2-3.1,2.5-3.1,4.6c0,2-1.1,4.9,3,4.6c3.3-0.3,6.6-0.1,9.9,0.7
			c-2.8,1.9-6,1.5-9,1.2c-4.7-0.5-3.9,2.4-4,5.2c-0.1,3-0.3,5.4,4.2,5C438.5,703.8,442.2,703,445.5,705.9z"/>
		<path fill="#2702F7" d="M510.3,706.9c-5.4-0.1-8.7-2.4-9.8-6.9c-0.2-0.8-0.8-1.6,0.3-2c0.9-0.3,1.7-0.3,2.2,1.1
			c2.2,5.5,5.9,6.9,10.8,4.9c2.2-0.9,3.3-1.9,3.3-4.6c0-3-2-3.8-3.9-4.3c-3-0.8-6-1.1-8.8-2.5c-3.8-1.8-4.2-4.6-2.3-8
			c2.2-3.9,6.1-4,10-3.7c3.2,0.3,5.3,2.2,6.6,5.1c0.4,1,0.7,2.2-0.2,2.7c-1,0.5-2.1-0.5-2.2-1.4c-0.9-4.9-4.5-4.4-8-4.4
			c-2.3,0-3.7,1.3-4.2,3.4c-0.5,2.3,0.1,4.2,2.8,5c1.9,0.5,3.7,1.3,5.6,1.5c4.3,0.5,7.3,2.7,7.4,7C520,703.8,515.2,707,510.3,706.9z
			"/>
		<path fill="#2702F7" d="M472.6,680.9c3.8-0.1,7.3,0.4,8.3,5c0.2,0.8,1.3,1.8-0.1,2.5c-1.3,0.6-1.7-0.6-1.9-1.4
			c-1.5-4.6-5.3-4.2-8.8-3.9c-2.1,0.1-3.5,1.7-4.1,3.7c-0.6,2.2,1.1,3.5,2.8,4.2c2.4,1,4.9,1.6,7.4,2.1c3.7,0.7,6.3,3,6.3,6.4
			c-0.1,3.1-1.9,5.8-5.8,6.8c-6,1.5-10.9,0-13.1-5c-0.5-1.2-1.4-2.5,0.5-3.1c1.6-0.5,1.8,0.6,1.9,2c0.2,3.3,2.9,4.3,5.4,4.8
			c2.8,0.6,5.6-0.1,7.6-2.5c2.1-2.4,1.3-5.4-1.8-6.4c-2.6-0.9-5.2-1.6-7.9-2.3c-3.6-0.9-5.7-3.1-5.3-6.9c0.5-4,3.1-5.9,7.1-5.8
			C471.6,680.9,472.1,680.9,472.6,680.9z"/>
		<path fill="#2702F7" d="M388.4,705.8c0-8.2,0-16.5,0-25.8c2.5,3.3,1.1,6.1,1.6,8.7c1.3,6.8,6.6,2,9.8,3.1c1.9,0.6,5.7,1.6,5.2-3.2
			c-0.3-2.4,0-4.9,0-7.4c2.7-0.1,3,1.5,3,3.3c0,6.3,0,12.7,0,19c0,1,0.4,2.5-1.4,2.5c-1.9,0-1.4-1.4-1.5-2.5c-0.4-3.1,1.5-7.3-0.8-9
			c-2.1-1.5-6.1-0.2-9.2-0.6c-4.3-0.6-5.5,1.2-5,5.2C390.1,701.2,390.5,703.6,388.4,705.8z"/>
		<path fill="#2702F7" d="M113.1,696.9c1.6,6-4.8,11.5-11.4,9.9c-5.5-1.4-8.2-5.5-9.6-10.6c-1.2-4.4,2.1-11.9,5.9-13.9
			c5.4-2.8,10.7-1.8,14.6,2.7c0.9,1,2.1,2.3,1,3.4c-1.4,1.2-2.1-0.4-2.7-1.6c-2.2-4-6.2-4.9-9.8-3.7c-3.5,1.2-6.2,4.3-6.2,8.6
			c0,3.7-0.5,7.6,2.8,10.5c4.7,4.1,10.8,2.7,13.1-1.9C111.5,699.2,111.6,697.6,113.1,696.9z"/>
		<path fill="#2702F7" d="M367.1,689.6c-2.1-4.8-5-7.5-10.2-6.8c-4.9,0.7-6.5,4.4-7.6,8.4c-1.2,4.5,0.4,8.6,3.6,11.4
			c2.3,2,5.5,3.3,9,1.3c2.2-1.3,3.4-3.1,4-5.3c0.4-1.5,0.9-2.2,2.2-1.7c1.6,0.5,0.3,1.4,0.2,2.3c-0.8,4.4-5.8,8-11,7.6
			c-4.7-0.3-9.7-4.9-10.2-9.6c-0.4-4.1-0.4-8.1,2.1-11.9c3.7-5.6,13.1-6.3,17.6-1.3C368.1,685.7,368.3,687.1,367.1,689.6z"/>
		<path fill="#2702F7" d="M264.8,681.5c-1.2,1-1.5,1.3-1.7,1.3c-2.6,0.5-6.2-1.2-7.5,0.8c-1.3,2-0.6,5.4-0.6,8.2
			c-0.1,3.7,0.1,7.3-0.1,11c0,1.1,0.8,3-1.3,3.1c-2.6,0.1-1.6-2.1-1.6-3.3c-0.1-4.8-0.3-9.6,0-14.4c0.3-3.8-0.4-6.1-4.9-5.3
			c-1,0.2-2.3,0.6-3.4-1.4C250.7,681.5,257.2,681.5,264.8,681.5z"/>
		<path fill="#2702F7" d="M191.1,681.7c-1.5,2.4-2.8,5.1-4.7,7.2c-3.8,4.2-5,9-4.4,14.5c0.1,1,0.5,2.5-1.4,2.5
			c-1.5,0.1-1.7-0.9-1.5-1.9c1.7-8.8-4.1-14.6-8.4-21c-0.3-0.4-0.4-0.9-0.5-1.3c0-0.1,0.2-0.3,0.6-1c4.8,3.2,5.9,9,9.9,12.6
			c3.6-3.5,5-9.3,9.6-12.4C190.4,681.1,190.8,681.4,191.1,681.7z"/>
		<path fill="#F27335" d="M385.7,117.9c-1.7,4.4-1,9.1-1.5,13.6c-0.8,7-1.9,14.1-1.3,21.3c-1.6,8.5-6.9,13.3-14.9,16.3
			c-8.3,3.1-13.9,9.5-17.1,17.9c-1.6,4.1,0.1,6.4,3.7,8c2.9,1.3,6.1,1.5,8.7,0.7c4.5-1.3,5,0.8,4.8,4.2c0.9,5.7-1.9,7.4-7.3,8.4
			c-11.4,2.2-18.1,11-19.8,24.3c-0.5,3.7-0.8,7.5-1.1,11.2c-1.4,5.4-1.6,11-1.8,16.5c-0.2,7.1,0.1,14.3,0.1,21.5
			c-1,7.5,0.8,14.9,1,22.3c0.1,3.1-0.8,4.1-3.9,4c-7-0.2-14-0.2-20.9-0.1c-2.9,0.1-3.7-1-3.6-3.8c0.2-3.1-0.1-6.3-0.1-9.4
			c0-9.7,0-19.3,0-29c0-16.7,0-33.3,0.1-50c0-10.7,0-21.3,0-32c0-11.7,0-23.3,0-35c0-11,0-22,0-33c0.1-6.3,0.3-12.7,0.1-19
			c-0.1-3.3,0.9-4.4,4.2-4.1c2.6,0.3,5.7-0.7,7.9,0.3c2.5,1.2,0.3,4.6,1.2,6.8c1.4,3.2,0.5,6.6,1,9.9c-1,7.2,0.6,14.2,1,21.3
			c0.2,3.3,2.2,6,6.1,6.8c7,1.3,14,1.6,21.1,0c3.3-0.8,4.9-3,5.6-6c1.7-7.2,2-14.6,3-21.9c0.7-4.9,1.5-9.8,1.9-14.7
			C364,93,365.2,93,367,93c5.7,0.1,11.3,0.1,17,0c2.5-0.1,3.2,0.9,3,3.2C386.5,103.4,386.1,110.7,385.7,117.9z"/>
		<path fill="#F17236" d="M239,532.1c-14.5-0.1-28.9-0.1-43.4-0.2c-2.6,0-5.7,0.9-7.1-2.2c-1.3-3,1.4-4.7,3-6.7
			c5-6.1,10-12.3,12.6-19.9c1.6-3.9,3.7-7.7,4.6-11.8c1.8-8,6.9-12.6,14.2-15c4.7-1.5,7.7-3.9,8.6-8.9c1.2-6.9,6.6-10,12.6-12.1
			c4.4-1.6,7.8-4.2,10.8-7.5c3.9-4.3,4.7-10.7-1.9-15.6c-1.5-0.7-2.9-1.7-4.4-2.1c-8-2.2-8.9-3.7-7-11.7c2-8.4,6.8-15.7,9.9-23.7
			c4.9-12.3,9.3-24.8,13-37.5c2.8-12.2,6.6-24.2,7.6-36.7c0.2-0.4,0.3-0.8,0.5-1.2c0.1-2.4,1.3-3.3,3.8-3.2
			c7.8,0.1,15.6,0.1,23.4-0.1c3-0.1,3.6,1.2,3.5,3.8c-0.1,5.1,0.2,10.3,0.3,15.4c-0.2,10.3-0.6,20.7,0.4,31c0,8.7,0.1,17.3,0.1,26
			c0,9.3,0,18.7,0.1,28c0,13.7,0,27.3,0,41c0.3,18-1.8,36-0.9,54c0,4.2-0.4,8.3-0.1,12.5c0.3,3.9-1.3,4.7-4.8,4.6
			c-18.8-0.2-37.6-0.1-56.3-0.1C240.9,531.9,240,532,239,532.1z"/>
		<path fill="#6C37D6" d="M272.5,319.1c-0.2,0.4-0.3,0.8-0.5,1.2C272.2,319.8,272.4,319.4,272.5,319.1z"/>
	</g>
</g>
</svg>
