<?xml version="1.0" encoding="utf-8"?>
<!-- Generator: Adobe Illustrator 17.1.0, SVG Export Plug-In . SVG Version: 6.00 Build 0)  -->
<!DOCTYPE svg PUBLIC "-//W3C//DTD SVG 1.1//EN" "http://www.w3.org/Graphics/SVG/1.1/DTD/svg11.dtd">
<svg version="1.1" id="Layer_1" xmlns="http://www.w3.org/2000/svg" xmlns:xlink="http://www.w3.org/1999/xlink" x="0px" y="0px"
	 viewBox="0 0 812.1 792" enable-background="new 0 0 812.1 792" xml:space="preserve">
<g>
	<g>
		<path fill="#010101" d="M267.4,750.7c-4.5-4-4.8-8.7-4.8-13.6c0.1-12,0-24,0-36c0-9.2,4.3-13.5,13.6-13.5c3.7,0,7.5,0,11.2,0
			c0.6-1.4-0.8-1.7-1.3-2.4c-2.6-3.7-3.3-7.6-1.5-11.7c1.8-4.2,5.1-6.7,9.8-7c2.1-0.2,4.3-0.4,6.4-0.1c4.4,0.8,5.4-1.4,5.8-5.2
			c2.5-24.1,5-48.2,7.6-72.3c2.6-24.6,5.3-49.2,7.9-73.7c0.3-2.9,0.9-5.7,0.9-8.6c0-2.5,1.2-2.7,3.2-2.7c48.7,0,97.5,0,146.2,0
			c2,0,2.9,0.2,3.2,2.7c3.1,30.3,6.4,60.6,9.7,90.9c2.4,22,4.9,43.9,7.2,65.9c0.3,2.6,1.3,3.1,3.6,2.9c2.5-0.1,5,0,7.5,0
			c5.6-0.2,10.2,1.5,12.5,6.9c2.3,5.2,0.8,9.7-3.6,14.3c4.5,0,8.4,0,12.3,0c9.2,0,13.5,4.4,13.5,13.6c0,12.6,0,25.2,0,37.9
			c0,4.3-1,8.1-4.9,11.6c5,0,9.3,0,13.6,0c6.9,0.1,11.6,4,12,10.7c0.5,7.8,0.4,15.7,0,23.6c-0.2,2.9-1.3,3.9-4.5,3.9
			c-102.7-0.1-205.4-0.1-308.2,0c-3.2,0-4.3-1-4.3-4c0-7.9-0.2-15.7,0-23.6c0.2-6.3,4.8-10.5,11.2-10.6
			C257.7,750.6,262.2,750.7,267.4,750.7z"/>
		<path fill="#010101" d="M535.1,5.5c1.3,4.9-0.2,9.6-0.7,14.3c-2.5,24-5.3,47.9-7.9,71.9c-2.6,23.6-5.4,47.1-7.9,70.7
			c-1.6,15.2-7.9,29-12.3,43.3c-9.4,30.1-19.3,60-28.9,90c-1.7,5.3-4.3,9.8-9.2,12.7c9.1,6.3,9.4,13.4,1,21.8
			c4,2.6,5.6,7.6,10.1,10.1c-53.6,0-107.3,0-161.6,0c4.8-3.7,9.2-7.1,13.9-10.7c-3.7-2.8-5.9-6.4-5.5-11.1c0.3-4.7,3-7.8,7.2-10
			c-5.2-2.9-7.8-7.5-9.6-13c-13-40.5-26.2-81-39.2-121.6c-2.8-8.6-2.7-17.7-3.7-26.6c-3.1-26.3-5.9-52.6-8.9-78.9
			c-2.3-20.7-4.6-41.4-6.9-62.2c0-0.2,0.1-0.4,0.3-1c6.5,8.1,12.9,16.1,19.3,24c16.5,20.6,32.9,41.1,49.4,61.7
			c1.4,1.8,2.1,2.4,4,0.1c19.1-24,38.4-47.9,57.5-72c3.6-4.6,7.1-4,10.3,0c19,24.1,38.3,48,57.4,72.1c1.1,1.4,1.8,2.4,3.5,0.3
			c22.7-28.4,45.4-56.8,68.1-85.1C534.8,6.2,534.9,5.8,535.1,5.5C535.1,5.5,535.1,5.5,535.1,5.5z M335.8,108.9
			C316.6,85,297.7,61.4,278.1,37c0.2,2.2,0.2,3.4,0.3,4.6c1.9,17.3,3.9,34.5,5.8,51.7c2.3,21,4.7,41.9,6.9,62.9
			c0.4,3.5,1.4,4.6,5.1,4.6c69.4-0.1,138.7-0.1,208.1-0.1c0.7,0,1.5,0,2.2,0c1.6,0.1,2.4-0.4,2.6-2.3c0.9-8.9,1.9-17.9,2.9-26.8
			c2.6-23.7,5.3-47.4,7.9-71.1c0.8-7.6,1.6-15.1,2.6-23.6c-1.3,1.6-2.1,2.4-2.7,3.3c-17.7,22-35.4,44-53,66.1
			c-1.7,2.1-2.5,2.2-4.2,0c-19.9-25-40-49.9-59.9-74.9c-2.2-2.7-3.1-2.4-5,0.1c-14.6,18.4-29.3,36.7-44,55
			C347.9,93.9,341.9,101.3,335.8,108.9z"/>
		<path fill="#010101" d="M578.9,772.6c-0.9-6.6-0.5-13.2-0.1-19.9c0.6-9,9.3-10,13.2-15.8c-0.8-0.1-1.9-0.1-2.9-0.4
			c-3.1-0.8-4.1-3.3-2.4-6c0.5-0.8,1.6-1.3,0.4-2.4c-2-1.8-1.5-3.7,0.1-6.1c-4.8,0-9.2-0.1-13.6,0c-2,0-2.5-0.6-2.3-2.6
			c2.1-24.6,4.6-49.2,6-73.9c0.5-9,3.5-16,9-22.9c12-15.2,23.3-30.8,34.9-46.2c1.3-1.7,7.7-3.2,9.1-2c1.2,0.9,0.6,2.4,0.5,3.5
			c-0.4,2.8,0.7,4.3,3.3,5.3c8,3,14.4,8.1,20.2,14.3c8.5,9,17.4,17.6,26.3,26.2c1.6,1.6,1.8,2.7,0.5,4.6
			c-4.1,5.8-7.9,11.8-11.9,17.6c-1.9,2.8-8.1,3.9-9.9,1.2c-4.5-6.5-10-6-16.4-3.9c-6,2-12.2,3.2-18.9,4.9c2.9,3.3,5.7,6.5,8.4,9.6
			c16.1,18.1,32.2,36.2,48.4,54.2c1.6,1.8,1.5,2.5-0.1,4.3c-3.6,4.3-7.6,7.1-14,5.3c0.8,2.6,1.9,4.7-0.3,6.5
			c-0.7,0.6-0.3,1.1,0.1,1.9c2.3,3.8,0.9,6.3-3.6,6.7c-0.5,0-1-0.2-1.3,0.4c3.6,3.1,7.4,6.2,10.8,9.5c1.2,1.2,4.3,2.2,1.6,4.9
			c-0.2,0.3,1,1.6,1,2.5c0,6.2,0.8,12.4-0.6,18.6c0.9,0,1.7,0.1,2.6,0.1c0.7,0,1.5,0,2.2,0.2c3.3,0.8,4.3,4.1,3.3,11.1
			c-0.4,2.8-2,4.1-4.8,4.1c-34,0-68,0-101.9,0c-3,0-4.3-1.5-4.7-4.2c-0.1-0.5,0-1-0.1-1.5C570.6,773.6,570.8,773.5,578.9,772.6z"/>
		<path fill="#010101" d="M202.3,674.1c7.4-0.4,9.4,1.8,7.4,6.7c7.2,0.2,9.8,3.9,7.5,11c-0.7,2.1-2.3,3.2-4.6,3.2c-3,0-6,0-9,0
			c-1.8-0.1-2.5,0.1-2.2,2.4c2.5,15.9,4.8,31.8,7.1,47.7c0.3,2.1,1.3,2.5,3.2,2.5c5,0,6.3,1.8,4.5,6.7c1.3,0,2.5,0,3.7,0
			c2.4,0,3.9,1.5,4,3.7c0.1,5.3,0.8,10.6-0.7,15.9c0.9,0.7,1.9,0.4,2.9,0.4c2.9,0.1,4.2,1.5,4.2,4.5c0.3,9.4,0.4,9.4-9,9.4
			c-28.7,0-57.5,0-86.2,0c-5,0-5.5-0.5-5.5-5.6c0-0.9,0-1.7,0-2.6c0-4.8,0.6-5.4,5.3-5.7c0.6,0,1.2-0.1,1.9-0.1
			c-1.3-5.5-0.6-10.9-0.6-16.3c0-2.2,1.4-3.4,3.6-3.5c1.2-0.1,2.5,0,3.8,0c-1.4-5.1-0.7-6.3,4.5-6.6c2.1-0.1,2.1-1.4,2.3-2.7
			c2.1-13.8,4.1-27.6,6.2-41.4c0-0.2,0-0.5,0.1-0.7c0.3-2.5,2.1-5.9,0.5-7.3c-1.5-1.3-5-0.5-7.6-0.5c-2.4,0-5.3,0.4-6.2-2.3
			c-1.2-3.3-1.4-7,0.3-10.2c1.3-2.6,4.3-1.3,6.8-1.8c-0.7-1.9-1.5-3.9,0.4-5.6c1.9-1.6,4.1-0.6,6.4-1.1c-1-1.9-1.6-3.9,0.4-5.6
			c0.4-0.3,0.4-0.5,0.2-1.1c-2-4.7-1.6-5.5,3.5-6.9c-5.8-5.9-9.3-12.8-11-20.8c-3.6-16.6,3.2-33.3,17.6-42.3
			c1.5-0.9,1.6-1.9,1.6-3.3c0-4.7,0-9.5,0-14.2c0-4.3,1.1-5.3,5.3-5.3c3.7,0,7.5,0.1,11.2,0c3.1-0.1,4.3,1.4,4.3,4.3
			c0,5.1,0,10.2,0,15.4c0,1.5,0.3,2.4,1.8,3.3c13.9,8.2,18.8,21.1,18.2,36.4c-0.4,10.1-4.1,19.2-11.8,26.6c1.8,0.7,3.7,0.8,4.7,2.6
			c1.1,2,0.1,3.3-1.3,4.6c-0.6,0.6,0.2,0.8,0.4,1.1C204.4,670.2,204.2,672,202.3,674.1z"/>
		<path fill="#030303" d="M71.9,789.3c-9.1,0-18.2,0-27.4,0c-1.1,0-2.8,0.7-2.6-1.5c0.1-1.7-0.9-4.3,1.8-4.6c2.2-0.3,2.2-1.2,2-2.8
			c-0.2-2,0-4-0.1-6c0-2,0.4-3.6,2.8-3.4c1.4,0.1,1.6-0.4,1.3-1.7c-0.2-0.9,0.5-2,1.3-2c3.8,0.1,3-2.8,3.3-4.9
			c1.4-13,2.8-26.1,4.3-39.1c0.4-3.4-0.4-4.5-3.9-4.3c-4.8,0.3-5.7-0.9-5.1-5.7c0.1-0.4,0-1,0.2-1.1c2.4-1.3,3.8-3.9,5.9-5.3
			c1.5-1,2.3-1.6,2.3-3.2c0-2.6,0.4-5-0.6-7.7c-2.8-7.3-4.9-14.9-7.4-22.3c-0.6-1.9-0.4-3.2,1.9-3.4c0.6,0,1.5,0.2,1.6-0.6
			c0.1-4.3,3.2-3.1,5.7-3.3c1.8-0.1,3,0.5,3,2.4c0,1.8,1.2,1.6,2.3,1.5c1.6-0.1,1.1-1.3,1.2-2.2c0.3-5.4,0.3-5.4,5.7-5.4
			c0.7,0,1.5,0.1,2.2,0c3.6-0.6,5.1,0.9,4.6,4.5c-0.2,1.5-0.5,3.5,2.2,3.1c0.8-0.1,1.5-0.2,1.5-1.2c-0.1-2.9,1.9-2.7,3.8-2.7
			c2,0.1,4.6-0.7,4.6,2.7c0,0.8,0.4,1.2,1.1,1.1c3.5-0.1,3.2,1.9,2.3,4.2c-2.8,7.7-4.9,15.7-7.9,23.3c-0.9,2.3-0.1,5.4,0.1,8.1
			c0,0.6,1,0.6,1.6,0.6c2.6,0.2,2.8,1.9,2.3,3.9c1.6,0.4,3.6-0.3,4.3,2.1c1.3,4.1-0.3,6.5-4.6,6.5c-5.2,0-5.2,0-4.6,5.3
			c1.4,13.3,2.9,26.5,4.3,39.8c0.2,1.6,0.2,3.1,2.4,2.8c0.2,0,0.5,0.1,0.7,0.1c2.8-0.2,0.2,4,3.5,4c3.2,0,2.4,3,2.3,4.9
			c-0.2,2.1,0.9,4.3-0.7,6.4c-0.6,0.8,1,1.3,1.9,1.2c3.1-0.4,2.6,1.7,2.7,3.6c0.3,2.9-1.8,2.1-3.2,2.1
			C89.8,789.3,80.8,789.3,71.9,789.3z"/>
		<path fill="#030303" d="M731.1,733.5c-9.5-11.9-9.4-22.9-0.2-31.9c7.7-7.5,20.3-7.7,29-0.4c9.3,7.8,9.6,19.4,0.5,32.3
			c2.8,0,5.4,0,7.9,0c2,0,3.6,0.7,3.4,3c-0.1,2-1.7,2.4-3.6,2.4c-7.6,0.1-7.6,0.1-5.9,7.5c0.9,4.3,1.8,8.5,2.7,12.8
			c0.4,1.9,1,3.1,3.4,2.9c2.1-0.3,3.8,0.7,3.4,3.2c-0.3,1.5,0.6,1.4,1.4,1.4c2.9,0.1,3.8,1.8,3.7,4.5c-0.1,1.7,0,3.5,0,5.2
			c0,2.2-1.4,4.7,3,5.1c2.9,0.3,1.5,4,1.5,6.2c0,2.2-2.1,1.1-3.2,1.1c-21.6,0.1-43.2,0.1-64.8,0c-1.1,0-3.4,1.2-3.2-1.6
			c0.2-2.4-1.4-5.8,2.6-6.3c2.3-0.3,2.1-1.1,1.9-2.8c-0.2-2.1,0-4.2-0.1-6.4c-0.1-2.9,0.2-5.3,4-5.2c0.1,0,0.2,0,0.4,0
			c-0.8-5.2,7-3.7,6.9-9.2c-0.1-5.1,1.9-10.2,3.2-15.3c0.6-2.6,0-3.6-2.8-3.2c-1.2,0.2-2.5,0-3.7,0c-1.7,0-3.1-0.7-3-2.6
			c0-1.7,1.3-2.6,3-2.7C725,733.5,727.8,733.5,731.1,733.5z"/>
		<path fill="#010101" d="M508.8,429.1c10.7-13.4,21.1-26.4,31.6-39.5c0.7-0.9,1.4-1.8,2.2-2.5c1.9-1.6,3.5-1.1,4,1.4
			c0.2,0.8,0.1,1.7,0.1,2.6c0,22.5-0.1,45,0.1,67.4c0,3.3-0.9,4.5-4.2,4.2c-3.6-0.3-7.3-0.3-10.9,0c-3.4,0.2-4.6-0.8-4.5-4.4
			c0.3-7.9,0.1-15.9,0.1-24.7c-5.7,6.6-10.8,12.4-15.8,18.4c-2,2.5-3.3,2.6-5.4,0c-4.8-6-10-11.7-15.6-18.2c0,8.8-0.1,16.7,0.1,24.6
			c0.1,3.2-0.8,4.5-4.2,4.3c-4-0.3-8-0.1-12,0c-2.3,0.1-3.4-0.6-3.4-3.2c0.1-23.2,0-46.5,0-69.7c0-1.4,0-3,1.5-3.6
			c1.9-0.8,2.9,0.9,3.9,2.1c10,12.5,19.9,25,29.8,37.5C507,426.9,507.8,427.8,508.8,429.1z"/>
		<path fill="#010101" d="M174.7,425.3c0,11.2-0.1,22.5,0,33.7c0,2.7-0.7,3.9-3.6,3.7c-4.2-0.2-8.5-0.2-12.7,0
			c-2.8,0.1-3.8-0.9-3.7-3.7c0.1-6.1-0.1-12.2,0.1-18.4c0.1-2.5-0.4-3.5-3.2-3.4c-6.6,0.2-13.2,0.2-19.9,0c-2.4-0.1-3.3,0.5-3.2,3.1
			c0.2,6.1-0.1,12.2,0.1,18.4c0.1,3.2-1.1,4.2-4.1,4c-4.2-0.2-8.5-0.1-12.7,0c-2.2,0.1-3.1-0.7-3.1-3c0.1-23,0.1-46,0-68.9
			c0-2.3,0.9-3.1,3.1-3.1c4.5,0.1,9,0.2,13.5,0c2.8-0.1,3.4,1.2,3.4,3.6c-0.1,8.6,0.1,17.2-0.1,25.8c0,2.5,0.5,3.5,3.3,3.4
			c6.6-0.2,13.2-0.2,19.9,0c2.5,0.1,3.2-0.6,3.2-3.1c-0.2-8.5,0.1-17-0.1-25.5c-0.1-3.2,0.9-4.5,4.3-4.3c4.1,0.3,8.2,0.2,12.4,0
			c2.7-0.1,3.5,1,3.4,3.5C174.7,402.6,174.7,413.9,174.7,425.3z"/>
		<path fill="#030303" d="M397.9,431.2c0,7,0,14.1,0,21.1c0,10.3,0,10.3-10.5,10.3c-9.7,0-9.7,0-9.7-9.6c0-20.4,0.1-40.7-0.1-61.1
			c0-3.5,1.1-4.6,4.5-4.4c4,0.3,8,0.2,12,0c2.8-0.1,3.8,0.9,3.7,3.7c-0.1,8.2,0,16.4,0,25.5c1.5-1.5,2.4-2.4,3.2-3.4
			c6.7-7.7,13.5-15.4,20.1-23.2c1.5-1.8,3.1-2.6,5.5-2.5c5.6,0.1,11.2,0,16.9,0.1c1.2,0,2.8-0.6,3.3,0.9c0.5,1.4-0.8,2.2-1.6,3.2
			c-8,9.4-16,18.9-24.2,28.1c-1.9,2.1-1.8,3.4-0.2,5.6c8,10.8,15.9,21.8,23.7,32.7c0.8,1.1,2.3,2.1,1.7,3.5
			c-0.7,1.6-2.4,0.8-3.7,0.9c-5.9,0.1-11.7-0.1-17.6,0.1c-2.9,0.1-4.6-1-6.2-3.3c-6-8.6-12.1-17.1-18.2-25.7c-0.7-1-1.4-1.9-2.1-2.8
			C398.4,431.1,398.1,431.2,397.9,431.2z"/>
		<path fill="#030303" d="M739.6,425c0-11,0.1-22-0.1-33c0-3.2,0.8-4.4,4.2-4.4c14.2,0.2,28.5,0.1,42.7,0c2.9,0,4.1,0.9,3.9,3.9
			c-0.2,3.2-0.2,6.5,0,9.7c0.1,2.6-0.9,3.6-3.5,3.5c-8.1-0.1-16.2,0-24.4-0.1c-2.2,0-3.1,0.4-2.9,2.8c0.2,3.6,0.2,7.2,0,10.9
			c-0.1,2,0.6,2.5,2.5,2.5c6.9-0.1,13.7,0,20.6-0.1c2.7,0,3.9,0.8,3.8,3.7c-0.1,3-0.1,6,0,9c0.1,2.6-1,3.6-3.6,3.5
			c-6.7-0.1-13.5,0.1-20.2-0.1c-2.3,0-3.6,0.4-3.1,3c0.1,0.6,0.1,1.3,0,1.9c-0.5,3,0.4,4.1,3.7,3.9c7.6-0.3,15.2,0,22.9-0.2
			c3.3-0.1,4.5,1.1,4.2,4.4c-0.2,3-0.2,6,0,9c0.2,3-1.1,3.8-3.9,3.8c-14.2-0.1-28.5-0.2-42.7,0c-3.5,0-4.2-1.3-4.2-4.4
			C739.7,447.2,739.6,436.1,739.6,425z"/>
		<path fill="#030303" d="M50.3,385.7c12,0.2,22.8,3.4,31.4,12.4c2.2,2.3,2.6,3.9-0.5,5.7c-3.4,2-6.8,4.2-10,6.6
			c-2.1,1.6-3.6,1.4-5.4-0.5c-4.5-4.9-10.3-6.4-16.6-6.1c-13.7,0.8-21.9,12.4-18.9,26.5c1.6,7.3,5.4,12.9,12.9,15.1
			c8,2.3,15.7,1.7,22-4.4c2.5-2.4,4.2-2.7,6.9-0.6c2.9,2.3,6.1,4.4,9.3,6.2c3,1.7,2.7,3.1,0.5,5.4c-8.3,8.9-18.9,12.4-30.6,12.5
			C36,464.8,23,460,14.9,446c-9.2-16-7.3-44.7,14.7-55.6C36.1,387.1,43,385.9,50.3,385.7z"/>
		<path fill="#030303" d="M318,385.7c13.4,0.3,24.4,3.5,33,12.7c2.1,2.3,2,3.6-0.6,5.2c-3.2,1.9-6.4,3.9-9.3,6.3
			c-2.7,2.1-4.4,1.9-6.9-0.5c-7.5-7.4-21-7.5-28.7-0.6c-8.2,7.3-8.8,23.4-1.2,31.7c7.3,8,21.9,8.4,30.1,0.4c2.4-2.3,4.1-2.4,6.6-0.5
			c3.2,2.4,6.6,4.5,9.9,6.7c2.1,1.3,2.3,2.5,0.6,4.4c-6,6.7-13.5,10.6-22.2,12.2c-11.5,2.1-22.7,1.1-32.9-4.9
			c-12.9-7.5-19.6-23.7-17-39.9C282.6,397.9,297.3,385.8,318,385.7z"/>
		<path fill="#030303" d="M203.9,425.2c0-11.1,0.1-22.2-0.1-33.3c0-3,0.6-4.2,3.9-4.2c14.4,0.2,28.7,0.1,43.1,0c2.8,0,3.8,1,3.6,3.7
			c-0.2,3.2-0.2,6.5,0,9.7c0.1,2.8-0.9,3.8-3.7,3.7c-8-0.1-16,0.1-24-0.1c-2.5,0-3.2,0.7-3.1,3.1c0.2,3.4,0.2,6.7,0,10.1
			c-0.1,2.3,0.5,3,2.9,2.9c6.7-0.2,13.5,0,20.2-0.1c2.7,0,3.9,0.8,3.7,3.7c-0.2,2.9-0.2,5.8,0,8.6c0.3,3.3-1.3,4-4.2,3.9
			c-6.4-0.1-12.7,0.1-19.1-0.1c-2.7-0.1-3.7,0.5-3.6,3.5c0.2,5.3,0,5.3,5.4,5.3c6.9,0,13.7,0.2,20.6-0.1c3.9-0.2,5.1,1.2,4.8,4.9
			c-0.3,3.1-0.1,6.2,0,9.4c0,2.1-0.8,2.9-2.9,2.8c-14.9-0.1-29.7-0.1-44.6,0c-2.6,0-3.1-1.2-3.1-3.4
			C204,447.9,203.9,436.6,203.9,425.2z"/>
		<path fill="#030303" d="M633.4,462.7c-1.1,0-2.3-0.1-3.4,0c-4.9,0.8-8.3-0.6-9.2-5.9c-0.3-1.6-1.3-2.1-3-2.1
			c-7.4,0.1-14.7,0.1-22.1,0c-2.2,0-2.9,1.2-3.2,2.8c-0.9,4.4-3.4,5.7-7.8,5.3c-3.8-0.4-7.7-0.1-11.6-0.1c-4,0-4.3-0.5-2.6-4.1
			c5.3-11.4,10.7-22.7,16.1-34.1c5.6-11.8,11.2-23.6,16.8-35.4c0.7-1.6,1.3-3.6,3.4-3.6c2.1,0,2.6,2.1,3.4,3.6
			c11,23.2,21.9,46.3,32.9,69.5c1.7,3.6,1.4,4-2.6,4.1C638.1,462.7,635.8,462.7,633.4,462.7z M606.8,421c-2.4,6.2-4.4,11.4-6.6,16.6
			c-0.7,1.6-0.5,2.3,1.4,2.2c3.5-0.1,7-0.1,10.5,0c1.7,0,1.9-0.5,1.3-2C611.3,432.5,609.2,427.2,606.8,421z"/>
		<path fill="#030303" d="M678.7,433.3c0-8.6-0.1-17.2,0-25.8c0-2.1-0.6-2.8-2.7-2.7c-3.7,0.2-7.5,0-11.2,0.1
			c-2.2,0-3.2-0.9-3.2-3.1c0-3.6,0-7.2,0-10.9c0-2.1,0.7-3.2,3.1-3.2c16.1,0.1,32.2,0,48.3,0c2.1,0,3,0.8,3,2.9c0,3.7,0,7.5,0,11.2
			c0,2.3-1.2,3-3.3,3c-3.6-0.1-7.3,0.2-10.9-0.1c-2.5-0.2-3.1,0.7-3.1,3.1c0.1,16.7-0.1,33.5,0.1,50.2c0,3.9-1.2,5.1-4.9,4.7
			c-3.6-0.3-7.3-0.3-10.9,0c-3.8,0.3-4.6-1.3-4.6-4.8C678.9,449.8,678.7,441.5,678.7,433.3z"/>
		<path fill="#030303" d="M253.4,561.8c-13-0.1-23-10-23-23c0-13.1,10.1-23.1,23.3-23c13,0.1,22.9,10,22.9,23
			C276.7,551.9,266.6,561.8,253.4,561.8z M270.9,538.7c0-10.1-7.4-17.6-17.4-17.6c-9.8,0-17.2,7.5-17.2,17.4
			c-0.1,10.1,7.4,17.8,17.3,17.8C263.4,556.4,270.9,548.8,270.9,538.7z"/>
		<path fill="#030303" d="M61.4,538.5c0-6.4,0-12.7,0-19.1c0-1.4-0.2-2.9,1.9-2.8c5.8,0.2,11.7-0.6,17.5,0.7
			c5.7,1.3,9.4,4.7,10.3,10.4c1,6.1,0.7,12.2-5,16.2c-2.1,1.5-2,2.4-0.9,4.3c1.6,2.8,3.1,5.7,4.4,8.6c0.5,1.2,2.4,3,0.8,3.7
			c-1.8,0.8-4.6,1.5-6.1-1.6c-1.5-3.3-3.4-6.4-4.8-9.7c-0.8-1.9-1.9-2.7-4-2.3c-2.8,0.5-6.7-1.2-8.2,0.8c-1.4,1.9-0.3,5.5-0.6,8.3
			c-0.2,1.8,1.7,4.8-2.5,4.9c-2.3,0-3-0.7-3-3C61.5,551.5,61.4,545,61.4,538.5z M66.9,531.8c0,11,0,11,10.5,9.7
			c5.5-0.7,8.6-3.9,8.8-9.4c0.2-5.6-2.8-9.3-8.4-10.1c-2.2-0.3-4.5,0-6.7-0.2c-3.1-0.4-4.7,0.4-4.1,3.9
			C67.2,527.8,66.9,529.8,66.9,531.8z"/>
		<path fill="#030303" d="M646.4,538.4c0-6.4,0.1-12.7,0-19.1c0-2.1,0.7-2.8,2.8-2.8c2.1,0,2.9,0.5,2.9,2.7c-0.1,6.5,0,13-0.1,19.5
			c0,2,0.4,2.8,2.6,2.8c5.5-0.2,11-0.2,16.5,0c2.3,0.1,2.6-0.8,2.6-2.8c-0.1-6.4,0-12.7-0.1-19.1c0-2.2,0.6-3.1,3-3.1
			c2.4,0,2.9,1,2.9,3.1c-0.1,12.7-0.1,25.5,0,38.2c0,2.2-0.6,3.1-3,3.1c-2.4,0-3-1.1-2.9-3.2c0.1-3,0-6,0.1-9
			c0.1-1.7-0.6-2.1-2.2-2.1c-5.7,0.1-11.5,0.1-17.2,0c-1.9,0-2.3,0.7-2.3,2.4c0.1,2.7,0,5.5,0,8.2c0,1.9,0.3,3.6-2.7,3.6
			c-2.9,0-2.9-1.4-2.9-3.5C646.4,551.2,646.4,544.8,646.4,538.4z"/>
		<path fill="#030303" d="M150.7,538.6c0-6.4,0.1-12.7,0-19.1c-0.1-2.3,0.7-3.1,3-2.9c5.3,0.3,10.7-0.5,16,0.7
			c8.2,1.8,11.6,6.9,11.1,16.3c-0.4,7.5-5.1,12.3-12.8,13.1c-3,0.3-6,0.4-9,0.3c-2.4-0.1-3,0.8-2.9,3c0.2,2.5,0,5,0.1,7.5
			c0,2,0.1,3.6-2.9,3.5c-3-0.1-2.7-1.8-2.7-3.7C150.7,551.1,150.7,544.9,150.7,538.6z M156.2,531.7c0,11,0,11,10.4,9.8
			c6.1-0.7,9.4-4.7,8.8-10.8c-0.6-6.9-4.9-9.2-16.5-8.9c-2.7,0.1-2.7,0.1-2.7,7.9C156.2,530.4,156.2,531.1,156.2,531.7z"/>
		<path fill="#030303" d="M8,539.2c0.2-9.7,4-16.9,12.5-21c8.4-4.1,16.7-3.4,24.3,2.1c1,0.7,3.7,1.3,1.9,3.5c-1.3,1.6-2.9,2.9-5.3,1
			c-4.3-3.4-9.4-4.4-14.8-3c-7.3,1.9-11.4,6.8-12.7,14.1c-1.2,7.1,1.8,14.3,7.7,17.8c6.3,3.8,12.8,3.7,19.1-0.2
			c1-0.6,1.9-2.1,3.2-1.8c1.4,0.3,2.8,1.3,3.4,2.7c0.5,1.4-1,1.9-1.8,2.5c-7.5,5.7-15.7,6.7-24.3,2.8C12.3,555.6,8.2,548.3,8,539.2z
			"/>
		<path fill="#030303" d="M615.5,561.8c-10.2,0-18.9-6.1-22-15.4c-3.2-10,0.2-20.8,8.5-26.6c7.8-5.5,19.5-5.4,27,0.4
			c1.1,0.8,3.9,1.4,2,3.8c-1.3,1.7-2.9,2.5-5.3,0.8c-7.7-5.5-17.6-4.4-23.3,2.2c-5.7,6.6-5.7,17.1,0,23.7c5.8,6.7,15.5,7.6,23.4,2.3
			c1.1-0.7,1.9-1.8,3.6-0.8c2.9,1.8,3,2.7,0.3,4.8C625.8,560.1,620.9,561.8,615.5,561.8z"/>
		<path fill="#030303" d="M746.4,561.8c-3.5,0.1-7.3-1.1-11.1-2.5c-2-0.8-2.7-1.7-1.7-3.9c0.9-2,1.9-2.2,3.7-1.2
			c3.6,2,7.4,2.8,11.5,2.3c2.8-0.3,5.1-1.4,6-4.2c0.9-2.8-0.3-5.2-2.4-7c-3.5-2.9-7.7-4.6-11.4-7.1c-3.9-2.5-7-5.6-7.3-10.6
			c-0.4-6.1,3.4-10.7,9.7-11.7c4.7-0.7,9.2,0.2,13.6,1.8c1.9,0.7,2.2,1.6,1.3,3.4c-0.7,1.5-1.1,2.7-3.2,1.7
			c-3.2-1.5-6.6-2.2-10.2-1.7c-2.2,0.3-4.1,1-5.1,3.2c-1,2.3-0.3,4.4,1.1,6.3c1.3,1.7,3.1,2.9,4.9,3.9c2.7,1.6,5.5,3,8.1,4.7
			c6,4,8.1,8.8,6.4,14.5C758.9,558.9,753.9,561.8,746.4,561.8z"/>
		<path fill="#030303" d="M787.5,561.8c-4.2,0.1-8.1-1.2-11.9-2.8c-2.1-0.8-1.8-1.9-1.1-3.5c0.7-1.6,1.3-2.6,3.3-1.5
			c3.8,2.1,7.9,3,12.3,2.5c2.6-0.4,4.8-1.4,5.7-4.2c0.9-2.7-0.1-4.9-2.1-6.7c-3.3-3.1-7.6-4.7-11.4-7.2c-3.3-2.2-6.2-4.6-7.3-8.6
			c-1.8-6.6,2.1-12.7,9-13.8c4.8-0.8,9.4,0.1,13.9,1.8c2,0.8,1.9,1.9,1.2,3.5c-0.7,1.6-1.3,2.5-3.3,1.5c-3.1-1.5-6.4-2.1-9.8-1.7
			c-2.2,0.3-4.3,0.9-5.2,3.1c-1,2.4-0.5,4.7,1.2,6.7c1.3,1.6,3,2.7,4.7,3.7c2.6,1.5,5.2,2.9,7.8,4.5c6.3,4,8.6,9,6.8,14.7
			C799.6,559.1,794.8,561.9,787.5,561.8z"/>
		<path fill="#030303" d="M696.4,538.5c0-6.4,0.1-12.7,0-19.1c0-2.1,0.6-2.8,2.8-2.8c6.1,0.1,12.2,0.1,18.4,0c1.9,0,2.7,0.6,2.7,2.5
			c0,2.1-0.7,2.9-2.8,2.8c-4.4-0.1-8.7,0-13.1-0.1c-1.8,0-2.3,0.6-2.3,2.3c0.1,5,0.1,10,0,15c-0.1,2.2,0.9,2.4,2.7,2.4
			c3.5-0.1,7,0.1,10.5-0.1c2.2-0.1,2.8,0.8,2.8,2.9c0,2.2-1,2.4-2.8,2.4c-3.5-0.1-7,0-10.5-0.1c-1.8-0.1-2.6,0.2-2.7,2.4
			c-0.2,6.6-0.3,6.6,6.3,6.6c3.1,0,6.2,0.1,9.4,0c2-0.1,2.6,0.7,2.6,2.6c0,1.8-0.3,2.8-2.5,2.7c-6.2-0.1-12.5-0.1-18.7,0
			c-2.4,0.1-2.6-1.2-2.6-3C696.4,551.5,696.4,545,696.4,538.5z"/>
		<path fill="#030303" d="M103.1,517c3.8-1.1,6.5-0.3,8.4,3.3c2.6,4.7,5.7,9.1,8.9,14c2.9-4.5,5.6-8.7,8.4-12.9
			c0.7-1.1,1.4-2.3,2.2-3.4c0.9-1.2,6-2.1,6.5-1.1c0.8,1.7-1,2.6-1.6,3.8c-0.6,1.2-1.4,2.4-2.3,3.4c-8.3,9.7-12.5,20.7-10.5,33.6
			c0.3,1.9,0.1,3.3-2.6,3.3c-2.8,0-3.2-1.3-2.9-3.4c2-12.8-2.1-23.6-10.3-33.3C105.6,522.2,103.8,519.9,103.1,517z"/>
		<path fill="#030303" d="M202.5,541.2c0-5.6-0.1-11.2,0-16.8c0-1.9-0.4-2.7-2.5-2.5c-2,0.2-4-0.1-6,0.1c-2.1,0.1-2.9-0.7-2.9-2.8
			c0-2,0.9-2.5,2.7-2.5c7.6,0.1,15.2,0.1,22.8,0c1.8,0,2.8,0.4,2.8,2.5c0,2.1-0.7,2.9-2.8,2.9c-2.7,0-6.3-1.2-7.9,0.5
			c-1.7,1.9-0.5,5.5-0.5,8.3c-0.1,9-0.1,18,0,27c0,2.3-0.5,3.4-3.1,3.3c-2.6,0-2.8-1.3-2.7-3.3C202.6,552.2,202.5,546.7,202.5,541.2
			z"/>
		<path fill="#010101" d="M535.1,5.5c0.1,0.1,0.3,0.1,0.4,0.2C535.4,5.6,535.2,5.6,535.1,5.5C535.1,5.5,535.1,5.5,535.1,5.5z"/>
		<path fill="#FDC620" d="M335.8,108.9c6.1-7.6,12.1-14.9,18-22.3c14.7-18.3,29.4-36.6,44-55c2-2.5,2.9-2.8,5-0.1
			c19.9,25,40,49.9,59.9,74.9c1.7,2.2,2.5,2.1,4.2,0c17.6-22.1,35.3-44.1,53-66.1c0.7-0.9,1.4-1.7,2.7-3.3
			c-0.9,8.5-1.7,16.1-2.6,23.6c-2.6,23.7-5.3,47.4-7.9,71.1c-1,8.9-2.1,17.9-2.9,26.8c-0.2,1.8-1,2.4-2.6,2.3c-0.7-0.1-1.5,0-2.2,0
			c-69.4,0-138.7,0-208.1,0.1c-3.7,0-4.8-1.1-5.1-4.6c-2.2-21-4.6-42-6.9-62.9c-1.9-17.2-3.9-34.5-5.8-51.7
			c-0.1-1.2-0.2-2.4-0.3-4.6C297.7,61.4,316.6,85,335.8,108.9z"/>
	</g>
</g>
</svg>
