<?xml version="1.0" encoding="utf-8"?>
<!-- Generator: Adobe Illustrator 17.1.0, SVG Export Plug-In . SVG Version: 6.00 Build 0)  -->
<!DOCTYPE svg PUBLIC "-//W3C//DTD SVG 1.1//EN" "http://www.w3.org/Graphics/SVG/1.1/DTD/svg11.dtd">
<svg version="1.1" id="Layer_1" xmlns="http://www.w3.org/2000/svg" xmlns:xlink="http://www.w3.org/1999/xlink" x="0px" y="0px"
	 viewBox="0 0 512 433.2" enable-background="new 0 0 512 433.2" xml:space="preserve">
<path fill="#FFFFFF" d="M504.1,11.9C497.8,4.2,488.5,0,477.7,0c-5.8,0-12,1.2-18.4,3.7L25.9,169.1c-23,8.8-26.1,21.9-25.9,29
	s4,20,27.5,27.5c0.1,0,0.3,0.1,0.4,0.1l89.9,25.7l48.6,139c6.6,19,21.5,30.7,38.8,30.7c10.9,0,21.7-4.6,31.1-13.2l55.6-51.2
	l80.7,64.9c0,0,0,0,0,0l0.8,0.6c0.1,0.1,0.1,0.1,0.2,0.2c9,7,18.8,10.6,28.3,10.6h0c18.7,0,33.5-13.8,37.9-35.2l71-350.6
	C513.7,33.3,511.3,20.7,504.1,11.9z M147.9,246.6L321.3,158l-108,114.8c-1.8,1.9-3,4.2-3.6,6.7l-20.8,84.4L147.9,246.6z M216,385.9
	c-0.7,0.7-1.4,1.3-2.2,1.8l19.3-78.3l35.1,28.3L216,385.9z M481.4,41.4l-71,350.6c-0.7,3.4-2.9,11.2-8.5,11.2
	c-2.8,0-6.3-1.5-9.8-4.3l-91.4-73.6c0,0,0,0,0,0l-54.4-43.8l156.2-165.9c5-5.3,5.5-13.4,1.1-19.3c-4.4-5.8-12.3-7.7-18.8-4.4
	L127.9,223.2l-91.1-26.1L470,31.7c3.7-1.4,6.2-1.7,7.7-1.7c0.9,0,2.6,0.1,3.2,0.9C481.7,31.8,482.7,35.1,481.4,41.4z"/>
</svg>
